<?xml version="1.0" standalone="no"?>
<!DOCTYPE svg PUBLIC "-//W3C//DTD SVG 1.1//EN" "http://www.w3.org/Graphics/SVG/1.1/DTD/svg11.dtd" >
<svg xmlns="http://www.w3.org/2000/svg" xmlns:xlink="http://www.w3.org/1999/xlink" version="1.1">
<metadata>
Created by FontForge 20170731 at Thu Jul 16 17:34:54 2020
 By Aleksey,,,
Copyright (c) 2014 by Rene' Bieder. All rights reserved.
</metadata>
<defs>
<font id="GalanoGrotesque-Italic" horiz-adv-x="1249" >
  <font-face 
    font-family="GalanoGrotesque-Italic"
    font-weight="400"
    font-style="italic"
    font-stretch="normal"
    units-per-em="2048"
    panose-1="0 0 5 0 0 0 0 0 0 0"
    ascent="1628"
    descent="-420"
    x-height="1010"
    cap-height="1372"
    bbox="-518 -412 2513 1915"
    underline-thickness="102"
    underline-position="-204"
    slope="-13"
    unicode-range="U+0020-FB02"
  />
<missing-glyph horiz-adv-x="1622" 
d="M811 1401q297 0 505 -205t208 -514q0 -305 -208 -509t-505 -204t-505 204t-208 509q0 309 208 514t505 205zM811 1325q-263 0 -446 -182q-185 -183 -185 -459q0 -273 185 -456t446 -183t446 183t185 456q0 276 -185 459q-183 182 -446 182zM1079 819q0 -92 -65 -153
q-66 -62 -168 -72v-88h-90v166h53q76 0 126 41t50 106q0 70 -46 113t-124 43q-81 0 -131 -50q-49 -49 -51 -130l-94 16q1 106 78 178t198 72q119 0 192 -67q72 -66 72 -175zM799 414q27 0 45 -18t18 -42q0 -29 -18 -47t-45 -18t-45 19q-19 21 -19 46q0 22 19 41t45 19z" />
    <glyph glyph-name="fi" unicode="fi" horiz-adv-x="1269" 
d="M1190 1010l-232 -1010h-157l203 879h-545l-203 -879h-156l203 879h-176l31 131h174l35 149q40 161 154 255q116 95 272 95q107 0 180 -49l-68 -125q-52 33 -131 33q-96 0 -161 -56q-67 -58 -89 -153l-35 -149h701zM1184 1419q46 0 76 -30t30 -74q0 -45 -30 -75t-76 -30
q-48 0 -78 30q-31 31 -31 75q0 43 31 74q30 30 78 30z" />
    <glyph glyph-name="fl" unicode="fl" horiz-adv-x="1245" 
d="M461 879l-203 -879h-158l203 879h-174l29 131h176l35 149q39 167 148 258q110 92 267 92q98 0 158 -36l-35 -125q-67 22 -131 22q-97 0 -163 -57t-89 -154l-35 -149h367l-29 -131h-366zM1290 1475l-342 -1475h-155l340 1475h157z" />
    <glyph glyph-name=".notdef" horiz-adv-x="1622" 
d="M811 1401q297 0 505 -205t208 -514q0 -305 -208 -509t-505 -204t-505 204t-208 509q0 309 208 514t505 205zM811 1325q-263 0 -446 -182q-185 -183 -185 -459q0 -273 185 -456t446 -183t446 183t185 456q0 276 -185 459q-183 182 -446 182zM1079 819q0 -92 -65 -153
q-66 -62 -168 -72v-88h-90v166h53q76 0 126 41t50 106q0 70 -46 113t-124 43q-81 0 -131 -50q-49 -49 -51 -130l-94 16q1 106 78 178t198 72q119 0 192 -67q72 -66 72 -175zM799 414q27 0 45 -18t18 -42q0 -29 -18 -47t-45 -18t-45 19q-19 21 -19 46q0 22 19 41t45 19z" />
    <glyph glyph-name=".null" horiz-adv-x="0" 
 />
    <glyph glyph-name="nonmarkingreturn" horiz-adv-x="681" 
 />
    <glyph glyph-name="space" unicode=" " horiz-adv-x="516" 
 />
    <glyph glyph-name="exclam" unicode="!" horiz-adv-x="557" 
d="M559 1372l-14 -63l-213 -901h-160l203 901l14 63h170zM184 201q45 0 76 -31t31 -74q0 -41 -31 -72q-30 -30 -76 -30q-45 0 -75 30q-31 31 -31 72q0 43 31 74t75 31z" />
    <glyph glyph-name="quotedbl" unicode="&#x22;" horiz-adv-x="692" 
d="M182 803l131 569h160l-131 -569h-160zM489 803l132 569h159l-131 -569h-160z" />
    <glyph glyph-name="numbersign" unicode="#" horiz-adv-x="1390" 
d="M1155 862l-184 -379h215l-66 -133h-213l-170 -350h-149l170 350h-375l-170 -350h-150l168 350h-217l66 133h217l182 379h-215l66 133h213l182 377h152l-183 -377h375l182 377h150l-182 -377h217l-68 -133h-213zM1004 862h-375l-183 -379h375z" />
    <glyph glyph-name="dollar" unicode="$" horiz-adv-x="1191" 
d="M713 760l75 -31q139 -52 204 -123q67 -73 67 -186q0 -168 -134 -273q-132 -104 -352 -104h-26l-55 -248h-138l62 264q-146 33 -236 126q-91 94 -98 239l160 31q6 -99 62 -164t151 -92l110 460l-8 3q-150 57 -221 119q-72 63 -72 182q0 162 126 264t327 108l55 242h137
l-59 -250q140 -23 228 -114q86 -89 102 -228l-152 -35q-8 95 -64 157t-149 85zM422 979q0 -59 39 -97q40 -39 139 -77l94 397q-119 -7 -196 -69q-76 -61 -76 -154zM573 180h19q147 0 231 63t84 167q0 62 -38 103q-37 41 -126 75l-65 26z" />
    <glyph glyph-name="percent" unicode="%" horiz-adv-x="1826" 
d="M614 1399q128 0 214 -80q85 -79 85 -211q0 -157 -113 -258q-114 -102 -263 -102q-131 0 -215 80q-86 81 -86 214q0 153 114 255t264 102zM201 0l1341 1372h117l-1342 -1372h-116zM606 1288q-97 0 -174 -67q-78 -67 -78 -172q0 -85 57 -138q58 -53 134 -53q95 0 172 69
q76 69 76 175q0 83 -54 135q-53 51 -133 51zM1374 627q129 0 215 -80t86 -211q0 -156 -114 -259q-115 -104 -263 -104q-130 0 -215 82q-86 83 -86 215q0 153 114 255t263 102zM1366 516q-95 0 -171 -67q-77 -68 -77 -173q0 -84 56 -137t133 -53q95 0 171 69t76 175
q0 84 -54 135t-134 51z" />
    <glyph glyph-name="ampersand" unicode="&#x26;" horiz-adv-x="1460" 
d="M1192 -41l-184 195q-207 -183 -482 -183q-193 0 -312 92q-118 91 -118 250q0 145 101 260q102 116 262 181q-64 110 -64 219q0 182 128 304t335 122q154 0 245 -72q90 -71 101 -203l-153 -26q-7 81 -64 125q-55 43 -145 43q-128 0 -210 -79q-83 -80 -83 -198
q0 -85 49 -165q48 -78 162 -191l260 -271q72 106 106 246l21 88h141l-20 -88q-46 -192 -156 -342l195 -200zM541 106q211 0 374 142l-292 307q-68 68 -95 102q-125 -50 -200 -137q-74 -86 -74 -186q0 -104 78 -166q79 -62 209 -62z" />
    <glyph glyph-name="quotesingle" unicode="'" horiz-adv-x="385" 
d="M182 803l131 569h160l-131 -569h-160z" />
    <glyph glyph-name="parenleft" unicode="(" horiz-adv-x="778" 
d="M711 1540l106 -110q-237 -183 -347 -356q-109 -172 -144 -388q-35 -215 12 -398q47 -184 197 -360l-127 -96q-330 354 -250 854q79 511 553 854z" />
    <glyph glyph-name="parenright" unicode=")" horiz-adv-x="778" 
d="M154 -168l-107 111q238 185 347 357q111 174 145 388q34 212 -13 397t-196 359l125 96q328 -354 252 -852q-79 -507 -553 -856z" />
    <glyph glyph-name="asterisk" unicode="*" horiz-adv-x="923" 
d="M700 1077l183 -217l-78 -65l-180 213l-93 -254l-108 39l92 254l-272 -48l-19 101l281 49l-184 217l79 68l179 -213l92 252l108 -39l-92 -252l275 47l18 -103z" />
    <glyph glyph-name="plus" unicode="+" horiz-adv-x="1189" 
d="M1057 555h-381l-88 -385h-142l89 385h-379l32 139h379l88 385h142l-88 -385h381z" />
    <glyph glyph-name="comma" unicode="," horiz-adv-x="430" 
d="M-6 -270h-129l262 538h190l-2 -4z" />
    <glyph glyph-name="hyphen" unicode="-" horiz-adv-x="909" 
d="M774 455h-661l30 137h662z" />
    <glyph glyph-name="period" unicode="." horiz-adv-x="423" 
d="M119 201q45 0 76 -31q30 -30 30 -74q0 -42 -30 -72t-76 -30t-76 30q-31 31 -31 72q0 43 31 74t76 31z" />
    <glyph glyph-name="slash" unicode="/" horiz-adv-x="753" 
d="M956 1475l-962 -1618h-156l963 1618h155z" />
    <glyph glyph-name="zero" unicode="0" horiz-adv-x="1361" 
d="M834 1399q258 0 388 -198q130 -197 70 -515q-61 -323 -244 -518t-436 -195q-257 0 -388 199q-130 197 -68 514q62 324 243 517q184 196 435 196zM618 125q183 0 321 155t189 406q50 253 -34 408q-83 155 -267 155q-182 0 -320 -154q-138 -155 -188 -409q-51 -249 33 -405
t266 -156z" />
    <glyph glyph-name="one" unicode="1" horiz-adv-x="729" 
d="M750 1372l-318 -1372h-158l269 1167l-408 -206l41 172l473 239h101z" />
    <glyph glyph-name="two" unicode="2" horiz-adv-x="1054" 
d="M274 147h660l-37 -147h-942l33 104l600 457q90 67 135 105q50 42 100 93q56 58 78 113q23 58 23 125q0 119 -74 190q-73 70 -201 70q-134 0 -223 -86t-107 -241l-151 31q22 198 159 318q136 120 335 120q187 0 302 -107q113 -106 113 -282q0 -155 -91 -273
q-92 -119 -306 -282z" />
    <glyph glyph-name="three" unicode="3" horiz-adv-x="1200" 
d="M1176 1051q0 -135 -79 -227q-79 -93 -212 -130q176 -83 176 -280q0 -185 -146 -313t-368 -128q-217 0 -344 124q-128 125 -117 323l147 33q-6 -151 77 -245q83 -93 239 -93q152 0 253 88t101 215q0 104 -73 163q-71 58 -197 58h-148l37 131h142q147 0 257 69
q109 69 109 195q0 104 -75 166q-76 62 -197 62q-135 0 -226 -80q-89 -78 -116 -230l-148 27q34 193 169 307q134 113 331 113q184 0 296 -95t112 -253z" />
    <glyph glyph-name="four" unicode="4" horiz-adv-x="1273" 
d="M1169 330h-215l-75 -330h-158l76 330h-766l35 155l921 887h207l-209 -909h213zM827 463l170 741l-764 -741h594z" />
    <glyph glyph-name="five" unicode="5" horiz-adv-x="1150" 
d="M479 1227l-123 -402h269q190 0 305 -95q114 -95 114 -269q0 -203 -146 -345q-148 -143 -382 -143q-222 0 -355 131t-128 345l151 28q-2 -167 88 -265q90 -99 252 -99t261 96q100 97 100 231q0 118 -79 182t-210 64h-432l207 686h825l-35 -145h-682z" />
    <glyph glyph-name="six" unicode="6" horiz-adv-x="1253" 
d="M719 887q185 0 300 -112q114 -111 114 -286q0 -216 -150 -366t-379 -150q-221 0 -347 144t-126 387q0 381 206 638t509 257q161 0 277 -80t134 -221l-151 -31q-12 89 -86 139q-73 49 -182 49q-216 0 -366 -174q-151 -175 -175 -411q65 99 177 158t245 59zM610 121
q154 0 257 104q104 106 104 254q0 119 -81 196q-82 77 -208 77q-147 0 -256 -109t-109 -240q0 -126 84 -204t209 -78z" />
    <glyph glyph-name="seven" unicode="7" horiz-adv-x="1034" 
d="M1196 1372l-25 -110l-829 -1262h-199l822 1227h-754l35 145h950z" />
    <glyph glyph-name="eight" unicode="8" horiz-adv-x="1198" 
d="M743 1399q207 0 328 -99t115 -258q-5 -131 -91 -229t-257 -125q116 -43 175 -126q58 -82 58 -185q0 -177 -146 -290q-147 -114 -378 -114q-225 0 -359 105q-133 105 -127 274q5 132 110 234t292 129q-209 83 -209 303q0 170 135 275q136 106 354 106zM705 782
q143 0 232 72t89 182q0 106 -80 168t-209 62q-135 0 -228 -67q-90 -65 -95 -179q-6 -106 73 -172q80 -66 218 -66zM549 113q152 0 249 73t97 199q0 109 -81 175q-82 67 -222 67q-154 0 -253 -75t-99 -196q0 -112 86 -178q84 -65 223 -65z" />
    <glyph glyph-name="nine" unicode="9" horiz-adv-x="1261" 
d="M731 1399q221 0 347 -143q126 -142 126 -388q0 -382 -207 -638q-207 -257 -510 -257q-161 0 -276 80t-133 223l151 29q12 -89 86 -139q73 -49 183 -49q212 0 362 174t174 409q-61 -96 -175 -156q-112 -59 -245 -59q-184 0 -299 112q-114 111 -114 288q0 217 150 365
q151 149 380 149zM651 621q148 0 257 109q110 110 110 241q0 125 -84 204q-82 78 -209 78q-157 0 -258 -104q-102 -105 -102 -254q0 -122 80 -198t206 -76z" />
    <glyph glyph-name="colon" unicode=":" horiz-adv-x="423" 
d="M291 946q45 0 76 -31q30 -30 30 -73t-30 -73t-76 -30t-76 30q-31 31 -31 73t31 73t76 31zM119 201q45 0 76 -31q30 -30 30 -74q0 -42 -30 -72t-76 -30t-76 30q-31 31 -31 72q0 43 31 74t76 31z" />
    <glyph glyph-name="semicolon" unicode=";" horiz-adv-x="473" 
d="M328 946q44 0 75 -31t31 -73t-31 -73q-30 -30 -75 -30q-46 0 -76 30q-31 31 -31 73t31 73t76 31zM-6 -270h-129l262 538h190l-2 -4z" />
    <glyph glyph-name="less" unicode="&#x3c;" horiz-adv-x="897" 
d="M285 641l508 -238l-39 -157l-676 327l37 156l825 326l-37 -174z" />
    <glyph glyph-name="equal" unicode="=" horiz-adv-x="1189" 
d="M1110 776h-901l31 139h901zM1020 389h-901l33 139h901z" />
    <glyph glyph-name="greater" unicode="&#x3e;" horiz-adv-x="897" 
d="M680 659l-506 238l39 158l674 -328l-35 -156l-827 -325l38 172z" />
    <glyph glyph-name="question" unicode="?" horiz-adv-x="1060" 
d="M1104 1024q0 -194 -153 -317q-154 -124 -363 -136l-37 -157h-148l68 282h90q142 0 266 87q125 87 125 227q0 113 -76 180t-200 67q-139 0 -237 -89t-120 -232l-147 29q22 188 165 311q142 123 347 123q185 0 303 -104q117 -103 117 -271zM412 201q44 0 75 -31t31 -74
q0 -41 -31 -72q-30 -30 -75 -30q-46 0 -76 30q-31 31 -31 72q0 43 31 74t76 31z" />
    <glyph glyph-name="at" unicode="@" horiz-adv-x="1970" 
d="M1151 1399q317 0 519 -187t202 -479q0 -97 -27 -199t-78 -192t-138 -147q-89 -58 -195 -58q-96 0 -152 44q-55 43 -57 118q-137 -154 -346 -154q-152 0 -248 96q-94 94 -94 255q0 210 147 351q146 140 340 140q112 0 191 -55t112 -154l45 193h109l-140 -604
q-15 -60 22 -98q36 -38 101 -38q134 0 216 156q83 157 83 332q0 261 -174 421q-173 160 -452 160q-359 0 -624 -244t-265 -593q0 -270 170 -445q170 -174 436 -174q122 0 265 38q136 36 251 106l39 -88q-115 -74 -270 -116q-156 -42 -297 -42q-307 0 -505 198t-198 506
q0 195 83 375q82 177 221 304t324 200q187 74 384 74zM911 252q140 0 247 104q108 105 108 262q0 120 -69 189q-70 70 -177 70q-139 0 -248 -103q-108 -102 -108 -260q0 -118 69 -190t178 -72z" />
    <glyph glyph-name="A" unicode="A" horiz-adv-x="1429" 
d="M1292 0h-164l-71 348h-725l-234 -348h-184l932 1372h149zM1026 494l-141 677l-455 -677h596z" />
    <glyph glyph-name="B" unicode="B" horiz-adv-x="1374" 
d="M1053 705l-2 -7q93 -15 150 -82q56 -66 56 -176q0 -186 -147 -313q-146 -127 -383 -127h-651l284 1233l33 139h600q164 0 260 -81q97 -82 97 -218q0 -138 -93 -243q-90 -102 -204 -125zM524 1233l-110 -475h452q134 0 227 84t93 200q0 91 -62 141t-163 50h-437zM270 139
h480q152 0 247 85q97 86 97 210q0 90 -60 141q-61 52 -164 52h-487z" />
    <glyph glyph-name="C" unicode="C" horiz-adv-x="1609" 
d="M979 1399q233 0 393 -119q161 -120 195 -315l-164 -35q-33 146 -143 232q-111 87 -285 87q-265 0 -461 -189q-197 -189 -197 -454q0 -208 129 -345q129 -136 345 -136q174 0 316 88q143 89 214 227l147 -49q-89 -189 -268 -303q-182 -115 -416 -115q-284 0 -458 175
q-174 176 -174 448q0 330 242 566q243 237 585 237z" />
    <glyph glyph-name="D" unicode="D" horiz-adv-x="1517" 
d="M381 1372h453q299 0 461 -155q163 -156 163 -408q0 -334 -261 -571q-262 -238 -665 -238h-469zM260 147h256q333 0 554 194q220 193 220 464q0 193 -121 307q-123 115 -352 115h-307z" />
    <glyph glyph-name="E" unicode="E" horiz-adv-x="1306" 
d="M510 1227l-109 -465h779l-33 -146h-778l-109 -469h840l-33 -147h-1004l318 1372h999l-32 -145h-838z" />
    <glyph glyph-name="F" unicode="F" horiz-adv-x="1208" 
d="M510 1227l-113 -479h752l-33 -146h-751l-140 -602h-162l318 1372h983l-35 -145h-819z" />
    <glyph glyph-name="G" unicode="G" horiz-adv-x="1632" 
d="M821 754h750q-6 -59 -8 -70q-55 -315 -273 -513t-522 -198q-274 0 -445 174t-171 447q0 330 247 567q249 238 586 238q221 0 381 -107q161 -108 201 -291l-160 -36q-44 139 -157 210q-114 72 -273 72q-268 0 -463 -188q-197 -189 -197 -451q0 -211 130 -347t337 -136
q214 0 378 137q163 136 214 344h-588z" />
    <glyph glyph-name="H" unicode="H" horiz-adv-x="1507" 
d="M1528 1372l-316 -1372h-161l141 618h-823l-144 -618h-162l318 1372h162l-142 -608h826l139 608h162z" />
    <glyph glyph-name="I" unicode="I" horiz-adv-x="522" 
d="M225 0h-162l318 1372h162z" />
    <glyph glyph-name="J" unicode="J" horiz-adv-x="1216" 
d="M1274 1372l-203 -872q-57 -244 -216 -385q-160 -142 -378 -142q-205 0 -327 121t-121 322l153 35q-4 -150 75 -240t222 -90q157 0 273 104t157 275l203 872h162z" />
    <glyph glyph-name="K" unicode="K" horiz-adv-x="1380" 
d="M578 680l655 -680h-203l-579 608h-95l-141 -608h-162l318 1372h161l-143 -618h60l833 618h221z" />
    <glyph glyph-name="L" unicode="L" horiz-adv-x="1185" 
d="M1047 147l-33 -147h-951l318 1372h162l-283 -1225h787z" />
    <glyph glyph-name="M" unicode="M" horiz-adv-x="1839" 
d="M1860 1372l-316 -1372h-158l232 1006l-752 -1006h-125l-286 1008l-234 -1008h-158l318 1372h129l330 -1161l866 1161h154z" />
    <glyph glyph-name="N" unicode="N" horiz-adv-x="1558" 
d="M1577 1372l-317 -1372h-138l-637 1108l-258 -1108h-161l317 1372h139l635 -1118l258 1118h162z" />
    <glyph glyph-name="O" unicode="O" horiz-adv-x="1646" 
d="M963 1401q303 0 479 -209t131 -506q-45 -311 -273 -512t-530 -201q-304 -2 -479 205q-176 208 -133 508q47 299 280 507t525 208zM776 125q235 0 417 161q180 160 218 400q34 235 -97 398q-132 163 -356 163q-237 0 -420 -162q-185 -164 -219 -399q-34 -236 100 -399
q133 -162 357 -162z" />
    <glyph glyph-name="P" unicode="P" horiz-adv-x="1341" 
d="M379 1372h571q192 0 305 -99t113 -265q0 -212 -163 -350t-417 -138h-444l-119 -520h-162zM379 666h418q180 0 293 97q114 97 114 238q0 105 -67 165q-69 61 -197 61h-432z" />
    <glyph glyph-name="Q" unicode="Q" horiz-adv-x="1646" 
d="M1573 686q-52 -361 -338 -563l283 -336l-125 -113l-310 363q-152 -64 -313 -64q-304 -2 -479 205q-176 208 -133 508q47 299 280 507t525 208q303 0 479 -209t131 -506zM319 686q-34 -236 100 -399q133 -162 357 -162q235 0 417 161q180 160 218 400q34 235 -97 398
q-132 163 -356 163q-237 0 -420 -162q-185 -164 -219 -399z" />
    <glyph glyph-name="R" unicode="R" horiz-adv-x="1384" 
d="M1391 1042q0 -192 -141 -317q-142 -125 -371 -137l346 -588h-185l-335 588h-334l-135 -588h-162l315 1372h615q175 0 281 -89t106 -241zM406 735h442q172 0 275 81q104 81 104 212q0 93 -64 146t-168 53h-477z" />
    <glyph glyph-name="S" unicode="S" horiz-adv-x="1277" 
d="M791 1399q213 0 342 -105q128 -104 143 -282l-162 -37q-6 129 -98 207t-240 78q-147 0 -245 -74q-97 -73 -97 -187q0 -64 41 -107q40 -42 131 -75l238 -86q148 -51 219 -130q72 -79 72 -200q0 -191 -149 -310q-148 -118 -388 -118q-227 0 -378 112q-152 112 -159 308
l170 35q5 -147 107 -230q103 -83 274 -83q167 0 265 73t98 195q0 71 -43 117q-46 49 -141 82l-242 86q-140 51 -211 119q-72 69 -72 192q0 183 148 302q146 118 377 118z" />
    <glyph glyph-name="T" unicode="T" horiz-adv-x="1284" 
d="M1401 1227h-508l-285 -1227h-164l285 1227h-510l33 145h1182z" />
    <glyph glyph-name="U" unicode="U" horiz-adv-x="1476" 
d="M1513 1372l-178 -772q-66 -289 -245 -458t-449 -169q-249 0 -384 177q-134 176 -71 450l179 772h161l-178 -772q-49 -212 37 -342q85 -129 274 -129q186 0 326 129q139 129 189 342l178 772h161z" />
    <glyph glyph-name="V" unicode="V" horiz-adv-x="1425" 
d="M1579 1372l-911 -1372h-154l-276 1372h163l228 -1151l762 1151h188z" />
    <glyph glyph-name="W" unicode="W" horiz-adv-x="1961" 
d="M2118 1372l-740 -1372h-172l-90 1114l-604 -1114h-170l-104 1372h159l82 -1124l611 1124h159l92 -1124l603 1124h174z" />
    <glyph glyph-name="X" unicode="X" horiz-adv-x="1296" 
d="M776 686l348 -686h-186l-281 565l-540 -565h-213l661 690l-336 682h185l276 -561l535 561h211l-654 -682z" />
    <glyph glyph-name="Y" unicode="Y" horiz-adv-x="1378" 
d="M758 479l-109 -479h-162l109 479l-358 893h168l299 -731l636 731h197z" />
    <glyph glyph-name="Z" unicode="Z" horiz-adv-x="1282" 
d="M1343 1255l-1075 -1116h824l-31 -139h-1057l25 102l1095 1131h-811l31 139h1026z" />
    <glyph glyph-name="bracketleft" unicode="[" horiz-adv-x="800" 
d="M535 1380l-328 -1413h358l-33 -135h-507l389 1686h508l-31 -138h-356z" />
    <glyph glyph-name="backslash" unicode="\" horiz-adv-x="753" 
d="M547 -147h-133l-205 1665h133z" />
    <glyph glyph-name="bracketright" unicode="]" horiz-adv-x="802" 
d="M856 1518l-389 -1686h-510l33 135h356l328 1413h-359l33 138h508z" />
    <glyph glyph-name="asciicircum" unicode="^" horiz-adv-x="806" 
d="M303 934h-151l397 438h110l197 -438h-135l-139 303z" />
    <glyph glyph-name="underscore" unicode="_" horiz-adv-x="1036" 
d="M821 -248h-952l29 133h954z" />
    <glyph glyph-name="grave" unicode="`" horiz-adv-x="1228" 
d="M545 1448l229 -287h-145l-281 287h197z" />
    <glyph glyph-name="a" unicode="a" horiz-adv-x="1333" 
d="M1270 1010l-234 -1010h-157l34 147q-163 -174 -405 -174q-207 0 -332 151t-88 384q38 236 204 381t384 145q144 0 244 -63q99 -62 143 -178l49 217h158zM553 113q152 0 281 110q130 111 159 285q29 173 -67 280q-97 109 -246 109q-165 0 -288 -107q-123 -106 -150 -282
q-29 -179 61 -287t250 -108z" />
    <glyph glyph-name="b" unicode="b" horiz-adv-x="1325" 
d="M825 1034q208 0 332 -149q125 -151 88 -383q-37 -235 -204 -382t-384 -147q-144 0 -245 65q-102 65 -142 181l-51 -219h-156l340 1475h158l-143 -615q164 174 407 174zM653 113q165 0 288 107q124 107 151 282q28 178 -62 286q-91 109 -250 109q-150 0 -280 -111
q-132 -112 -160 -284t68 -281q96 -108 245 -108z" />
    <glyph glyph-name="c" unicode="c" horiz-adv-x="1175" 
d="M547 119q117 0 213 60t147 167l148 -29q-65 -154 -208 -249t-310 -95q-227 0 -360 150q-134 151 -97 381q37 234 214 382q176 148 394 148q171 0 289 -91t139 -245l-160 -32q-12 103 -92 164q-81 61 -194 61q-159 0 -285 -109q-125 -108 -152 -278q-27 -169 65 -278
q91 -107 249 -107z" />
    <glyph glyph-name="d" unicode="d" horiz-adv-x="1325" 
d="M1368 1475l-340 -1475h-156l35 150q-165 -177 -407 -177q-207 0 -332 151t-88 384q38 236 204 381t384 145q144 0 245 -63q102 -64 142 -180l157 684h156zM545 113q151 0 280 110q132 112 160 285q29 173 -67 280q-97 109 -246 109q-165 0 -288 -107q-124 -107 -151 -282
q-28 -178 62 -287q90 -108 250 -108z" />
    <glyph glyph-name="e" unicode="e" horiz-adv-x="1198" 
d="M231 473l-2 -35q0 -149 86 -238t242 -89q237 0 361 223l139 -39q-74 -154 -211 -238q-136 -84 -301 -84q-204 0 -332 125q-127 124 -127 336q0 256 181 428t415 172q221 0 342 -155t82 -406h-875zM672 903q-153 0 -263 -89t-155 -224h719q0 147 -80 230t-221 83z" />
    <glyph glyph-name="f" unicode="f" horiz-adv-x="731" 
d="M776 1370q-97 0 -163 -57t-89 -154l-35 -149h367l-29 -131h-366l-203 -879h-158l203 879h-174l29 131h176l35 149q39 167 148 258q110 92 267 92q98 0 158 -36l-35 -125q-67 22 -131 22z" />
    <glyph glyph-name="g" unicode="g" horiz-adv-x="1314" 
d="M1251 1010l-215 -928q-49 -217 -212 -344t-384 -127q-358 0 -475 301l150 55q83 -215 334 -215q155 0 279 96q123 95 161 254l29 123q-162 -168 -408 -168q-207 0 -329 140t-85 362q38 209 204 342t374 133q290 0 381 -219l45 195h151zM553 190q149 0 277 98
q129 98 157 255q27 160 -66 259t-243 99q-161 0 -283 -95q-120 -93 -147 -253q-29 -163 59 -262q89 -101 246 -101z" />
    <glyph glyph-name="h" unicode="h" horiz-adv-x="1282" 
d="M803 1034q201 0 291 -130q90 -131 45 -329l-133 -575h-156l133 582q33 143 -31 229q-63 86 -196 86q-157 0 -268 -109q-109 -107 -154 -303l-113 -485h-158l343 1475h155l-147 -637q147 196 389 196z" />
    <glyph glyph-name="i" unicode="i" horiz-adv-x="555" 
d="M465 1419q46 0 76 -30t30 -74q0 -45 -30 -75t-76 -30q-48 0 -78 30q-31 31 -31 75q0 43 31 74q30 30 78 30zM240 0h-158l233 1010h156z" />
    <glyph glyph-name="j" unicode="j" horiz-adv-x="583" 
d="M494 1419q45 0 75 -30q31 -31 31 -74q0 -44 -31 -75q-30 -30 -75 -30q-48 0 -78 30q-31 31 -31 75q0 43 31 74q30 30 78 30zM506 1010l-264 -1145q-27 -115 -114 -184q-88 -70 -202 -70q-88 0 -155 35l63 135q46 -23 90 -23q63 0 107 34q45 35 57 91l262 1127h156z" />
    <glyph glyph-name="k" unicode="k" horiz-adv-x="1214" 
d="M553 520l534 -520h-194l-453 446h-106l-105 -446h-155l340 1475h157l-202 -875h69l578 410h217z" />
    <glyph glyph-name="l" unicode="l" horiz-adv-x="516" 
d="M219 0h-156l340 1475h158z" />
    <glyph glyph-name="m" unicode="m" horiz-adv-x="1935" 
d="M1511 1034q166 0 257 -106q92 -107 53 -275l-152 -653h-156l146 627q27 114 -33 189t-166 75q-137 0 -237 -89q-99 -89 -146 -253l-125 -549h-157l145 627q27 114 -33 189t-166 75q-276 0 -376 -334l-127 -557h-158l233 1010h156l-35 -152q134 176 359 176q122 0 207 -58
t108 -161q146 219 403 219z" />
    <glyph glyph-name="n" unicode="n" horiz-adv-x="1288" 
d="M811 1034q199 0 290 -130t46 -329l-133 -575h-156l133 582q33 144 -30 229q-63 86 -197 86q-156 0 -268 -109q-111 -108 -156 -303l-113 -485h-155l233 1010h156l-41 -176q149 200 391 200z" />
    <glyph glyph-name="o" unicode="o" horiz-adv-x="1245" 
d="M692 1032q228 0 364 -150t103 -380q-35 -230 -207 -378q-173 -149 -395 -149q-231 0 -368 149q-136 148 -101 378q33 231 206 381q171 149 398 149zM563 113q161 0 288 109q128 110 155 280q24 172 -70 282q-94 111 -252 111q-162 0 -290 -111q-127 -111 -154 -282
q-24 -172 69 -280q94 -109 254 -109z" />
    <glyph glyph-name="p" unicode="p" horiz-adv-x="1333" 
d="M825 1034q209 0 333 -149q124 -150 87 -383q-37 -235 -204 -382t-382 -147q-143 0 -246 65t-143 181l-131 -567h-157l315 1358h158l-35 -150q162 174 405 174zM655 113q163 0 286 107q125 108 153 282q28 178 -62 286q-91 109 -250 109q-152 0 -282 -111
q-132 -112 -160 -284q-27 -171 69 -281q95 -108 246 -108z" />
    <glyph glyph-name="q" unicode="q" horiz-adv-x="1331" 
d="M1268 1010l-314 -1358h-155l114 495q-163 -174 -405 -174q-208 0 -333 151q-125 150 -87 384q38 237 203 381q166 145 383 145q146 0 246 -63t141 -178l51 217h156zM551 113q154 0 283 110q130 111 159 285q27 172 -68 280q-95 109 -247 109q-163 0 -286 -107t-152 -282
q-29 -179 61 -287t250 -108z" />
    <glyph glyph-name="r" unicode="r" horiz-adv-x="823" 
d="M844 1020q41 0 65 -8l-41 -150q-22 2 -57 2q-178 0 -307 -120q-130 -121 -185 -316l-98 -428h-158l234 1010h156l-50 -217q196 227 441 227z" />
    <glyph glyph-name="s" unicode="s" horiz-adv-x="1036" 
d="M33 262l153 45q16 -95 100 -151q83 -56 195 -56q115 0 188 50q72 50 72 129q0 55 -38 85q-36 29 -115 56l-176 59q-110 38 -165 93q-57 57 -57 149q0 139 111 226t291 87q161 0 272 -75t133 -195l-135 -43q-12 83 -86 136q-73 52 -184 52q-114 0 -180 -48t-66 -126
q0 -52 37 -80t115 -55l131 -45q131 -44 196 -102q68 -60 68 -164q0 -145 -119 -231q-118 -85 -305 -85q-164 0 -286 77q-121 76 -150 212z" />
    <glyph glyph-name="t" unicode="t" horiz-adv-x="790" 
d="M446 879l-127 -557q-22 -97 9 -150q30 -51 110 -51q94 0 197 65l16 -137q-113 -76 -243 -76q-148 0 -217 88q-68 88 -31 254l131 564h-203l29 131h205l73 321h156l-74 -321h363l-31 -131h-363z" />
    <glyph glyph-name="u" unicode="u" horiz-adv-x="1288" 
d="M1219 1010l-234 -1008h-158l39 170q-147 -197 -387 -197q-201 0 -292 130t-46 329l133 576h158l-135 -582q-33 -142 31 -228q63 -85 198 -85q160 0 268 107q109 108 154 302l113 486h158z" />
    <glyph glyph-name="v" unicode="v" horiz-adv-x="1146" 
d="M1219 1010l-684 -1010h-168l-213 1010h161l170 -826l557 826h177z" />
    <glyph glyph-name="w" unicode="w" horiz-adv-x="1595" 
d="M1667 1010l-577 -1014h-150l-88 766l-444 -766h-146l-108 1014h151l82 -783l455 783h125l90 -785l446 785h164z" />
    <glyph glyph-name="x" unicode="x" horiz-adv-x="1200" 
d="M698 496l289 -496h-180l-219 393l-404 -393h-213l525 500l-277 510h178l209 -404l404 404h215l-525 -512z" />
    <glyph glyph-name="y" unicode="y" horiz-adv-x="1153" 
d="M1225 1010l-922 -1358h-182l252 366l-219 992h165l177 -811l555 811h174z" />
    <glyph glyph-name="z" unicode="z" horiz-adv-x="1038" 
d="M1026 901l-813 -770h657l-30 -131h-875l25 106l813 773h-615l31 131h832z" />
    <glyph glyph-name="braceleft" unicode="{" horiz-adv-x="882" 
d="M1001 1518l-30 -136h-170q-61 0 -105 -37q-43 -36 -59 -100l-80 -344q-41 -176 -197 -229q62 -29 86 -88q24 -61 7 -135l-78 -345q-15 -62 13 -101q27 -38 87 -38h170l-33 -133h-186q-121 0 -178 71q-58 71 -31 187l80 342q33 148 -135 172l-43 10l28 121l48 10
q180 21 213 173l79 342q28 115 118 187q89 71 210 71h186z" />
    <glyph glyph-name="bar" unicode="|" horiz-adv-x="512" 
d="M182 -147h-151l383 1665h153z" />
    <glyph glyph-name="braceright" unicode="}" horiz-adv-x="901" 
d="M844 735l-29 -121l-49 -10q-179 -21 -213 -172l-80 -342q-27 -116 -116 -187t-210 -71h-188l31 133h170q59 0 104 39t60 100l79 345q41 176 197 229q-60 29 -84 88q-24 60 -8 135l80 344q15 60 -14 100q-27 37 -87 37h-170l31 136h189q119 0 176 -71q57 -70 30 -187
l-77 -342q-35 -149 133 -173z" />
    <glyph glyph-name="asciitilde" unicode="~" horiz-adv-x="974" 
d="M217 487h-129q30 133 112 198t173 65q67 0 117 -33q55 -37 91 -66q41 -33 85 -33q53 0 91 35t50 95h137q-30 -133 -117 -200t-178 -67q-69 0 -118 33q-52 35 -89 66q-38 32 -82 32q-56 0 -94 -34t-49 -91z" />
    <glyph glyph-name="exclamdown" unicode="&#xa1;" horiz-adv-x="557" 
d="M377 827q-46 0 -76 30q-31 31 -31 73q0 46 30 74q29 28 77 28t77 -28t29 -74q0 -43 -30 -73t-76 -30zM2 -346l14 63l215 901h160l-205 -901l-14 -63h-170z" />
    <glyph glyph-name="cent" unicode="&#xa2;" horiz-adv-x="1185" 
d="M743 885l-178 -766q114 5 206 64t142 163l148 -29q-65 -154 -208 -249t-310 -95h-4l-56 -239h-135l60 256q-171 44 -262 181q-90 136 -60 333q37 218 198 365q160 147 365 163l60 258h135l-62 -262q140 -23 230 -110q92 -89 110 -220l-159 -32q-10 88 -70 145
q-61 58 -150 74zM240 504q-23 -138 34 -236t170 -133l172 752q-141 -18 -246 -123q-106 -106 -130 -260z" />
    <glyph glyph-name="sterling" unicode="&#xa3;" horiz-adv-x="1316" 
d="M942 1399q205 0 307 -125q103 -126 64 -328l-150 -20q28 149 -33 239q-62 90 -196 90q-144 0 -248 -88q-105 -89 -135 -223l-55 -242h477l-33 -145h-477l-94 -410h768l-35 -147h-1106l24 100l183 35l98 422h-174l33 145h174l55 242q46 204 198 330q151 125 355 125z" />
    <glyph glyph-name="yen" unicode="&#xa5;" horiz-adv-x="1361" 
d="M860 641h328l-27 -123h-397l-35 -153h395l-28 -123h-396l-55 -242h-162l56 242h-392l29 123h391l35 153h-389l27 123h323l-301 731h168l277 -692l596 692h198z" />
    <glyph glyph-name="section" unicode="&#xa7;" horiz-adv-x="1122" 
d="M1092 1051l-154 -21q17 108 -39 173t-172 65q-115 0 -187 -60q-73 -61 -73 -149q0 -91 108 -146l277 -133q195 -90 195 -252q0 -222 -246 -329q35 -61 35 -133q0 -156 -119 -255q-120 -100 -309 -100q-186 0 -286 92t-85 254l149 29q-15 -115 45 -181q61 -67 185 -67
q113 0 186 61q72 60 72 150t-109 146l-276 133q-193 92 -193 264q0 109 71 189q69 78 179 122q-39 60 -39 137q0 155 124 257q125 102 312 102q183 0 274 -96t75 -252zM760 666l-281 131q-17 7 -39 22q-81 -28 -136 -83q-54 -54 -54 -128q0 -91 135 -157l277 -138
q28 -14 43 -24q186 79 186 219q0 96 -131 158z" />
    <glyph glyph-name="dieresis" unicode="&#xa8;" horiz-adv-x="1228" 
d="M526 1391q44 0 77 -31q32 -30 32 -74t-31 -75q-29 -29 -78 -29q-46 0 -75 29q-31 31 -31 75q0 43 31 74t75 31zM932 1391q44 0 77 -31q31 -30 31 -74q0 -45 -30 -75q-29 -29 -78 -29q-47 0 -76 29q-31 31 -31 75q0 43 31 74t76 31z" />
    <glyph glyph-name="copyright" unicode="&#xa9;" horiz-adv-x="1587" 
d="M842 1399q297 0 504 -204q206 -203 206 -513q0 -307 -206 -507q-208 -202 -504 -202t-504 202q-207 201 -207 507q0 309 207 513t504 204zM842 1321q-262 0 -444 -181q-183 -182 -183 -456q0 -271 183 -451t444 -180q260 0 443 180t183 451q0 274 -183 456
q-182 181 -443 181zM854 1071q143 0 244 -77t119 -195l-109 -23q-21 84 -92 136q-73 53 -162 53q-114 0 -192 -79q-78 -80 -78 -200q0 -122 78 -202q77 -78 192 -78q91 0 164 53q72 53 90 141l109 -20q-21 -125 -120 -203t-243 -78q-160 0 -274 109q-113 108 -113 278
t113 278q111 107 274 107z" />
    <glyph glyph-name="ordfeminine" unicode="&#xaa;" horiz-adv-x="794" 
d="M600 1378q128 0 195 -68q67 -69 34 -198l-100 -410h-119l17 66q-91 -82 -232 -82q-97 0 -155 47t-58 125q0 104 90 169q91 65 240 65h195l6 26q21 78 -15 123q-34 43 -112 43q-144 0 -199 -139l-102 24q84 209 315 209zM676 969l10 43h-180q-92 0 -147 -38
q-54 -38 -54 -102q0 -44 32 -70t89 -26q93 0 161 55q68 54 89 138z" />
    <glyph glyph-name="guillemotleft" unicode="&#xab;" horiz-adv-x="849" 
d="M59 537l334 364h162l-344 -373l164 -356h-150zM397 537l334 364h162l-344 -373l164 -356h-150z" />
    <glyph glyph-name="registered" unicode="&#xae;" horiz-adv-x="983" 
d="M606 1399q172 0 291 -117t119 -295q0 -176 -119 -293q-117 -116 -291 -116t-291 116q-118 117 -118 293q0 178 118 295q119 117 291 117zM606 635q149 0 250 100q102 101 102 252q0 153 -102 255q-101 101 -250 101q-147 0 -248 -101q-102 -102 -102 -255
q0 -149 102 -251q101 -101 248 -101zM782 1071q0 -49 -30 -83t-84 -42l137 -141h-74l-131 139h-82v-139h-57v387h176q67 0 106 -33t39 -88zM518 997h117q40 0 65 20t25 52q0 33 -24 52q-25 20 -64 20h-119v-144z" />
    <glyph glyph-name="macron" unicode="&#xaf;" horiz-adv-x="1228" 
d="M999 1196h-581l28 127h582z" />
    <glyph glyph-name="degree" unicode="&#xb0;" horiz-adv-x="833" 
d="M575 1399q107 0 181 -69q73 -69 73 -181q0 -127 -90 -209q-89 -82 -211 -82q-108 0 -183 69t-75 179q0 129 91 211t214 82zM537 961q69 0 125 51q55 51 55 131q0 66 -44 110q-43 43 -106 43q-72 0 -127 -51t-55 -131q0 -66 45 -110q44 -43 107 -43z" />
    <glyph glyph-name="plusminus" unicode="&#xb1;" horiz-adv-x="1189" 
d="M1116 807l-33 -139h-381l-79 -344h-140l80 344h-381l33 139h381l84 364h139l-84 -364h381zM61 139h902l-33 -139h-901z" />
    <glyph glyph-name="acute" unicode="&#xb4;" horiz-adv-x="1228" 
d="M786 1161h-147l229 287h199z" />
    <glyph glyph-name="paragraph" unicode="&#xb6;" horiz-adv-x="1157" 
d="M588 0h-125l141 612h-102q-158 0 -254 84t-96 226q0 208 139 329t358 121h256zM860 0h-125l318 1372h125z" />
    <glyph glyph-name="periodcentered" unicode="&#xb7;" horiz-adv-x="423" 
d="M221 643q45 0 76 -31t31 -73t-31 -73q-30 -30 -76 -30t-76 30t-30 73t30 73q31 31 76 31z" />
    <glyph glyph-name="cedilla" unicode="&#xb8;" horiz-adv-x="1228" 
d="M461 0h125l-236 -348h-188z" />
    <glyph glyph-name="ordmasculine" unicode="&#xba;" horiz-adv-x="903" 
d="M598 1378q141 0 236 -89q94 -88 94 -230q0 -163 -113 -268t-270 -105q-137 0 -232 90q-94 90 -94 234q0 159 114 264q113 104 265 104zM551 795q105 0 181 72q77 72 77 186q0 93 -63 155q-64 62 -154 62q-97 0 -175 -73q-77 -72 -77 -181q0 -97 62 -159t149 -62z" />
    <glyph glyph-name="guillemotright" unicode="&#xbb;" horiz-adv-x="849" 
d="M469 537l-334 -365h-164l346 375l-163 354h149zM807 537l-334 -365h-162l344 375l-163 354h149z" />
    <glyph glyph-name="onequarter" unicode="&#xbc;" horiz-adv-x="1458" 
d="M1483 1372l-1342 -1372h-116l1341 1372h117zM391 1223l-211 -103l29 123l258 129h76l-174 -756h-119zM1251 268h125l-22 -98h-125l-39 -170h-113l39 170h-430l25 111l516 475h137zM1139 268l84 357l-394 -357h310z" />
    <glyph glyph-name="onehalf" unicode="&#xbd;" horiz-adv-x="1572" 
d="M1462 1372l-1341 -1372h-117l1342 1372h116zM391 1223l-211 -103l29 123l258 129h76l-174 -756h-119zM1059 104h348l-23 -106h-548l20 80l332 241q106 80 146 125q44 50 44 103q0 57 -37 91t-98 34q-74 0 -122 -48t-54 -128l-104 18q6 115 87 185q82 71 201 71
q110 0 173 -60t63 -157q0 -82 -52 -146t-182 -159z" />
    <glyph glyph-name="threequarters" unicode="&#xbe;" horiz-adv-x="1665" 
d="M721 856q-1 -105 -88 -178q-86 -72 -217 -72q-126 0 -202 71q-75 71 -69 185l105 23q-2 -83 44 -131q46 -49 130 -49t135 41q53 42 53 106q0 117 -151 117h-80l18 88h64q83 0 148 33q66 34 67 100q0 51 -36 84t-101 33q-76 0 -129 -50t-68 -127l-98 23q16 110 100 179
t205 69q107 0 173 -58q64 -56 62 -143q0 -144 -163 -190q103 -41 98 -154zM1681 1372l-1341 -1372h-117l1342 1372h116zM1458 268h125l-22 -98h-125l-39 -170h-113l39 170h-430l25 111l516 475h137zM1346 268l84 357l-394 -357h310z" />
    <glyph glyph-name="questiondown" unicode="&#xbf;" horiz-adv-x="1062" 
d="M651 827q-46 0 -76 30t-30 73q0 46 29 74t77 28t77 -28q30 -28 30 -74q0 -42 -31 -73q-30 -30 -76 -30zM745 92l148 -29q-22 -188 -166 -312q-143 -124 -346 -124q-187 0 -305 104q-117 103 -117 271q0 194 153 317q154 124 365 136l37 157h145l-67 -280h-88
q-142 0 -267 -87q-124 -87 -124 -229q0 -111 75 -179t199 -68q138 0 238 89q97 87 120 234z" />
    <glyph glyph-name="Agrave" unicode="&#xc0;" horiz-adv-x="1429" 
d="M885 1526l-281 286h197l229 -286h-145zM1292 0h-164l-71 348h-725l-234 -348h-184l932 1372h149zM1026 494l-141 677l-455 -677h596z" />
    <glyph glyph-name="Aacute" unicode="&#xc1;" horiz-adv-x="1429" 
d="M1042 1526h-147l229 286h199zM995 1372l297 -1372h-164l-71 348h-725l-234 -348h-184l932 1372h149zM1026 494l-141 677l-455 -677h596z" />
    <glyph glyph-name="Acircumflex" unicode="&#xc2;" horiz-adv-x="1429" 
d="M838 1509h-168l307 291h147l172 -291h-149l-111 191zM995 1372l297 -1372h-164l-71 348h-725l-234 -348h-184l932 1372h149zM1026 494l-141 677l-455 -677h596z" />
    <glyph glyph-name="Atilde" unicode="&#xc3;" horiz-adv-x="1429" 
d="M874 1671q-37 0 -62 -25t-36 -67h-110q24 106 88 158q63 51 139 51q66 0 125 -49t102 -49q36 0 61 26q26 27 36 70h110q-24 -108 -88 -161q-62 -52 -137 -52q-66 0 -125 49t-103 49zM995 1372l297 -1372h-164l-71 348h-725l-234 -348h-184l932 1372h149zM1026 494
l-141 677l-455 -677h596z" />
    <glyph glyph-name="Adieresis" unicode="&#xc4;" horiz-adv-x="1429" 
d="M782 1546q-45 0 -75 30q-31 31 -31 75q0 42 31 73t75 31t77 -31q32 -30 32 -73q0 -44 -31 -75q-30 -30 -78 -30zM1188 1546q-46 0 -76 30q-31 31 -31 75q0 42 31 73t76 31q44 0 77 -31q31 -30 31 -73q0 -45 -30 -75t-78 -30zM995 1372l297 -1372h-164l-71 348h-725
l-234 -348h-184l932 1372h149zM1026 494l-141 677l-455 -677h596z" />
    <glyph glyph-name="Aring" unicode="&#xc5;" horiz-adv-x="1429" 
d="M975 1489q-84 0 -139 56q-56 58 -56 136q0 90 68 155t162 65q83 0 139 -56q55 -55 55 -135q0 -90 -67 -156q-66 -65 -162 -65zM1001 1806q-52 0 -86 -34t-34 -84q0 -44 28 -73q29 -30 74 -30q51 0 88 36t37 83q0 42 -31 73q-29 29 -76 29zM1292 0h-164l-71 348h-725
l-234 -348h-184l932 1372h149zM1026 494l-141 677l-455 -677h596z" />
    <glyph glyph-name="AE" unicode="&#xc6;" horiz-adv-x="2338" 
d="M1542 1227l-106 -465h776l-33 -146h-778l-107 -469h840l-35 -147h-1001l73 317h-702l-338 -317h-217l1481 1372h1020l-35 -145h-838zM1202 463l162 696l-741 -696h579z" />
    <glyph glyph-name="Ccedilla" unicode="&#xc7;" horiz-adv-x="1609" 
d="M791 125q174 0 316 88q143 89 214 227l147 -49q-85 -184 -263 -300q-179 -117 -408 -118l-217 -321h-189l283 330q-241 33 -381 201q-141 169 -141 413q0 330 242 566q243 237 585 237q233 0 393 -119q161 -120 195 -315l-164 -35q-33 146 -143 232q-111 87 -285 87
q-265 0 -461 -189q-197 -189 -197 -454q0 -208 129 -345q129 -136 345 -136z" />
    <glyph glyph-name="Egrave" unicode="&#xc8;" horiz-adv-x="1306" 
d="M850 1526l-281 286h197l229 -286h-145zM510 1227l-109 -465h779l-33 -146h-778l-109 -469h840l-33 -147h-1004l318 1372h999l-32 -145h-838z" />
    <glyph glyph-name="Eacute" unicode="&#xc9;" horiz-adv-x="1306" 
d="M1008 1526h-148l230 286h198zM510 1227l-109 -465h779l-33 -146h-778l-109 -469h840l-33 -147h-1004l318 1372h999l-32 -145h-838z" />
    <glyph glyph-name="Ecircumflex" unicode="&#xca;" horiz-adv-x="1306" 
d="M803 1509h-168l307 291h148l172 -291h-150l-111 191zM510 1227l-109 -465h779l-33 -146h-778l-109 -469h840l-33 -147h-1004l318 1372h999l-32 -145h-838z" />
    <glyph glyph-name="Edieresis" unicode="&#xcb;" horiz-adv-x="1306" 
d="M748 1546q-46 0 -76 30q-31 31 -31 75q0 42 31 73t76 31q43 0 76 -31q32 -30 32 -73q0 -44 -31 -75q-30 -30 -77 -30zM1153 1546q-46 0 -76 30t-30 75q0 43 30 73q31 31 76 31q44 0 77 -31q32 -30 32 -73q0 -44 -31 -75q-30 -30 -78 -30zM510 1227l-109 -465h779
l-33 -146h-778l-109 -469h840l-33 -147h-1004l318 1372h999l-32 -145h-838z" />
    <glyph glyph-name="Igrave" unicode="&#xcc;" horiz-adv-x="522" 
d="M340 1812l229 -286h-145l-281 286h197zM225 0h-162l318 1372h162z" />
    <glyph glyph-name="Iacute" unicode="&#xcd;" horiz-adv-x="522" 
d="M582 1526h-148l230 286h198zM225 0h-162l318 1372h162z" />
    <glyph glyph-name="Icircumflex" unicode="&#xce;" horiz-adv-x="522" 
d="M686 1509l-111 191l-198 -191h-168l307 291h148l172 -291h-150zM381 1372h162l-318 -1372h-162z" />
    <glyph glyph-name="Idieresis" unicode="&#xcf;" horiz-adv-x="522" 
d="M322 1755q43 0 76 -31q32 -30 32 -73q0 -44 -31 -75q-30 -30 -77 -30q-46 0 -76 30q-31 31 -31 75q0 42 31 73t76 31zM727 1755q44 0 77 -31q32 -30 32 -73q0 -44 -31 -75q-30 -30 -78 -30q-46 0 -76 30t-30 75q0 43 30 73q31 31 76 31zM225 0h-162l318 1372h162z" />
    <glyph glyph-name="Eth" unicode="&#xd0;" horiz-adv-x="1601" 
d="M453 1372h452q300 0 462 -155q163 -156 163 -408q0 -334 -261 -571q-262 -238 -665 -238h-469l144 618h-183l33 146h182zM332 147h256q332 0 553 194t221 464q0 193 -122 307q-123 115 -351 115h-307l-107 -463h326l-33 -146h-328z" />
    <glyph glyph-name="Ntilde" unicode="&#xd1;" horiz-adv-x="1558" 
d="M928 1671q-38 0 -63 -25t-36 -67h-110q24 106 88 158q63 51 139 51q66 0 125 -49t103 -49q35 0 60 26q26 27 36 70h110q-24 -108 -88 -161q-62 -52 -137 -52q-67 0 -126 49t-101 49zM1577 1372l-317 -1372h-138l-637 1108l-258 -1108h-161l317 1372h139l635 -1118
l258 1118h162z" />
    <glyph glyph-name="Ograve" unicode="&#xd2;" horiz-adv-x="1646" 
d="M889 1812l229 -286h-145l-281 286h197zM963 1401q303 0 479 -209t131 -506q-45 -311 -273 -512t-530 -201q-304 -2 -479 205q-176 208 -133 508q47 299 280 507t525 208zM776 125q235 0 417 161q180 160 218 400q34 235 -97 398q-132 163 -356 163q-237 0 -420 -162
q-185 -164 -219 -399q-34 -236 100 -399q133 -162 357 -162z" />
    <glyph glyph-name="Oacute" unicode="&#xd3;" horiz-adv-x="1646" 
d="M1130 1526h-147l229 286h199zM963 1401q303 0 479 -209t131 -506q-45 -311 -273 -512t-530 -201q-304 -2 -479 205q-176 208 -133 508q47 299 280 507t525 208zM776 125q235 0 417 161q180 160 218 400q34 235 -97 398q-132 163 -356 163q-237 0 -420 -162
q-185 -164 -219 -399q-34 -236 100 -399q133 -162 357 -162z" />
    <glyph glyph-name="Ocircumflex" unicode="&#xd4;" horiz-adv-x="1646" 
d="M926 1509h-168l307 291h147l172 -291h-149l-111 191zM963 1401q303 0 479 -209t131 -506q-45 -311 -273 -512t-530 -201q-304 -2 -479 205q-176 208 -133 508q47 299 280 507t525 208zM1411 686q34 235 -97 398q-132 163 -356 163q-237 0 -420 -162q-185 -164 -219 -399
q-34 -236 100 -399q133 -162 357 -162q235 0 417 161q180 160 218 400z" />
    <glyph glyph-name="Otilde" unicode="&#xd5;" horiz-adv-x="1646" 
d="M864 1579h-110q24 106 88 158q63 51 139 51q66 0 125 -49t102 -49q36 0 61 26q26 27 36 70h110q-24 -108 -88 -161q-62 -52 -137 -52q-68 0 -127 49t-100 49q-38 0 -63 -25t-36 -67zM963 1401q303 0 479 -209t131 -506q-45 -311 -273 -512t-530 -201q-304 -2 -479 205
q-176 208 -133 508q47 299 280 507t525 208zM776 125q235 0 417 161q180 160 218 400q34 235 -97 398q-132 163 -356 163q-237 0 -420 -162q-185 -164 -219 -399q-34 -236 100 -399q133 -162 357 -162z" />
    <glyph glyph-name="Odieresis" unicode="&#xd6;" horiz-adv-x="1646" 
d="M870 1755q44 0 77 -31q32 -30 32 -73q0 -44 -31 -75q-30 -30 -78 -30q-45 0 -75 30q-31 31 -31 75q0 42 31 73t75 31zM1276 1755q44 0 77 -31q31 -30 31 -73q0 -45 -30 -75t-78 -30q-46 0 -76 30q-31 31 -31 75q0 42 31 73t76 31zM963 1401q303 0 479 -209t131 -506
q-45 -311 -273 -512t-530 -201q-304 -2 -479 205q-176 208 -133 508q47 299 280 507t525 208zM776 125q235 0 417 161q180 160 218 400q34 235 -97 398q-132 163 -356 163q-237 0 -420 -162q-185 -164 -219 -399q-34 -236 100 -399q133 -162 357 -162z" />
    <glyph glyph-name="multiply" unicode="&#xd7;" horiz-adv-x="1081" 
d="M664 618l225 -286l-109 -88l-225 286l-367 -292l-77 102l364 291l-225 287l110 90l226 -287l366 293l78 -103z" />
    <glyph glyph-name="Oslash" unicode="&#xd8;" horiz-adv-x="1646" 
d="M1661 1266l-172 -140q121 -189 84 -440q-45 -311 -273 -512t-530 -201q-288 0 -467 191l-197 -160l-86 109l203 163q-98 185 -65 410q47 299 280 507t525 208q265 0 440 -166l172 139zM319 686q-24 -167 37 -301l916 743q-125 119 -314 119q-237 0 -420 -162
q-185 -164 -219 -399zM1411 686q27 188 -53 334l-924 -750q133 -145 342 -145q235 0 417 161q180 160 218 400z" />
    <glyph glyph-name="Ugrave" unicode="&#xd9;" horiz-adv-x="1476" 
d="M897 1526l-281 286h197l229 -286h-145zM1513 1372l-178 -772q-66 -289 -245 -458t-449 -169q-249 0 -384 177q-134 176 -71 450l179 772h161l-178 -772q-49 -212 37 -342q85 -129 274 -129q186 0 326 129q139 129 189 342l178 772h161z" />
    <glyph glyph-name="Uacute" unicode="&#xda;" horiz-adv-x="1476" 
d="M1055 1526h-148l230 286h198zM1513 1372l-178 -772q-66 -289 -245 -458t-449 -169q-249 0 -384 177q-134 176 -71 450l179 772h161l-178 -772q-49 -212 37 -342q85 -129 274 -129q186 0 326 129q139 129 189 342l178 772h161z" />
    <glyph glyph-name="Ucircumflex" unicode="&#xdb;" horiz-adv-x="1476" 
d="M850 1509h-168l307 291h148l172 -291h-150l-110 191zM1513 1372l-178 -772q-66 -289 -245 -458t-449 -169q-249 0 -384 177q-134 176 -71 450l179 772h161l-178 -772q-49 -212 37 -342q85 -129 274 -129q186 0 326 129q139 129 189 342l178 772h161z" />
    <glyph glyph-name="Udieresis" unicode="&#xdc;" horiz-adv-x="1476" 
d="M795 1546q-46 0 -76 30q-31 31 -31 75q0 42 31 73t76 31q43 0 76 -31q32 -30 32 -73q0 -44 -31 -75q-30 -30 -77 -30zM1200 1546q-46 0 -76 30t-30 75q0 43 30 73q31 31 76 31q44 0 77 -31q32 -30 32 -73q0 -44 -31 -75q-30 -30 -78 -30zM1513 1372l-178 -772
q-66 -289 -245 -458t-449 -169q-249 0 -384 177q-134 176 -71 450l179 772h161l-178 -772q-49 -212 37 -342q85 -129 274 -129q186 0 326 129q139 129 189 342l178 772h161z" />
    <glyph glyph-name="Yacute" unicode="&#xdd;" horiz-adv-x="1378" 
d="M979 1526h-148l230 286h199zM758 479l-109 -479h-162l109 479l-358 893h168l299 -731l636 731h197z" />
    <glyph glyph-name="Thorn" unicode="&#xde;" horiz-adv-x="1294" 
d="M485 1124h363q194 0 308 -99t114 -261q0 -218 -162 -366q-161 -148 -395 -148h-430l-58 -250h-162l318 1372h162zM317 395h385q166 0 286 103q118 102 118 247q0 106 -69 169t-195 63h-389z" />
    <glyph glyph-name="germandbls" unicode="&#xdf;" horiz-adv-x="1345" 
d="M1012 778q243 -66 243 -317q0 -204 -146 -340q-148 -137 -396 -137q-170 0 -314 63l45 131q140 -61 275 -61q173 0 283 98q112 100 112 242q0 121 -87 187q-88 67 -234 67h-109l31 131h65q151 0 267 82t116 204q0 110 -74 177t-200 67q-163 0 -274 -102t-152 -281
l-230 -989h-155l225 989q52 237 210 379q156 141 394 141q185 0 296 -99q112 -100 112 -255q0 -122 -84 -227t-219 -150z" />
    <glyph glyph-name="agrave" unicode="&#xe0;" horiz-adv-x="1333" 
d="M723 1161l-281 287h197l229 -287h-145zM1270 1010l-234 -1010h-157l34 147q-163 -174 -405 -174q-207 0 -332 151t-88 384q38 236 204 381t384 145q144 0 244 -63q99 -62 143 -178l49 217h158zM553 113q152 0 281 110q130 111 159 285q29 173 -67 280q-97 109 -246 109
q-165 0 -288 -107q-123 -106 -150 -282q-29 -179 61 -287t250 -108z" />
    <glyph glyph-name="aacute" unicode="&#xe1;" horiz-adv-x="1333" 
d="M881 1161h-148l230 287h198zM1270 1010l-234 -1010h-157l34 147q-163 -174 -405 -174q-207 0 -332 151t-88 384q38 236 204 381t384 145q144 0 244 -63q99 -62 143 -178l49 217h158zM553 113q152 0 281 110q130 111 159 285q29 173 -67 280q-97 109 -246 109
q-165 0 -288 -107q-123 -106 -150 -282q-29 -179 61 -287t250 -108z" />
    <glyph glyph-name="acircumflex" unicode="&#xe2;" horiz-adv-x="1333" 
d="M676 1145h-168l307 291h148l172 -291h-150l-111 190zM1270 1010l-234 -1010h-157l34 147q-163 -174 -405 -174q-207 0 -332 151t-88 384q38 236 204 381t384 145q144 0 244 -63q99 -62 143 -178l49 217h158zM553 113q152 0 281 110q130 111 159 285q29 173 -67 280
q-97 109 -246 109q-165 0 -288 -107q-123 -106 -150 -282q-29 -179 61 -287t250 -108z" />
    <glyph glyph-name="atilde" unicode="&#xe3;" horiz-adv-x="1333" 
d="M713 1307q-37 0 -63 -26q-25 -25 -36 -67h-110q24 106 88 158q63 51 139 51q66 0 125 -49t102 -49q36 0 61 27q26 28 36 69h110q-24 -106 -88 -160q-64 -53 -137 -53q-68 0 -127 49q-61 50 -100 50zM1270 1010l-234 -1010h-157l34 147q-163 -174 -405 -174
q-207 0 -332 151t-88 384q38 236 204 381t384 145q144 0 244 -63q99 -62 143 -178l49 217h158zM553 113q152 0 281 110q130 111 159 285q29 173 -67 280q-97 109 -246 109q-165 0 -288 -107q-123 -106 -150 -282q-29 -179 61 -287t250 -108z" />
    <glyph glyph-name="adieresis" unicode="&#xe4;" horiz-adv-x="1333" 
d="M621 1182q-47 0 -76 29q-31 31 -31 75q0 43 31 74t76 31q43 0 76 -31q32 -30 32 -74t-31 -75q-29 -29 -77 -29zM1026 1182q-47 0 -76 29q-30 30 -30 75q0 44 30 74q31 31 76 31q44 0 77 -31q32 -30 32 -74t-31 -75q-29 -29 -78 -29zM1270 1010l-234 -1010h-157l34 147
q-163 -174 -405 -174q-207 0 -332 151t-88 384q38 236 204 381t384 145q144 0 244 -63q99 -62 143 -178l49 217h158zM553 113q152 0 281 110q130 111 159 285q29 173 -67 280q-97 109 -246 109q-165 0 -288 -107q-123 -106 -150 -282q-29 -179 61 -287t250 -108z" />
    <glyph glyph-name="aring" unicode="&#xe5;" horiz-adv-x="1333" 
d="M813 1124q-83 0 -139 57q-56 58 -56 136q0 89 68 154t162 65q84 0 139 -55t55 -135q0 -90 -67 -156t-162 -66zM840 1442q-48 0 -85 -35q-36 -35 -36 -84q0 -42 29 -73q28 -29 73 -29q52 0 88 35q37 36 37 83q0 42 -31 73q-30 30 -75 30zM1270 1010l-234 -1010h-157
l34 147q-163 -174 -405 -174q-207 0 -332 151t-88 384q38 236 204 381t384 145q144 0 244 -63q99 -62 143 -178l49 217h158zM553 113q152 0 281 110q130 111 159 285q29 173 -67 280q-97 109 -246 109q-165 0 -288 -107q-123 -106 -150 -282q-29 -179 61 -287t250 -108z" />
    <glyph glyph-name="ae" unicode="&#xe6;" horiz-adv-x="1896" 
d="M1407 1034q207 0 319 -147q113 -148 80 -377l-8 -55h-829q-11 -160 69 -252t228 -92q92 0 192 55q101 56 158 162l135 -33q-62 -143 -205 -232q-144 -90 -301 -90q-283 0 -375 246q-77 -111 -204 -178q-130 -68 -277 -68q-165 0 -257 75q-91 75 -91 196q0 147 116 237
q115 90 308 90h377l12 84q18 112 -43 179t-182 67q-117 0 -202 -56q-88 -58 -116 -151l-139 31q39 137 170 223t307 86q127 0 214 -51q88 -52 118 -145q174 196 426 196zM985 571h672q8 154 -64 242t-200 88q-142 0 -254 -88q-114 -89 -154 -242zM823 455h-364
q-125 0 -198 -53t-73 -140q0 -73 58 -117q56 -43 164 -43q144 0 266 95q121 94 145 237z" />
    <glyph glyph-name="ccedilla" unicode="&#xe7;" horiz-adv-x="1175" 
d="M547 119q117 0 213 60t147 167l148 -29q-62 -144 -194 -238q-131 -94 -286 -104l-217 -323h-188l281 328q-194 29 -298 172q-106 145 -73 352q37 234 214 382q176 148 394 148q171 0 289 -91t139 -245l-160 -32q-12 103 -92 164q-81 61 -194 61q-159 0 -285 -109
q-125 -108 -152 -278q-27 -169 65 -278q91 -107 249 -107z" />
    <glyph glyph-name="egrave" unicode="&#xe8;" horiz-adv-x="1198" 
d="M657 1161l-280 287h196l230 -287h-146zM231 473l-2 -35q0 -149 86 -238t242 -89q237 0 361 223l139 -39q-74 -154 -211 -238q-136 -84 -301 -84q-204 0 -332 125q-127 124 -127 336q0 256 181 428t415 172q221 0 342 -155t82 -406h-875zM672 903q-153 0 -263 -89
t-155 -224h719q0 147 -80 230t-221 83z" />
    <glyph glyph-name="eacute" unicode="&#xe9;" horiz-adv-x="1198" 
d="M815 1161h-147l229 287h199zM231 473l-2 -35q0 -149 86 -238t242 -89q237 0 361 223l139 -39q-74 -154 -211 -238q-136 -84 -301 -84q-204 0 -332 125q-127 124 -127 336q0 256 181 428t415 172q221 0 342 -155t82 -406h-875zM672 903q-153 0 -263 -89t-155 -224h719
q0 147 -80 230t-221 83z" />
    <glyph glyph-name="ecircumflex" unicode="&#xea;" horiz-adv-x="1198" 
d="M610 1145h-168l308 291h147l172 -291h-149l-111 190zM231 473l-2 -35q0 -149 86 -238t242 -89q237 0 361 223l139 -39q-74 -154 -211 -238q-136 -84 -301 -84q-204 0 -332 125q-127 124 -127 336q0 256 181 428t415 172q221 0 342 -155t82 -406h-875zM672 903
q-153 0 -263 -89t-155 -224h719q0 147 -80 230t-221 83z" />
    <glyph glyph-name="edieresis" unicode="&#xeb;" horiz-adv-x="1198" 
d="M555 1182q-47 0 -76 29q-30 30 -30 75q0 44 30 74q31 31 76 31q44 0 77 -31q32 -30 32 -74t-31 -75q-29 -29 -78 -29zM961 1182q-47 0 -76 29q-31 31 -31 75q0 43 31 74t76 31q43 0 76 -31q32 -30 32 -74t-31 -75q-29 -29 -77 -29zM231 473l-2 -35q0 -149 86 -238
t242 -89q237 0 361 223l139 -39q-74 -154 -211 -238q-136 -84 -301 -84q-204 0 -332 125q-127 124 -127 336q0 256 181 428t415 172q221 0 342 -155t82 -406h-875zM672 903q-153 0 -263 -89t-155 -224h719q0 147 -80 230t-221 83z" />
    <glyph glyph-name="igrave" unicode="&#xec;" horiz-adv-x="571" 
d="M281 1448l229 -287h-145l-281 287h197zM248 0h-158l234 1010h157z" />
    <glyph glyph-name="iacute" unicode="&#xed;" horiz-adv-x="571" 
d="M522 1161h-147l229 287h199zM248 0h-158l234 1010h157z" />
    <glyph glyph-name="icircumflex" unicode="&#xee;" horiz-adv-x="571" 
d="M627 1145l-111 190l-199 -190h-167l307 291h147l172 -291h-149zM324 1010h157l-233 -1010h-158z" />
    <glyph glyph-name="idieresis" unicode="&#xef;" horiz-adv-x="571" 
d="M262 1391q44 0 77 -31q32 -30 32 -74t-31 -75q-29 -29 -78 -29q-47 0 -76 29q-30 30 -30 75q0 44 30 74q31 31 76 31zM668 1391q43 0 76 -31q32 -30 32 -74t-31 -75q-29 -29 -77 -29q-47 0 -76 29q-31 31 -31 75q0 43 31 74t76 31zM248 0h-158l234 1010h157z" />
    <glyph glyph-name="eth" unicode="&#xf0;" horiz-adv-x="1251" 
d="M1069 1343l-176 -73q125 -137 203 -314q75 -171 75 -352q0 -286 -183 -459q-182 -172 -425 -172q-210 0 -343 129q-134 129 -134 338q0 252 184 423t410 171q154 0 246 -80q-69 146 -181 254l-292 -121l-31 111l225 94q-119 90 -278 152l4 31h256q95 -49 174 -117l235 98
zM573 119q196 0 317 142q122 143 122 308q0 139 -92 233q-92 93 -234 93q-173 0 -310 -128q-136 -127 -136 -314q0 -154 93 -244t240 -90z" />
    <glyph glyph-name="ntilde" unicode="&#xf1;" horiz-adv-x="1288" 
d="M737 1307q-36 0 -62 -26q-25 -25 -36 -67h-111q24 106 88 158q63 51 140 51q66 0 125 -49t102 -49q35 0 60 27q26 28 36 69h111q-24 -106 -88 -160q-64 -53 -137 -53q-68 0 -127 49q-61 50 -101 50zM811 1034q199 0 290 -130t46 -329l-133 -575h-156l133 582
q33 144 -30 229q-63 86 -197 86q-156 0 -268 -109q-111 -108 -156 -303l-113 -485h-155l233 1010h156l-41 -176q149 200 391 200z" />
    <glyph glyph-name="ograve" unicode="&#xf2;" horiz-adv-x="1245" 
d="M676 1161l-281 287h197l229 -287h-145zM692 1032q228 0 364 -150t103 -380q-35 -230 -207 -378q-173 -149 -395 -149q-231 0 -368 149q-136 148 -101 378q33 231 206 381q171 149 398 149zM563 113q161 0 288 109q128 110 155 280q24 172 -70 282q-94 111 -252 111
q-162 0 -290 -111q-127 -111 -154 -282q-24 -172 69 -280q94 -109 254 -109z" />
    <glyph glyph-name="oacute" unicode="&#xf3;" horiz-adv-x="1245" 
d="M834 1161h-148l229 287h199zM692 1032q228 0 364 -150t103 -380q-35 -230 -207 -378q-173 -149 -395 -149q-231 0 -368 149q-136 148 -101 378q33 231 206 381q171 149 398 149zM563 113q161 0 288 109q128 110 155 280q24 172 -70 282q-94 111 -252 111
q-162 0 -290 -111q-127 -111 -154 -282q-24 -172 69 -280q94 -109 254 -109z" />
    <glyph glyph-name="ocircumflex" unicode="&#xf4;" horiz-adv-x="1245" 
d="M629 1145h-168l307 291h147l172 -291h-149l-111 190zM692 1032q228 0 364 -150t103 -380q-35 -230 -207 -378q-173 -149 -395 -149q-231 0 -368 149q-136 148 -101 378q33 231 206 381q171 149 398 149zM563 113q161 0 288 109q128 110 155 280q24 172 -70 282
q-94 111 -252 111q-162 0 -290 -111q-127 -111 -154 -282q-24 -172 69 -280q94 -109 254 -109z" />
    <glyph glyph-name="otilde" unicode="&#xf5;" horiz-adv-x="1245" 
d="M666 1307q-37 0 -63 -26q-25 -25 -36 -67h-110q24 106 88 158q63 51 139 51q66 0 125 -49t102 -49q35 0 61 27q26 28 36 69h110q-24 -106 -88 -160q-64 -53 -137 -53q-66 0 -125 49q-61 50 -102 50zM692 1032q228 0 364 -150t103 -380q-35 -230 -207 -378
q-173 -149 -395 -149q-231 0 -368 149q-136 148 -101 378q33 231 206 381q171 149 398 149zM563 113q161 0 288 109q128 110 155 280q24 172 -70 282q-94 111 -252 111q-162 0 -290 -111q-127 -111 -154 -282q-24 -172 69 -280q94 -109 254 -109z" />
    <glyph glyph-name="odieresis" unicode="&#xf6;" horiz-adv-x="1245" 
d="M573 1182q-46 0 -75 29q-31 31 -31 75q0 43 31 74t75 31t77 -31q32 -30 32 -74t-31 -75q-29 -29 -78 -29zM979 1182q-47 0 -76 29q-31 31 -31 75q0 43 31 74t76 31q44 0 77 -31q31 -30 31 -74q0 -45 -30 -75q-29 -29 -78 -29zM692 1032q228 0 364 -150t103 -380
q-35 -230 -207 -378q-173 -149 -395 -149q-231 0 -368 149q-136 148 -101 378q33 231 206 381q171 149 398 149zM563 113q161 0 288 109q128 110 155 280q24 172 -70 282q-94 111 -252 111q-162 0 -290 -111q-127 -111 -154 -282q-24 -172 69 -280q94 -109 254 -109z" />
    <glyph glyph-name="divide" unicode="&#xf7;" horiz-adv-x="1189" 
d="M690 1096q46 0 76 -30q31 -31 31 -73q0 -45 -30 -73q-31 -29 -77 -29t-77 29q-29 28 -29 73q0 43 30 73t76 30zM1057 555h-901l32 139h902zM520 360q47 0 76 -29q31 -31 31 -73q0 -46 -30 -74q-29 -28 -77 -28t-77 28t-29 74q0 43 30 73q29 29 76 29z" />
    <glyph glyph-name="oslash" unicode="&#xf8;" horiz-adv-x="1241" 
d="M1260 952l-158 -127q86 -137 59 -323q-33 -230 -205 -378q-173 -149 -397 -149q-211 0 -344 127l-160 -129l-63 82l158 127q-87 142 -60 320q34 230 208 381q171 149 396 149q209 0 342 -127l160 129zM244 502q-18 -122 28 -217l646 524q-91 86 -230 86q-162 0 -290 -111
q-127 -111 -154 -282zM1010 502q18 125 -31 223l-645 -524q91 -88 233 -88q161 0 288 109q128 110 155 280z" />
    <glyph glyph-name="ugrave" unicode="&#xf9;" horiz-adv-x="1288" 
d="M684 1161l-281 287h197l229 -287h-145zM1219 1010l-234 -1008h-158l39 170q-147 -197 -387 -197q-201 0 -292 130t-46 329l133 576h158l-135 -582q-33 -142 31 -228q63 -85 198 -85q160 0 268 107q109 108 154 302l113 486h158z" />
    <glyph glyph-name="uacute" unicode="&#xfa;" horiz-adv-x="1288" 
d="M842 1161h-148l230 287h198zM1219 1010l-234 -1008h-158l39 170q-147 -197 -387 -197q-201 0 -292 130t-46 329l133 576h158l-135 -582q-33 -142 31 -228q63 -85 198 -85q160 0 268 107q109 108 154 302l113 486h158z" />
    <glyph glyph-name="ucircumflex" unicode="&#xfb;" horiz-adv-x="1288" 
d="M637 1145h-168l307 291h148l172 -291h-150l-110 190zM1219 1010l-234 -1008h-158l39 170q-147 -197 -387 -197q-201 0 -292 130t-46 329l133 576h158l-135 -582q-33 -142 31 -228q63 -85 198 -85q160 0 268 107q109 108 154 302l113 486h158z" />
    <glyph glyph-name="udieresis" unicode="&#xfc;" horiz-adv-x="1288" 
d="M582 1182q-47 0 -76 29q-31 31 -31 75q0 43 31 74t76 31q43 0 76 -31q32 -30 32 -74t-31 -75q-29 -29 -77 -29zM987 1182q-47 0 -76 29q-30 30 -30 75q0 44 30 74q31 31 76 31q44 0 77 -31q32 -30 32 -74t-31 -75q-29 -29 -78 -29zM1219 1010l-234 -1008h-158l39 170
q-147 -197 -387 -197q-201 0 -292 130t-46 329l133 576h158l-135 -582q-33 -142 31 -228q63 -85 198 -85q160 0 268 107q109 108 154 302l113 486h158z" />
    <glyph glyph-name="yacute" unicode="&#xfd;" horiz-adv-x="1153" 
d="M799 1163h-148l230 287h198zM1225 1010l-922 -1358h-182l252 366l-219 992h165l177 -811l555 811h174z" />
    <glyph glyph-name="thorn" unicode="&#xfe;" horiz-adv-x="1333" 
d="M825 1034q209 0 333 -149q124 -150 87 -383q-37 -235 -204 -382t-382 -147q-143 0 -246 65t-143 181l-131 -567h-157l424 1823h155l-143 -615q164 174 407 174zM655 113q163 0 286 107q125 108 153 282q28 178 -62 286q-91 109 -250 109q-152 0 -282 -111
q-132 -112 -160 -284q-27 -171 69 -281q95 -108 246 -108z" />
    <glyph glyph-name="ydieresis" unicode="&#xff;" horiz-adv-x="1153" 
d="M539 1184q-47 0 -76 29q-31 31 -31 75q0 43 31 74t76 31q43 0 76 -31q32 -30 32 -74t-31 -75q-29 -29 -77 -29zM944 1184q-47 0 -76 29q-30 30 -30 75q0 44 30 74q31 31 76 31q44 0 77 -31q32 -30 32 -74t-31 -75q-29 -29 -78 -29zM1225 1010l-922 -1358h-182l252 366
l-219 992h165l177 -811l555 811h174z" />
    <glyph glyph-name="Amacron" unicode="&#x100;" horiz-adv-x="1429" 
d="M1255 1561h-581l28 127h582zM1292 0h-164l-71 348h-725l-234 -348h-184l932 1372h149zM1026 494l-141 677l-455 -677h596z" />
    <glyph glyph-name="amacron" unicode="&#x101;" horiz-adv-x="1333" 
d="M1094 1196h-582l29 127h581zM1270 1010l-234 -1010h-157l34 147q-163 -174 -405 -174q-207 0 -332 151t-88 384q38 236 204 381t384 145q144 0 244 -63q99 -62 143 -178l49 217h158zM553 113q152 0 281 110q130 111 159 285q29 173 -67 280q-97 109 -246 109
q-165 0 -288 -107q-123 -106 -150 -282q-29 -179 61 -287t250 -108z" />
    <glyph glyph-name="Abreve" unicode="&#x102;" horiz-adv-x="1429" 
d="M958 1499q-133 0 -200 76q-68 77 -41 201h125q-15 -73 23 -119q37 -45 110 -45q69 0 126 45q54 43 70 119h140q-27 -124 -123 -201q-95 -76 -230 -76zM995 1372l297 -1372h-164l-71 348h-725l-234 -348h-184l932 1372h149zM1026 494l-141 677l-455 -677h596z" />
    <glyph glyph-name="abreve" unicode="&#x103;" horiz-adv-x="1333" 
d="M797 1135q-135 0 -201 75q-68 77 -41 201h125q-15 -73 23 -119q37 -45 110 -45q69 0 126 45q56 44 71 119h139q-27 -125 -123 -201q-94 -75 -229 -75zM1270 1010l-234 -1010h-157l34 147q-163 -174 -405 -174q-207 0 -332 151t-88 384q38 236 204 381t384 145
q144 0 244 -63q99 -62 143 -178l49 217h158zM553 113q152 0 281 110q130 111 159 285q29 173 -67 280q-97 109 -246 109q-165 0 -288 -107q-123 -106 -150 -282q-29 -179 61 -287t250 -108z" />
    <glyph glyph-name="Aogonek" unicode="&#x104;" horiz-adv-x="1429" 
d="M1096 -227q0 -70 82 -70q26 0 98 21l-16 -103q-74 -33 -130 -33q-70 0 -116 41q-45 41 -45 109q0 61 44 119t156 143h-41l-71 348h-725l-234 -348h-184l932 1372h149l297 -1372q-13 -12 -51 -43q-39 -32 -45 -38q-3 -3 -14.5 -13.5t-19.5 -18.5q-27 -27 -29 -30
q-7 -9 -20 -26q-11 -13 -14 -30q-3 -15 -3 -28zM1026 494l-141 677l-455 -677h596z" />
    <glyph glyph-name="aogonek" unicode="&#x105;" horiz-adv-x="1333" 
d="M1270 1010l-234 -1010q-13 -12 -51 -43q-39 -32 -45 -38q-3 -3 -14.5 -13.5t-19.5 -18.5q-26 -27 -29 -30q-7 -9 -20 -26q-11 -13 -14 -30q-3 -15 -3 -28q0 -70 82 -70q26 0 98 21l-16 -103q-73 -33 -130 -33q-70 0 -116 41q-45 41 -45 109q0 61 44 119t156 143h-34
l34 147q-163 -174 -405 -174q-207 0 -332 151t-88 384q38 236 204 381t384 145q144 0 244 -63q99 -62 143 -178l49 217h158zM553 113q152 0 281 110q130 111 159 285q29 173 -67 280q-97 109 -246 109q-165 0 -288 -107q-123 -106 -150 -282q-29 -179 61 -287t250 -108z" />
    <glyph glyph-name="Cacute" unicode="&#x106;" horiz-adv-x="1609" 
d="M1106 1526h-148l230 286h198zM979 1399q233 0 393 -119q161 -120 195 -315l-164 -35q-33 146 -143 232q-111 87 -285 87q-265 0 -461 -189q-197 -189 -197 -454q0 -208 129 -345q129 -136 345 -136q174 0 316 88q143 89 214 227l147 -49q-89 -189 -268 -303
q-182 -115 -416 -115q-284 0 -458 175q-174 176 -174 448q0 330 242 566q243 237 585 237z" />
    <glyph glyph-name="cacute" unicode="&#x107;" horiz-adv-x="1175" 
d="M811 1161h-147l229 287h199zM547 119q117 0 213 60t147 167l148 -29q-65 -154 -208 -249t-310 -95q-227 0 -360 150q-134 151 -97 381q37 234 214 382q176 148 394 148q171 0 289 -91t139 -245l-160 -32q-12 103 -92 164q-81 61 -194 61q-159 0 -285 -109
q-125 -108 -152 -278q-27 -169 65 -278q91 -107 249 -107z" />
    <glyph glyph-name="Cdotaccent" unicode="&#x10a;" horiz-adv-x="1609" 
d="M1049 1765q44 0 73 -29q31 -31 31 -71q0 -45 -30 -74q-29 -28 -74 -28q-46 0 -75 28q-30 29 -30 74q0 41 30 71q29 29 75 29zM979 1399q233 0 393 -119q161 -120 195 -315l-164 -35q-33 146 -143 232q-111 87 -285 87q-265 0 -461 -189q-197 -189 -197 -454
q0 -208 129 -345q129 -136 345 -136q174 0 316 88q143 89 214 227l147 -49q-89 -189 -268 -303q-182 -115 -416 -115q-284 0 -458 175q-174 176 -174 448q0 330 242 566q243 237 585 237z" />
    <glyph glyph-name="cdotaccent" unicode="&#x10b;" horiz-adv-x="1175" 
d="M754 1198q-44 0 -75 29q-30 29 -30 73q0 41 30 71t75 30q43 0 73 -30q31 -31 31 -71q0 -44 -30 -73q-31 -29 -74 -29zM547 119q117 0 213 60t147 167l148 -29q-65 -154 -208 -249t-310 -95q-227 0 -360 150q-134 151 -97 381q37 234 214 382q176 148 394 148
q171 0 289 -91t139 -245l-160 -32q-12 103 -92 164q-81 61 -194 61q-159 0 -285 -109q-125 -108 -152 -278q-27 -169 65 -278q91 -107 249 -107z" />
    <glyph glyph-name="Ccaron" unicode="&#x10c;" horiz-adv-x="1609" 
d="M944 1511l-172 291h152l108 -188l199 188h170l-307 -291h-150zM791 125q174 0 316 88q143 89 214 227l147 -49q-89 -189 -268 -303q-182 -115 -416 -115q-284 0 -458 175q-174 176 -174 448q0 330 242 566q243 237 585 237q233 0 393 -119q161 -120 195 -315l-164 -35
q-33 146 -143 232q-111 87 -285 87q-265 0 -461 -189q-197 -189 -197 -454q0 -208 129 -345q129 -136 345 -136z" />
    <glyph glyph-name="ccaron" unicode="&#x10d;" horiz-adv-x="1175" 
d="M649 1147l-172 291h152l108 -189l199 189h170l-307 -291h-150zM547 119q117 0 213 60t147 167l148 -29q-65 -154 -208 -249t-310 -95q-227 0 -360 150q-134 151 -97 381q37 234 214 382q176 148 394 148q171 0 289 -91t139 -245l-160 -32q-12 103 -92 164q-81 61 -194 61
q-159 0 -285 -109q-125 -108 -152 -278q-27 -169 65 -278q91 -107 249 -107z" />
    <glyph glyph-name="Dcaron" unicode="&#x10e;" horiz-adv-x="1517" 
d="M877 1511l-172 291h151l109 -188l198 188h170l-307 -291h-149zM381 1372h453q299 0 461 -155q163 -156 163 -408q0 -334 -261 -571q-262 -238 -665 -238h-469zM260 147h256q333 0 554 194q220 193 220 464q0 193 -121 307q-123 115 -352 115h-307z" />
    <glyph glyph-name="dcaron" unicode="&#x10f;" horiz-adv-x="1329" 
d="M1212 1475h156l-340 -1475h-156l35 150q-165 -177 -407 -177q-207 0 -332 151t-88 384q38 236 204 381t384 145q144 0 245 -63q102 -64 142 -180zM1659 1475l-115 -353h-125l82 353h158zM545 113q151 0 280 110q132 112 160 285q29 173 -67 280q-97 109 -246 109
q-165 0 -288 -107q-124 -107 -151 -282q-28 -178 62 -287q90 -108 250 -108z" />
    <glyph glyph-name="Dcroat" unicode="&#x110;" horiz-adv-x="1601" 
d="M453 1372h452q300 0 462 -155q163 -156 163 -408q0 -334 -261 -571q-262 -238 -665 -238h-469l144 618h-183l33 146h182zM332 147h256q332 0 553 194t221 464q0 193 -122 307q-123 115 -351 115h-307l-107 -463h326l-33 -146h-328z" />
    <glyph glyph-name="dcroat" unicode="&#x111;" horiz-adv-x="1402" 
d="M1468 1176h-161l-271 -1176h-157l34 147q-163 -174 -405 -174q-208 0 -333 151q-125 150 -87 384q38 237 203 381q166 145 383 145q146 0 246 -63t141 -178l88 383h-344l31 124h342l41 175h157l-41 -175h164zM551 113q154 0 283 110q130 111 159 285q27 172 -68 280
q-95 109 -247 109q-163 0 -286 -107t-152 -282q-29 -179 61 -287t250 -108z" />
    <glyph glyph-name="Emacron" unicode="&#x112;" horiz-adv-x="1306" 
d="M1221 1561h-582l29 127h581zM510 1227l-109 -465h779l-33 -146h-778l-109 -469h840l-33 -147h-1004l318 1372h999l-32 -145h-838z" />
    <glyph glyph-name="emacron" unicode="&#x113;" horiz-adv-x="1198" 
d="M1028 1196h-582l29 127h582zM231 473l-2 -35q0 -149 86 -238t242 -89q237 0 361 223l139 -39q-74 -154 -211 -238q-136 -84 -301 -84q-204 0 -332 125q-127 124 -127 336q0 256 181 428t415 172q221 0 342 -155t82 -406h-875zM672 903q-153 0 -263 -89t-155 -224h719
q0 147 -80 230t-221 83z" />
    <glyph glyph-name="Edotaccent" unicode="&#x116;" horiz-adv-x="1306" 
d="M950 1563q-45 0 -74 28q-30 29 -30 74q0 41 30 71q29 29 74 29t74 -29q31 -31 31 -71q0 -45 -30 -74q-29 -28 -75 -28zM510 1227l-109 -465h779l-33 -146h-778l-109 -469h840l-33 -147h-1004l318 1372h999l-32 -145h-838z" />
    <glyph glyph-name="edotaccent" unicode="&#x117;" horiz-adv-x="1198" 
d="M758 1198q-44 0 -75 29q-30 29 -30 73q0 41 30 71t75 30q43 0 73 -30q31 -31 31 -71q0 -45 -29 -73q-31 -29 -75 -29zM231 473l-2 -35q0 -149 86 -238t242 -89q237 0 361 223l139 -39q-74 -154 -211 -238q-136 -84 -301 -84q-204 0 -332 125q-127 124 -127 336
q0 256 181 428t415 172q221 0 342 -155t82 -406h-875zM672 903q-153 0 -263 -89t-155 -224h719q0 147 -80 230t-221 83z" />
    <glyph glyph-name="Eogonek" unicode="&#x118;" horiz-adv-x="1306" 
d="M510 1227l-109 -465h779l-33 -146h-778l-109 -469h840l-33 -147h-84q-13 -12 -51 -43q-39 -31 -45 -38q-3 -3 -14.5 -13.5t-19.5 -18.5q-5 -5 -12.5 -12t-11.5 -11t-6 -7q-15 -21 -19 -26q-11 -13 -14 -30q-4 -20 -4 -28q0 -70 82 -70q27 0 99 21l-17 -103
q-74 -33 -129 -33q-70 0 -116 41t-46 109q0 61 44 119q43 56 157 143h-797l318 1372h999l-32 -145h-838z" />
    <glyph glyph-name="eogonek" unicode="&#x119;" horiz-adv-x="1196" 
d="M231 473l-2 -35q0 -149 86 -238t242 -89q236 0 361 221l139 -37q-55 -110 -150 -193q-175 -157 -234 -222q-52 -58 -52 -107q0 -70 81 -70q27 0 99 21l-17 -103q-74 -33 -129 -33q-70 0 -116 41q-45 41 -45 109q0 58 38 114q36 52 148 138q-74 -17 -135 -17
q-204 0 -332 125q-127 124 -127 336q0 256 181 428t415 172q226 0 350 -160q123 -160 74 -401h-875zM672 903q-153 0 -263 -89t-155 -224h721q2 148 -80 230q-83 83 -223 83z" />
    <glyph glyph-name="Ecaron" unicode="&#x11a;" horiz-adv-x="1306" 
d="M846 1511l-172 291h151l109 -188l199 188h170l-308 -291h-149zM510 1227l-109 -465h779l-33 -146h-778l-109 -469h840l-33 -147h-1004l318 1372h999l-32 -145h-838z" />
    <glyph glyph-name="ecaron" unicode="&#x11b;" horiz-adv-x="1198" 
d="M653 1147l-172 291h152l108 -189l199 189h170l-307 -291h-150zM231 473l-2 -35q0 -149 86 -238t242 -89q237 0 361 223l139 -39q-74 -154 -211 -238q-136 -84 -301 -84q-204 0 -332 125q-127 124 -127 336q0 256 181 428t415 172q221 0 342 -155t82 -406h-875zM672 903
q-153 0 -263 -89t-155 -224h719q0 147 -80 230t-221 83z" />
    <glyph glyph-name="Gbreve" unicode="&#x11e;" horiz-adv-x="1632" 
d="M1024 1499q-134 0 -201 76q-68 77 -41 201h125q-15 -72 24 -119q37 -45 109 -45q69 0 126 45q56 44 71 119h139q-27 -124 -123 -201q-95 -76 -229 -76zM821 754h750q-6 -59 -8 -70q-55 -315 -273 -513t-522 -198q-274 0 -445 174t-171 447q0 330 247 567q249 238 586 238
q221 0 381 -107q161 -108 201 -291l-160 -36q-44 139 -157 210q-114 72 -273 72q-268 0 -463 -188q-197 -189 -197 -451q0 -211 130 -347t337 -136q214 0 378 137q163 136 214 344h-588z" />
    <glyph glyph-name="gbreve" unicode="&#x11f;" horiz-adv-x="1314" 
d="M788 1135q-134 0 -200 75q-68 77 -41 201h125q-15 -73 23 -119q37 -45 110 -45q69 0 126 45q54 43 70 119h140q-27 -125 -123 -201q-94 -75 -230 -75zM1251 1010l-215 -928q-49 -217 -212 -344t-384 -127q-358 0 -475 301l150 55q83 -215 334 -215q155 0 279 96
q123 95 161 254l29 123q-162 -168 -408 -168q-207 0 -329 140t-85 362q38 209 204 342t374 133q290 0 381 -219l45 195h151zM553 190q149 0 277 98q129 98 157 255q27 160 -66 259t-243 99q-161 0 -283 -95q-120 -93 -147 -253q-29 -163 59 -262q89 -101 246 -101z" />
    <glyph glyph-name="Gdotaccent" unicode="&#x120;" horiz-adv-x="1632" 
d="M1051 1765q44 0 73 -29q31 -31 31 -71q0 -45 -30 -74q-29 -28 -74 -28q-46 0 -75 28q-30 29 -30 74q0 41 30 71q29 29 75 29zM821 754h750q-6 -59 -8 -70q-55 -315 -273 -513t-522 -198q-274 0 -445 174t-171 447q0 330 247 567q249 238 586 238q221 0 381 -107
q161 -108 201 -291l-160 -36q-44 139 -157 210q-114 72 -273 72q-268 0 -463 -188q-197 -189 -197 -451q0 -211 130 -347t337 -136q214 0 378 137q163 136 214 344h-588z" />
    <glyph glyph-name="gdotaccent" unicode="&#x121;" horiz-adv-x="1314" 
d="M815 1198q-44 0 -75 29q-29 28 -29 73q0 42 29 71q30 30 75 30q44 0 74 -30q31 -31 31 -71q0 -44 -30 -73q-31 -29 -75 -29zM1251 1010l-215 -928q-49 -217 -212 -344t-384 -127q-358 0 -475 301l150 55q83 -215 334 -215q155 0 279 96q123 95 161 254l29 123
q-162 -168 -408 -168q-207 0 -329 140t-85 362q38 209 204 342t374 133q290 0 381 -219l45 195h151zM553 190q149 0 277 98q129 98 157 255q27 160 -66 259t-243 99q-161 0 -283 -95q-120 -93 -147 -253q-29 -163 59 -262q89 -101 246 -101z" />
    <glyph glyph-name="Gcommaaccent" unicode="&#x122;" horiz-adv-x="1632" 
d="M821 754h750q-6 -59 -8 -70q-55 -315 -273 -513t-522 -198q-274 0 -445 174t-171 447q0 330 247 567q249 238 586 238q221 0 381 -107q161 -108 201 -291l-160 -36q-44 139 -157 210q-114 72 -273 72q-268 0 -463 -188q-197 -189 -197 -451q0 -211 130 -347t337 -136
q214 0 378 137q163 136 214 344h-588zM475 -385l160 293h176l-213 -293h-123z" />
    <glyph glyph-name="gcommaaccent" unicode="&#x123;" horiz-adv-x="1314" 
d="M864 1165h-176l213 293h123zM1251 1010l-215 -928q-49 -217 -212 -344t-384 -127q-358 0 -475 301l150 55q83 -215 334 -215q155 0 279 96q123 95 161 254l29 123q-162 -168 -408 -168q-207 0 -329 140t-85 362q38 209 204 342t374 133q290 0 381 -219l45 195h151z
M553 190q149 0 277 98q129 98 157 255q27 160 -66 259t-243 99q-161 0 -283 -95q-120 -93 -147 -253q-29 -163 59 -262q89 -101 246 -101z" />
    <glyph glyph-name="Hbar" unicode="&#x126;" horiz-adv-x="1603" 
d="M1618 954h-141l-220 -954h-161l133 578h-817l-133 -578h-162l221 954h-143l30 136h144l65 282h162l-66 -282h816l65 282h162l-66 -282h144zM1315 954h-815l-54 -231h816z" />
    <glyph glyph-name="hbar" unicode="&#x127;" horiz-adv-x="1361" 
d="M885 1034q199 0 289 -130q90 -131 47 -329l-134 -575h-157l135 582q33 143 -31 229q-63 86 -196 86q-157 0 -269 -109q-110 -107 -155 -303l-113 -485h-156l273 1186h-170l26 114h170l41 175h158l-41 -175h336l-27 -114h-336l-79 -348q147 196 389 196z" />
    <glyph glyph-name="Imacron" unicode="&#x12a;" horiz-adv-x="522" 
d="M795 1561h-582l29 127h581zM225 0h-162l318 1372h162z" />
    <glyph glyph-name="imacron" unicode="&#x12b;" horiz-adv-x="571" 
d="M735 1196h-581l28 127h582zM248 0h-158l234 1010h157z" />
    <glyph glyph-name="Iogonek" unicode="&#x12e;" horiz-adv-x="522" 
d="M543 1372l-318 -1372q-13 -12 -51 -43q-39 -31 -45 -38q-3 -3 -14.5 -13.5t-19.5 -18.5q-27 -27 -29 -30q-7 -9 -20 -26q-11 -13 -14 -30q-3 -15 -3 -28q0 -70 82 -70q26 0 98 21l-16 -103q-74 -33 -130 -33q-72 0 -118 41q-45 41 -45 109q0 61 44 120q42 57 158 142h-39
l318 1372h162z" />
    <glyph glyph-name="iogonek" unicode="&#x12f;" horiz-adv-x="571" 
d="M465 1401q44 0 74 -30t30 -71q0 -45 -29 -73q-31 -29 -75 -29t-75 29q-30 29 -30 73q0 41 30 71t75 30zM324 1010h157l-233 -1010h-2q-13 -12 -51 -43q-39 -31 -45 -38q-3 -3 -14.5 -13.5t-19.5 -18.5q-5 -5 -12.5 -12t-11.5 -11t-6 -7q-15 -21 -19 -26q-12 -15 -15 -30
t-3 -28q0 -70 82 -70q26 0 98 21l-16 -103q-73 -33 -129 -33q-73 0 -119 41q-45 41 -45 109q0 61 44 120q41 55 159 142h-33z" />
    <glyph glyph-name="Idotaccent" unicode="&#x130;" horiz-adv-x="522" 
d="M524 1765q45 0 74 -29q31 -31 31 -71q0 -45 -30 -74q-29 -28 -75 -28q-45 0 -74 28q-30 29 -30 74q0 41 30 71q29 29 74 29zM225 0h-162l318 1372h162z" />
    <glyph glyph-name="dotlessi" unicode="&#x131;" horiz-adv-x="571" 
d="M248 0h-158l234 1010h157z" />
    <glyph glyph-name="IJ" unicode="&#x132;" horiz-adv-x="1738" 
d="M225 0h-162l318 1372h162zM1796 1372l-203 -872q-57 -244 -216 -385q-160 -142 -378 -142q-205 0 -327 121t-121 322l154 35q-5 -151 74 -240q79 -90 222 -90q157 0 273 104q117 105 158 275l202 872h162z" />
    <glyph glyph-name="ij" unicode="&#x133;" horiz-adv-x="1136" 
d="M465 1419q46 0 76 -30t30 -74q0 -45 -30 -75t-76 -30q-48 0 -78 30q-31 31 -31 75q0 43 31 74q30 30 78 30zM1049 1419q45 0 75 -30q31 -31 31 -74q0 -44 -31 -75q-30 -30 -75 -30q-48 0 -78 30q-31 31 -31 75q0 43 31 74q30 30 78 30zM240 0h-158l233 1010h156z
M1061 1010l-264 -1145q-27 -115 -113 -184q-87 -70 -201 -70q-87 0 -157 35l63 135q51 -23 92 -23q61 0 105 34q45 35 57 91l262 1127h156z" />
    <glyph glyph-name="Kcommaaccent" unicode="&#x136;" horiz-adv-x="1380" 
d="M578 680l655 -680h-203l-579 608h-95l-141 -608h-162l318 1372h161l-143 -618h60l833 618h221zM498 -92h176l-213 -293h-123z" />
    <glyph glyph-name="kcommaaccent" unicode="&#x137;" horiz-adv-x="1214" 
d="M553 520l534 -520h-194l-453 446h-106l-105 -446h-155l340 1475h157l-202 -875h69l578 410h217zM401 -92h177l-213 -293h-123z" />
    <glyph glyph-name="Lacute" unicode="&#x139;" horiz-adv-x="1185" 
d="M580 1526h-148l230 286h198zM1047 147l-33 -147h-951l318 1372h162l-283 -1225h787z" />
    <glyph glyph-name="lacute" unicode="&#x13a;" horiz-adv-x="516" 
d="M602 1628h-147l229 287h199zM219 0h-156l340 1475h158z" />
    <glyph glyph-name="Lcommaaccent" unicode="&#x13b;" horiz-adv-x="1185" 
d="M1047 147l-33 -147h-951l318 1372h162l-283 -1225h787zM432 -92h176l-213 -293h-123z" />
    <glyph glyph-name="lcommaaccent" unicode="&#x13c;" horiz-adv-x="516" 
d="M219 0h-156l340 1475h158zM-131 -385l160 293h176l-215 -293h-121z" />
    <glyph glyph-name="Lcaron" unicode="&#x13d;" horiz-adv-x="1185" 
d="M1047 147l-33 -147h-951l318 1372h162l-283 -1225h787zM874 1020h-124l81 352h158z" />
    <glyph glyph-name="lcaron" unicode="&#x13e;" horiz-adv-x="516" 
d="M219 0h-156l340 1475h158zM758 1122h-125l82 353h157z" />
    <glyph glyph-name="Ldot" unicode="&#x13f;" horiz-adv-x="1189" 
d="M1047 147l-33 -147h-951l318 1372h162l-283 -1225h787zM766 602q-44 0 -75 29q-29 28 -29 74q0 41 29 70q30 30 75 30q44 0 74 -30t30 -70q0 -46 -29 -74q-31 -29 -75 -29z" />
    <glyph glyph-name="ldot" unicode="&#x140;" horiz-adv-x="681" 
d="M219 0h-156l340 1475h158zM674 795q44 0 74 -30t30 -71q0 -45 -29 -73q-31 -29 -75 -29t-75 29q-30 29 -30 73q0 41 30 71t75 30z" />
    <glyph glyph-name="Lslash" unicode="&#x141;" horiz-adv-x="1267" 
d="M1124 147l-34 -147h-949l119 518l-186 -82l35 154l186 82l162 700h161l-143 -622l340 147l-35 -154l-340 -147l-102 -449h786z" />
    <glyph glyph-name="lslash" unicode="&#x142;" horiz-adv-x="671" 
d="M649 793l-196 -107l-158 -686h-158l137 588l-188 -103l37 156l186 102l170 732h156l-146 -635l197 108z" />
    <glyph glyph-name="Nacute" unicode="&#x143;" horiz-adv-x="1558" 
d="M1096 1526h-148l230 286h198zM1577 1372l-317 -1372h-138l-637 1108l-258 -1108h-161l317 1372h139l635 -1118l258 1118h162z" />
    <glyph glyph-name="nacute" unicode="&#x144;" horiz-adv-x="1288" 
d="M905 1161h-147l229 287h199zM811 1034q199 0 290 -130t46 -329l-133 -575h-156l133 582q33 144 -30 229q-63 86 -197 86q-156 0 -268 -109q-111 -108 -156 -303l-113 -485h-155l233 1010h156l-41 -176q149 200 391 200z" />
    <glyph glyph-name="Ncommaaccent" unicode="&#x145;" horiz-adv-x="1558" 
d="M1577 1372l-317 -1372h-138l-637 1108l-258 -1108h-161l317 1372h139l635 -1118l258 1118h162zM590 -92h176l-213 -293h-123z" />
    <glyph glyph-name="ncommaaccent" unicode="&#x146;" horiz-adv-x="1288" 
d="M811 1034q199 0 290 -130t46 -329l-133 -575h-156l133 582q33 144 -30 229q-63 86 -197 86q-156 0 -268 -109q-111 -108 -156 -303l-113 -485h-155l233 1010h156l-41 -176q149 200 391 200zM438 -92h176l-213 -293h-122z" />
    <glyph glyph-name="Ncaron" unicode="&#x147;" horiz-adv-x="1558" 
d="M934 1511l-172 291h151l109 -188l199 188h170l-308 -291h-149zM1577 1372l-317 -1372h-138l-637 1108l-258 -1108h-161l317 1372h139l635 -1118l258 1118h162z" />
    <glyph glyph-name="ncaron" unicode="&#x148;" horiz-adv-x="1288" 
d="M743 1147l-172 291h152l108 -189l199 189h170l-307 -291h-150zM811 1034q199 0 290 -130t46 -329l-133 -575h-156l133 582q33 144 -30 229q-63 86 -197 86q-156 0 -268 -109q-111 -108 -156 -303l-113 -485h-155l233 1010h156l-41 -176q149 200 391 200z" />
    <glyph glyph-name="Eng" unicode="&#x14a;" horiz-adv-x="1554" 
d="M1575 1372l-342 -1489q-27 -115 -114 -188q-88 -74 -201 -74q-100 0 -179 45l54 125q59 -31 112 -31q61 0 104 34t58 91l35 148l-619 1075l-258 -1108h-162l318 1372h139l633 -1116l260 1116h162z" />
    <glyph glyph-name="eng" unicode="&#x14b;" horiz-adv-x="1288" 
d="M811 1034q199 0 290 -130t46 -329l-133 -575l-29 -117q-30 -113 -117 -188q-86 -74 -198 -74q-100 0 -178 45l57 121q58 -29 115 -29q58 0 104 35q44 34 59 90l31 117l133 582q33 144 -30 229q-63 86 -197 86q-156 0 -268 -109q-111 -108 -156 -303l-113 -485h-155
l233 1010h156l-41 -176q149 200 391 200z" />
    <glyph glyph-name="Omacron" unicode="&#x14c;" horiz-adv-x="1646" 
d="M1343 1561h-581l29 127h581zM963 1401q303 0 479 -209t131 -506q-45 -311 -273 -512t-530 -201q-304 -2 -479 205q-176 208 -133 508q47 299 280 507t525 208zM776 125q235 0 417 161q180 160 218 400q34 235 -97 398q-132 163 -356 163q-237 0 -420 -162
q-185 -164 -219 -399q-34 -236 100 -399q133 -162 357 -162z" />
    <glyph glyph-name="omacron" unicode="&#x14d;" horiz-adv-x="1245" 
d="M1047 1196h-582l29 127h581zM692 1032q228 0 364 -150t103 -380q-35 -230 -207 -378q-173 -149 -395 -149q-231 0 -368 149q-136 148 -101 378q33 231 206 381q171 149 398 149zM563 113q161 0 288 109q128 110 155 280q24 172 -70 282q-94 111 -252 111
q-162 0 -290 -111q-127 -111 -154 -282q-24 -172 69 -280q94 -109 254 -109z" />
    <glyph glyph-name="Ohungarumlaut" unicode="&#x150;" horiz-adv-x="1646" 
d="M950 1526h-141l229 286h195zM1266 1526h-142l228 286h194zM963 1401q303 0 479 -209t131 -506q-45 -311 -273 -512t-530 -201q-304 -2 -479 205q-176 208 -133 508q47 299 280 507t525 208zM776 125q235 0 417 161q180 160 218 400q34 235 -97 398q-132 163 -356 163
q-237 0 -420 -162q-185 -164 -219 -399q-34 -236 100 -399q133 -162 357 -162z" />
    <glyph glyph-name="ohungarumlaut" unicode="&#x151;" horiz-adv-x="1245" 
d="M653 1161h-141l229 287h195zM827 1161l228 287h194l-280 -287h-142zM692 1032q228 0 364 -150t103 -380q-35 -230 -207 -378q-173 -149 -395 -149q-231 0 -368 149q-136 148 -101 378q33 231 206 381q171 149 398 149zM563 113q161 0 288 109q128 110 155 280
q24 172 -70 282q-94 111 -252 111q-162 0 -290 -111q-127 -111 -154 -282q-24 -172 69 -280q94 -109 254 -109z" />
    <glyph glyph-name="OE" unicode="&#x152;" horiz-adv-x="2115" 
d="M1319 1227l-107 -465h777l-33 -146h-778l-107 -469h840l-35 -147h-1133q-302 0 -468 187t-119 479q46 310 311 509q263 197 631 197h1093l-34 -145h-838zM909 147l248 1080h-82q-300 0 -510 -157q-208 -156 -246 -404q-39 -229 80 -374t349 -145h161z" />
    <glyph glyph-name="oe" unicode="&#x153;" horiz-adv-x="2119" 
d="M1155 473l-6 -22v-13q0 -149 86 -238t242 -89q106 0 202 54q97 54 160 169l137 -39q-72 -154 -209 -238t-301 -84q-146 0 -257 67q-109 66 -162 185q-85 -116 -216 -183t-274 -67q-231 0 -368 149q-136 148 -101 378q33 231 206 381q171 149 398 149q147 0 259 -65
q113 -65 169 -181q88 117 215 182q129 66 267 66q223 0 344 -155t82 -406h-873zM1591 903q-153 0 -263 -89q-109 -88 -154 -224h718q2 146 -77 229q-79 84 -224 84zM563 113q161 0 288 109q128 110 155 280q24 172 -70 282q-94 111 -252 111q-162 0 -290 -111
q-127 -111 -154 -282q-24 -172 69 -280q94 -109 254 -109z" />
    <glyph glyph-name="Racute" unicode="&#x154;" horiz-adv-x="1384" 
d="M961 1526h-148l229 286h199zM1391 1042q0 -192 -141 -317q-142 -125 -371 -137l346 -588h-185l-335 588h-334l-135 -588h-162l315 1372h615q175 0 281 -89t106 -241zM406 735h442q172 0 275 81q104 81 104 212q0 93 -64 146t-168 53h-477z" />
    <glyph glyph-name="racute" unicode="&#x155;" horiz-adv-x="823" 
d="M676 1161h-148l230 287h198zM453 1010l-50 -217q196 227 441 227q41 0 65 -8l-41 -150q-22 2 -57 2q-178 0 -307 -120q-130 -121 -185 -316l-98 -428h-158l234 1010h156z" />
    <glyph glyph-name="Rcommaaccent" unicode="&#x156;" horiz-adv-x="1384" 
d="M1391 1042q0 -192 -141 -317q-142 -125 -371 -137l346 -588h-185l-335 588h-334l-135 -588h-162l315 1372h615q175 0 281 -89t106 -241zM406 735h442q172 0 275 81q104 81 104 212q0 93 -64 146t-168 53h-477zM496 -92h176l-213 -293h-123z" />
    <glyph glyph-name="rcommaaccent" unicode="&#x157;" horiz-adv-x="823" 
d="M844 1020q41 0 65 -8l-41 -150q-22 2 -57 2q-178 0 -307 -120q-130 -121 -185 -316l-98 -428h-158l234 1010h156l-50 -217q196 227 441 227zM29 -92h176l-215 -293h-121z" />
    <glyph glyph-name="Rcaron" unicode="&#x158;" horiz-adv-x="1384" 
d="M799 1511l-172 291h151l109 -188l198 188h170l-307 -291h-149zM1391 1042q0 -192 -141 -317q-142 -125 -371 -137l346 -588h-185l-335 588h-334l-135 -588h-162l315 1372h615q175 0 281 -89t106 -241zM406 735h442q172 0 275 81q104 81 104 212q0 93 -64 146t-168 53
h-477z" />
    <glyph glyph-name="rcaron" unicode="&#x159;" horiz-adv-x="823" 
d="M514 1147l-172 291h152l108 -189l199 189h170l-307 -291h-150zM453 1010l-50 -217q196 227 441 227q41 0 65 -8l-41 -150q-22 2 -57 2q-178 0 -307 -120q-130 -121 -185 -316l-98 -428h-158l234 1010h156z" />
    <glyph glyph-name="Sacute" unicode="&#x15a;" horiz-adv-x="1277" 
d="M922 1526h-148l230 286h198zM791 1399q213 0 342 -105q128 -104 143 -282l-162 -37q-6 129 -98 207t-240 78q-147 0 -245 -74q-97 -73 -97 -187q0 -64 41 -107q40 -42 131 -75l238 -86q148 -51 219 -130q72 -79 72 -200q0 -191 -149 -310q-148 -118 -388 -118
q-227 0 -378 112q-152 112 -159 308l170 35q5 -147 107 -230q103 -83 274 -83q167 0 265 73t98 195q0 71 -43 117q-46 49 -141 82l-242 86q-140 51 -211 119q-72 69 -72 192q0 183 148 302q146 118 377 118z" />
    <glyph glyph-name="sacute" unicode="&#x15b;" horiz-adv-x="1036" 
d="M766 1161h-148l230 287h199zM33 262l153 45q16 -95 100 -151q83 -56 195 -56q115 0 188 50q72 50 72 129q0 55 -38 85q-36 29 -115 56l-176 59q-110 38 -165 93q-57 57 -57 149q0 139 111 226t291 87q161 0 272 -75t133 -195l-135 -43q-12 83 -86 136q-73 52 -184 52
q-114 0 -180 -48t-66 -126q0 -52 37 -80t115 -55l131 -45q131 -44 196 -102q68 -60 68 -164q0 -145 -119 -231q-118 -85 -305 -85q-164 0 -286 77q-121 76 -150 212z" />
    <glyph glyph-name="Scedilla" unicode="&#x15e;" horiz-adv-x="1277" 
d="M606 817l238 -86q148 -51 219 -130q72 -79 72 -200q0 -185 -141 -304q-140 -118 -371 -124l-217 -321h-189l281 328q-191 24 -311 132t-126 281l170 35q5 -147 107 -230q103 -83 274 -83q167 0 265 73t98 195q0 71 -43 117q-46 49 -141 82l-242 86q-140 51 -211 119
q-72 69 -72 192q0 183 148 302q146 118 377 118q213 0 342 -105q128 -104 143 -282l-162 -37q-6 129 -98 207t-240 78q-147 0 -245 -74q-97 -73 -97 -187q0 -64 41 -107q40 -42 131 -75z" />
    <glyph glyph-name="scedilla" unicode="&#x15f;" horiz-adv-x="1036" 
d="M498 600l131 -45q131 -44 196 -102q68 -60 68 -164q0 -141 -113 -227q-111 -84 -291 -89l-217 -321h-188l283 330q-129 23 -220 95q-90 72 -114 185l153 45q16 -95 100 -151q83 -56 195 -56q115 0 188 50q72 50 72 129q0 55 -38 85q-36 29 -115 56l-176 59
q-110 38 -165 93q-57 57 -57 149q0 139 111 226t291 87q161 0 272 -75t133 -195l-135 -43q-12 83 -86 136q-73 52 -184 52q-114 0 -180 -48t-66 -126q0 -52 37 -80t115 -55z" />
    <glyph glyph-name="Scaron" unicode="&#x160;" horiz-adv-x="1277" 
d="M760 1511l-172 291h151l109 -188l199 188h170l-308 -291h-149zM606 817l238 -86q148 -51 219 -130q72 -79 72 -200q0 -191 -149 -310q-148 -118 -388 -118q-227 0 -378 112q-152 112 -159 308l170 35q5 -147 107 -230q103 -83 274 -83q167 0 265 73t98 195q0 71 -43 117
q-46 49 -141 82l-242 86q-140 51 -211 119q-72 69 -72 192q0 183 148 302q146 118 377 118q213 0 342 -105q128 -104 143 -282l-162 -37q-6 129 -98 207t-240 78q-147 0 -245 -74q-97 -73 -97 -187q0 -64 41 -107q40 -42 131 -75z" />
    <glyph glyph-name="scaron" unicode="&#x161;" horiz-adv-x="1036" 
d="M604 1147l-172 291h152l108 -189l199 189h170l-307 -291h-150zM592 909q-114 0 -180 -48t-66 -126q0 -52 37 -80t115 -55l131 -45q131 -44 196 -102q68 -60 68 -164q0 -145 -119 -231q-118 -85 -305 -85q-164 0 -286 77q-121 76 -150 212l153 45q16 -95 100 -151
q83 -56 195 -56q115 0 188 50q72 50 72 129q0 55 -38 85q-36 29 -115 56l-176 59q-110 38 -165 93q-57 57 -57 149q0 139 111 226t291 87q161 0 272 -75t133 -195l-135 -43q-12 83 -86 136q-73 52 -184 52z" />
    <glyph glyph-name="tcedilla" unicode="&#x163;" horiz-adv-x="790" 
d="M446 879l-127 -557q-22 -97 9 -150q30 -51 110 -51q94 0 197 65l16 -137q-113 -76 -241 -76l-217 -321h-189l291 338q-91 30 -129 113q-37 80 -6 212l131 564h-203l29 131h205l73 321h156l-74 -321h363l-31 -131h-363z" />
    <glyph glyph-name="Tcaron" unicode="&#x164;" horiz-adv-x="1284" 
d="M803 1511l-172 291h151l109 -188l199 188h170l-308 -291h-149zM1401 1227h-508l-285 -1227h-164l285 1227h-510l33 145h1182z" />
    <glyph glyph-name="tcaron" unicode="&#x165;" horiz-adv-x="790" 
d="M756 1118h-125l82 352h157zM477 1010h363l-31 -131h-363l-127 -557q-22 -97 9 -150q30 -51 110 -51q94 0 197 65l16 -137q-113 -76 -243 -76q-148 0 -217 88q-68 88 -31 254l131 564h-203l29 131h205l73 321h156z" />
    <glyph glyph-name="Tbar" unicode="&#x166;" horiz-adv-x="1284" 
d="M893 1227l-111 -471h275l-31 -135h-274l-144 -621h-164l144 621h-266l30 135h266l111 471h-510l33 145h1182l-33 -145h-508z" />
    <glyph glyph-name="tbar" unicode="&#x167;" horiz-adv-x="811" 
d="M467 879l-45 -197h289l-29 -129h-291l-53 -231q-22 -98 8 -150q30 -51 111 -51q95 0 198 65l17 -137q-118 -76 -246 -76q-148 0 -215 88q-68 89 -31 254l56 238h-197l29 129h196l45 197h-221l29 131h223l74 321h157l-73 -321h366l-28 -131h-369z" />
    <glyph glyph-name="Umacron" unicode="&#x16a;" horiz-adv-x="1476" 
d="M1268 1561h-582l29 127h581zM1513 1372l-178 -772q-66 -289 -245 -458t-449 -169q-249 0 -384 177q-134 176 -71 450l179 772h161l-178 -772q-49 -212 37 -342q85 -129 274 -129q186 0 326 129q139 129 189 342l178 772h161z" />
    <glyph glyph-name="umacron" unicode="&#x16b;" horiz-adv-x="1288" 
d="M1055 1196h-582l29 127h581zM1219 1010l-234 -1008h-158l39 170q-147 -197 -387 -197q-201 0 -292 130t-46 329l133 576h158l-135 -582q-33 -142 31 -228q63 -85 198 -85q160 0 268 107q109 108 154 302l113 486h158z" />
    <glyph glyph-name="Uring" unicode="&#x16e;" horiz-adv-x="1476" 
d="M987 1489q-84 0 -139 56t-55 136q0 91 67 155q68 65 162 65q83 0 139 -56t56 -135q0 -90 -68 -156q-66 -65 -162 -65zM1014 1806q-52 0 -86 -34q-35 -35 -35 -84q0 -42 29 -73q29 -30 73 -30q51 0 88 36t37 83q0 43 -30 73q-29 29 -76 29zM1513 1372l-178 -772
q-66 -289 -245 -458t-449 -169q-249 0 -384 177q-134 176 -71 450l179 772h161l-178 -772q-49 -212 37 -342q85 -129 274 -129q186 0 326 129q139 129 189 342l178 772h161z" />
    <glyph glyph-name="uring" unicode="&#x16f;" horiz-adv-x="1288" 
d="M774 1124q-84 0 -139 57q-55 56 -55 136q0 90 67 154q68 65 162 65q84 0 139 -55q56 -56 56 -135q0 -90 -68 -156t-162 -66zM801 1442q-51 0 -86 -35t-35 -84q0 -42 29 -73q28 -29 73 -29q52 0 88 35q37 36 37 83q0 43 -30 73t-76 30zM1219 1010l-234 -1008h-158l39 170
q-147 -197 -387 -197q-201 0 -292 130t-46 329l133 576h158l-135 -582q-33 -142 31 -228q63 -85 198 -85q160 0 268 107q109 108 154 302l113 486h158z" />
    <glyph glyph-name="Uhungarumlaut" unicode="&#x170;" horiz-adv-x="1476" 
d="M874 1526h-141l230 286h194zM1049 1526l227 286h194l-280 -286h-141zM1513 1372l-178 -772q-66 -289 -245 -458t-449 -169q-249 0 -384 177q-134 176 -71 450l179 772h161l-178 -772q-49 -212 37 -342q85 -129 274 -129q186 0 326 129q139 129 189 342l178 772h161z" />
    <glyph glyph-name="uhungarumlaut" unicode="&#x171;" horiz-adv-x="1288" 
d="M662 1161h-142l230 287h194zM836 1161l227 287h194l-280 -287h-141zM1061 1010h158l-234 -1008h-158l39 170q-147 -197 -387 -197q-201 0 -292 130t-46 329l133 576h158l-135 -582q-33 -142 31 -228q63 -85 198 -85q160 0 268 107q109 108 154 302z" />
    <glyph glyph-name="Uogonek" unicode="&#x172;" horiz-adv-x="1476" 
d="M1513 1372l-178 -772q-77 -329 -288 -491q-236 -215 -265 -250q-39 -45 -39 -84q0 -72 82 -72q27 0 99 21l-17 -103q-73 -33 -129 -33q-72 0 -116 40q-46 41 -46 108q0 60 44 121q42 58 155 139q-87 -23 -174 -23q-249 0 -384 177q-134 176 -71 450l179 772h161
l-178 -772q-49 -212 37 -342q85 -129 274 -129q186 0 326 129q139 129 189 342l178 772h161z" />
    <glyph glyph-name="uogonek" unicode="&#x173;" horiz-adv-x="1288" 
d="M985 2h-14l14 -2q-13 -12 -51 -43q-39 -31 -45 -38q-3 -3 -14.5 -13.5t-19.5 -18.5l-30 -30q-2 -3 -8.5 -11.5t-10.5 -14.5q-11 -13 -14 -30q-4 -20 -4 -28q0 -70 82 -70q27 0 99 21l-17 -103q-74 -33 -129 -33q-70 0 -116 41q-45 41 -45 109q0 61 44 120q43 58 158 144
h-37l39 170q-147 -197 -387 -197q-201 0 -292 130t-46 329l133 576h158l-135 -582q-33 -142 31 -228q63 -85 198 -85q160 0 268 107q109 108 154 302l113 486h158z" />
    <glyph glyph-name="Wcircumflex" unicode="&#x174;" horiz-adv-x="1961" 
d="M1094 1509h-168l307 291h147l172 -291h-149l-111 191zM2118 1372l-740 -1372h-172l-90 1114l-604 -1114h-170l-104 1372h159l82 -1124l611 1124h159l92 -1124l603 1124h174z" />
    <glyph glyph-name="wcircumflex" unicode="&#x175;" horiz-adv-x="1595" 
d="M827 1145h-168l308 291h147l172 -291h-149l-111 190zM1667 1010l-577 -1014h-150l-88 766l-444 -766h-146l-108 1014h151l82 -783l455 783h125l90 -785l446 785h164z" />
    <glyph glyph-name="Ycircumflex" unicode="&#x176;" horiz-adv-x="1378" 
d="M774 1509h-168l307 291h148l172 -291h-150l-110 191zM758 479l-109 -479h-162l109 479l-358 893h168l299 -731l636 731h197z" />
    <glyph glyph-name="ycircumflex" unicode="&#x177;" horiz-adv-x="1153" 
d="M594 1147h-168l307 291h148l172 -291h-150l-110 190zM1225 1010l-922 -1358h-182l252 366l-219 992h165l177 -811l555 811h174z" />
    <glyph glyph-name="Ydieresis" unicode="&#x178;" horiz-adv-x="1378" 
d="M719 1546q-46 0 -76 30q-31 31 -31 75q0 42 31 73t76 31q44 0 77 -31q31 -30 31 -73q0 -45 -30 -75t-78 -30zM1124 1546q-45 0 -75 30q-31 31 -31 75q0 42 31 73t75 31t77 -31q32 -30 32 -73q0 -44 -31 -75q-30 -30 -78 -30zM758 479l-109 -479h-162l109 479l-358 893
h168l299 -731l636 731h197z" />
    <glyph glyph-name="Zacute" unicode="&#x179;" horiz-adv-x="1282" 
d="M977 1526h-148l230 286h198zM1343 1255l-1075 -1116h824l-31 -139h-1057l25 102l1095 1131h-811l31 139h1026z" />
    <glyph glyph-name="zacute" unicode="&#x17a;" horiz-adv-x="1038" 
d="M752 1161h-148l230 287h198zM1026 901l-813 -770h657l-30 -131h-875l25 106l813 773h-615l31 131h832z" />
    <glyph glyph-name="Zdotaccent" unicode="&#x17b;" horiz-adv-x="1282" 
d="M920 1563q-46 0 -75 28q-30 29 -30 74q0 41 30 71q29 29 75 29q44 0 73 -29q31 -31 31 -71q0 -45 -30 -74q-29 -28 -74 -28zM1343 1255l-1075 -1116h824l-31 -139h-1057l25 102l1095 1131h-811l31 139h1026z" />
    <glyph glyph-name="zdotaccent" unicode="&#x17c;" horiz-adv-x="1038" 
d="M694 1198q-43 0 -74 29q-30 29 -30 73q0 41 30 71t74 30t74 -30q31 -31 31 -71q0 -44 -30 -73q-31 -29 -75 -29zM1026 901l-813 -770h657l-30 -131h-875l25 106l813 773h-615l31 131h832z" />
    <glyph glyph-name="Zcaron" unicode="&#x17d;" horiz-adv-x="1282" 
d="M815 1511l-172 291h152l108 -188l199 188h170l-307 -291h-150zM1343 1255l-1075 -1116h824l-31 -139h-1057l25 102l1095 1131h-811l31 139h1026z" />
    <glyph glyph-name="zcaron" unicode="&#x17e;" horiz-adv-x="1038" 
d="M590 1147l-172 291h151l109 -189l199 189h170l-308 -291h-149zM1026 901l-813 -770h657l-30 -131h-875l25 106l813 773h-615l31 131h832z" />
    <glyph glyph-name="florin" unicode="&#x192;" horiz-adv-x="1130" 
d="M1047 1397q159 0 233 -78l-86 -125q-60 63 -162 63q-98 0 -176 -60q-77 -59 -121 -165l-117 -284h377l-30 -132h-402l-276 -669q-117 -285 -385 -285q-110 0 -170 51l86 125q43 -28 102 -28q71 0 125 38q56 39 80 99l276 669h-247l30 132h271l127 307q68 165 189 253
q122 89 276 89z" />
    <glyph glyph-name="AEacute" unicode="&#x1fc;" horiz-adv-x="2338" 
d="M1894 1526h-147l229 286h199zM1542 1227l-106 -465h776l-33 -146h-778l-107 -469h840l-35 -147h-1001l73 317h-702l-338 -317h-217l1481 1372h1020l-35 -145h-838zM1202 463l162 696l-741 -696h579z" />
    <glyph glyph-name="aeacute" unicode="&#x1fd;" horiz-adv-x="1896" 
d="M1188 1161h-148l230 287h198zM1407 1034q207 0 319 -147q113 -148 80 -377l-8 -55h-829q-11 -160 69 -252t228 -92q92 0 192 55q101 56 158 162l135 -33q-62 -143 -205 -232q-144 -90 -301 -90q-283 0 -375 246q-77 -111 -204 -178q-130 -68 -277 -68q-165 0 -257 75
q-91 75 -91 196q0 147 116 237q115 90 308 90h377l12 84q18 112 -43 179t-182 67q-117 0 -202 -56q-88 -58 -116 -151l-139 31q39 137 170 223t307 86q127 0 214 -51q88 -52 118 -145q174 196 426 196zM985 571h672q8 154 -64 242t-200 88q-142 0 -254 -88
q-114 -89 -154 -242zM823 455h-364q-125 0 -198 -53t-73 -140q0 -73 58 -117q56 -43 164 -43q144 0 266 95q121 94 145 237z" />
    <glyph glyph-name="Scommaaccent" unicode="&#x218;" horiz-adv-x="1277" 
d="M791 1399q213 0 342 -105q128 -104 143 -282l-162 -37q-6 129 -98 207t-240 78q-147 0 -245 -74q-97 -73 -97 -187q0 -64 41 -107q40 -42 131 -75l238 -86q148 -51 219 -130q72 -79 72 -200q0 -191 -149 -310q-148 -118 -388 -118q-227 0 -378 112q-152 112 -159 308
l170 35q5 -147 107 -230q103 -83 274 -83q167 0 265 73t98 195q0 71 -43 117q-46 49 -141 82l-242 86q-140 51 -211 119q-72 69 -72 192q0 183 148 302q146 118 377 118zM285 -385l159 293h177l-213 -293h-123z" />
    <glyph glyph-name="scommaaccent" unicode="&#x219;" horiz-adv-x="1036" 
d="M33 262l153 45q16 -95 100 -151q83 -56 195 -56q115 0 188 50q72 50 72 129q0 55 -38 85q-36 29 -115 56l-176 59q-110 38 -165 93q-57 57 -57 149q0 139 111 226t291 87q161 0 272 -75t133 -195l-135 -43q-12 83 -86 136q-73 52 -184 52q-114 0 -180 -48t-66 -126
q0 -52 37 -80t115 -55l131 -45q131 -44 196 -102q68 -60 68 -164q0 -145 -119 -231q-118 -85 -305 -85q-164 0 -286 77q-121 76 -150 212zM152 -385l159 293h176l-213 -293h-122z" />
    <glyph glyph-name="uni021A" unicode="&#x21a;" horiz-adv-x="1284" 
d="M1401 1227h-508l-285 -1227h-164l285 1227h-510l33 145h1182zM420 -92h176l-213 -293h-123z" />
    <glyph glyph-name="uni021B" unicode="&#x21b;" horiz-adv-x="790" 
d="M446 879l-127 -557q-22 -97 9 -150q30 -51 110 -51q94 0 197 65l16 -137q-113 -76 -243 -76q-148 0 -217 88q-68 88 -31 254l131 564h-203l29 131h205l73 321h156l-74 -321h363l-31 -131h-363zM231 -92h177l-213 -293h-123z" />
    <glyph glyph-name="circumflex" unicode="&#x2c6;" horiz-adv-x="1228" 
d="M889 1145l-109 188l-198 -188h-170l307 291h149l172 -291h-151z" />
    <glyph glyph-name="caron" unicode="&#x2c7;" horiz-adv-x="1228" 
d="M1081 1438l-307 -291h-149l-172 291h151l109 -189l198 189h170z" />
    <glyph glyph-name="breve" unicode="&#x2d8;" horiz-adv-x="1228" 
d="M702 1135q-134 0 -200 75q-68 77 -41 201h125q-15 -73 23 -119q37 -45 110 -45q69 0 126 45q54 43 70 119h140q-27 -125 -123 -201q-94 -75 -230 -75z" />
    <glyph glyph-name="dotaccent" unicode="&#x2d9;" horiz-adv-x="1228" 
d="M729 1401q44 0 74 -30q31 -31 31 -71q0 -44 -30 -73q-31 -29 -75 -29t-75 29q-29 28 -29 73q0 42 29 71q30 30 75 30z" />
    <glyph glyph-name="ring" unicode="&#x2da;" horiz-adv-x="1228" 
d="M948 1346q0 -90 -67 -156t-162 -66q-83 0 -139 57q-56 58 -56 136q0 89 68 154t162 65q84 0 139 -55t55 -135zM852 1339q0 42 -31 73q-30 30 -76 30q-48 0 -85 -35q-35 -34 -35 -84q0 -44 28 -73t74 -29q52 0 88 35q37 36 37 83z" />
    <glyph glyph-name="ogonek" unicode="&#x2db;" horiz-adv-x="1228" 
d="M580 14l104 -14q-13 -12 -51 -43q-39 -31 -45 -38q-3 -3 -14.5 -13.5t-19.5 -18.5q-5 -5 -12.5 -12t-11.5 -11t-6 -7q-15 -21 -19 -26q-12 -15 -15 -30t-3 -28q0 -70 82 -70q27 0 99 21l-17 -103q-73 -33 -129 -33q-70 0 -116 41t-46 109q0 63 49 124t171 152z" />
    <glyph glyph-name="tilde" unicode="&#x2dc;" horiz-adv-x="1228" 
d="M520 1214h-110q24 106 88 158q63 51 139 51q66 0 125 -49t102 -49q36 0 61 27q26 28 36 69h110q-24 -106 -88 -160q-64 -53 -137 -53q-68 0 -127 49q-61 50 -101 50q-36 0 -62 -26q-25 -25 -36 -67z" />
    <glyph glyph-name="hungarumlaut" unicode="&#x2dd;" horiz-adv-x="1228" 
d="M606 1161h-141l229 287h195zM922 1161h-142l228 287h194z" />
    <glyph glyph-name="uni0326" unicode="&#x326;" horiz-adv-x="0" 
d="M203 -385l159 293h177l-213 -293h-123z" />
    <glyph glyph-name="Wgrave" unicode="&#x1e80;" horiz-adv-x="1961" 
d="M1141 1526l-281 286h197l229 -286h-145zM2118 1372l-740 -1372h-172l-90 1114l-604 -1114h-170l-104 1372h159l82 -1124l611 1124h159l92 -1124l603 1124h174z" />
    <glyph glyph-name="wgrave" unicode="&#x1e81;" horiz-adv-x="1595" 
d="M874 1161l-280 287h197l229 -287h-146zM1667 1010l-577 -1014h-150l-88 766l-444 -766h-146l-108 1014h151l82 -783l455 783h125l90 -785l446 785h164z" />
    <glyph glyph-name="Wacute" unicode="&#x1e82;" horiz-adv-x="1961" 
d="M1298 1526h-147l229 286h199zM2118 1372l-740 -1372h-172l-90 1114l-604 -1114h-170l-104 1372h159l82 -1124l611 1124h159l92 -1124l603 1124h174z" />
    <glyph glyph-name="wacute" unicode="&#x1e83;" horiz-adv-x="1595" 
d="M1032 1161h-147l229 287h199zM1667 1010l-577 -1014h-150l-88 766l-444 -766h-146l-108 1014h151l82 -783l455 783h125l90 -785l446 785h164z" />
    <glyph glyph-name="Wdieresis" unicode="&#x1e84;" horiz-adv-x="1961" 
d="M1038 1546q-45 0 -75 30q-31 31 -31 75q0 42 31 73t75 31t77 -31q32 -30 32 -73q0 -44 -31 -75q-30 -30 -78 -30zM1444 1546q-46 0 -76 30q-31 31 -31 75q0 42 31 73t76 31q44 0 77 -31q31 -30 31 -73q0 -45 -30 -75t-78 -30zM2118 1372l-740 -1372h-172l-90 1114
l-604 -1114h-170l-104 1372h159l82 -1124l611 1124h159l92 -1124l603 1124h174z" />
    <glyph glyph-name="wdieresis" unicode="&#x1e85;" horiz-adv-x="1595" 
d="M772 1182q-47 0 -76 29q-30 30 -30 75q0 44 30 74q31 31 76 31q44 0 77 -31q32 -30 32 -74t-31 -75q-29 -29 -78 -29zM1178 1182q-47 0 -76 29q-31 31 -31 75q0 43 31 74t76 31q43 0 76 -31q32 -30 32 -74t-31 -75q-29 -29 -77 -29zM1667 1010l-577 -1014h-150l-88 766
l-444 -766h-146l-108 1014h151l82 -783l455 783h125l90 -785l446 785h164z" />
    <glyph glyph-name="Ygrave" unicode="&#x1ef2;" horiz-adv-x="1378" 
d="M821 1526l-280 286h196l230 -286h-146zM758 479l-109 -479h-162l109 479l-358 893h168l299 -731l636 731h197z" />
    <glyph glyph-name="ygrave" unicode="&#x1ef3;" horiz-adv-x="1153" 
d="M641 1163l-281 287h197l229 -287h-145zM1225 1010l-922 -1358h-182l252 366l-219 992h165l177 -811l555 811h174z" />
    <glyph glyph-name="endash" unicode="&#x2013;" horiz-adv-x="1271" 
d="M1139 461h-1024l26 123h1024z" />
    <glyph glyph-name="emdash" unicode="&#x2014;" horiz-adv-x="2131" 
d="M1999 461h-1884l26 123h1884z" />
    <glyph glyph-name="quoteleft" unicode="&#x2018;" horiz-adv-x="512" 
d="M494 1372h127l-261 -538h-190l2 6z" />
    <glyph glyph-name="quoteright" unicode="&#x2019;" horiz-adv-x="512" 
d="M299 834h-129l260 538h191l-3 -4z" />
    <glyph glyph-name="quotesinglbase" unicode="&#x201a;" horiz-adv-x="512" 
d="M43 -270h-129l262 538h191l-2 -4z" />
    <glyph glyph-name="quotedblleft" unicode="&#x201c;" horiz-adv-x="849" 
d="M494 1372h127l-261 -538h-190l2 6zM831 1372h127l-260 -538h-190l2 6z" />
    <glyph glyph-name="quotedblright" unicode="&#x201d;" horiz-adv-x="849" 
d="M299 834h-129l260 538h191l-3 -4zM637 834h-129l260 538h190l-2 -4z" />
    <glyph glyph-name="quotedblbase" unicode="&#x201e;" horiz-adv-x="849" 
d="M43 -270h-129l262 538h191l-2 -4zM381 -270h-127l260 538h191l-3 -4z" />
    <glyph glyph-name="dagger" unicode="&#x2020;" horiz-adv-x="735" 
d="M817 1225h-225l-115 -494h-117l115 494h-225l24 106h226l43 185h116l-43 -185h226z" />
    <glyph glyph-name="daggerdbl" unicode="&#x2021;" horiz-adv-x="735" 
d="M592 1225l-47 -203h227l-27 -107h-225l-43 -184h-117l43 184h-225l25 107h225l47 203h-227l26 106h226l43 185h116l-43 -185h226l-25 -106h-225z" />
    <glyph glyph-name="bullet" unicode="&#x2022;" horiz-adv-x="831" 
d="M422 834q127 0 217 -88q88 -87 88 -207q0 -125 -87 -209t-218 -84t-217 83t-86 210q0 120 87 207q88 88 216 88z" />
    <glyph glyph-name="ellipsis" unicode="&#x2026;" horiz-adv-x="1325" 
d="M119 201q45 0 76 -31q30 -30 30 -74q0 -42 -30 -72t-76 -30t-76 30q-31 31 -31 72q0 43 31 74t76 31zM569 201q45 0 76 -31t31 -74q0 -41 -31 -72q-30 -30 -76 -30q-45 0 -75 30q-31 31 -31 72q0 43 31 74t75 31zM1020 201q45 0 76 -31q30 -30 30 -74q0 -42 -30 -72
t-76 -30t-76 30q-31 31 -31 72q0 43 31 74t76 31z" />
    <glyph glyph-name="perthousand" unicode="&#x2030;" horiz-adv-x="2615" 
d="M614 1399q128 0 214 -80q85 -79 85 -211q0 -157 -113 -258q-114 -102 -263 -102q-131 0 -215 80q-86 81 -86 214q0 153 114 255t264 102zM201 0l1341 1372h117l-1342 -1372h-116zM606 1288q-97 0 -174 -67q-78 -67 -78 -172q0 -85 57 -138q58 -53 134 -53q95 0 172 69
q76 69 76 175q0 83 -54 135q-53 51 -133 51zM1374 627q129 0 215 -80t86 -211q0 -156 -114 -259q-115 -104 -263 -104q-130 0 -215 82q-86 83 -86 215q0 153 114 255t263 102zM2163 627q129 0 215 -80t86 -211q0 -155 -115 -259t-262 -104q-130 0 -215 82q-86 83 -86 215
q0 153 114 255t263 102zM1366 516q-95 0 -171 -67q-77 -68 -77 -173q0 -84 56 -137t133 -53q95 0 171 69t76 175q0 84 -54 135t-134 51zM2154 516q-95 0 -171 -67t-76 -173q0 -85 55 -137q56 -53 133 -53q95 0 171 69q77 69 77 175q0 84 -54 135t-135 51z" />
    <glyph glyph-name="guilsinglleft" unicode="&#x2039;" horiz-adv-x="512" 
d="M59 537l334 364h162l-344 -373l164 -356h-150z" />
    <glyph glyph-name="guilsinglright" unicode="&#x203a;" horiz-adv-x="512" 
d="M469 537l-334 -365h-162l346 375l-163 354h147z" />
    <glyph glyph-name="fraction" unicode="&#x2044;" horiz-adv-x="442" 
d="M-518 0l1341 1372h117l-1341 -1372h-117z" />
    <glyph glyph-name="Euro" unicode="&#x20ac;" horiz-adv-x="1656" 
d="M938 127q139 0 252 91q115 93 188 263l152 -37q-85 -216 -250 -343q-164 -126 -367 -126q-202 0 -330 136q-129 137 -141 360h-264l29 119h237q6 88 29 182h-221l27 119h229q85 234 259 371q173 137 392 137q202 0 327 -128q123 -126 140 -345l-168 -35q-11 170 -97 264
q-87 94 -226 94q-148 0 -268 -96t-189 -262h553l-49 -119h-543q-23 -94 -29 -182h477l-49 -119h-428q17 -158 105 -251q89 -93 223 -93z" />
    <glyph glyph-name="uni2116" unicode="&#x2116;" horiz-adv-x="2500" 
d="M2120 1393q136 0 231 -86q94 -85 94 -228q0 -162 -115 -270q-117 -109 -276 -109q-136 0 -227 87q-92 87 -92 229q0 161 114 269t271 108zM1415 1372h162l-317 -1372h-138l-637 1108l-258 -1108h-161l317 1372h139l635 -1118zM2068 819q99 0 174 72q74 71 74 176
q0 93 -61 150t-148 57q-96 0 -169 -71q-72 -71 -72 -175q0 -92 58 -150q59 -59 144 -59zM1626 543h666l-29 -131h-666z" />
    <glyph glyph-name="uni2117" unicode="&#x2117;" horiz-adv-x="1587" 
d="M834 1399q296 0 503 -204t207 -513q0 -306 -207 -507q-208 -202 -503 -202q-296 0 -504 202q-207 201 -207 507q0 309 207 513t504 204zM834 53q260 0 443 180t183 451q0 274 -183 456q-182 181 -443 181q-262 0 -444 -181q-183 -182 -183 -456q0 -271 183 -451t444 -180
zM575 1059h330q130 0 209 -71q78 -70 78 -185q0 -117 -78 -188q-77 -70 -209 -70h-229v-248h-101v762zM676 637h223q89 0 141 45q54 46 54 121q0 73 -54 119q-52 45 -141 45h-223v-330z" />
    <glyph glyph-name="trademark" unicode="&#x2122;" horiz-adv-x="1333" 
d="M735 1290h-190l-107 -463h-98l106 463h-186l19 82h475zM1311 827h-92l88 387l-265 -385h-59l-88 388l-90 -390h-92l125 545h102l96 -414l285 414h115z" />
    <glyph glyph-name="oneeighth" unicode="&#x215b;" horiz-adv-x="1540" 
d="M1452 1372l-1341 -1372h-117l1341 1372h117zM391 1223l-211 -103l29 123l258 129h76l-174 -756h-119zM1219 762q117 0 187 -54q71 -54 69 -145q-7 -157 -183 -198q121 -49 121 -170q0 -100 -83 -163q-82 -63 -214 -63q-130 0 -206 60t-72 153q5 72 58 127q54 56 151 74
q-107 51 -107 168q0 93 77 152t202 59zM1198 428q76 0 122 36t46 95q0 54 -43 85q-44 32 -111 32q-69 0 -115 -34q-47 -35 -48 -93q-2 -56 38 -88q41 -33 111 -33zM1116 63q80 0 129 37t49 101q0 57 -42 91q-41 34 -115 34q-81 0 -130 -39q-51 -40 -51 -103q0 -58 43 -89
q44 -32 117 -32z" />
    <glyph glyph-name="threeeighths" unicode="&#x215c;" horiz-adv-x="1753" 
d="M416 606q-126 0 -202 71q-75 71 -69 185l105 23q-2 -83 44 -131q46 -49 130 -49t135 41q53 42 53 106q0 117 -151 117h-80l18 88h64q83 0 148 33q66 34 67 100q0 51 -36 84t-101 33q-76 0 -129 -50t-68 -127l-98 23q16 110 100 179t205 69q107 0 173 -58q64 -56 62 -143
q0 -144 -163 -190q103 -41 98 -154q-1 -105 -88 -178q-86 -72 -217 -72zM1651 1372l-1342 -1372h-116l1341 1372h117zM1417 762q117 0 188 -54q70 -53 68 -145q-7 -157 -182 -198q121 -49 121 -170q0 -100 -83 -163q-82 -63 -214 -63q-129 0 -206 60q-77 61 -73 153
q4 71 59 127t150 74q-106 51 -106 168q0 94 76 152q77 59 202 59zM1397 428q75 0 122 36q46 36 46 95q0 54 -43 85q-44 32 -111 32q-70 0 -116 -34q-47 -35 -48 -93q-1 -55 39 -88t111 -33zM1315 63q80 0 129 37t49 101q0 57 -42 91q-41 34 -116 34q-81 0 -130 -39
q-50 -39 -50 -103q0 -58 43 -89q44 -32 117 -32z" />
    <glyph glyph-name="fiveeighths" unicode="&#x215d;" horiz-adv-x="1746" 
d="M727 874q0 -120 -88 -196t-227 -76q-116 0 -194 64q-76 63 -81 159l115 19q5 -65 50 -102q46 -37 116 -37q88 0 141 45t53 118q0 55 -39 88t-106 33h-254l90 383h498l-23 -104h-391l-43 -181h143q107 0 173 -57q67 -58 67 -156zM1665 1372l-1341 -1372h-117l1341 1372
h117zM1425 762q117 0 188 -54q70 -53 68 -145q-7 -157 -182 -198q121 -49 121 -170q0 -100 -83 -163t-214 -63q-129 0 -206 60q-77 61 -73 153q4 71 59 127t150 74q-106 51 -106 168q0 93 77 152t201 59zM1405 428q75 0 122 36q46 36 46 95q0 54 -43 85q-44 32 -111 32
q-69 0 -115 -34q-48 -35 -49 -93q-1 -55 39 -88t111 -33zM1323 63q80 0 129 37t49 101q0 57 -42 91q-41 34 -116 34q-81 0 -130 -39q-50 -39 -50 -103q0 -58 43 -89q44 -32 117 -32z" />
    <glyph glyph-name="seveneighths" unicode="&#x215e;" horiz-adv-x="1552" 
d="M1430 1372l-1342 -1372h-119l1344 1372h117zM141 616l467 652h-403l24 104h541l-20 -90l-474 -666h-135zM1227 762q117 0 187 -54q71 -54 69 -145q-7 -157 -183 -198q121 -49 121 -170q0 -100 -83 -163q-82 -63 -214 -63q-128 0 -205 60q-77 61 -73 153q5 72 58 127
q54 56 151 74q-107 51 -107 168q0 93 77 152t202 59zM1206 428q75 0 122 36q46 36 46 95q0 54 -43 85q-44 32 -110 32q-70 0 -116 -34q-47 -35 -48 -93q-1 -55 39 -88t110 -33zM1124 63q80 0 129 37q50 38 50 101q0 57 -42 91q-41 34 -116 34q-81 0 -130 -39
q-50 -39 -50 -103q0 -58 43 -89q44 -32 116 -32z" />
    <glyph glyph-name="arrowleft" unicode="&#x2190;" horiz-adv-x="1488" 
d="M1407 584h-1077l489 -488l-114 -116l-685 684l685 684l114 -115l-487 -488h1075v-161z" />
    <glyph glyph-name="arrowup" unicode="&#x2191;" horiz-adv-x="1531" 
d="M1333 590l-485 485v-1075h-162v1077l-487 -489l-117 114l684 684l684 -681z" />
    <glyph glyph-name="arrowright" unicode="&#x2192;" horiz-adv-x="1488" 
d="M1468 664l-682 -684l-114 116l487 488h-1077v161h1075l-487 488l114 115z" />
    <glyph glyph-name="arrowdown" unicode="&#x2193;" horiz-adv-x="1531" 
d="M1450 670l-684 -684l-684 684l117 114l487 -489v1077h162v-1075l485 487z" />
    <glyph glyph-name="uni2196" unicode="&#x2196;" horiz-adv-x="1527" 
d="M1333 -14l-1110 1112v-733h-162v1007h1008v-162h-731l1108 -1108z" />
    <glyph glyph-name="uni2197" unicode="&#x2197;" horiz-adv-x="1527" 
d="M1466 1372v-1007h-161v731l-1108 -1110l-115 116l1110 1108h-731v162h1005z" />
    <glyph glyph-name="uni2198" unicode="&#x2198;" horiz-adv-x="1527" 
d="M1466 1010v-1010h-1005v162h731l-1110 1110l115 114l1108 -1107v731h161z" />
    <glyph glyph-name="uni2199" unicode="&#x2199;" horiz-adv-x="1527" 
d="M338 162h731v-162h-1008v1010h162v-734l1110 1110l113 -114z" />
    <glyph glyph-name="minus" unicode="&#x2212;" horiz-adv-x="1189" 
d="M1057 555h-901l32 139h902z" />
    <glyph glyph-name="approxequal" unicode="&#x2248;" horiz-adv-x="1189" 
d="M1135 887l-33 -139q-89 -43 -211 -43q-105 0 -225 55t-217 55q-159 0 -248 -67l32 135q93 65 244 65q103 0 225 -56t222 -56q121 0 211 51zM1059 561l-31 -137q-96 -45 -213 -45q-106 0 -225 56q-122 57 -217 57q-155 0 -246 -68l31 135q94 66 245 66q101 0 225 -57
q122 -56 220 -56q123 0 211 49z" />
    <glyph glyph-name="notequal" unicode="&#x2260;" horiz-adv-x="1189" 
d="M795 776l-207 -248h465l-33 -139h-549l-152 -182h-147l154 182h-207l33 139h288l209 248h-440l31 139h526l156 187h145l-156 -187h230l-31 -139h-315z" />
    <glyph glyph-name="lessequal" unicode="&#x2264;" horiz-adv-x="866" 
d="M293 725l495 -186l-32 -150l-658 277l35 143l782 274l-38 -170zM35 319h717l-33 -137h-715z" />
    <glyph glyph-name="greaterequal" unicode="&#x2265;" horiz-adv-x="866" 
d="M678 750l-496 184l37 151l658 -274l-33 -143l-785 -275l37 168zM727 182h-717l33 140h717z" />
    <glyph glyph-name="K.ss03" horiz-adv-x="1417" 
d="M838 784l428 -784h-187l-366 674l-422 -371l-70 -303h-162l318 1372h162l-191 -823l952 823h205z" />
    <glyph glyph-name="Kcommaaccent.ss03" horiz-adv-x="1417" 
d="M838 784l428 -784h-187l-366 674l-422 -371l-70 -303h-162l318 1372h162l-191 -823l952 823h205zM512 -92h176l-213 -293h-123z" />
    <glyph glyph-name="Q.ss04" horiz-adv-x="1644" 
d="M1362 -348l-305 375q-140 -54 -287 -54q-304 -2 -479 205q-176 208 -133 508q47 299 280 507t525 208q303 0 479 -209t131 -506q-27 -184 -122 -335t-241 -247l373 -452h-221zM319 686q-34 -236 100 -399q133 -162 357 -162q235 0 417 161q180 160 218 400
q34 235 -97 398q-132 163 -356 163q-237 0 -420 -162q-185 -164 -219 -399z" />
    <glyph glyph-name="I.ss05" horiz-adv-x="901" 
d="M698 1227l-247 -1080h315l-33 -147h-796l32 147h320l248 1080h-318l33 145h797l-33 -145h-318z" />
    <glyph glyph-name="IJ.ss05" horiz-adv-x="2117" 
d="M451 147h315l-33 -147h-796l32 147h320l248 1080h-318l33 145h797l-33 -145h-318zM2175 1372l-203 -872q-57 -244 -218 -386q-160 -141 -386 -141q-196 0 -318 122t-120 321l153 35q-5 -150 75 -240t222 -90q157 0 273 104t157 275l170 727h-594l33 145h756z" />
    <glyph glyph-name="Iacute.ss05" horiz-adv-x="901" 
d="M770 1526h-147l229 286h199zM1049 1372l-33 -145h-318l-247 -1080h315l-33 -147h-796l32 147h320l248 1080h-318l33 145h797z" />
    <glyph glyph-name="Icircumflex.ss05" horiz-adv-x="901" 
d="M565 1509h-168l308 291h147l172 -291h-150l-110 191zM698 1227l-247 -1080h315l-33 -147h-796l32 147h320l248 1080h-318l33 145h797l-33 -145h-318z" />
    <glyph glyph-name="Idieresis.ss05" horiz-adv-x="901" 
d="M510 1546q-46 0 -76 30q-31 31 -31 75q0 42 31 73t76 31q44 0 77 -31q31 -30 31 -73q0 -45 -30 -75t-78 -30zM915 1546q-45 0 -75 30q-31 31 -31 75q0 42 31 73t75 31t77 -31q32 -30 32 -73q0 -44 -31 -75q-30 -30 -78 -30zM698 1227l-247 -1080h315l-33 -147h-796
l32 147h320l248 1080h-318l33 145h797l-33 -145h-318z" />
    <glyph glyph-name="Idotaccent.ss05" horiz-adv-x="901" 
d="M713 1563q-46 0 -75 28q-30 29 -30 74q0 41 30 71q29 29 75 29q44 0 73 -29q31 -31 31 -71q0 -45 -30 -74q-29 -28 -74 -28zM698 1227l-247 -1080h315l-33 -147h-796l32 147h320l248 1080h-318l33 145h797l-33 -145h-318z" />
    <glyph glyph-name="Igrave.ss05" horiz-adv-x="901" 
d="M612 1526l-280 286h196l230 -286h-146zM698 1227l-247 -1080h315l-33 -147h-796l32 147h320l248 1080h-318l33 145h797l-33 -145h-318z" />
    <glyph glyph-name="Imacron.ss05" horiz-adv-x="901" 
d="M983 1561h-582l29 127h582zM698 1227l-247 -1080h315l-33 -147h-796l32 147h320l248 1080h-318l33 145h797l-33 -145h-318z" />
    <glyph glyph-name="Iogonek.ss05" horiz-adv-x="901" 
d="M698 1227l-247 -1080h315l-33 -147h-317q-13 -12 -51 -43q-44 -36 -46 -38q-3 -3 -14 -13.5t-19 -18.5q-5 -5 -12.5 -12t-11.5 -11t-6 -7q-15 -21 -19 -26q-12 -15 -15 -30t-3 -28q0 -70 82 -70q26 0 98 21l-16 -103q-73 -33 -129 -33q-71 0 -117 41q-45 41 -45 109
q0 61 44 119q43 56 157 143h-356l32 147h320l248 1080h-318l33 145h797l-33 -145h-318z" />
    <glyph glyph-name="J.ss05" horiz-adv-x="1216" 
d="M1274 1372l-203 -872q-57 -244 -218 -386q-161 -141 -386 -141q-197 0 -319 122q-121 121 -119 321l153 35q-4 -150 75 -240t222 -90q157 0 273 104t157 275l170 727h-594l33 145h756z" />
    <glyph glyph-name="i.loclTRK" horiz-adv-x="571" 
d="M465 1401q44 0 74 -30t30 -71q0 -45 -29 -73q-31 -29 -75 -29t-75 29q-30 29 -30 73q0 41 30 71t75 30zM248 0h-158l234 1010h157z" />
    <glyph glyph-name="germandbls.case" horiz-adv-x="2514" 
d="M791 1399q213 0 342 -105q128 -104 143 -282l-162 -37q-6 129 -98 207t-240 78q-147 0 -245 -74q-97 -73 -97 -187q0 -64 41 -107q40 -42 131 -75l238 -86q148 -51 219 -130q72 -79 72 -200q0 -191 -149 -310q-148 -118 -388 -118q-227 0 -378 112q-152 112 -159 308
l170 35q5 -147 107 -230q103 -83 274 -83q167 0 265 73t98 195q0 71 -43 117q-46 49 -141 82l-242 86q-140 51 -211 119q-72 69 -72 192q0 183 148 302q146 118 377 118zM2028 1399q213 0 342 -105q128 -104 143 -282l-162 -37q-6 129 -98 207q-91 78 -240 78
q-147 0 -245 -74q-97 -73 -97 -187q0 -64 41 -107q40 -42 131 -75l238 -86q148 -51 219 -130q72 -79 72 -200q0 -191 -149 -310q-148 -118 -388 -118q-227 0 -378 112q-152 112 -159 308l170 35q5 -147 107 -230q103 -83 274 -83q167 0 265 73t98 195q0 71 -43 117
q-46 49 -141 82l-242 86q-140 51 -211 119q-72 69 -72 192q0 183 148 302q146 118 377 118z" />
    <glyph glyph-name="a.ss01" horiz-adv-x="1132" 
d="M664 1034q203 0 305 -108t57 -299l-143 -627h-152l33 139q-166 -166 -399 -166q-153 0 -241 72q-89 72 -89 195q0 150 129 253q128 103 348 103h356l13 49q27 117 -38 186q-65 70 -192 70q-115 0 -206 -56q-93 -57 -132 -151l-141 39q56 136 192 218q137 83 300 83z
M827 412l15 61h-363q-131 0 -210 -61t-79 -148q0 -75 62 -119q61 -43 162 -43q148 0 266 89q116 88 147 221z" />
    <glyph glyph-name="aacute.ss01" horiz-adv-x="1132" 
d="M827 1161h-147l229 287h199zM664 1034q203 0 305 -108t57 -299l-143 -627h-152l33 139q-166 -166 -399 -166q-153 0 -241 72q-89 72 -89 195q0 150 129 253q128 103 348 103h356l13 49q27 117 -38 186q-65 70 -192 70q-115 0 -206 -56q-93 -57 -132 -151l-141 39
q56 136 192 218q137 83 300 83zM827 412l15 61h-363q-131 0 -210 -61t-79 -148q0 -75 62 -119q61 -43 162 -43q148 0 266 89q116 88 147 221z" />
    <glyph glyph-name="abreve.ss01" horiz-adv-x="1132" 
d="M743 1135q-134 0 -200 75q-68 77 -41 201h125q-15 -73 23 -119q38 -45 110 -45q69 0 126 45q54 43 70 119h140q-27 -125 -123 -201q-94 -75 -230 -75zM664 1034q203 0 305 -108t57 -299l-143 -627h-152l33 139q-166 -166 -399 -166q-153 0 -241 72q-89 72 -89 195
q0 150 129 253q128 103 348 103h356l13 49q27 117 -38 186q-65 70 -192 70q-115 0 -206 -56q-93 -57 -132 -151l-141 39q56 136 192 218q137 83 300 83zM827 412l15 61h-363q-131 0 -210 -61t-79 -148q0 -75 62 -119q61 -43 162 -43q148 0 266 89q116 88 147 221z" />
    <glyph glyph-name="acircumflex.ss01" horiz-adv-x="1132" 
d="M623 1145h-168l307 291h147l172 -291h-149l-111 190zM664 1034q203 0 305 -108t57 -299l-143 -627h-152l33 139q-166 -166 -399 -166q-153 0 -241 72q-89 72 -89 195q0 150 129 253q128 103 348 103h356l13 49q27 117 -38 186q-65 70 -192 70q-115 0 -206 -56
q-93 -57 -132 -151l-141 39q56 136 192 218q137 83 300 83zM827 412l15 61h-363q-131 0 -210 -61t-79 -148q0 -75 62 -119q61 -43 162 -43q148 0 266 89q116 88 147 221z" />
    <glyph glyph-name="adieresis.ss01" horiz-adv-x="1132" 
d="M567 1182q-46 0 -75 29q-31 31 -31 75q0 43 31 74t75 31t77 -31q32 -30 32 -74t-31 -75q-29 -29 -78 -29zM973 1391q44 0 77 -31q31 -30 31 -74q0 -45 -30 -75q-29 -29 -78 -29q-47 0 -76 29q-31 31 -31 75q0 43 31 74t76 31zM664 1034q203 0 305 -108t57 -299l-143 -627
h-152l33 139q-166 -166 -399 -166q-153 0 -241 72q-89 72 -89 195q0 150 129 253q128 103 348 103h356l13 49q27 117 -38 186q-65 70 -192 70q-115 0 -206 -56q-93 -57 -132 -151l-141 39q56 136 192 218q137 83 300 83zM827 412l15 61h-363q-131 0 -210 -61t-79 -148
q0 -75 62 -119q61 -43 162 -43q148 0 266 89q116 88 147 221z" />
    <glyph glyph-name="agrave.ss01" horiz-adv-x="1132" 
d="M670 1161l-281 287h197l229 -287h-145zM664 1034q203 0 305 -108t57 -299l-143 -627h-152l33 139q-166 -166 -399 -166q-153 0 -241 72q-89 72 -89 195q0 150 129 253q128 103 348 103h356l13 49q27 117 -38 186q-65 70 -192 70q-115 0 -206 -56q-93 -57 -132 -151
l-141 39q56 136 192 218q137 83 300 83zM827 412l15 61h-363q-131 0 -210 -61t-79 -148q0 -75 62 -119q61 -43 162 -43q148 0 266 89q116 88 147 221z" />
    <glyph glyph-name="amacron.ss01" horiz-adv-x="1132" 
d="M1069 1323l-29 -127h-581l28 127h582zM664 1034q203 0 305 -108t57 -299l-143 -627h-152l33 139q-166 -166 -399 -166q-153 0 -241 72q-89 72 -89 195q0 150 129 253q128 103 348 103h356l13 49q27 117 -38 186q-65 70 -192 70q-115 0 -206 -56q-93 -57 -132 -151
l-141 39q56 136 192 218q137 83 300 83zM827 412l15 61h-363q-131 0 -210 -61t-79 -148q0 -75 62 -119q61 -43 162 -43q148 0 266 89q116 88 147 221z" />
    <glyph glyph-name="aogonek.ss01" horiz-adv-x="1132" 
d="M664 1034q203 0 305 -108t57 -299l-143 -627q-5 -4 -52 -43q-39 -31 -45 -38q-3 -3 -14 -13.5t-19 -18.5q-5 -5 -12.5 -12t-11.5 -11t-6 -7t-9 -12t-11 -14q-11 -13 -14 -30q-3 -15 -3 -28q0 -70 82 -70q26 0 98 21l-16 -103q-74 -33 -129 -33q-71 0 -117 41
q-45 41 -45 109q0 61 44 119q43 56 157 143h-29l33 139q-166 -166 -399 -166q-153 0 -241 72q-89 72 -89 195q0 150 129 253q128 103 348 103h356l13 49q27 117 -38 186q-65 70 -192 70q-115 0 -206 -56q-93 -57 -132 -151l-141 39q56 136 192 218q137 83 300 83zM827 412
l15 61h-363q-131 0 -210 -61t-79 -148q0 -75 62 -119q61 -43 162 -43q148 0 266 89q116 88 147 221z" />
    <glyph glyph-name="aring.ss01" horiz-adv-x="1132" 
d="M760 1124q-84 0 -139 57q-56 58 -56 136q0 89 68 154t162 65q84 0 139 -55t55 -135q0 -90 -67 -156q-68 -66 -162 -66zM786 1442q-48 0 -85 -35q-35 -34 -35 -84q0 -44 28 -73t74 -29q52 0 88 35q37 36 37 83q0 42 -31 73q-30 30 -76 30zM664 1034q203 0 305 -108
t57 -299l-143 -627h-152l33 139q-166 -166 -399 -166q-153 0 -241 72q-89 72 -89 195q0 150 129 253q128 103 348 103h356l13 49q27 117 -38 186q-65 70 -192 70q-115 0 -206 -56q-93 -57 -132 -151l-141 39q56 136 192 218q137 83 300 83zM827 412l15 61h-363
q-131 0 -210 -61t-79 -148q0 -75 62 -119q61 -43 162 -43q148 0 266 89q116 88 147 221z" />
    <glyph glyph-name="atilde.ss01" horiz-adv-x="1132" 
d="M659 1307q-36 0 -62 -26q-25 -25 -36 -67h-110q24 106 88 158q63 51 139 51q66 0 125 -49t102 -49q35 0 61 27q25 26 35 69h111q-24 -106 -88 -160q-64 -53 -137 -53q-68 0 -127 49q-61 50 -101 50zM664 1034q203 0 305 -108t57 -299l-143 -627h-152l33 139
q-166 -166 -399 -166q-153 0 -241 72q-89 72 -89 195q0 150 129 253q128 103 348 103h356l13 49q27 117 -38 186q-65 70 -192 70q-115 0 -206 -56q-93 -57 -132 -151l-141 39q56 136 192 218q137 83 300 83zM827 412l15 61h-363q-131 0 -210 -61t-79 -148q0 -75 62 -119
q61 -43 162 -43q148 0 266 89q116 88 147 221z" />
    <glyph glyph-name="l.ss02" horiz-adv-x="638" 
d="M528 1475l-280 -1217q-16 -62 8 -99q24 -36 88 -36q55 0 133 35l23 -138q-92 -47 -187 -47q-122 0 -187 80q-64 79 -34 215l281 1207h155z" />
    <glyph glyph-name="lacute.ss02" horiz-adv-x="638" 
d="M567 1628h-147l229 287h199zM528 1475l-280 -1217q-16 -62 8 -99q24 -36 88 -36q55 0 133 35l23 -138q-92 -47 -187 -47q-122 0 -187 80q-64 79 -34 215l281 1207h155z" />
    <glyph glyph-name="lcaron.ss02" horiz-adv-x="638" 
d="M528 1475l-280 -1217q-16 -62 8 -99q24 -36 88 -36q55 0 133 35l23 -138q-92 -47 -187 -47q-122 0 -187 80q-64 79 -34 215l281 1207h155zM717 1122h-125l82 353h157z" />
    <glyph glyph-name="lcommaaccent.ss02" horiz-adv-x="638" 
d="M528 1475l-280 -1217q-16 -62 8 -99q24 -36 88 -36q55 0 133 35l23 -138q-92 -47 -187 -47q-122 0 -187 80q-64 79 -34 215l281 1207h155zM-18 -385l159 293h176l-213 -293h-122z" />
    <glyph glyph-name="ldot.ss02" horiz-adv-x="720" 
d="M539 1475l-283 -1217q-16 -62 8 -99q24 -36 88 -36q58 0 133 35l25 -138q-96 -47 -186 -47q-123 0 -188 80q-64 79 -34 215l279 1207h158zM672 795q46 0 76 -30t30 -71q0 -45 -29 -73q-31 -29 -77 -29q-44 0 -75 29q-30 29 -30 73q0 40 31 71q30 30 74 30z" />
    <glyph glyph-name="lslash.ss02" horiz-adv-x="704" 
d="M412 678l-99 -420q-16 -61 9 -99q24 -36 88 -36q58 0 133 35l24 -138q-96 -47 -186 -47q-122 0 -187 80q-64 79 -34 215l71 312l-172 -95l35 156l174 94l170 740h158l-150 -641l211 114l-34 -155z" />
    <glyph glyph-name="k.ss03" horiz-adv-x="1218" 
d="M731 608l361 -608h-181l-301 506l-338 -287l-51 -219h-158l343 1475h155l-235 -1024l671 559h207z" />
    <glyph glyph-name="kcommaaccent.ss03" horiz-adv-x="1218" 
d="M731 608l361 -608h-181l-301 506l-338 -287l-51 -219h-158l343 1475h155l-235 -1024l671 559h207zM430 -92h176l-213 -293h-123z" />
    <glyph glyph-name="f_j" horiz-adv-x="1325" 
d="M1247 1010l-264 -1145q-27 -115 -113 -184q-87 -70 -200 -70q-88 0 -158 35l63 135q51 -23 93 -23q60 0 104 34q45 35 57 91l232 996h-600l-203 -879h-158l203 879h-174l31 131h174l35 149q38 162 152 255q116 95 274 95q107 0 180 -49l-68 -125q-57 33 -131 33
q-96 0 -162 -56q-68 -57 -90 -153l-35 -149h758zM1235 1419q46 0 76 -30t30 -74q0 -45 -30 -75t-76 -30q-48 0 -78 30q-31 31 -31 75q0 43 31 74q30 30 78 30z" />
    <glyph glyph-name="f_t" horiz-adv-x="1536" 
d="M1176 879l-127 -557q-22 -98 8 -150q30 -51 110 -51q94 0 197 65l16 -137q-113 -76 -243 -76q-147 0 -216 88q-69 89 -32 254l131 564h-561l-203 -879h-156l203 879h-176l31 131h174l35 149q40 161 154 255q116 95 272 95q107 0 180 -49l-68 -125q-52 33 -131 33
q-96 0 -161 -56q-67 -58 -89 -153l-35 -149h562l73 321h156l-74 -321h363l-31 -131h-362z" />
    <glyph glyph-name="fl.ss02" horiz-adv-x="1368" 
d="M461 879l-203 -879h-158l203 879h-174l29 131h176l35 149q39 167 148 258q110 92 267 92q98 0 158 -36l-35 -125q-67 22 -131 22q-97 0 -163 -57t-89 -154l-35 -149h367l-29 -131h-366zM1073 123q58 0 133 35l25 -138q-96 -47 -187 -47q-122 0 -187 80q-64 79 -34 215
l279 1207h158l-283 -1217q-16 -62 8 -99q24 -36 88 -36z" />
    <glyph glyph-name="zero.tf" 
d="M788 1399q252 0 373 -198q121 -197 64 -515q-60 -320 -246 -516q-186 -197 -436 -197q-253 0 -374 198q-123 200 -63 515q57 319 245 516t437 197zM561 125q179 0 316 155q138 156 184 406q47 252 -33 408q-79 155 -258 155t-315 -155q-139 -159 -185 -408
q-46 -252 33 -406q80 -155 258 -155z" />
    <glyph glyph-name="one.tf" 
d="M1036 147l-32 -147h-961l33 147h418l235 1020l-412 -206l41 172l473 239h101l-281 -1225h385z" />
    <glyph glyph-name="two.tf" 
d="M373 147h657l-35 -147h-942l33 104l598 457q95 70 136 104q49 40 101 94q55 57 78 114q23 58 23 124q0 117 -74 189q-72 71 -200 71q-135 0 -224 -86q-88 -85 -106 -241l-152 31q22 198 158 318q135 120 334 120q190 0 303 -107t113 -282q0 -154 -92 -273t-306 -282z" />
    <glyph glyph-name="three.tf" 
d="M1186 1051q0 -135 -79 -227q-79 -93 -212 -130q176 -83 176 -280q0 -186 -145 -313q-146 -128 -369 -128q-217 0 -344 124q-128 125 -117 323l148 33q-6 -151 77 -245q82 -93 238 -93q152 0 253 88t101 215q0 104 -72 163q-71 58 -198 58h-147l36 131h142q148 0 257 69
t109 195q0 105 -74 166q-76 62 -198 62q-134 0 -225 -80q-90 -79 -117 -230l-147 27q34 194 168 307t331 113q184 0 296 -95t112 -253z" />
    <glyph glyph-name="four.tf" 
d="M956 463h203l-31 -133h-202l-76 -330h-158l76 330h-733l37 155l889 887h204zM799 463l168 731l-734 -731h566z" />
    <glyph glyph-name="five.tf" 
d="M506 1227l-123 -402h268q190 0 305 -95t115 -269q0 -203 -146 -345q-148 -143 -382 -143q-223 0 -356 131t-128 345l152 28q-2 -167 88 -265q90 -99 252 -99t261 96t99 231q0 119 -78 182q-79 64 -210 64h-433l207 686h826l-35 -145h-682z" />
    <glyph glyph-name="six.tf" 
d="M717 887q184 0 299 -112q114 -111 114 -286q0 -216 -150 -366t-380 -150q-221 0 -347 144t-126 387q0 382 207 638q207 257 510 257q161 0 276 -80t133 -221l-151 -31q-12 89 -86 139q-73 49 -182 49q-214 0 -364 -174q-151 -175 -173 -409q60 97 174 156q113 59 246 59z
M606 121q157 0 258 104q103 106 103 254q0 119 -81 196q-82 77 -206 77q-146 0 -257 -109q-110 -108 -110 -240q0 -126 84 -204t209 -78z" />
    <glyph glyph-name="seven.tf" 
d="M1360 1372l-27 -110l-934 -1262h-194l915 1227h-827l33 145h1034z" />
    <glyph glyph-name="eight.tf" 
d="M766 1399q206 0 328 -99q120 -98 114 -258q-5 -131 -91 -229t-257 -125q116 -43 175 -126t59 -185q0 -176 -147 -290t-378 -114q-225 0 -358 105t-127 274q5 132 110 234t291 129q-209 83 -209 303q0 169 136 275t354 106zM727 782q143 0 232 72q90 73 90 182
q0 106 -80 168t-209 62q-136 0 -229 -67q-90 -65 -95 -179q-6 -106 74 -172t217 -66zM571 113q152 0 249 73q98 74 98 199q0 109 -81 175q-82 67 -223 67q-154 0 -253 -75t-99 -196q0 -112 86 -178q84 -65 223 -65z" />
    <glyph glyph-name="nine.tf" 
d="M731 1397q221 0 347 -143q126 -142 126 -388q0 -382 -207 -638q-207 -257 -510 -257q-161 0 -276 80t-133 223l151 29q12 -89 86 -139q73 -49 183 -49q212 0 362 174t174 409q-61 -96 -175 -156q-112 -59 -245 -59q-184 0 -299 112q-114 111 -114 288q0 217 150 365
q151 149 380 149zM651 618q147 0 257 110t110 241q0 123 -84 203q-83 79 -209 79q-157 0 -258 -104q-102 -105 -102 -254q0 -122 80 -198q82 -77 206 -77z" />
    <glyph glyph-name="zero.zero.tf" 
d="M788 1399q252 0 373 -198q121 -197 64 -515q-60 -320 -246 -516q-186 -197 -436 -197q-253 0 -374 198q-123 200 -63 515q57 319 245 516t437 197zM770 1249q-179 0 -315 -155q-139 -159 -185 -408q-26 -132 -14 -250l758 682q-84 131 -244 131zM561 125q179 0 316 155
q138 156 184 406q30 175 4 297l-768 -692q78 -166 264 -166z" />
    <glyph glyph-name="zero.zero" horiz-adv-x="1351" 
d="M834 1399q258 0 388 -198q130 -197 70 -515q-61 -323 -244 -518t-436 -195q-257 0 -388 199q-130 197 -68 514q62 324 243 517q184 196 435 196zM319 686q-29 -147 -12 -262l772 694q-84 131 -252 131q-182 0 -320 -154q-138 -155 -188 -409zM1128 686q33 169 5 301
l-783 -704q84 -158 268 -158q183 0 321 155t189 406z" />
    <glyph glyph-name="zero.dnom" horiz-adv-x="804" 
d="M432 762q147 0 219 -108q72 -107 43 -283q-28 -177 -134 -286q-105 -108 -251 -108q-144 0 -216 108q-73 109 -46 286q28 174 134 283q105 108 251 108zM324 86q88 0 154 75t87 210q21 131 -20 208q-40 76 -129 76q-93 0 -158 -78t-86 -206q-21 -129 21 -208
q41 -77 131 -77z" />
    <glyph glyph-name="one.dnom" horiz-adv-x="479" 
d="M225 -2h-119l142 608l-211 -102l29 123l258 129h75z" />
    <glyph glyph-name="two.dnom" horiz-adv-x="690" 
d="M176 104h348l-22 -106h-551l20 80l334 241q109 82 147 125q44 50 44 103q0 57 -37 91t-99 34q-73 0 -121 -48q-49 -49 -55 -128l-104 18q6 115 87 185q82 71 202 71q110 0 173 -60q62 -59 62 -157q0 -82 -52 -146q-53 -65 -181 -159z" />
    <glyph glyph-name="three.dnom" horiz-adv-x="706" 
d="M406 770q108 0 173 -57q64 -56 62 -144q0 -143 -164 -190q103 -41 98 -154q-1 -105 -88 -178q-85 -72 -217 -72q-125 0 -202 71q-76 70 -68 185l104 23q-2 -83 44 -131q46 -49 131 -49q83 0 135 42q53 42 53 105q0 117 -152 117h-79l18 88h63q85 0 149 33q65 33 66 100
q0 52 -35 84q-36 33 -102 33q-77 0 -129 -49t-67 -127l-99 22q16 109 101 179q84 69 205 69z" />
    <glyph glyph-name="four.dnom" horiz-adv-x="770" 
d="M643 170h-125l-39 -170h-112l39 170h-431l25 111l516 475h137l-112 -488h125zM428 268l84 357l-393 -357h309z" />
    <glyph glyph-name="five.dnom" horiz-adv-x="704" 
d="M244 645l-43 -180h143q107 0 173 -57q67 -58 67 -156q0 -121 -88 -197q-87 -75 -228 -75q-116 0 -194 63q-77 63 -82 160l117 18q5 -64 50 -101q47 -38 115 -38q90 0 142 45q53 45 53 119q0 55 -39 88t-106 33h-254l90 383h497l-22 -105h-391z" />
    <glyph glyph-name="six.dnom" horiz-adv-x="739" 
d="M373 487q106 0 169 -63q62 -62 62 -164q0 -122 -85 -201t-216 -79q-130 0 -199 82t-69 233q0 197 108 332t273 135q99 0 167 -49t79 -140l-117 -16q-12 109 -133 109q-97 0 -164 -76q-68 -77 -90 -187q84 84 215 84zM311 76q78 0 131 53q54 54 54 127q0 64 -40 104
q-41 41 -108 41q-80 0 -135 -54t-55 -126q0 -64 43 -104q44 -41 110 -41z" />
    <glyph glyph-name="seven.dnom" horiz-adv-x="593" 
d="M627 756l-21 -90l-473 -666h-137l469 651h-404l25 105h541z" />
    <glyph glyph-name="eight.dnom" horiz-adv-x="704" 
d="M377 762q117 0 187 -54q71 -54 69 -145q-7 -157 -182 -198q120 -49 120 -170q0 -100 -83 -163q-82 -63 -214 -63q-128 0 -206 60t-74 153q5 72 58 127q55 56 153 74q-107 51 -107 168q0 93 77 152t202 59zM356 428q76 0 122 36t46 95q0 54 -43 85q-44 32 -110 32
q-70 0 -116 -34q-47 -35 -48 -93q-1 -55 39 -88q41 -33 110 -33zM274 63q80 0 129 37q50 38 50 101q0 57 -42 91q-41 34 -116 34q-81 0 -130 -39q-50 -39 -50 -103q0 -58 43 -89q44 -32 116 -32z" />
    <glyph glyph-name="nine.dnom" horiz-adv-x="739" 
d="M373 762q129 0 198 -82q70 -84 70 -234q0 -195 -109 -331q-108 -135 -274 -135q-99 0 -167 49q-70 50 -77 139l115 18q12 -108 135 -108q96 0 164 77q67 76 88 185q-84 -84 -215 -84q-107 0 -169 62t-62 163q0 121 86 201t217 80zM328 340q80 0 134 55t54 127
q0 64 -43 104t-108 40q-79 0 -132 -53t-53 -128q0 -62 40 -103q40 -42 108 -42z" />
    <glyph glyph-name="zero.numr" horiz-adv-x="804" 
d="M578 1393q147 0 219 -108q72 -107 43 -284q-28 -177 -134 -284q-105 -107 -251 -107q-144 0 -216 107q-73 108 -46 284q28 175 134 284q105 108 251 108zM469 717q89 0 155 75t87 209q21 129 -21 208q-41 77 -129 77q-92 0 -158 -79q-65 -78 -86 -206t21 -207
q41 -77 131 -77z" />
    <glyph glyph-name="one.numr" horiz-adv-x="479" 
d="M369 616h-119l141 607l-211 -103l29 123l258 129h76z" />
    <glyph glyph-name="two.numr" horiz-adv-x="690" 
d="M319 727h349l-23 -104h-549l21 77l332 242q106 80 146 125q44 50 44 102q0 58 -37 92q-36 33 -98 33q-74 0 -122 -48t-54 -128l-105 19q6 115 87 185q82 71 202 71q109 0 173 -61q63 -60 63 -156q0 -82 -53 -147t-181 -159z" />
    <glyph glyph-name="three.numr" horiz-adv-x="706" 
d="M551 1401q107 0 173 -58q64 -56 62 -143q0 -144 -163 -190q103 -41 98 -154q-1 -105 -88 -178q-86 -72 -217 -72q-126 0 -202 71q-75 71 -69 185l105 23q-2 -83 44 -131q46 -49 130 -49t135 41q53 42 53 106q0 117 -151 117h-80l18 88h64q83 0 148 33q66 34 67 100
q0 51 -36 84t-101 33q-76 0 -129 -50t-68 -127l-98 23q16 110 100 179t205 69z" />
    <glyph glyph-name="four.numr" horiz-adv-x="770" 
d="M786 786h-124l-39 -170h-113l39 170h-430l24 111l516 475h138l-113 -487h125zM571 885l84 356l-393 -356h309z" />
    <glyph glyph-name="five.numr" horiz-adv-x="704" 
d="M387 1268l-43 -181h143q107 0 173 -57q67 -58 67 -156q0 -120 -88 -196t-227 -76q-116 0 -194 64q-76 63 -81 159l115 19q5 -65 50 -102q46 -37 116 -37q88 0 141 45t53 118q0 55 -39 88t-106 33h-254l90 383h498l-23 -104h-391z" />
    <glyph glyph-name="six.numr" horiz-adv-x="739" 
d="M518 1118q106 0 169 -63t63 -164q0 -122 -85 -201q-86 -80 -216 -80t-199 83q-70 84 -70 233q0 195 109 331t272 136q97 0 167 -50q69 -49 79 -139l-117 -16q-12 108 -133 108q-98 0 -164 -75q-68 -77 -90 -187q84 84 215 84zM457 707q78 0 131 53t53 127q0 64 -40 104
q-41 41 -107 41q-80 0 -136 -54q-55 -54 -55 -126q0 -64 43 -104q44 -41 111 -41z" />
    <glyph glyph-name="seven.numr" horiz-adv-x="593" 
d="M770 1372l-20 -90l-474 -666h-135l467 652h-403l24 104h541z" />
    <glyph glyph-name="eight.numr" horiz-adv-x="704" 
d="M518 1393q116 0 188 -55q70 -53 68 -144q-8 -158 -182 -199q121 -49 121 -170q0 -99 -83 -161t-214 -62q-130 0 -206 58q-77 59 -73 153q4 71 59 127t150 74q-106 51 -106 168q0 94 76 152q77 59 202 59zM498 1059q76 0 122 36t46 95q0 54 -43 85q-44 32 -111 32
q-70 0 -116 -34q-47 -35 -48 -93q-1 -55 39 -88t111 -33zM416 694q80 0 129 37t49 100q0 57 -42 92q-40 33 -116 33q-82 0 -130 -38q-50 -39 -50 -103q0 -58 43 -89q44 -32 117 -32z" />
    <glyph glyph-name="nine.numr" horiz-adv-x="739" 
d="M518 1393q130 0 199 -82q69 -83 69 -234q0 -197 -108 -332t-275 -135q-98 0 -166 49q-69 50 -77 140l114 18q12 -108 136 -108q96 0 163 76q68 77 89 186q-84 -84 -216 -84q-106 0 -168 62q-63 63 -63 163q0 121 86 201t217 80zM473 971q80 0 134 55q55 57 55 127
q0 62 -44 103q-43 40 -108 40q-80 0 -132 -52t-52 -128q0 -62 40 -103q41 -42 107 -42z" />
    <glyph glyph-name="backslash.case" horiz-adv-x="763" 
d="M590 0h-154l-178 1372h154z" />
    <glyph glyph-name="periodcentered.case" horiz-adv-x="423" 
d="M252 776q45 0 76 -31q30 -30 30 -73t-30 -73t-76 -30t-76 30q-31 31 -31 73t31 73t76 31z" />
    <glyph glyph-name="bullet.case" horiz-adv-x="831" 
d="M455 973q129 0 217 -87t88 -208q0 -125 -87 -209t-218 -84t-217 83t-86 210q0 121 87 208t216 87z" />
    <glyph glyph-name="colon.case" horiz-adv-x="428" 
d="M330 1110q45 0 76 -31q30 -30 30 -73t-30 -73t-76 -30t-76 30q-31 31 -31 73t31 73t76 31zM172 416q45 0 76 -31t31 -74q0 -41 -31 -72q-30 -30 -76 -30t-76 30t-30 72q0 44 30 74q31 31 76 31z" />
    <glyph glyph-name="exclamdown.case" horiz-adv-x="557" 
d="M459 1174q-47 0 -76 29q-31 31 -31 73q0 46 30 74q29 28 77 28t77 -28t29 -74q0 -43 -30 -73q-29 -29 -76 -29zM84 0l14 63l213 902h160l-203 -902l-14 -63h-170z" />
    <glyph glyph-name="questiondown.case" horiz-adv-x="1060" 
d="M733 1178q-46 0 -76 30t-30 74q0 43 30 73q29 29 76 29t76 -29q31 -31 31 -73q0 -43 -31 -74q-30 -30 -76 -30zM825 442l148 -28q-23 -189 -165 -312q-141 -122 -347 -122q-187 0 -303 103q-117 104 -117 271q0 195 153 318t363 135l37 158h147l-67 -283h-90
q-142 0 -267 -87q-124 -87 -124 -226q0 -114 76 -181t200 -67q139 0 237 89q96 88 119 232z" />
    <glyph glyph-name="semicolon.case" horiz-adv-x="471" 
d="M346 1110q45 0 76 -31t31 -73t-31 -73q-30 -30 -76 -30t-76 30t-30 73t30 73q31 31 76 31zM-6 -270h-129l262 538h190l-2 -4z" />
    <glyph glyph-name="slash.case" horiz-adv-x="835" 
d="M68 0h-146l844 1372h145z" />
    <glyph glyph-name="braceleft.case" horiz-adv-x="880" 
d="M969 1372l-31 -133h-170q-58 0 -104 -38q-45 -37 -60 -101l-45 -193q-40 -177 -194 -227q60 -27 84 -87t6 -140l-41 -179q-15 -62 13 -101q27 -38 87 -38h170l-33 -135h-186q-120 0 -177 71t-30 189l39 176q18 78 -18 120q-38 44 -115 54l-43 11l29 120l47 11
q180 24 213 172l45 190q27 119 116 188q89 70 211 70h187z" />
    <glyph glyph-name="braceright.case" horiz-adv-x="921" 
d="M846 752l-29 -121l-47 -10q-180 -21 -213 -172l-45 -189q-27 -116 -117 -188t-211 -72h-188l33 135h170q58 0 104 38q44 36 59 101l46 191q41 176 194 229q-60 28 -84 87t-6 139l41 180q15 62 -13 101q-27 38 -87 38h-170l32 133h187q121 0 178 -70q57 -71 29 -188
l-39 -178q-18 -75 18 -119q37 -45 115 -55z" />
    <glyph glyph-name="bracketleft.case" horiz-adv-x="802" 
d="M502 1237l-254 -1100h356l-31 -137h-510l318 1372h508l-31 -135h-356z" />
    <glyph glyph-name="bracketright.case" horiz-adv-x="802" 
d="M823 1372l-317 -1372h-510l33 137h356l254 1100h-356l30 135h510z" />
    <glyph glyph-name="parenleft.case" horiz-adv-x="712" 
d="M616 1399l105 -107q-181 -136 -275 -282q-93 -144 -122 -324q-27 -177 16 -326q43 -148 172 -292l-123 -95q-299 297 -233 713q69 421 460 713z" />
    <glyph glyph-name="parenright.case" horiz-adv-x="714" 
d="M287 1305l123 94q299 -297 233 -713q-69 -420 -461 -713l-104 107q179 134 274 282q94 146 123 324q27 177 -16 326t-172 293z" />
    <glyph glyph-name="emdash.case" horiz-adv-x="2131" 
d="M2038 621h-1884l26 122h1884z" />
    <glyph glyph-name="endash.case" horiz-adv-x="1271" 
d="M1174 621h-1024l28 122h1024z" />
    <glyph glyph-name="hyphen.case" horiz-adv-x="909" 
d="M809 612h-662l33 138h662z" />
    <glyph glyph-name="guillemotleft.case" horiz-adv-x="849" 
d="M117 659l334 365h161l-344 -373l164 -356h-149zM455 659l333 365h162l-344 -373l164 -356h-149z" />
    <glyph glyph-name="guillemotright.case" horiz-adv-x="849" 
d="M471 659l-334 -364h-162l347 375l-164 354h147zM809 659l-334 -364h-162l346 375l-163 354h147z" />
    <glyph glyph-name="guilsinglleft.case" horiz-adv-x="512" 
d="M88 659l334 365h162l-344 -373l163 -356h-149z" />
    <glyph glyph-name="guilsinglright.case" horiz-adv-x="512" 
d="M500 659l-334 -364h-162l346 375l-164 354h148z" />
    <glyph glyph-name="cent.tf" 
d="M754 885l-181 -766q113 5 207 64q95 60 142 163l147 -29q-62 -154 -207 -249t-309 -95h-4l-57 -239h-136l62 256q-172 43 -262 181t-60 333q34 217 196 365q160 147 365 163l60 258h135l-59 -262q139 -23 229 -110q93 -90 111 -220l-160 -32q-10 88 -70 145
q-61 58 -149 74zM248 504q-21 -136 37 -236q57 -98 168 -133l176 752q-143 -18 -250 -123q-107 -106 -131 -260z" />
    <glyph glyph-name="dollar.tf" 
d="M713 760l75 -31q139 -52 204 -123q67 -73 67 -186q0 -168 -134 -273q-132 -104 -352 -104h-26l-55 -248h-138l62 264q-146 33 -236 126q-91 94 -98 239l160 31q6 -99 62 -164t151 -92l110 460l-8 3q-150 57 -221 119q-72 63 -72 182q0 162 126 264t327 108l55 242h137
l-59 -250q140 -23 228 -114q86 -89 102 -228l-152 -35q-8 95 -64 157t-149 85zM422 979q0 -59 39 -97q40 -39 139 -77l94 397q-119 -7 -196 -69q-76 -61 -76 -154zM573 180h19q147 0 231 63t84 167q0 62 -38 103q-37 41 -126 75l-65 26z" />
    <glyph glyph-name="Euro.tf" 
d="M631 125q123 0 228 90t177 256l156 -33q-82 -212 -239 -339q-156 -126 -345 -126q-194 0 -312 132q-117 131 -128 366h-131l26 119h107q6 90 25 182h-88l26 119h92q78 235 242 372q163 136 377 136q191 0 306 -127t130 -344l-164 -31q-15 170 -93 260q-80 92 -204 92
q-141 0 -254 -95q-112 -94 -174 -263h510l-49 -119h-494q-18 -85 -24 -182h436l-47 -119h-389q12 -164 91 -255t206 -91z" />
    <glyph glyph-name="florin.tf" 
d="M1163 1397q161 0 234 -78l-86 -125q-60 63 -162 63q-98 0 -176 -60q-77 -59 -121 -165l-117 -284h377l-31 -132h-401l-277 -669q-117 -285 -385 -285q-110 0 -170 51l86 125q43 -28 105 -28q69 0 123 38q56 39 80 99l276 669h-248l31 132h270l127 307q68 164 190 253
t275 89z" />
    <glyph glyph-name="sterling.tf" 
d="M903 1399q205 0 307 -125q103 -126 64 -328l-150 -20q29 150 -32 239q-62 90 -197 90q-144 0 -248 -88q-105 -89 -135 -223l-55 -242h477l-33 -145h-477l-94 -410h768l-35 -147h-1106l23 100l184 35l98 422h-174l33 145h174l55 242q46 204 198 330q151 125 355 125z" />
    <glyph glyph-name="yen.tf" 
d="M803 641h309l-31 -123h-370l-35 -153h371l-29 -123h-371l-55 -242h-162l55 242h-366l28 123h367l35 153h-367l31 123h301l-274 731h172l245 -692l566 692h196z" />
    <glyph glyph-name="approxequal.tf" 
d="M1163 887l-30 -139q-90 -43 -213 -43q-106 0 -226 55t-217 55q-157 0 -246 -67l31 135q93 65 246 65q102 0 224 -56t220 -56q122 0 211 51zM1090 561l-33 -137q-95 -45 -213 -45q-105 0 -224 56q-121 57 -219 57q-150 0 -245 -68l30 135q96 66 246 66q100 0 225 -57
q122 -56 222 -56q122 0 211 49z" />
    <glyph glyph-name="divide.tf" 
d="M723 1096q46 0 76 -30t30 -73q0 -45 -29 -73q-31 -29 -77 -29t-77 29q-30 28 -30 73q0 42 31 73q30 30 76 30zM1092 555h-902l33 139h901zM553 360q47 0 76 -29q30 -30 30 -73q0 -46 -29 -74t-77 -28t-77 28q-30 29 -30 74q0 42 31 73q29 29 76 29z" />
    <glyph glyph-name="equal.tf" 
d="M1137 776h-901l32 139h901zM1047 389h-902l33 139h901z" />
    <glyph glyph-name="greater.tf" 
d="M870 659l-508 238l39 158l676 -328l-37 -156l-825 -325l37 172z" />
    <glyph glyph-name="greaterequal.tf" 
d="M872 750l-495 184l37 151l657 -274l-33 -143l-784 -275l37 168zM922 182h-717l33 140h716z" />
    <glyph glyph-name="less.tf" 
d="M412 641l506 -238l-39 -157l-674 327l35 156l827 326l-39 -174z" />
    <glyph glyph-name="lessequal.tf" 
d="M457 725l495 -186l-32 -150l-658 277l35 143l782 274l-39 -170zM199 319h716l-32 -137h-715z" />
    <glyph glyph-name="minus.tf" 
d="M1087 555h-901l33 139h901z" />
    <glyph glyph-name="multiply.tf" 
d="M743 618l226 -286l-109 -88l-225 286l-367 -292l-78 102l365 291l-225 287l110 90l226 -287l366 293l78 -103z" />
    <glyph glyph-name="notequal.tf" 
d="M823 776l-209 -248h465l-32 -139h-547l-154 -182h-145l151 182h-207l33 139h291l207 248h-440l32 139h525l155 187h148l-156 -187h229l-32 -139h-314z" />
    <glyph glyph-name="plus.tf" 
d="M1087 555h-380l-89 -385h-141l88 385h-379l33 139h379l88 385h141l-88 -385h381z" />
    <glyph glyph-name="plusminus.tf" 
d="M1147 807l-33 -139h-381l-80 -344h-139l80 344h-381l33 139h381l84 364h139l-84 -364h381zM92 139h901l-32 -139h-902z" />
    <glyph glyph-name="bar.case" horiz-adv-x="512" 
d="M197 -84h-152l354 1540h154z" />
    <glyph glyph-name="at.case" horiz-adv-x="1964" 
d="M1159 1481q319 0 521 -187t202 -479q0 -98 -27 -200q-27 -103 -77 -191q-51 -91 -139 -148q-87 -57 -195 -57q-96 0 -152 44q-54 43 -59 118q-134 -154 -344 -154q-154 0 -249 97t-95 254q0 210 147 351q146 140 340 140q113 0 192 -55q78 -54 111 -154l45 193h109
l-139 -604q-15 -61 21 -99q36 -37 104 -37q133 0 216 156q83 157 83 332q0 258 -176 420q-174 161 -453 161q-360 0 -623 -244q-264 -245 -264 -593q0 -270 170 -445q170 -174 436 -174q123 0 266 38q139 37 250 108l39 -90q-115 -74 -271 -116t-298 -42q-307 0 -505 198
t-198 506q0 262 142 484q141 220 374 345q232 124 496 124zM922 334q138 0 245 104q109 106 109 262q0 119 -70 189q-69 69 -178 69q-138 0 -246 -102t-108 -260q0 -118 69 -190t179 -72z" />
    <glyph glyph-name="caron.alt" horiz-adv-x="1228" 
d="M743 979h-125l82 352h158z" />
    </font>
</defs>
</svg>
