<?xml version="1.0" standalone="no"?>
<!DOCTYPE svg PUBLIC "-//W3C//DTD SVG 1.1//EN" "http://www.w3.org/Graphics/SVG/1.1/DTD/svg11.dtd" >
<svg xmlns="http://www.w3.org/2000/svg" xmlns:xlink="http://www.w3.org/1999/xlink" version="1.1">
<metadata>
Created by FontForge 20170731 at Fri Jul 17 19:22:23 2020
 By Aleksey,,,
Copyright (c) 2014 by Rene' Bieder. All rights reserved.
</metadata>
<defs>
<font id="GalanoGrotesque-Bold" horiz-adv-x="1249" >
  <font-face 
    font-family="GalanoGrotesque-Bold"
    font-weight="400"
    font-stretch="normal"
    units-per-em="2048"
    panose-1="0 0 8 0 0 0 0 0 0 0"
    ascent="1630"
    descent="-418"
    x-height="1028"
    cap-height="1372"
    bbox="-354 -446 2531 1958"
    underline-thickness="102"
    underline-position="-204"
    unicode-range="U+0020-FB02"
  />
<missing-glyph horiz-adv-x="1581" 
d="M791 1401q295 0 503 -205q209 -206 209 -514q0 -305 -209 -509q-208 -204 -503 -204q-298 0 -506 204q-209 204 -209 509q0 308 209 514q208 205 506 205zM791 1288q-247 0 -419 -172q-173 -173 -173 -432q0 -257 173 -430q172 -172 419 -172q244 0 416 172
q173 173 173 430q0 259 -172 431q-173 173 -417 173zM1071 819q0 -84 -56 -139q-57 -56 -153 -72v-59h-172v182h90q50 0 80 24q31 25 31 58q0 41 -28 67q-26 25 -72 25q-50 0 -80 -27q-32 -28 -39 -77l-178 35q12 96 94 163q83 68 209 68q120 0 198 -70q76 -69 76 -178z
M772 483q45 0 75 -30t30 -70q0 -43 -30 -73q-29 -29 -75 -29t-74 29t-28 73q0 41 29 70q30 30 73 30z" />
    <glyph glyph-name="fi" unicode="fi" horiz-adv-x="1343" 
d="M1044 1149q-84 0 -137 51t-53 131q0 78 54 132q55 55 136 55t135 -56q54 -55 54 -131q0 -77 -53 -130q-52 -52 -136 -52zM1208 1028v-1028h-327v768h-377v-768h-326v768h-147v260h147v80q0 180 114 288q113 107 304 107q93 0 186 -35l-59 -258q-62 13 -82 13
q-62 0 -99 -34q-38 -35 -38 -95v-66h704z" />
    <glyph glyph-name="fl" unicode="fl" horiz-adv-x="1337" 
d="M637 1223q-58 0 -96 -35q-37 -34 -37 -94v-66h282v-260h-282v-768h-326v768h-147v260h147v80q0 180 114 288q113 107 300 107q105 0 203 -43l-70 -254q-51 17 -88 17zM1219 1475v-1475h-328v1475h328z" />
    <glyph glyph-name=".notdef" horiz-adv-x="1581" 
d="M791 1401q295 0 503 -205q209 -206 209 -514q0 -305 -209 -509q-208 -204 -503 -204q-298 0 -506 204q-209 204 -209 509q0 308 209 514q208 205 506 205zM791 1288q-247 0 -419 -172q-173 -173 -173 -432q0 -257 173 -430q172 -172 419 -172q244 0 416 172
q173 173 173 430q0 259 -172 431q-173 173 -417 173zM1071 819q0 -84 -56 -139q-57 -56 -153 -72v-59h-172v182h90q50 0 80 24q31 25 31 58q0 41 -28 67q-26 25 -72 25q-50 0 -80 -27q-32 -28 -39 -77l-178 35q12 96 94 163q83 68 209 68q120 0 198 -70q76 -69 76 -178z
M772 483q45 0 75 -30t30 -70q0 -43 -30 -73q-29 -29 -75 -29t-74 29t-28 73q0 41 29 70q30 30 73 30z" />
    <glyph glyph-name=".null" horiz-adv-x="0" 
 />
    <glyph glyph-name="nonmarkingreturn" horiz-adv-x="681" 
 />
    <glyph glyph-name="space" unicode=" " horiz-adv-x="475" 
 />
    <glyph glyph-name="exclam" unicode="!" horiz-adv-x="608" 
d="M487 1372v-63l-20 -840h-324l-20 840v63h364zM309 352q80 0 133 -53q54 -54 54 -129q0 -78 -53 -129t-134 -51q-83 0 -135 51q-53 51 -53 129q0 76 53 129t135 53z" />
    <glyph glyph-name="quotedbl" unicode="&#x22;" horiz-adv-x="917" 
d="M96 727v645h310v-645h-310zM512 727v645h309v-645h-309z" />
    <glyph glyph-name="numbersign" unicode="#" horiz-adv-x="1456" 
d="M1147 791l-60 -240h209l-69 -252h-203l-74 -299h-270l74 299h-238l-74 -299h-270l74 299h-209l67 252h203l60 240h-207l65 251h203l82 330h270l-82 -330h240l82 330h270l-82 -330h209l-69 -251h-201zM874 791h-237l-59 -240h237z" />
    <glyph glyph-name="dollar" unicode="$" horiz-adv-x="1243" 
d="M1161 432q0 -171 -110 -275q-111 -105 -285 -132v-230h-272v236q-172 38 -286 143q-116 107 -132 262l319 62q15 -116 85 -166q71 -51 167 -51q86 0 136 36q53 38 53 95q0 85 -117 112l-260 58q-353 77 -353 364q0 163 106 269q106 107 282 135v227h272v-234
q165 -38 267 -141q103 -104 118 -258l-311 -53q-7 112 -74 162q-65 49 -152 49q-76 0 -122 -37q-48 -39 -48 -92q0 -84 101 -107l264 -59q352 -79 352 -375z" />
    <glyph glyph-name="percent" unicode="%" horiz-adv-x="1771" 
d="M438 1403q147 0 251 -95t104 -249q0 -152 -104 -247t-251 -95q-149 0 -253 95q-103 94 -103 247q0 155 103 249q104 95 253 95zM289 0l991 1372h193l-994 -1372h-190zM438 1200q-54 0 -95 -38q-40 -37 -40 -101q0 -67 40 -104t95 -37q54 0 93 38q40 39 40 103t-40 101
q-41 38 -93 38zM1335 655q147 0 251 -95t104 -249q0 -151 -104 -246q-105 -96 -251 -96q-148 0 -253 96q-103 94 -103 246q0 155 103 249q104 95 253 95zM1335 453q-54 0 -95 -38q-40 -37 -40 -102q0 -66 40 -103q41 -38 95 -38q53 0 93 39t40 102q0 65 -40 102
q-41 38 -93 38z" />
    <glyph glyph-name="ampersand" unicode="&#x26;" horiz-adv-x="1429" 
d="M1212 -57l-174 153q-172 -127 -409 -127q-245 0 -396 118t-151 312q0 223 231 351q-96 128 -96 270q0 169 128 276t327 107q200 0 315 -107q114 -106 141 -282l-303 -53q-15 180 -153 180q-63 0 -101 -34q-39 -35 -39 -95q0 -56 33 -107q34 -52 121 -129l291 -252
q12 54 12 119v92h297v-92q0 -186 -67 -330l184 -159zM641 233q93 0 178 54l-317 276q-99 -61 -99 -151q0 -79 65 -129t173 -50z" />
    <glyph glyph-name="quotesingle" unicode="'" horiz-adv-x="499" 
d="M96 727v645h310v-645h-310z" />
    <glyph glyph-name="parenleft" unicode="(" horiz-adv-x="778" 
d="M418 688q0 -193 67 -342q65 -145 222 -311l-232 -203q-403 375 -403 856t403 856l225 -203q-150 -164 -216 -313q-66 -150 -66 -340z" />
    <glyph glyph-name="parenright" unicode=")" horiz-adv-x="778" 
d="M78 1341l223 203q406 -373 406 -856t-406 -856l-229 203q151 163 220 313q68 148 68 340q0 191 -67 340q-67 148 -215 313z" />
    <glyph glyph-name="asterisk" unicode="*" horiz-adv-x="915" 
d="M639 1098l209 -121l-90 -158l-201 115v-217h-199v217l-200 -115l-90 158l208 121l-208 119l90 157l200 -114v215h199v-215l201 114l90 -157z" />
    <glyph glyph-name="plus" unicode="+" horiz-adv-x="1173" 
d="M1071 487h-350v-356h-268v356h-351v269h351v356h268v-356h350v-269z" />
    <glyph glyph-name="comma" unicode="," horiz-adv-x="540" 
d="M254 -270h-248l121 589h362v-8z" />
    <glyph glyph-name="hyphen" unicode="-" horiz-adv-x="923" 
d="M801 399h-678v277h678v-277z" />
    <glyph glyph-name="period" unicode="." horiz-adv-x="503" 
d="M252 358q80 0 134 -54t54 -130q0 -78 -53 -131t-135 -53q-81 0 -133 52q-53 53 -53 132q0 75 53 130q53 54 133 54z" />
    <glyph glyph-name="slash" unicode="/" horiz-adv-x="890" 
d="M860 1518l-590 -1665h-239l590 1665h239z" />
    <glyph glyph-name="zero" unicode="0" horiz-adv-x="1359" 
d="M680 1403q272 0 439 -198q167 -199 167 -519t-167 -519q-167 -198 -439 -198t-438 198q-166 197 -166 519t166 519q166 198 438 198zM680 266q121 0 193 114q73 116 73 306t-73 306q-72 114 -193 114t-193 -114q-71 -112 -71 -306t71 -306q72 -114 193 -114z" />
    <glyph glyph-name="one" unicode="1" horiz-adv-x="796" 
d="M659 1372v-1372h-327v983l-328 -168v303l442 254h213z" />
    <glyph glyph-name="two" unicode="2" horiz-adv-x="1122" 
d="M1055 295v-295h-996v221l473 445q57 52 70 66q13 15 53 61q35 41 48 79q14 40 14 84q0 74 -47 119q-46 45 -123 45q-179 0 -197 -221l-313 59q11 206 149 325q140 120 359 120q222 0 358 -121q137 -122 137 -324q0 -132 -66 -234t-222 -249l-197 -180h500z" />
    <glyph glyph-name="three" unicode="3" horiz-adv-x="1181" 
d="M938 694q170 -86 170 -282q0 -195 -143 -319t-369 -124q-218 0 -363 118q-144 118 -167 316l319 60q15 -103 69 -158t144 -55q86 0 141 46q56 47 56 120q0 69 -50 110t-137 41h-157v250h143q85 0 135 41q49 40 49 109q0 70 -50 114q-49 43 -132 43q-86 0 -141 -55
q-57 -57 -64 -166l-309 60q22 203 162 321q140 119 350 119q219 0 355 -121t136 -311q0 -191 -147 -277z" />
    <glyph glyph-name="four" unicode="4" horiz-adv-x="1282" 
d="M1233 252h-166v-252h-317v252h-713v303l612 817h418v-850h166v-270zM750 522v525l-371 -525h371z" />
    <glyph glyph-name="five" unicode="5" horiz-adv-x="1179" 
d="M438 891h191q225 0 354 -120t129 -322q0 -214 -142 -347t-378 -133q-225 0 -374 124q-151 125 -157 347l320 64q2 -126 63 -187t154 -61q89 0 142 52q55 53 55 136q0 77 -55 124q-53 46 -142 46h-471l25 758h901v-293h-607z" />
    <glyph glyph-name="six" unicode="6" horiz-adv-x="1251" 
d="M698 891q218 0 348 -126t130 -329q0 -205 -146 -336t-373 -131q-267 0 -424 183q-157 182 -157 510q0 389 190 579q156 162 396 162q184 0 313 -87q128 -87 172 -249l-318 -61q-39 116 -180 116q-96 0 -168 -78q-92 -101 -92 -278q119 125 309 125zM649 246q83 0 144 57
t61 143t-61 143q-60 56 -144 56q-81 0 -141 -57q-59 -56 -59 -146q0 -84 59 -140t141 -56z" />
    <glyph glyph-name="seven" unicode="7" horiz-adv-x="1050" 
d="M1010 1372v-244l-449 -1128h-362l446 1077h-618v295h983z" />
    <glyph glyph-name="eight" unicode="8" horiz-adv-x="1173" 
d="M877 702q118 -46 183 -131q64 -83 64 -196q0 -178 -148 -292t-388 -114q-241 0 -391 114t-150 292q0 111 65 197q64 85 185 130q-203 95 -203 316q0 169 138 277t356 108q217 0 355 -108t138 -277q0 -222 -204 -316zM586 1149q-76 0 -127 -42t-51 -118q0 -74 52 -116
t126 -42q77 0 129 43q53 44 53 117q0 74 -53 116t-129 42zM586 236q77 0 134 45q56 44 56 122q0 77 -56 120q-58 44 -134 44q-80 0 -133 -44q-54 -45 -54 -124q0 -74 54 -119q53 -44 133 -44z" />
    <glyph glyph-name="nine" unicode="9" horiz-adv-x="1251" 
d="M594 1403q267 0 424 -182q158 -184 158 -510q0 -387 -191 -580q-158 -162 -395 -162q-185 0 -314 87q-128 87 -172 249l318 62q34 -117 180 -117q96 0 168 78q87 98 92 278q-122 -125 -309 -125q-217 0 -347 126t-130 329q0 206 145 336q146 131 373 131zM602 727
q81 0 141 57t60 146q0 82 -61 140q-59 56 -140 56t-144 -57t-63 -143t63 -143q62 -56 144 -56z" />
    <glyph glyph-name="colon" unicode=":" horiz-adv-x="503" 
d="M252 1016q80 0 134 -54t54 -131q0 -78 -53 -131t-135 -53q-80 0 -133 53q-53 55 -53 131t53 131q53 54 133 54zM252 358q80 0 134 -54t54 -130q0 -78 -53 -131t-135 -53q-81 0 -133 52q-53 53 -53 132q0 75 53 130q53 54 133 54z" />
    <glyph glyph-name="semicolon" unicode=";" horiz-adv-x="573" 
d="M322 1016q80 0 133 -54q53 -55 53 -131q0 -78 -53 -131t-133 -53q-84 0 -136 52q-53 53 -53 132q0 76 53 131q52 54 136 54zM254 -270h-248l121 589h362v-8z" />
    <glyph glyph-name="less" unicode="&#x3c;" horiz-adv-x="956" 
d="M879 221l-813 289v317l813 293v-315l-467 -133l467 -140v-311z" />
    <glyph glyph-name="equal" unicode="=" horiz-adv-x="1173" 
d="M1071 719h-969v260h969v-260zM1071 313h-969v260h969v-260z" />
    <glyph glyph-name="greater" unicode="&#x3e;" horiz-adv-x="956" 
d="M549 672l-467 133v315l813 -293v-317l-813 -289v311z" />
    <glyph glyph-name="question" unicode="?" horiz-adv-x="1112" 
d="M584 1403q217 0 350 -124t133 -318q0 -150 -97 -251q-97 -102 -268 -135v-102h-311v330h164q83 0 136 41q52 40 52 106q0 73 -47 120q-46 46 -123 46q-82 0 -134 -52q-51 -51 -66 -140l-318 63q22 178 164 297t365 119zM543 352q80 0 133 -53t53 -129q0 -78 -52 -129
q-53 -51 -134 -51q-83 0 -135 51q-54 52 -54 129q0 75 54 129q53 53 135 53z" />
    <glyph glyph-name="at" unicode="@" horiz-adv-x="1916" 
d="M1374 961v-570q0 -45 30 -69q31 -25 73 -25q79 0 122 99q43 98 43 229q0 272 -192 443t-475 171q-302 0 -501 -193q-200 -194 -200 -489q0 -291 198 -481q199 -191 491 -191q270 0 491 170l92 -145q-238 -193 -579 -193q-373 0 -622 237t-249 599q0 367 252 608
q253 242 627 242q353 0 600 -218q246 -217 246 -552q0 -91 -21 -173q-23 -89 -63 -160q-44 -77 -124 -123t-190 -46q-181 0 -247 125q-99 -121 -279 -121q-173 0 -290 115q-115 114 -115 305q0 193 116 308q118 116 289 116q152 0 250 -94v76h227zM950 348q79 0 139 58
q58 57 58 151q0 93 -58 150q-59 57 -139 57q-81 0 -137 -56q-57 -57 -57 -151t57 -151q58 -58 137 -58z" />
    <glyph glyph-name="A" unicode="A" horiz-adv-x="1492" 
d="M1493 0h-360l-97 250h-577l-97 -250h-362l573 1372h347zM924 541l-176 450l-175 -450h351z" />
    <glyph glyph-name="B" unicode="B" horiz-adv-x="1355" 
d="M1020 709v-9q105 -7 185 -90q79 -82 79 -225q0 -176 -117 -281q-116 -104 -336 -104h-712v1372h710q189 0 303 -102q113 -101 113 -273q0 -129 -71 -204q-72 -77 -154 -84zM457 1100v-295h295q75 0 120 42q46 43 46 111q0 63 -45 103q-43 39 -109 39h-307zM457 272h315
q80 0 124 41t44 113q0 68 -45 108q-43 39 -117 39h-321v-301z" />
    <glyph glyph-name="C" unicode="C" horiz-adv-x="1564" 
d="M1161 580l332 -66q-46 -253 -236 -399t-456 -146q-305 0 -517 207t-212 510q0 300 212 509q211 208 517 208q258 0 449 -143q192 -144 241 -383l-332 -78q-30 143 -126 220q-94 75 -232 75q-164 0 -278 -117q-113 -116 -113 -291t113 -292q114 -118 278 -118
q135 0 230 77q96 77 130 227z" />
    <glyph glyph-name="D" unicode="D" horiz-adv-x="1484" 
d="M119 1372h543q337 0 544 -189t207 -497t-207 -497t-544 -189h-543v1372zM457 293h192q194 0 308 107q116 108 116 286t-116 286q-114 107 -308 107h-192v-786z" />
    <glyph glyph-name="E" unicode="E" horiz-adv-x="1280" 
d="M1188 291v-291h-1069v1372h1063v-291h-725v-258h665v-274h-665v-258h731z" />
    <glyph glyph-name="F" unicode="F" horiz-adv-x="1224" 
d="M457 1075v-289h643v-294h-643v-492h-338v1372h1061v-297h-723z" />
    <glyph glyph-name="G" unicode="G" horiz-adv-x="1593" 
d="M758 809h755q9 -79 9 -125q0 -312 -201 -513q-202 -202 -510 -202q-311 0 -525 207t-214 510q0 300 212 509q211 208 521 208q235 0 418 -108t252 -304l-326 -94q-101 197 -344 197q-169 0 -281 -117q-112 -116 -112 -291q0 -174 115 -292t288 -118q133 0 228 66
q96 67 135 180h-420v287z" />
    <glyph glyph-name="H" unicode="H" horiz-adv-x="1490" 
d="M1370 1372v-1372h-336v543h-577v-543h-338v1372h338v-534h577v534h336z" />
    <glyph glyph-name="I" unicode="I" horiz-adv-x="575" 
d="M457 0h-338v1372h338v-1372z" />
    <glyph glyph-name="J" unicode="J" horiz-adv-x="1245" 
d="M1130 1372v-878q0 -232 -152 -378q-153 -147 -400 -147q-229 0 -374 125t-175 336l327 66q10 -105 68 -166q57 -60 154 -60q95 0 155 63t60 161v878h337z" />
    <glyph glyph-name="K" unicode="K" horiz-adv-x="1413" 
d="M1419 0h-442l-449 516h-71v-516h-338v1372h338v-545h49l467 545h405l-583 -688z" />
    <glyph glyph-name="L" unicode="L" horiz-adv-x="1202" 
d="M1133 295v-295h-1014v1372h338v-1077h676z" />
    <glyph glyph-name="M" unicode="M" horiz-adv-x="1820" 
d="M1702 1372v-1372h-328v684l-358 -684h-209l-361 688v-688h-327v1372h332l460 -850l461 850h330z" />
    <glyph glyph-name="N" unicode="N" horiz-adv-x="1550" 
d="M1430 1372v-1372h-279l-694 795v-795h-338v1372h280l695 -819v819h336z" />
    <glyph glyph-name="O" unicode="O" horiz-adv-x="1605" 
d="M803 1403q307 0 519 -209t212 -510q0 -298 -212 -507q-211 -208 -519 -208t-519 208q-212 209 -212 507q0 301 212 510t519 209zM803 279q168 0 280 115q113 116 113 290q0 175 -113 293q-113 117 -280 117q-169 0 -281 -117q-112 -116 -112 -293q0 -175 112 -290
t281 -115z" />
    <glyph glyph-name="P" unicode="P" horiz-adv-x="1359" 
d="M119 1372h676q231 0 367 -130t136 -343q0 -218 -140 -348q-142 -131 -378 -131h-323v-420h-338v1372zM457 702h299q96 0 154 53q57 53 57 140q0 83 -58 136q-56 52 -153 52h-299v-381z" />
    <glyph glyph-name="Q" unicode="Q" horiz-adv-x="1605" 
d="M1534 684q0 -319 -240 -532l226 -271l-254 -225l-281 334q-99 -21 -182 -21q-308 0 -519 208q-212 209 -212 507q0 301 212 510t519 209t519 -209t212 -510zM410 684q0 -175 112 -290t281 -115q168 0 280 115q113 116 113 290q0 175 -113 293q-113 117 -280 117
q-169 0 -281 -117q-112 -116 -112 -293z" />
    <glyph glyph-name="R" unicode="R" horiz-adv-x="1390" 
d="M1376 0h-407l-414 471h-98v-471h-338v1372h694q224 0 358 -124q136 -125 136 -324q0 -167 -97 -284q-96 -116 -264 -153zM457 754h319q91 0 145 45t54 121q0 73 -54 118t-145 45h-319v-329z" />
    <glyph glyph-name="S" unicode="S" horiz-adv-x="1323" 
d="M657 1403q224 0 377 -106q152 -105 191 -291l-332 -68q-18 92 -86 142t-154 50q-84 0 -133 -39q-51 -41 -51 -100q0 -90 111 -114l284 -64q377 -84 377 -399q0 -211 -162 -328t-403 -117q-240 0 -407 110q-166 109 -193 306l348 68q50 -203 270 -203q95 0 149 39t54 102
q0 48 -28 78q-26 28 -99 43l-287 61q-368 84 -368 398q0 199 149 315q150 117 393 117z" />
    <glyph glyph-name="T" unicode="T" horiz-adv-x="1306" 
d="M1266 1077h-445v-1077h-336v1077h-444v295h1225v-295z" />
    <glyph glyph-name="U" unicode="U" horiz-adv-x="1460" 
d="M1346 1372v-754q0 -294 -167 -472q-166 -177 -442 -177q-280 0 -451 177t-171 472v754h338v-754q0 -156 77 -246q78 -91 207 -91q124 0 197 91q74 92 74 246v754h338z" />
    <glyph glyph-name="V" unicode="V" horiz-adv-x="1521" 
d="M1507 1372l-583 -1372h-326l-584 1372h373l373 -909l375 909h372z" />
    <glyph glyph-name="W" unicode="W" horiz-adv-x="1992" 
d="M1980 1372l-391 -1372h-362l-230 848l-231 -848h-360l-392 1372h346l240 -864l236 864h321l236 -864l239 864h348z" />
    <glyph glyph-name="X" unicode="X" horiz-adv-x="1398" 
d="M985 0l-287 467l-284 -467h-400l430 688l-426 684h400l280 -463l283 463h399l-426 -684l430 -688h-399z" />
    <glyph glyph-name="Y" unicode="Y" horiz-adv-x="1445" 
d="M889 430v-430h-344v426l-531 946h369l338 -602l334 602h377z" />
    <glyph glyph-name="Z" unicode="Z" horiz-adv-x="1300" 
d="M1223 285v-285h-1139v217l692 870h-672v285h1102v-258l-641 -829h658z" />
    <glyph glyph-name="bracketleft" unicode="[" horiz-adv-x="839" 
d="M424 1249v-1149h340v-268h-645v1686h645v-269h-340z" />
    <glyph glyph-name="backslash" unicode="\" horiz-adv-x="890" 
d="M860 -147h-239l-590 1665h239z" />
    <glyph glyph-name="bracketright" unicode="]" horiz-adv-x="839" 
d="M721 1518v-1686h-645v268h340v1149h-340v269h645z" />
    <glyph glyph-name="asciicircum" unicode="^" horiz-adv-x="950" 
d="M313 862h-278l319 510h242l319 -510h-278l-162 258z" />
    <glyph glyph-name="underscore" unicode="_" horiz-adv-x="1105" 
d="M1065 -358h-1024v243h1024v-243z" />
    <glyph glyph-name="grave" unicode="`" horiz-adv-x="1228" 
d="M655 1473l146 -312h-291l-244 312h389z" />
    <glyph glyph-name="a" unicode="a" horiz-adv-x="1318" 
d="M1200 1028v-1028h-328v82q-125 -113 -319 -113q-208 0 -355 153t-147 392q0 238 147 391q148 154 355 154q194 0 319 -113v82h328zM621 248q102 0 177 75q74 74 74 191q0 116 -74 191t-177 75q-111 0 -179 -74q-69 -75 -69 -192q0 -118 69 -192t179 -74z" />
    <glyph glyph-name="b" unicode="b" horiz-adv-x="1318" 
d="M766 1059q207 0 355 -154q147 -153 147 -391q0 -239 -147 -392t-355 -153q-195 0 -320 113v-82h-327v1475h327v-529q125 113 320 113zM698 248q110 0 179 74t69 192q0 117 -69 192q-68 74 -179 74q-103 0 -177 -75q-75 -77 -75 -191q0 -116 75 -191t177 -75z" />
    <glyph glyph-name="c" unicode="c" horiz-adv-x="1187" 
d="M612 256q173 0 224 180l301 -65q-39 -180 -185 -291t-340 -111q-234 0 -398 153q-163 153 -163 392q0 238 163 391q165 154 398 154q189 0 336 -109q146 -108 189 -286l-308 -74q-21 90 -77 136t-140 46q-110 0 -178 -73q-67 -71 -67 -185q0 -115 67 -186q68 -72 178 -72
z" />
    <glyph glyph-name="d" unicode="d" horiz-adv-x="1318" 
d="M1200 1475v-1475h-328v82q-125 -113 -319 -113q-208 0 -355 153t-147 392q0 238 147 391q148 154 355 154q194 0 319 -113v529h328zM621 248q102 0 177 75q74 74 74 191q0 116 -74 191t-177 75q-111 0 -179 -74q-69 -75 -69 -192q0 -118 69 -192t179 -74z" />
    <glyph glyph-name="e" unicode="e" horiz-adv-x="1177" 
d="M1126 514v-84h-753q22 -94 80 -145q62 -54 141 -54q153 0 219 119l291 -59q-67 -160 -198 -241q-132 -81 -312 -81q-227 0 -385 153t-158 392q0 238 158 391q159 154 387 154q224 0 375 -150q151 -149 155 -395zM596 793q-72 0 -133 -43q-62 -44 -84 -119h424
q-23 81 -78 121q-56 41 -129 41z" />
    <glyph glyph-name="f" unicode="f" horiz-adv-x="772" 
d="M504 1028h282v-260h-282v-768h-326v768h-147v260h147v80q0 180 114 288q113 107 300 107q105 0 203 -43l-70 -254q-51 17 -88 17q-58 0 -96 -35q-37 -34 -37 -94v-66z" />
    <glyph glyph-name="g" unicode="g" horiz-adv-x="1298" 
d="M1178 1028v-926q0 -230 -159 -361q-158 -130 -417 -130q-366 0 -516 248l272 147q60 -72 112 -99q54 -28 130 -28q114 0 185 66t71 184v29q-114 -99 -309 -99q-203 0 -350 145q-146 144 -146 359q0 210 146 353t350 143q196 0 309 -98v67h322zM616 328q101 0 170 66
q70 67 70 169q0 100 -70 167t-170 67q-108 0 -177 -66q-68 -65 -68 -168t69 -169t176 -66z" />
    <glyph glyph-name="h" unicode="h" horiz-adv-x="1267" 
d="M764 1059q179 0 288 -118t109 -310v-631h-325v561q0 89 -50 147q-49 56 -129 56q-97 0 -154 -72t-57 -215v-477h-327v1475h327v-545q124 129 318 129z" />
    <glyph glyph-name="i" unicode="i" horiz-adv-x="598" 
d="M299 1518q82 0 136 -56t54 -131q0 -77 -54 -130q-53 -52 -136 -52t-135 52q-53 53 -53 130t53 132t135 55zM463 0h-328v1028h328v-1028z" />
    <glyph glyph-name="j" unicode="j" horiz-adv-x="620" 
d="M322 1518q82 0 136 -56t54 -131q0 -77 -54 -130q-53 -52 -136 -52q-84 0 -136 52q-53 53 -53 130t53 132t136 55zM-55 -326l49 258q51 -16 82 -16q37 0 62 23q24 23 24 59v1030h325v-1067q0 -149 -89 -240q-88 -90 -238 -90q-110 0 -215 43z" />
    <glyph glyph-name="k" unicode="k" horiz-adv-x="1253" 
d="M1260 0h-420l-334 371h-60v-371h-327v1475h327v-797h46l325 350h395l-450 -489z" />
    <glyph glyph-name="l" unicode="l" horiz-adv-x="565" 
d="M446 0h-327v1475h327v-1475z" />
    <glyph glyph-name="m" unicode="m" horiz-adv-x="1947" 
d="M1450 1059q168 0 281 -116q112 -115 112 -300v-643h-325v573q0 86 -50 139q-49 52 -122 52q-92 0 -147 -67q-54 -66 -54 -193v-504h-328v573q0 87 -49 139t-125 52q-91 0 -144 -67t-53 -193v-504h-327v1028h327v-94q113 125 304 125q227 0 335 -174q133 174 365 174z" />
    <glyph glyph-name="n" unicode="n" horiz-adv-x="1265" 
d="M762 1059q181 0 290 -118t109 -310v-631h-325v561q0 89 -50 147q-49 56 -127 56q-99 0 -156 -71t-57 -216v-477h-327v1028h327v-98q123 129 316 129z" />
    <glyph glyph-name="o" unicode="o" horiz-adv-x="1234" 
d="M621 1055q235 0 399 -152t164 -389q0 -239 -164 -391t-399 -152q-239 0 -405 152q-165 151 -165 391q0 238 165 389q166 152 405 152zM621 248q101 0 174 75q73 74 73 191q0 118 -74 192t-173 74q-104 0 -179 -74t-75 -192q0 -117 74 -191q75 -75 180 -75z" />
    <glyph glyph-name="p" unicode="p" horiz-adv-x="1318" 
d="M766 1059q207 0 355 -154q147 -153 147 -391q0 -239 -147 -392t-355 -153q-195 0 -320 113v-430h-327v1376h327v-82q125 113 320 113zM698 248q110 0 179 74t69 192q0 117 -69 192q-68 74 -179 74q-103 0 -177 -75q-75 -77 -75 -191q0 -116 75 -191t177 -75z" />
    <glyph glyph-name="q" unicode="q" horiz-adv-x="1318" 
d="M1200 1028v-1376h-328v430q-125 -113 -319 -113q-208 0 -355 153t-147 392q0 238 147 391q148 154 355 154q194 0 319 -113v82h328zM621 248q102 0 177 75q74 74 74 191q0 116 -74 191t-177 75q-111 0 -179 -74q-69 -75 -69 -192q0 -118 69 -192t179 -74z" />
    <glyph glyph-name="r" unicode="r" horiz-adv-x="894" 
d="M801 1042q38 0 73 -8l-14 -327h-59q-355 0 -355 -385v-322h-327v1028h327v-197q127 211 355 211z" />
    <glyph glyph-name="s" unicode="s" horiz-adv-x="1054" 
d="M49 268l320 66q21 -121 182 -121q61 0 97 24t36 58q0 58 -102 76l-209 41q-299 56 -299 299q0 159 123 253q124 95 319 95q187 0 312 -80t155 -215l-299 -59q-8 52 -54 86t-118 34q-63 0 -89 -23q-28 -25 -28 -57q0 -55 78 -71l242 -49q140 -30 213 -112q71 -80 71 -198
q0 -166 -129 -256t-338 -90q-194 0 -326 75q-133 76 -157 224z" />
    <glyph glyph-name="t" unicode="t" horiz-adv-x="886" 
d="M805 303l76 -258q-140 -76 -281 -76q-194 0 -302 105t-108 305v389h-186v260h186v303h328v-303h303v-260h-303v-356q0 -150 137 -150q77 0 150 41z" />
    <glyph glyph-name="u" unicode="u" horiz-adv-x="1265" 
d="M1147 1028v-1028h-328v98q-123 -129 -315 -129q-181 0 -290 118q-110 119 -110 310v631h326v-561q0 -90 49 -146q49 -57 127 -57q100 0 157 71q56 69 56 216v477h328z" />
    <glyph glyph-name="v" unicode="v" horiz-adv-x="1214" 
d="M1200 1030l-426 -1030h-334l-426 1030h346l248 -635l246 635h346z" />
    <glyph glyph-name="w" unicode="w" horiz-adv-x="1628" 
d="M1614 1028l-330 -1030h-285l-184 557l-186 -557h-285l-330 1030h322l168 -553l194 553h232l194 -555l168 555h322z" />
    <glyph glyph-name="x" unicode="x" horiz-adv-x="1236" 
d="M852 498l340 -498h-377l-197 297l-198 -297h-375l338 498l-338 532h375l198 -319l197 319h377z" />
    <glyph glyph-name="y" unicode="y" horiz-adv-x="1236" 
d="M1223 1030l-594 -1378h-355l166 383l-426 995h353l243 -600l260 600h353z" />
    <glyph glyph-name="z" unicode="z" horiz-adv-x="1101" 
d="M1026 260v-260h-950v211l516 557h-504v260h920v-215l-516 -553h534z" />
    <glyph glyph-name="braceleft" unicode="{" horiz-adv-x="862" 
d="M539 1192v-301q0 -165 -127 -217q127 -52 127 -217v-301q0 -60 53 -60h194v-264h-272q-127 0 -204 74t-77 192v316q0 49 -30 73t-92 45l-70 21v242l70 20q62 21 92 45t30 74v315q0 121 78 195q79 74 203 74h272v-267h-194q-53 0 -53 -59z" />
    <glyph glyph-name="bar" unicode="|" horiz-adv-x="542" 
d="M424 -147h-305v1665h305v-1665z" />
    <glyph glyph-name="braceright" unicode="}" horiz-adv-x="862" 
d="M821 795v-242l-69 -21q-66 -22 -95 -45q-30 -24 -30 -73v-316q0 -121 -77 -193q-78 -73 -202 -73h-272v264h192q56 0 56 60v301q0 165 127 217q-127 54 -127 217v301q0 59 -56 59h-192v267h272q125 0 202 -74t77 -195v-315q0 -50 30 -74q29 -23 95 -45z" />
    <glyph glyph-name="asciitilde" unicode="~" horiz-adv-x="1038" 
d="M328 465h-240q0 180 83 261t185 81q84 0 165 -42t110 -42q33 0 52 22q19 21 17 58h252q0 -181 -87 -264q-86 -82 -193 -82q-84 0 -163 40t-106 40q-71 0 -75 -72z" />
    <glyph glyph-name="exclamdown" unicode="&#xa1;" horiz-adv-x="608" 
d="M309 694q-81 0 -135 54q-53 53 -53 129q0 78 53 129q52 51 135 51q81 0 134 -51t53 -129q0 -75 -54 -129t-133 -54zM123 -262l20 840h324l20 -840v-64h-364v64z" />
    <glyph glyph-name="cent" unicode="&#xa2;" horiz-adv-x="1187" 
d="M612 256q173 0 224 180l301 -65q-30 -146 -137 -250q-106 -103 -255 -137v-250h-272v252q-186 44 -304 185q-118 142 -118 343t118 343q118 141 304 185v248h272v-246q146 -35 251 -135q107 -103 141 -245l-308 -74q-21 90 -77 136t-140 46q-110 0 -178 -73
q-67 -71 -67 -185q0 -115 67 -186q68 -72 178 -72z" />
    <glyph glyph-name="sterling" unicode="&#xa3;" horiz-adv-x="1263" 
d="M557 293h649v-293h-1130v211l151 45v221h-151v281h151v174q0 210 134 341q133 130 356 130q211 0 342 -128q130 -127 147 -335l-315 -57q-21 215 -174 215q-73 0 -116 -45q-44 -46 -44 -121v-174h340v-281h-340v-184z" />
    <glyph glyph-name="yen" unicode="&#xa5;" horiz-adv-x="1429" 
d="M985 678h250v-211h-358v-88h358v-213h-358v-166h-338v166h-342v213h342v88h-342v211h235l-397 694h358l316 -569l311 569h375z" />
    <glyph glyph-name="section" unicode="&#xa7;" horiz-adv-x="1126" 
d="M1071 518q0 -191 -168 -287q53 -77 53 -182q0 -164 -115 -252t-296 -88q-204 0 -322 101q-117 100 -121 268l275 51q15 -178 153 -178q50 0 85 30q34 30 34 76q0 68 -98 111l-254 100q-132 52 -195 130q-61 76 -61 194q0 183 168 285q-53 77 -53 182q0 167 114 256
q113 88 297 88q196 0 309 -98q112 -98 123 -261l-278 -49q-8 164 -139 164q-50 0 -85 -30q-34 -30 -34 -76q0 -68 98 -111l254 -100q256 -96 256 -324zM686 391l23 -10q75 44 75 106q0 73 -98 119l-260 115l-25 10q-73 -40 -73 -108q0 -70 98 -119z" />
    <glyph glyph-name="dieresis" unicode="&#xa8;" horiz-adv-x="1228" 
d="M381 1497q78 0 131 -53t53 -127q0 -79 -52 -128q-53 -50 -132 -50t-131 50q-51 49 -51 128q0 75 52 127q53 53 130 53zM848 1497q78 0 131 -53t53 -127q0 -79 -52 -128q-53 -50 -132 -50t-131 50q-51 49 -51 128q0 75 52 127q53 53 130 53z" />
    <glyph glyph-name="copyright" unicode="&#xa9;" horiz-adv-x="1548" 
d="M770 1403q300 0 508 -205q209 -206 209 -516q0 -307 -209 -510t-508 -203q-298 0 -509 203q-210 202 -210 510q0 311 210 516q209 205 509 205zM770 1288q-247 0 -419 -172q-173 -173 -173 -432q0 -258 173 -428t419 -170q245 0 418 170q172 169 172 428t-172 431
q-173 173 -418 173zM780 1069q153 0 256 -83t115 -208l-197 -37q-15 63 -62 98t-114 35q-78 0 -130 -54q-52 -53 -52 -136t52 -136q52 -54 130 -54q68 0 117 37t57 108l199 -33q-11 -136 -112 -221q-103 -86 -259 -86q-162 0 -277 108q-116 108 -116 277q0 170 116 278
q114 107 277 107z" />
    <glyph glyph-name="ordfeminine" unicode="&#xaa;" horiz-adv-x="798" 
d="M414 1380q150 0 239 -70q90 -70 90 -210v-416h-233v39q-76 -57 -191 -57q-113 0 -183 61t-70 162q0 98 79 155q81 58 217 58h148v20q2 38 -22 61q-23 23 -64 23q-76 0 -100 -76l-213 44q27 102 105 153q80 53 198 53zM387 827q54 0 89 29q34 28 34 78v31h-119
q-40 0 -65 -19t-25 -49q0 -70 86 -70z" />
    <glyph glyph-name="guillemotleft" unicode="&#xab;" horiz-adv-x="1034" 
d="M51 537l215 364h307l-215 -364l215 -365h-307zM461 537l215 364h307l-215 -364l215 -365h-307z" />
    <glyph glyph-name="registered" unicode="&#xae;" horiz-adv-x="997" 
d="M498 1403q172 0 290 -117q119 -117 119 -295q0 -176 -119 -293q-117 -116 -290 -116q-174 0 -291 116q-119 117 -119 293q0 178 119 295t291 117zM498 668q135 0 228 93t93 230q0 139 -93 234q-93 94 -228 94q-134 0 -227 -94q-93 -95 -93 -234q0 -137 94 -230
q95 -93 226 -93zM678 1065q0 -90 -86 -123l104 -125h-110l-94 115h-52v-115h-94v373h180q70 0 111 -35t41 -90zM440 1012h84q64 0 64 51q0 47 -64 47h-84v-98z" />
    <glyph glyph-name="macron" unicode="&#xaf;" horiz-adv-x="1228" 
d="M954 1167h-680v254h680v-254z" />
    <glyph glyph-name="degree" unicode="&#xb0;" horiz-adv-x="876" 
d="M440 1403q134 0 228 -87t94 -226q0 -138 -94 -225t-228 -87q-136 0 -230 87q-95 87 -95 225q0 139 95 226q94 87 230 87zM440 963q47 0 84 34t37 95q0 58 -37 92q-38 35 -84 35q-50 0 -88 -35q-37 -34 -37 -92q0 -61 37 -95t88 -34z" />
    <glyph glyph-name="plusminus" unicode="&#xb1;" horiz-adv-x="1173" 
d="M1071 952v-266h-350v-289h-268v289h-351v266h351v328h268v-328h350zM102 266h969v-266h-969v266z" />
    <glyph glyph-name="acute" unicode="&#xb4;" horiz-adv-x="1228" 
d="M698 1161h-290l145 312h389z" />
    <glyph glyph-name="paragraph" unicode="&#xb6;" horiz-adv-x="1241" 
d="M799 0h-228v612h-102q-184 0 -307 106q-121 105 -121 281q0 182 107 277q108 96 292 96h359v-1372zM1120 0h-225v1372h225v-1372z" />
    <glyph glyph-name="periodcentered" unicode="&#xb7;" horiz-adv-x="503" 
d="M252 719q80 0 134 -54t54 -130q0 -79 -53 -132t-135 -53q-81 0 -133 52q-53 53 -53 133q0 75 53 130q53 54 133 54z" />
    <glyph glyph-name="cedilla" unicode="&#xb8;" horiz-adv-x="1228" 
d="M575 0h236l-100 -328h-340z" />
    <glyph glyph-name="ordmasculine" unicode="&#xba;" horiz-adv-x="864" 
d="M430 1380q160 0 269 -100q110 -101 110 -258q0 -156 -111 -256q-110 -100 -268 -100q-156 0 -265 100q-110 101 -110 256q0 157 110 258q109 100 265 100zM430 872q62 0 105 43t43 107t-43 107q-45 45 -105 45q-58 0 -100 -45q-41 -44 -41 -107t41 -107q40 -43 100 -43z
" />
    <glyph glyph-name="guillemotright" unicode="&#xbb;" horiz-adv-x="1034" 
d="M51 172l215 365l-215 364h307l215 -364l-215 -365h-307zM461 172l215 365l-215 364h307l215 -364l-215 -365h-307z" />
    <glyph glyph-name="onequarter" unicode="&#xbc;" horiz-adv-x="1536" 
d="M195 1087l-160 -94v228l235 151h148v-784h-223v499zM1354 1372l-992 -1372h-192l991 1372h193zM1489 131h-98v-131h-207v131h-402v201l348 452h261v-471h98v-182zM1184 313v248l-189 -248h189z" />
    <glyph glyph-name="onehalf" unicode="&#xbd;" horiz-adv-x="1648" 
d="M195 1087l-160 -94v228l235 151h148v-784h-223v499zM1319 1372l-991 -1372h-193l993 1372h191zM1231 190h262v-190h-602v141l289 254q40 34 58 52q17 17 31 42q13 23 13 50q0 35 -24 56t-62 21q-99 0 -100 -127l-199 43q0 123 82 198q83 75 217 75q135 0 218 -71t83 -195
q0 -78 -42 -138q-40 -57 -128 -131z" />
    <glyph glyph-name="threequarters" unicode="&#xbe;" horiz-adv-x="1689" 
d="M664 831q0 -111 -87 -183q-88 -73 -223 -73q-130 0 -217 70t-94 186l195 44q12 -117 118 -117q44 0 70 22q27 22 27 58q0 34 -28 54q-26 19 -71 19h-86v156h74q46 0 75 19t29 53t-25 55q-24 20 -69 20q-100 0 -104 -110l-201 43q12 108 95 177q82 69 208 69
q132 0 217 -70q84 -69 84 -176q0 -101 -94 -152q107 -53 107 -164zM1493 1372l-991 -1372h-193l994 1372h190zM1642 131h-98v-131h-207v131h-401v201l348 452h260v-471h98v-182zM1337 313v248l-188 -248h188z" />
    <glyph glyph-name="questiondown" unicode="&#xbf;" horiz-adv-x="1112" 
d="M569 694q-79 0 -134 55q-54 54 -54 128q0 78 53 129q52 51 135 51q81 0 134 -51t53 -129q0 -72 -54 -128q-53 -55 -133 -55zM737 123l320 -64q-23 -176 -165 -296q-141 -119 -366 -119q-215 0 -348 124t-133 318q0 150 97 251q96 101 268 134v102h311v-329h-164
q-83 0 -136 -41q-52 -40 -52 -107q0 -73 47 -120q46 -46 123 -46q79 0 132 53q51 51 66 140z" />
    <glyph glyph-name="Agrave" unicode="&#xc0;" horiz-adv-x="1492" 
d="M606 1505l-244 312h390l145 -312h-291zM1493 0h-360l-97 250h-577l-97 -250h-362l573 1372h347zM924 541l-176 450l-175 -450h351z" />
    <glyph glyph-name="Aacute" unicode="&#xc1;" horiz-adv-x="1492" 
d="M897 1505h-291l146 312h389zM1493 0h-360l-97 250h-577l-97 -250h-362l573 1372h347zM924 541l-176 450l-175 -450h351z" />
    <glyph glyph-name="Acircumflex" unicode="&#xc2;" horiz-adv-x="1492" 
d="M666 1493h-316l236 317h325l238 -317h-318l-81 115zM1493 0h-360l-97 250h-577l-97 -250h-362l573 1372h347zM924 541l-176 450l-175 -450h351z" />
    <glyph glyph-name="Atilde" unicode="&#xc3;" horiz-adv-x="1492" 
d="M653 1597q-53 0 -63 -67h-199q0 154 70 233q69 78 166 78q71 0 141 -38t106 -38q53 0 64 74h199q0 -159 -69 -237t-169 -78q-72 0 -140 37q-66 36 -106 36zM1493 0h-360l-97 250h-577l-97 -250h-362l573 1372h347zM924 541l-176 450l-175 -450h351z" />
    <glyph glyph-name="Adieresis" unicode="&#xc4;" horiz-adv-x="1492" 
d="M514 1483q-79 0 -131 50q-51 49 -51 128q0 75 52 127q53 53 130 53q78 0 131 -53t53 -127q0 -79 -52 -128q-53 -50 -132 -50zM981 1483q-79 0 -131 50q-51 49 -51 128q0 75 52 127q53 53 130 53q78 0 131 -53t53 -127q0 -79 -52 -128q-53 -50 -132 -50zM1493 0h-360
l-97 250h-577l-97 -250h-362l573 1372h347zM924 541l-176 450l-175 -450h351z" />
    <glyph glyph-name="Aring" unicode="&#xc5;" horiz-adv-x="1492" 
d="M748 1456q-108 0 -184 73q-75 72 -75 177q0 107 75 179q76 73 184 73q107 0 183 -73q75 -72 75 -179q0 -105 -75 -177q-76 -73 -183 -73zM748 1788q-36 0 -60 -24t-24 -58q0 -32 24 -56t60 -24q35 0 59 24t24 56q0 34 -24 58t-59 24zM1493 0h-360l-97 250h-577l-97 -250
h-362l573 1372h347zM924 541l-176 450l-175 -450h351z" />
    <glyph glyph-name="AE" unicode="&#xc6;" horiz-adv-x="2142" 
d="M2062 291v-291h-1067v223h-469l-133 -223h-393l879 1372h1177v-291h-725v-258h668v-274h-668v-258h731zM995 514v494l-295 -494h295z" />
    <glyph glyph-name="Ccedilla" unicode="&#xc7;" horiz-adv-x="1564" 
d="M1161 580l332 -66q-44 -232 -204 -374q-161 -143 -394 -167l-92 -301h-340l194 312q-254 46 -420 242q-165 195 -165 460q0 300 212 509q211 208 517 208q258 0 449 -143q192 -144 241 -383l-332 -78q-30 143 -126 220q-94 75 -232 75q-164 0 -278 -117
q-113 -116 -113 -291t113 -292q114 -118 278 -118q135 0 230 77q96 77 130 227z" />
    <glyph glyph-name="Egrave" unicode="&#xc8;" horiz-adv-x="1280" 
d="M530 1505l-243 312h389l145 -312h-291zM1188 291v-291h-1069v1372h1063v-291h-725v-258h665v-274h-665v-258h731z" />
    <glyph glyph-name="Eacute" unicode="&#xc9;" horiz-adv-x="1280" 
d="M819 1505h-291l146 312h389zM1188 291v-291h-1069v1372h1063v-291h-725v-258h665v-274h-665v-258h731z" />
    <glyph glyph-name="Ecircumflex" unicode="&#xca;" horiz-adv-x="1280" 
d="M590 1493h-316l236 317h326l237 -317h-317l-82 115zM1188 291v-291h-1069v1372h1063v-291h-725v-258h665v-274h-665v-258h731z" />
    <glyph glyph-name="Edieresis" unicode="&#xcb;" horiz-adv-x="1280" 
d="M438 1483q-79 0 -131 50q-51 49 -51 128q0 75 52 127q53 53 130 53q78 0 131 -53q54 -54 54 -127q0 -78 -53 -128t-132 -50zM905 1483q-79 0 -131 50q-51 49 -51 128q0 75 52 127q53 53 130 53q78 0 131 -53q54 -54 54 -127q0 -78 -53 -128t-132 -50zM1188 291v-291
h-1069v1372h1063v-291h-725v-258h665v-274h-665v-258h731z" />
    <glyph glyph-name="Igrave" unicode="&#xcc;" horiz-adv-x="575" 
d="M293 1817l145 -312h-291l-243 312h389zM457 0h-338v1372h338v-1372z" />
    <glyph glyph-name="Iacute" unicode="&#xcd;" horiz-adv-x="575" 
d="M436 1505h-291l146 312h389zM457 0h-338v1372h338v-1372z" />
    <glyph glyph-name="Icircumflex" unicode="&#xce;" horiz-adv-x="575" 
d="M205 1493h-316l236 317h326l237 -317h-317l-82 115zM119 1372h338v-1372h-338v1372z" />
    <glyph glyph-name="Idieresis" unicode="&#xcf;" horiz-adv-x="575" 
d="M55 1841q78 0 131 -53q54 -54 54 -127q0 -78 -53 -128t-132 -50t-131 50q-51 49 -51 128q0 75 52 127q53 53 130 53zM522 1841q78 0 131 -53q54 -54 54 -127q0 -78 -53 -128t-132 -50t-131 50q-51 49 -51 128q0 75 52 127q53 53 130 53zM457 0h-338v1372h338v-1372z" />
    <glyph glyph-name="Eth" unicode="&#xd0;" horiz-adv-x="1501" 
d="M158 1372h542q338 0 544 -189t206 -497t-206 -497t-544 -189h-542v539h-111v295h111v538zM494 293h192q193 0 309 107q117 108 117 286t-117 286q-116 107 -309 107h-192v-245h231v-295h-231v-246z" />
    <glyph glyph-name="Ntilde" unicode="&#xd1;" horiz-adv-x="1550" 
d="M686 1597q-53 0 -63 -67h-199q0 154 70 233q69 78 165 78q72 0 142 -38t106 -38q53 0 64 74h198q0 -160 -68 -237q-69 -78 -169 -78q-72 0 -140 37q-66 36 -106 36zM1430 1372v-1372h-279l-694 795v-795h-338v1372h280l695 -819v819h336z" />
    <glyph glyph-name="Ograve" unicode="&#xd2;" horiz-adv-x="1605" 
d="M662 1505l-244 312h389l145 -312h-290zM803 1403q307 0 519 -209t212 -510q0 -298 -212 -507q-211 -208 -519 -208t-519 208q-212 209 -212 507q0 301 212 510t519 209zM803 279q168 0 280 115q113 116 113 290q0 175 -113 293q-113 117 -280 117q-169 0 -281 -117
q-112 -116 -112 -293q0 -175 112 -290t281 -115z" />
    <glyph glyph-name="Oacute" unicode="&#xd3;" horiz-adv-x="1605" 
d="M950 1505h-291l146 312h389zM803 1403q307 0 519 -209t212 -510q0 -298 -212 -507q-211 -208 -519 -208t-519 208q-212 209 -212 507q0 301 212 510t519 209zM803 279q168 0 280 115q113 116 113 290q0 175 -113 293q-113 117 -280 117q-169 0 -281 -117
q-112 -116 -112 -293q0 -175 112 -290t281 -115z" />
    <glyph glyph-name="Ocircumflex" unicode="&#xd4;" horiz-adv-x="1605" 
d="M721 1493h-315l235 317h326l237 -317h-317l-82 115zM803 1403q307 0 519 -209t212 -510q0 -298 -212 -507q-211 -208 -519 -208t-519 208q-212 209 -212 507q0 301 212 510t519 209zM803 279q168 0 280 115q113 116 113 290q0 175 -113 293q-113 117 -280 117
q-169 0 -281 -117q-112 -116 -112 -293q0 -175 112 -290t281 -115z" />
    <glyph glyph-name="Otilde" unicode="&#xd5;" horiz-adv-x="1605" 
d="M707 1597q-54 0 -64 -67h-199q0 154 70 233q69 78 166 78q71 0 141 -38t107 -38q52 0 63 74h199q0 -159 -69 -237t-169 -78q-72 0 -140 37q-66 36 -105 36zM803 1403q307 0 519 -209t212 -510q0 -298 -212 -507q-211 -208 -519 -208t-519 208q-212 209 -212 507
q0 301 212 510t519 209zM803 279q168 0 280 115q113 116 113 290q0 175 -113 293q-113 117 -280 117q-169 0 -281 -117q-112 -116 -112 -293q0 -175 112 -290t281 -115z" />
    <glyph glyph-name="Odieresis" unicode="&#xd6;" horiz-adv-x="1605" 
d="M569 1483q-79 0 -131 50q-51 49 -51 128q0 75 52 127q53 53 130 53q78 0 131 -53q54 -54 54 -127q0 -78 -53 -128t-132 -50zM1036 1483q-79 0 -131 50q-51 49 -51 128q0 75 52 127q53 53 130 53q78 0 131 -53q54 -54 54 -127q0 -78 -53 -128t-132 -50zM803 1403
q307 0 519 -209t212 -510q0 -298 -212 -507q-211 -208 -519 -208t-519 208q-212 209 -212 507q0 301 212 510t519 209zM803 279q168 0 280 115q113 116 113 290q0 175 -113 293q-113 117 -280 117q-169 0 -281 -117q-112 -116 -112 -293q0 -175 112 -290t281 -115z" />
    <glyph glyph-name="multiply" unicode="&#xd7;" horiz-adv-x="1087" 
d="M735 623l271 -271l-191 -190l-270 270l-273 -270l-188 190l270 271l-270 268l188 190l273 -270l270 270l191 -190z" />
    <glyph glyph-name="Oslash" unicode="&#xd8;" horiz-adv-x="1605" 
d="M1516 1214l-115 -114q133 -184 133 -416q0 -298 -212 -507q-211 -208 -519 -208q-227 0 -412 121l-137 -137l-164 164l131 131q-149 188 -149 436q0 301 212 510t519 209q243 0 436 -137l113 112zM410 684q0 -110 47 -201l553 553q-93 58 -207 58q-169 0 -281 -117
q-112 -116 -112 -293zM803 279q168 0 280 115q113 116 113 290q0 92 -35 176l-538 -538q79 -43 180 -43z" />
    <glyph glyph-name="Ugrave" unicode="&#xd9;" horiz-adv-x="1460" 
d="M588 1505l-244 312h389l146 -312h-291zM1346 1372v-754q0 -294 -167 -472q-166 -177 -442 -177q-280 0 -451 177t-171 472v754h338v-754q0 -156 77 -246q78 -91 207 -91q124 0 197 91q74 92 74 246v754h338z" />
    <glyph glyph-name="Uacute" unicode="&#xda;" horiz-adv-x="1460" 
d="M877 1505h-291l145 312h389zM1346 1372v-754q0 -294 -167 -472q-166 -177 -442 -177q-280 0 -451 177t-171 472v754h338v-754q0 -156 77 -246q78 -91 207 -91q124 0 197 91q74 92 74 246v754h338z" />
    <glyph glyph-name="Ucircumflex" unicode="&#xdb;" horiz-adv-x="1460" 
d="M647 1493h-315l235 317h326l237 -317h-317l-82 115zM1346 1372v-754q0 -294 -167 -472q-166 -177 -442 -177q-280 0 -451 177t-171 472v754h338v-754q0 -156 77 -246q78 -91 207 -91q124 0 197 91q74 92 74 246v754h338z" />
    <glyph glyph-name="Udieresis" unicode="&#xdc;" horiz-adv-x="1460" 
d="M496 1483q-79 0 -131 50t-52 128q0 74 53 127t130 53q78 0 131 -53t53 -127q0 -79 -52 -128q-53 -50 -132 -50zM963 1483q-80 0 -132 50q-51 49 -51 128q0 74 53 127t130 53q78 0 131 -53t53 -127q0 -79 -52 -128q-53 -50 -132 -50zM1346 1372v-754q0 -294 -167 -472
q-166 -177 -442 -177q-280 0 -451 177t-171 472v754h338v-754q0 -156 77 -246q78 -91 207 -91q124 0 197 91q74 92 74 246v754h338z" />
    <glyph glyph-name="Yacute" unicode="&#xdd;" horiz-adv-x="1445" 
d="M870 1505h-290l145 312h389zM889 430v-430h-344v426l-531 946h369l338 -602l334 602h377z" />
    <glyph glyph-name="Thorn" unicode="&#xde;" horiz-adv-x="1333" 
d="M457 1157h307q225 0 363 -129q139 -130 139 -340q0 -212 -143 -343q-142 -130 -371 -130h-295v-215h-338v1372h338v-215zM457 498h274q93 0 148 51t55 135q0 85 -55 134q-56 50 -148 50h-274v-370z" />
    <glyph glyph-name="germandbls" unicode="&#xdf;" horiz-adv-x="1359" 
d="M1036 784q127 -38 196 -131q71 -95 71 -237q0 -189 -127 -312q-126 -122 -332 -122q-144 0 -281 24l35 268q129 -20 195 -20q88 0 149 53q59 52 59 125q0 93 -71 145t-201 52h-88v262h45q94 0 150 45q55 45 55 117q0 83 -54 132q-55 50 -145 50q-110 0 -178 -70t-68 -188
v-977h-327v952q0 251 157 404t416 153q229 0 372 -119q144 -120 144 -303q0 -224 -172 -303z" />
    <glyph glyph-name="agrave" unicode="&#xe0;" horiz-adv-x="1318" 
d="M516 1161l-244 312h390l145 -312h-291zM1200 1028v-1028h-328v82q-125 -113 -319 -113q-208 0 -355 153t-147 392q0 238 147 391q148 154 355 154q194 0 319 -113v82h328zM621 248q102 0 177 75q74 74 74 191q0 116 -74 191t-177 75q-111 0 -179 -74q-69 -75 -69 -192
q0 -118 69 -192t179 -74z" />
    <glyph glyph-name="aacute" unicode="&#xe1;" horiz-adv-x="1318" 
d="M807 1161h-291l146 312h389zM1200 1028v-1028h-328v82q-125 -113 -319 -113q-208 0 -355 153t-147 392q0 238 147 391q148 154 355 154q194 0 319 -113v82h328zM621 248q102 0 177 75q74 74 74 191q0 116 -74 191t-177 75q-111 0 -179 -74q-69 -75 -69 -192
q0 -118 69 -192t179 -74z" />
    <glyph glyph-name="acircumflex" unicode="&#xe2;" horiz-adv-x="1318" 
d="M575 1149h-315l236 317h325l238 -317h-318l-82 115zM1200 1028v-1028h-328v82q-125 -113 -319 -113q-208 0 -355 153t-147 392q0 238 147 391q148 154 355 154q194 0 319 -113v82h328zM621 248q102 0 177 75q74 74 74 191q0 116 -74 191t-177 75q-111 0 -179 -74
q-69 -75 -69 -192q0 -118 69 -192t179 -74z" />
    <glyph glyph-name="atilde" unicode="&#xe3;" horiz-adv-x="1318" 
d="M563 1253q-53 0 -63 -67h-199q0 154 70 233q69 78 166 78q71 0 141 -38t106 -38q53 0 64 74h199q0 -160 -69 -238q-68 -77 -169 -77q-72 0 -140 37q-66 36 -106 36zM1200 1028v-1028h-328v82q-125 -113 -319 -113q-208 0 -355 153t-147 392q0 238 147 391
q148 154 355 154q194 0 319 -113v82h328zM621 248q102 0 177 75q74 74 74 191q0 116 -74 191t-177 75q-111 0 -179 -74q-69 -75 -69 -192q0 -118 69 -192t179 -74z" />
    <glyph glyph-name="adieresis" unicode="&#xe4;" horiz-adv-x="1318" 
d="M424 1139q-79 0 -131 50q-51 49 -51 128q0 75 52 127q53 53 130 53q78 0 131 -53t53 -127q0 -79 -52 -128q-53 -50 -132 -50zM891 1139q-79 0 -131 50q-51 49 -51 128q0 75 52 127q53 53 130 53q78 0 131 -53t53 -127q0 -79 -52 -128q-53 -50 -132 -50zM1200 1028v-1028
h-328v82q-125 -113 -319 -113q-208 0 -355 153t-147 392q0 238 147 391q148 154 355 154q194 0 319 -113v82h328zM621 248q102 0 177 75q74 74 74 191q0 116 -74 191t-177 75q-111 0 -179 -74q-69 -75 -69 -192q0 -118 69 -192t179 -74z" />
    <glyph glyph-name="aring" unicode="&#xe5;" horiz-adv-x="1318" 
d="M657 1112q-107 0 -183 73q-75 72 -75 177q0 107 75 179q76 73 183 73q108 0 184 -73q74 -71 74 -179q0 -106 -74 -177q-76 -73 -184 -73zM657 1444q-35 0 -59 -24q-25 -25 -25 -58q0 -31 25 -56q24 -24 59 -24q36 0 60 24t24 56q0 34 -24 58t-60 24zM1200 1028v-1028
h-328v82q-125 -113 -319 -113q-208 0 -355 153t-147 392q0 238 147 391q148 154 355 154q194 0 319 -113v82h328zM621 248q102 0 177 75q74 74 74 191q0 116 -74 191t-177 75q-111 0 -179 -74q-69 -75 -69 -192q0 -118 69 -192t179 -74z" />
    <glyph glyph-name="ae" unicode="&#xe6;" horiz-adv-x="1835" 
d="M1784 418h-752q50 -187 230 -187q142 0 204 119l287 -59q-40 -144 -178 -233q-137 -89 -318 -89q-225 0 -383 146q-154 -146 -411 -146q-199 0 -307 90q-109 91 -109 240q0 148 112 230q111 81 318 81h260v47q0 68 -44 109t-115 41q-67 0 -111 -35q-43 -34 -51 -98
l-303 61q23 145 146 234q125 90 321 90q213 0 342 -109q145 109 329 109q229 0 381 -153q152 -154 152 -406v-82zM1032 610h430q-19 94 -73 140q-56 47 -132 47q-81 0 -144 -48t-81 -139zM737 414h-225q-141 0 -141 -97q0 -48 39 -78t104 -30q86 0 155 51q68 50 68 123v31z
" />
    <glyph glyph-name="ccedilla" unicode="&#xe7;" horiz-adv-x="1187" 
d="M612 256q173 0 224 180l301 -65q-33 -152 -145 -258q-110 -104 -269 -133l-94 -308h-340l194 312q-189 39 -310 182q-122 145 -122 348q0 238 163 391q165 154 398 154q189 0 336 -109q146 -108 189 -286l-308 -74q-21 90 -77 136t-140 46q-110 0 -178 -73
q-67 -71 -67 -185q0 -115 67 -186q68 -72 178 -72z" />
    <glyph glyph-name="egrave" unicode="&#xe8;" horiz-adv-x="1177" 
d="M459 1161l-244 312h389l146 -312h-291zM1126 514v-84h-753q22 -94 80 -145q62 -54 141 -54q153 0 219 119l291 -59q-67 -160 -198 -241q-132 -81 -312 -81q-227 0 -385 153t-158 392q0 238 158 391q159 154 387 154q224 0 375 -150q151 -149 155 -395zM596 793
q-72 0 -133 -43q-62 -44 -84 -119h424q-23 81 -78 121q-56 41 -129 41z" />
    <glyph glyph-name="eacute" unicode="&#xe9;" horiz-adv-x="1177" 
d="M748 1161h-291l145 312h389zM1126 514v-84h-753q22 -94 80 -145q62 -54 141 -54q153 0 219 119l291 -59q-67 -160 -198 -241q-132 -81 -312 -81q-227 0 -385 153t-158 392q0 238 158 391q159 154 387 154q224 0 375 -150q151 -149 155 -395zM596 793q-72 0 -133 -43
q-62 -44 -84 -119h424q-23 81 -78 121q-56 41 -129 41z" />
    <glyph glyph-name="ecircumflex" unicode="&#xea;" horiz-adv-x="1177" 
d="M518 1149h-315l235 317h326l237 -317h-317l-82 115zM1126 514v-84h-753q22 -94 80 -145q62 -54 141 -54q153 0 219 119l291 -59q-67 -160 -198 -241q-132 -81 -312 -81q-227 0 -385 153t-158 392q0 238 158 391q159 154 387 154q224 0 375 -150q151 -149 155 -395z
M596 793q-72 0 -133 -43q-62 -44 -84 -119h424q-23 81 -78 121q-56 41 -129 41z" />
    <glyph glyph-name="edieresis" unicode="&#xeb;" horiz-adv-x="1177" 
d="M367 1139q-79 0 -131 50t-52 128q0 74 53 127t130 53q78 0 131 -53t53 -127q0 -79 -52 -128q-53 -50 -132 -50zM834 1139q-80 0 -132 50q-51 49 -51 128q0 75 52 127q53 53 131 53t131 -53t53 -127q0 -79 -52 -128q-53 -50 -132 -50zM1126 514v-84h-753q22 -94 80 -145
q62 -54 141 -54q153 0 219 119l291 -59q-67 -160 -198 -241q-132 -81 -312 -81q-227 0 -385 153t-158 392q0 238 158 391q159 154 387 154q224 0 375 -150q151 -149 155 -395zM596 793q-72 0 -133 -43q-62 -44 -84 -119h424q-23 81 -78 121q-56 41 -129 41z" />
    <glyph glyph-name="igrave" unicode="&#xec;" horiz-adv-x="608" 
d="M309 1473l146 -312h-291l-244 312h389zM467 0h-326v1028h326v-1028z" />
    <glyph glyph-name="iacute" unicode="&#xed;" horiz-adv-x="608" 
d="M453 1161h-291l145 312h389zM467 0h-326v1028h326v-1028z" />
    <glyph glyph-name="icircumflex" unicode="&#xee;" horiz-adv-x="608" 
d="M221 1149h-315l235 317h326l238 -317h-318l-82 115zM141 1028h326v-1028h-326v1028z" />
    <glyph glyph-name="idieresis" unicode="&#xef;" horiz-adv-x="608" 
d="M72 1497q78 0 131 -53t53 -127q0 -79 -52 -128q-53 -50 -132 -50t-131 50t-52 128q0 74 53 127t130 53zM539 1497q78 0 131 -53t53 -127q0 -79 -52 -128q-53 -50 -132 -50t-131 50t-52 128q0 74 53 127t130 53zM467 0h-326v1028h326v-1028z" />
    <glyph glyph-name="eth" unicode="&#xf0;" horiz-adv-x="1239" 
d="M977 1317l-127 -49q338 -367 338 -750q0 -137 -50 -246t-132 -173q-81 -64 -180 -97q-98 -33 -201 -33q-238 0 -406 153t-168 392q0 241 146 393t370 152q64 0 121 -21q-53 61 -121 119l-272 -106l-74 178l154 59q-117 65 -266 123v64h495q29 -16 88 -62l211 84zM623 248
q113 0 179 82t66 188q0 112 -71 187t-176 75q-112 0 -183 -74t-71 -192q0 -115 74 -190q75 -76 182 -76z" />
    <glyph glyph-name="ntilde" unicode="&#xf1;" horiz-adv-x="1265" 
d="M545 1253q-54 0 -64 -67h-198q0 155 69 233t166 78q71 0 141 -38t107 -38q52 0 63 74h199q0 -160 -69 -238q-68 -77 -168 -77q-73 0 -141 37q-66 36 -105 36zM762 1059q181 0 290 -118t109 -310v-631h-325v561q0 89 -50 147q-49 56 -127 56q-99 0 -156 -71t-57 -216v-477
h-327v1028h327v-98q123 129 316 129z" />
    <glyph glyph-name="ograve" unicode="&#xf2;" horiz-adv-x="1234" 
d="M479 1161l-243 312h389l145 -312h-291zM621 1055q235 0 399 -152t164 -389q0 -239 -164 -391t-399 -152q-239 0 -405 152q-165 151 -165 391q0 238 165 389q166 152 405 152zM621 248q101 0 174 75q73 74 73 191q0 118 -74 192t-173 74q-104 0 -179 -74t-75 -192
q0 -117 74 -191q75 -75 180 -75z" />
    <glyph glyph-name="oacute" unicode="&#xf3;" horiz-adv-x="1234" 
d="M768 1161h-291l146 312h389zM621 1055q235 0 399 -152t164 -389q0 -239 -164 -391t-399 -152q-239 0 -405 152q-165 151 -165 391q0 238 165 389q166 152 405 152zM621 248q101 0 174 75q73 74 73 191q0 118 -74 192t-173 74q-104 0 -179 -74t-75 -192q0 -117 74 -191
q75 -75 180 -75z" />
    <glyph glyph-name="ocircumflex" unicode="&#xf4;" horiz-adv-x="1234" 
d="M537 1149h-316l236 317h325l238 -317h-318l-81 115zM621 1055q235 0 399 -152t164 -389q0 -239 -164 -391t-399 -152q-239 0 -405 152q-165 151 -165 391q0 238 165 389q166 152 405 152zM621 248q101 0 174 75q73 74 73 191q0 118 -74 192t-173 74q-104 0 -179 -74
t-75 -192q0 -117 74 -191q75 -75 180 -75z" />
    <glyph glyph-name="otilde" unicode="&#xf5;" horiz-adv-x="1234" 
d="M524 1253q-53 0 -63 -67h-199q0 154 70 233q69 78 166 78q71 0 141 -38t106 -38q53 0 64 74h199q0 -160 -69 -238q-68 -77 -169 -77q-72 0 -140 37q-66 36 -106 36zM621 1055q235 0 399 -152t164 -389q0 -239 -164 -391t-399 -152q-239 0 -405 152q-165 151 -165 391
q0 238 165 389q166 152 405 152zM621 248q101 0 174 75q73 74 73 191q0 118 -74 192t-173 74q-104 0 -179 -74t-75 -192q0 -117 74 -191q75 -75 180 -75z" />
    <glyph glyph-name="odieresis" unicode="&#xf6;" horiz-adv-x="1234" 
d="M387 1139q-79 0 -131 50q-51 49 -51 128q0 75 52 127q53 53 130 53q78 0 131 -53t53 -127q0 -79 -52 -128q-53 -50 -132 -50zM854 1139q-79 0 -131 50q-51 49 -51 128q0 75 52 127q53 53 130 53q78 0 131 -53t53 -127q0 -79 -52 -128q-53 -50 -132 -50zM621 1055
q235 0 399 -152t164 -389q0 -239 -164 -391t-399 -152q-239 0 -405 152q-165 151 -165 391q0 238 165 389q166 152 405 152zM621 248q101 0 174 75q73 74 73 191q0 118 -74 192t-173 74q-104 0 -179 -74t-75 -192q0 -117 74 -191q75 -75 180 -75z" />
    <glyph glyph-name="divide" unicode="&#xf7;" horiz-adv-x="1173" 
d="M582 1194q76 0 126 -51q50 -52 50 -121q0 -73 -50 -123q-49 -49 -126 -49t-126 49q-50 50 -50 123q0 69 50 121q50 51 126 51zM1071 508h-969v268h969v-268zM582 440q76 0 126 -51q50 -52 50 -121q0 -73 -50 -123q-49 -49 -126 -49t-126 49q-50 50 -50 123q0 69 50 121
q50 51 126 51z" />
    <glyph glyph-name="oslash" unicode="&#xf8;" horiz-adv-x="1234" 
d="M1174 938l-99 -98q109 -138 109 -326q0 -239 -164 -391t-399 -152q-179 0 -324 90l-107 -106l-131 131l101 100q-109 142 -109 328q0 238 165 389q166 152 405 152q176 0 317 -90l104 104zM367 514q0 -56 18 -102l342 342q-45 26 -106 26q-104 0 -179 -74t-75 -192z
M621 248q101 0 174 75q73 74 73 191q0 52 -16 100l-342 -340q49 -26 111 -26z" />
    <glyph glyph-name="ugrave" unicode="&#xf9;" horiz-adv-x="1265" 
d="M487 1161l-243 312h389l145 -312h-291zM1147 1028v-1028h-328v98q-123 -129 -315 -129q-181 0 -290 118q-110 119 -110 310v631h326v-561q0 -90 49 -146q49 -57 127 -57q100 0 157 71q56 69 56 216v477h328z" />
    <glyph glyph-name="uacute" unicode="&#xfa;" horiz-adv-x="1265" 
d="M778 1161h-291l146 312h389zM1147 1028v-1028h-328v98q-123 -129 -315 -129q-181 0 -290 118q-110 119 -110 310v631h326v-561q0 -90 49 -146q49 -57 127 -57q100 0 157 71q56 69 56 216v477h328z" />
    <glyph glyph-name="ucircumflex" unicode="&#xfb;" horiz-adv-x="1265" 
d="M547 1149h-316l236 317h326l237 -317h-317l-82 115zM1147 1028v-1028h-328v98q-123 -129 -315 -129q-181 0 -290 118q-110 119 -110 310v631h326v-561q0 -90 49 -146q49 -57 127 -57q100 0 157 71q56 69 56 216v477h328z" />
    <glyph glyph-name="udieresis" unicode="&#xfc;" horiz-adv-x="1265" 
d="M395 1139q-79 0 -131 50q-51 49 -51 128q0 75 52 127q53 53 130 53q78 0 131 -53q54 -54 54 -127q0 -78 -53 -128t-132 -50zM862 1139q-79 0 -131 50q-51 49 -51 128q0 75 52 127q53 53 130 53q78 0 131 -53q54 -54 54 -127q0 -78 -53 -128t-132 -50zM1147 1028v-1028
h-328v98q-123 -129 -315 -129q-181 0 -290 118q-110 119 -110 310v631h326v-561q0 -90 49 -146q49 -57 127 -57q100 0 157 71q56 69 56 216v477h328z" />
    <glyph glyph-name="yacute" unicode="&#xfd;" horiz-adv-x="1236" 
d="M754 1163h-291l145 312h389zM1223 1030l-594 -1378h-355l166 383l-426 995h353l243 -600l260 600h353z" />
    <glyph glyph-name="thorn" unicode="&#xfe;" horiz-adv-x="1318" 
d="M766 1059q207 0 355 -154q147 -153 147 -391q0 -239 -147 -392t-355 -153q-195 0 -320 113v-430h-327v1823h327v-529q125 113 320 113zM698 248q110 0 179 74t69 192q0 117 -69 192q-68 74 -179 74q-103 0 -177 -75q-75 -77 -75 -191q0 -116 75 -191t177 -75z" />
    <glyph glyph-name="ydieresis" unicode="&#xff;" horiz-adv-x="1236" 
d="M371 1141q-79 0 -131 50t-52 128q0 74 53 127t130 53q78 0 131 -53t53 -127q0 -79 -52 -128q-53 -50 -132 -50zM838 1141q-79 0 -131 50t-52 128q0 74 53 127t130 53q78 0 131 -53t53 -127q0 -79 -52 -128q-53 -50 -132 -50zM1223 1030l-594 -1378h-355l166 383l-426 995
h353l243 -600l260 600h353z" />
    <glyph glyph-name="Amacron" unicode="&#x100;" horiz-adv-x="1492" 
d="M1087 1511h-679v254h679v-254zM1493 0h-360l-97 250h-577l-97 -250h-362l573 1372h347zM924 541l-176 450l-175 -450h351z" />
    <glyph glyph-name="amacron" unicode="&#x101;" horiz-adv-x="1318" 
d="M997 1167h-680v254h680v-254zM1200 1028v-1028h-328v82q-125 -113 -319 -113q-208 0 -355 153t-147 392q0 238 147 391q148 154 355 154q194 0 319 -113v82h328zM621 248q102 0 177 75q74 74 74 191q0 116 -74 191t-177 75q-111 0 -179 -74q-69 -75 -69 -192
q0 -118 69 -192t179 -74z" />
    <glyph glyph-name="Abreve" unicode="&#x102;" horiz-adv-x="1492" 
d="M748 1470q-166 0 -266 89q-99 88 -99 235h258q0 -44 31 -75q29 -29 76 -29t76 29q30 30 30 75h258q0 -146 -99 -235q-100 -89 -265 -89zM1493 0h-360l-97 250h-577l-97 -250h-362l573 1372h347zM924 541l-176 450l-175 -450h351z" />
    <glyph glyph-name="abreve" unicode="&#x103;" horiz-adv-x="1318" 
d="M657 1126q-167 0 -265 88q-99 88 -99 236h258q0 -44 31 -75q29 -29 75 -29q48 0 77 29q30 30 30 75h258q0 -148 -99 -236q-98 -88 -266 -88zM1200 1028v-1028h-328v82q-125 -113 -319 -113q-208 0 -355 153t-147 392q0 238 147 391q148 154 355 154q194 0 319 -113v82
h328zM621 248q102 0 177 75q74 74 74 191q0 116 -74 191t-177 75q-111 0 -179 -74q-69 -75 -69 -192q0 -118 69 -192t179 -74z" />
    <glyph glyph-name="Aogonek" unicode="&#x104;" horiz-adv-x="1492" 
d="M1530 -205l12 -186q-94 -45 -190 -45q-92 0 -151 50q-58 49 -58 140q0 132 137 246h-147l-97 250h-577l-97 -250h-362l573 1372h347l573 -1372q-3 -4 -34 -37q-12 -13 -28 -32q-8 -10 -22 -25q-11 -12 -18 -24l-5 -6q-4 -7 -6 -12q-7 -14 -8 -21q-2 -12 -2 -19
q0 -49 57 -49q39 0 103 20zM924 541l-176 450l-175 -450h351z" />
    <glyph glyph-name="aogonek" unicode="&#x105;" horiz-adv-x="1318" 
d="M1235 -205l12 -186q-95 -45 -190 -45q-92 0 -151 50q-58 49 -58 140q0 132 137 246h-113v82q-125 -113 -319 -113q-208 0 -355 153t-147 392q0 238 147 391q148 154 355 154q194 0 319 -113v82h328v-1028h-2q-3 -4 -34 -37q-12 -13 -28 -32q-8 -10 -22 -25
q-11 -12 -18 -24l-4 -6q-5 -7 -7 -12q-7 -14 -8 -21q-2 -12 -2 -19q0 -49 58 -49q38 0 102 20zM621 248q102 0 177 75q74 74 74 191q0 116 -74 191t-177 75q-111 0 -179 -74q-69 -75 -69 -192q0 -118 69 -192t179 -74z" />
    <glyph glyph-name="Cacute" unicode="&#x106;" horiz-adv-x="1564" 
d="M948 1505h-291l146 312h389zM1161 580l332 -66q-46 -253 -236 -399t-456 -146q-305 0 -517 207t-212 510q0 300 212 509q211 208 517 208q258 0 449 -143q192 -144 241 -383l-332 -78q-30 143 -126 220q-94 75 -232 75q-164 0 -278 -117q-113 -116 -113 -291t113 -292
q114 -118 278 -118q135 0 230 77q96 77 130 227z" />
    <glyph glyph-name="cacute" unicode="&#x107;" horiz-adv-x="1187" 
d="M760 1161h-291l145 312h390zM612 256q173 0 224 180l301 -65q-39 -180 -185 -291t-340 -111q-234 0 -398 153q-163 153 -163 392q0 238 163 391q165 154 398 154q189 0 336 -109q146 -108 189 -286l-308 -74q-21 90 -77 136t-140 46q-110 0 -178 -73q-67 -71 -67 -185
q0 -115 67 -186q68 -72 178 -72z" />
    <glyph glyph-name="Cdotaccent" unicode="&#x10a;" horiz-adv-x="1564" 
d="M799 1499q-80 0 -131 51q-52 52 -52 129q0 73 53 126t130 53q78 0 131 -53t53 -126q0 -78 -52 -129q-53 -51 -132 -51zM1161 580l332 -66q-46 -253 -236 -399t-456 -146q-305 0 -517 207t-212 510q0 300 212 509q211 208 517 208q258 0 449 -143q192 -144 241 -383
l-332 -78q-30 143 -126 220q-94 75 -232 75q-164 0 -278 -117q-113 -116 -113 -291t113 -292q114 -118 278 -118q135 0 230 77q96 77 130 227z" />
    <glyph glyph-name="cdotaccent" unicode="&#x10b;" horiz-adv-x="1187" 
d="M610 1155q-80 0 -131 51t-51 129q0 74 52 126t130 52q79 0 131 -52q54 -54 54 -126q0 -78 -53 -129q-52 -51 -132 -51zM612 256q173 0 224 180l301 -65q-39 -180 -185 -291t-340 -111q-234 0 -398 153q-163 153 -163 392q0 238 163 391q165 154 398 154q189 0 336 -109
q146 -108 189 -286l-308 -74q-21 90 -77 136t-140 46q-110 0 -178 -73q-67 -71 -67 -185q0 -115 67 -186q68 -72 178 -72z" />
    <glyph glyph-name="Ccaron" unicode="&#x10c;" horiz-adv-x="1564" 
d="M637 1493l-236 317h316l84 -114l82 114h317l-237 -317h-326zM1161 580l332 -66q-46 -253 -236 -399t-456 -146q-305 0 -517 207t-212 510q0 300 212 509q211 208 517 208q258 0 449 -143q192 -144 241 -383l-332 -78q-30 143 -126 220q-94 75 -232 75q-164 0 -278 -117
q-113 -116 -113 -291t113 -292q114 -118 278 -118q135 0 230 77q96 77 130 227z" />
    <glyph glyph-name="ccaron" unicode="&#x10d;" horiz-adv-x="1187" 
d="M449 1149l-236 317h315l84 -114l82 114h318l-238 -317h-325zM612 256q173 0 224 180l301 -65q-39 -180 -185 -291t-340 -111q-234 0 -398 153q-163 153 -163 392q0 238 163 391q165 154 398 154q189 0 336 -109q146 -108 189 -286l-308 -74q-21 90 -77 136t-140 46
q-110 0 -178 -73q-67 -71 -67 -185q0 -115 67 -186q68 -72 178 -72z" />
    <glyph glyph-name="Dcaron" unicode="&#x10e;" horiz-adv-x="1484" 
d="M559 1493l-235 317h315l84 -114l82 114h317l-237 -317h-326zM119 1372h543q337 0 544 -189t207 -497t-207 -497t-544 -189h-543v1372zM457 293h192q194 0 308 107q116 108 116 286t-116 286q-114 107 -308 107h-192v-786z" />
    <glyph glyph-name="dcaron" unicode="&#x10f;" horiz-adv-x="1318" 
d="M872 1475h328v-1475h-328v82q-125 -113 -319 -113q-208 0 -355 153t-147 392q0 238 147 391q148 154 355 154q194 0 319 -113v529zM1616 1475l-72 -408h-237v408h309zM621 248q102 0 177 75q74 74 74 191q0 116 -74 191t-177 75q-111 0 -179 -74q-69 -75 -69 -192
q0 -118 69 -192t179 -74z" />
    <glyph glyph-name="Dcroat" unicode="&#x110;" horiz-adv-x="1501" 
d="M158 1372h542q338 0 544 -189t206 -497t-206 -497t-544 -189h-542v539h-111v295h111v538zM494 293h192q193 0 309 107q117 108 117 286t-117 286q-116 107 -309 107h-192v-245h231v-295h-231v-246z" />
    <glyph glyph-name="dcroat" unicode="&#x111;" horiz-adv-x="1355" 
d="M1303 1118h-103v-1118h-328v82q-125 -113 -319 -113q-208 0 -355 153t-147 392q0 238 147 391q148 154 355 154q194 0 319 -113v172h-276v244h276v113h328v-113h103v-244zM621 248q102 0 177 75q74 74 74 191q0 116 -74 191t-177 75q-111 0 -179 -74q-69 -75 -69 -192
q0 -118 69 -192t179 -74z" />
    <glyph glyph-name="Emacron" unicode="&#x112;" horiz-adv-x="1280" 
d="M1012 1511h-680v254h680v-254zM1188 291v-291h-1069v1372h1063v-291h-725v-258h665v-274h-665v-258h731z" />
    <glyph glyph-name="emacron" unicode="&#x113;" horiz-adv-x="1177" 
d="M940 1167h-680v254h680v-254zM1126 514v-84h-753q22 -94 80 -145q62 -54 141 -54q153 0 219 119l291 -59q-67 -160 -198 -241q-132 -81 -312 -81q-227 0 -385 153t-158 392q0 238 158 391q159 154 387 154q224 0 375 -150q151 -149 155 -395zM596 793q-72 0 -133 -43
q-62 -44 -84 -119h424q-23 81 -78 121q-56 41 -129 41z" />
    <glyph glyph-name="Edotaccent" unicode="&#x116;" horiz-adv-x="1280" 
d="M670 1499q-80 0 -131 51q-52 52 -52 129q0 73 53 126t130 53q78 0 131 -53t53 -126q0 -78 -52 -129t-132 -51zM1188 291v-291h-1069v1372h1063v-291h-725v-258h665v-274h-665v-258h731z" />
    <glyph glyph-name="edotaccent" unicode="&#x117;" horiz-adv-x="1177" 
d="M598 1155q-80 0 -131 51t-51 129q0 74 52 126t130 52q79 0 131 -52q53 -53 53 -126q0 -78 -52 -129t-132 -51zM1126 514v-84h-753q22 -94 80 -145q62 -54 141 -54q153 0 219 119l291 -59q-67 -160 -198 -241q-132 -81 -312 -81q-227 0 -385 153t-158 392q0 238 158 391
q159 154 387 154q224 0 375 -150q151 -149 155 -395zM596 793q-72 0 -133 -43q-62 -44 -84 -119h424q-23 81 -78 121q-56 41 -129 41z" />
    <glyph glyph-name="Eogonek" unicode="&#x118;" horiz-adv-x="1280" 
d="M1188 0h-60q-9 -11 -33 -37q-22 -23 -29 -32q-8 -10 -22 -25q-11 -12 -18 -24q-6 -10 -10 -18q-7 -14 -8 -21q-2 -12 -2 -19q0 -49 57 -49q38 0 102 20l13 -186q-94 -45 -191 -45q-91 0 -150 50t-59 140q0 132 137 246h-796v1372h1063v-291h-725v-258h665v-274h-665v-258
h731v-291z" />
    <glyph glyph-name="eogonek" unicode="&#x119;" horiz-adv-x="1177" 
d="M1126 430h-753q18 -93 78 -146q61 -53 143 -53q156 0 219 119l291 -59q-33 -70 -148 -189q-88 -87 -125 -141q-40 -59 -40 -125q0 -61 65 -61q38 0 102 20l13 -174q-90 -59 -197 -59q-101 0 -161 51t-60 137q0 114 82 221l-41 -2q-227 0 -385 153t-158 392q0 238 158 391
q159 154 385 154t380 -154q152 -152 152 -405v-70zM375 631h424q-35 162 -205 162q-72 0 -134 -43q-63 -43 -85 -119z" />
    <glyph glyph-name="Ecaron" unicode="&#x11a;" horiz-adv-x="1280" 
d="M510 1493l-236 317h316l84 -114l82 114h317l-237 -317h-326zM1188 291v-291h-1069v1372h1063v-291h-725v-258h665v-274h-665v-258h731z" />
    <glyph glyph-name="ecaron" unicode="&#x11b;" horiz-adv-x="1177" 
d="M438 1149l-235 317h315l84 -114l82 114h317l-237 -317h-326zM1126 514v-84h-753q22 -94 80 -145q62 -54 141 -54q153 0 219 119l291 -59q-67 -160 -198 -241q-132 -81 -312 -81q-227 0 -385 153t-158 392q0 238 158 391q159 154 387 154q224 0 375 -150
q151 -149 155 -395zM596 793q-72 0 -133 -43q-62 -44 -84 -119h424q-23 81 -78 121q-56 41 -129 41z" />
    <glyph glyph-name="Gbreve" unicode="&#x11e;" horiz-adv-x="1593" 
d="M815 1470q-165 0 -265 89q-99 88 -99 235h258q0 -45 30 -75q29 -29 76 -29q48 0 77 29q30 30 30 75h258q0 -146 -100 -235t-265 -89zM758 809h755q9 -79 9 -125q0 -312 -201 -513q-202 -202 -510 -202q-311 0 -525 207t-214 510q0 300 212 509q211 208 521 208
q235 0 418 -108t252 -304l-326 -94q-101 197 -344 197q-169 0 -281 -117q-112 -116 -112 -291q0 -174 115 -292t288 -118q133 0 228 66q96 67 135 180h-420v287z" />
    <glyph glyph-name="gbreve" unicode="&#x11f;" horiz-adv-x="1298" 
d="M643 1126q-167 0 -265 88q-99 88 -99 236h258q0 -45 30 -75q29 -29 76 -29q48 0 77 29q30 30 30 75h258q0 -147 -100 -236q-98 -88 -265 -88zM1178 1028v-926q0 -230 -159 -361q-158 -130 -417 -130q-366 0 -516 248l272 147q60 -72 112 -99q54 -28 130 -28q114 0 185 66
t71 184v29q-114 -99 -309 -99q-203 0 -350 145q-146 144 -146 359q0 210 146 353t350 143q196 0 309 -98v67h322zM616 328q101 0 170 66q70 67 70 169q0 100 -70 167t-170 67q-108 0 -177 -66q-68 -65 -68 -168t69 -169t176 -66z" />
    <glyph glyph-name="Gdotaccent" unicode="&#x120;" horiz-adv-x="1593" 
d="M813 1499q-80 0 -131 51t-51 129q0 74 52 126q53 53 130 53q78 0 131 -53t53 -126q0 -78 -52 -129q-53 -51 -132 -51zM758 809h755q9 -79 9 -125q0 -312 -201 -513q-202 -202 -510 -202q-311 0 -525 207t-214 510q0 300 212 509q211 208 521 208q235 0 418 -108t252 -304
l-326 -94q-101 197 -344 197q-169 0 -281 -117q-112 -116 -112 -291q0 -174 115 -292t288 -118q133 0 228 66q96 67 135 180h-420v287z" />
    <glyph glyph-name="gdotaccent" unicode="&#x121;" horiz-adv-x="1298" 
d="M641 1155q-80 0 -131 51t-51 129q0 74 52 126t130 52q79 0 131 -52q53 -53 53 -126q0 -78 -52 -129q-53 -51 -132 -51zM1178 1028v-926q0 -230 -159 -361q-158 -130 -417 -130q-366 0 -516 248l272 147q60 -72 112 -99q54 -28 130 -28q114 0 185 66t71 184v29
q-114 -99 -309 -99q-203 0 -350 145q-146 144 -146 359q0 210 146 353t350 143q196 0 309 -98v67h322zM616 328q101 0 170 66q70 67 70 169q0 100 -70 167t-170 67q-108 0 -177 -66q-68 -65 -68 -168t69 -169t176 -66z" />
    <glyph glyph-name="Gcommaaccent" unicode="&#x122;" horiz-adv-x="1593" 
d="M758 809h755q9 -79 9 -125q0 -312 -201 -513q-202 -202 -510 -202q-311 0 -525 207t-214 510q0 300 212 509q211 208 521 208q235 0 418 -108t252 -304l-326 -94q-101 197 -344 197q-169 0 -281 -117q-112 -116 -112 -291q0 -174 115 -292t288 -118q133 0 228 66
q96 67 135 180h-420v287zM637 -92h332l-203 -322h-234z" />
    <glyph glyph-name="gcommaaccent" unicode="&#x123;" horiz-adv-x="1296" 
d="M813 1155h-332l203 322h234zM1178 1028v-926q0 -230 -159 -361q-158 -130 -417 -130q-366 0 -516 248l272 147q60 -72 112 -99q54 -28 130 -28q114 0 185 66t71 184v29q-114 -99 -309 -99q-203 0 -350 145q-146 144 -146 359q0 210 146 353t350 143q196 0 309 -98v67h322
zM616 328q101 0 170 66q70 67 70 169q0 100 -70 167t-170 67q-108 0 -177 -66q-68 -65 -68 -168t69 -169t176 -66z" />
    <glyph glyph-name="Hbar" unicode="&#x126;" horiz-adv-x="1564" 
d="M1511 899h-110v-899h-338v453h-567v-453h-336v899h-113v260h113v213h336v-213h567v213h338v-213h110v-260zM1063 899h-567v-166h567v166z" />
    <glyph glyph-name="hbar" unicode="&#x127;" horiz-adv-x="1304" 
d="M801 1059q181 0 290 -118t109 -310v-631h-328v561q0 90 -48 147q-47 56 -128 56q-99 0 -156 -71t-57 -216v-477h-325v1139h-111v223h111v113h325v-113h271v-223h-271v-211q125 131 318 131z" />
    <glyph glyph-name="Imacron" unicode="&#x12a;" horiz-adv-x="575" 
d="M629 1511h-680v254h680v-254zM457 0h-338v1372h338v-1372z" />
    <glyph glyph-name="imacron" unicode="&#x12b;" horiz-adv-x="608" 
d="M645 1167h-680v254h680v-254zM467 0h-326v1028h326v-1028z" />
    <glyph glyph-name="Iogonek" unicode="&#x12e;" horiz-adv-x="575" 
d="M492 -205l12 -186q-94 -45 -191 -45q-91 0 -150 50t-59 140q0 131 138 246h-123v1372h338v-1372h-2q-3 -4 -34 -37q-22 -23 -29 -32q-19 -23 -21 -25q-14 -15 -19 -24q-6 -10 -10 -18q-7 -14 -8 -21q-2 -12 -2 -19q0 -49 57 -49q39 0 103 20z" />
    <glyph glyph-name="iogonek" unicode="&#x12f;" horiz-adv-x="608" 
d="M303 1155q-80 0 -131 51t-51 129q0 74 52 126t130 52q79 0 131 -52q53 -53 53 -126q0 -78 -52 -129q-53 -51 -132 -51zM504 -205l12 -186q-95 -45 -190 -45q-92 0 -151 50q-58 49 -58 140q0 132 137 246h-113v1028h326v-1028q-3 -4 -34 -37q-22 -23 -29 -32
q-19 -23 -21 -25q-11 -12 -18 -24l-5 -6q-4 -7 -6 -12q-7 -14 -8 -21q-2 -12 -2 -19q0 -49 57 -49q39 0 103 20z" />
    <glyph glyph-name="Idotaccent" unicode="&#x130;" horiz-adv-x="575" 
d="M287 1858q78 0 131 -53t53 -126q0 -78 -52 -129q-53 -51 -132 -51q-80 0 -131 51q-52 52 -52 129q0 73 53 126t130 53zM457 0h-338v1372h338v-1372z" />
    <glyph glyph-name="dotlessi" unicode="&#x131;" horiz-adv-x="608" 
d="M467 0h-326v1028h326v-1028z" />
    <glyph glyph-name="IJ" unicode="&#x132;" horiz-adv-x="1820" 
d="M119 1372h338v-1372h-338v1372zM1706 1372v-878q0 -231 -153 -378t-400 -147q-229 0 -374 125t-175 336l328 66q11 -107 67 -166q57 -60 154 -60q96 0 156 63q59 62 59 161v878h338z" />
    <glyph glyph-name="ij" unicode="&#x133;" horiz-adv-x="1220" 
d="M299 1518q82 0 136 -56t54 -131q0 -77 -54 -130q-53 -52 -136 -52t-135 52q-53 53 -53 130t53 132t135 55zM920 1518q82 0 136 -56q54 -55 54 -131q0 -77 -54 -130q-53 -52 -136 -52q-84 0 -136 52q-53 53 -53 130t53 132t136 55zM463 0h-328v1028h328v-1028zM543 -326
l49 258q52 -16 82 -16q37 0 62 23q24 23 24 59v1030h325v-1067q0 -149 -89 -240q-88 -90 -238 -90q-110 0 -215 43z" />
    <glyph glyph-name="Kcommaaccent" unicode="&#x136;" horiz-adv-x="1413" 
d="M1419 0h-442l-449 516h-71v-516h-338v1372h338v-545h49l467 545h405l-583 -688zM532 -92h332l-202 -322h-234z" />
    <glyph glyph-name="kcommaaccent" unicode="&#x137;" horiz-adv-x="1253" 
d="M1260 0h-420l-334 371h-60v-371h-327v1475h327v-797h46l325 350h395l-450 -489zM475 -92h332l-203 -322h-233z" />
    <glyph glyph-name="Lacute" unicode="&#x139;" horiz-adv-x="1202" 
d="M438 1505h-291l146 312h389zM1133 295v-295h-1014v1372h338v-1077h676z" />
    <glyph glyph-name="lacute" unicode="&#x13a;" horiz-adv-x="565" 
d="M434 1608h-291l146 311h389zM446 0h-327v1475h327v-1475z" />
    <glyph glyph-name="Lcommaaccent" unicode="&#x13b;" horiz-adv-x="1202" 
d="M1133 295v-295h-1014v1372h338v-1077h676zM453 -92h331l-202 -322h-234z" />
    <glyph glyph-name="lcommaaccent" unicode="&#x13c;" horiz-adv-x="565" 
d="M446 0h-327v1475h327v-1475zM16 -414l105 322h332l-203 -322h-234z" />
    <glyph glyph-name="Lcaron" unicode="&#x13d;" horiz-adv-x="1202" 
d="M1133 295v-295h-1014v1372h338v-1077h676zM864 965h-235v407h307z" />
    <glyph glyph-name="lcaron" unicode="&#x13e;" horiz-adv-x="565" 
d="M446 0h-327v1475h327v-1475zM795 1067h-236v408h307z" />
    <glyph glyph-name="Ldot" unicode="&#x13f;" horiz-adv-x="1208" 
d="M1133 295v-295h-1014v1372h338v-1077h676zM850 555q-82 0 -133 51t-51 129q0 75 52 127q53 53 132 53q78 0 131 -53t53 -127q0 -78 -52 -129t-132 -51z" />
    <glyph glyph-name="ldot" unicode="&#x140;" horiz-adv-x="894" 
d="M446 0h-327v1475h327v-1475zM698 915q80 0 133 -53q54 -54 54 -127q0 -78 -52 -129q-53 -51 -135 -51q-80 0 -131 51t-51 129q0 75 52 127q53 53 130 53z" />
    <glyph glyph-name="Lslash" unicode="&#x141;" horiz-adv-x="1239" 
d="M1174 295v-295h-1014v446l-113 -51v293l113 51v633h338v-479l223 102v-293l-223 -102v-305h676z" />
    <glyph glyph-name="lslash" unicode="&#x142;" horiz-adv-x="659" 
d="M612 729l-118 -65v-664h-326v487l-121 -65v307l121 66v680h326v-504l118 65v-307z" />
    <glyph glyph-name="Nacute" unicode="&#x143;" horiz-adv-x="1550" 
d="M930 1505h-291l145 312h390zM1430 1372v-1372h-279l-694 795v-795h-338v1372h280l695 -819v819h336z" />
    <glyph glyph-name="nacute" unicode="&#x144;" horiz-adv-x="1265" 
d="M788 1161h-290l145 312h389zM762 1059q181 0 290 -118t109 -310v-631h-325v561q0 89 -50 147q-49 56 -127 56q-99 0 -156 -71t-57 -216v-477h-327v1028h327v-98q123 129 316 129z" />
    <glyph glyph-name="Ncommaaccent" unicode="&#x145;" horiz-adv-x="1550" 
d="M1430 1372v-1372h-279l-694 795v-795h-338v1372h280l695 -819v819h336zM651 -92h332l-203 -322h-233z" />
    <glyph glyph-name="ncommaaccent" unicode="&#x146;" horiz-adv-x="1265" 
d="M762 1059q181 0 290 -118t109 -310v-631h-325v561q0 89 -50 147q-49 56 -127 56q-99 0 -156 -71t-57 -216v-477h-327v1028h327v-98q123 129 316 129zM479 -92h332l-203 -322h-233z" />
    <glyph glyph-name="Ncaron" unicode="&#x147;" horiz-adv-x="1550" 
d="M621 1493l-236 317h315l84 -114l82 114h318l-238 -317h-325zM1430 1372v-1372h-279l-694 795v-795h-338v1372h280l695 -819v819h336z" />
    <glyph glyph-name="ncaron" unicode="&#x148;" horiz-adv-x="1265" 
d="M477 1149l-235 317h315l84 -114l82 114h317l-237 -317h-326zM762 1059q181 0 290 -118t109 -310v-631h-325v561q0 89 -50 147q-49 56 -127 56q-99 0 -156 -71t-57 -216v-477h-327v1028h327v-98q123 129 316 129z" />
    <glyph glyph-name="Eng" unicode="&#x14a;" horiz-adv-x="1521" 
d="M1430 1372v-1421q0 -143 -91 -232q-89 -88 -237 -88q-116 0 -254 47l45 230q101 -19 125 -19q86 0 86 76v88l-647 742v-795h-338v1372h280l695 -819v819h336z" />
    <glyph glyph-name="eng" unicode="&#x14b;" horiz-adv-x="1267" 
d="M762 1059q181 0 290 -118t109 -310v-680q0 -143 -90 -232q-89 -88 -237 -88q-116 0 -254 47l45 230q101 -19 125 -19q86 0 86 76v596q0 89 -50 147q-49 56 -127 56q-99 0 -156 -71t-57 -216v-477h-327v1028h327v-98q123 129 316 129z" />
    <glyph glyph-name="Omacron" unicode="&#x14c;" horiz-adv-x="1605" 
d="M1143 1511h-680v254h680v-254zM803 1403q307 0 519 -209t212 -510q0 -298 -212 -507q-211 -208 -519 -208t-519 208q-212 209 -212 507q0 301 212 510t519 209zM803 279q168 0 280 115q113 116 113 290q0 175 -113 293q-113 117 -280 117q-169 0 -281 -117
q-112 -116 -112 -293q0 -175 112 -290t281 -115z" />
    <glyph glyph-name="omacron" unicode="&#x14d;" horiz-adv-x="1234" 
d="M961 1167h-680v254h680v-254zM621 1055q235 0 399 -152t164 -389q0 -239 -164 -391t-399 -152q-239 0 -405 152q-165 151 -165 391q0 238 165 389q166 152 405 152zM621 248q101 0 174 75q73 74 73 191q0 118 -74 192t-173 74q-104 0 -179 -74t-75 -192q0 -117 74 -191
q75 -75 180 -75z" />
    <glyph glyph-name="Ohungarumlaut" unicode="&#x150;" horiz-adv-x="1605" 
d="M729 1505h-280l151 312h369zM860 1505l152 312h374l-247 -312h-279zM803 1403q307 0 519 -209t212 -510q0 -298 -212 -507q-211 -208 -519 -208t-519 208q-212 209 -212 507q0 301 212 510t519 209zM803 279q168 0 280 115q113 116 113 290q0 175 -113 293
q-113 117 -280 117q-169 0 -281 -117q-112 -116 -112 -293q0 -175 112 -290t281 -115z" />
    <glyph glyph-name="ohungarumlaut" unicode="&#x151;" horiz-adv-x="1234" 
d="M547 1161h-281l152 312h368zM678 1161l151 312h375l-248 -312h-278zM621 1055q235 0 399 -152t164 -389q0 -239 -164 -391t-399 -152q-239 0 -405 152q-165 151 -165 391q0 238 165 389q166 152 405 152zM621 248q101 0 174 75q73 74 73 191q0 118 -74 192t-173 74
q-104 0 -179 -74t-75 -192q0 -117 74 -191q75 -75 180 -75z" />
    <glyph glyph-name="OE" unicode="&#x152;" horiz-adv-x="2107" 
d="M2015 291v-291h-1157q-349 0 -568 193q-218 192 -218 493q0 302 218 494t568 192h1151v-291h-725v-258h666v-274h-666v-258h731zM946 291v790h-88q-212 0 -330 -108t-118 -287t118 -287t330 -108h88z" />
    <glyph glyph-name="oe" unicode="&#x153;" horiz-adv-x="1994" 
d="M1944 514v-84h-754q22 -94 80 -145q62 -54 143 -54q151 0 217 119l293 -59q-67 -160 -198 -241q-132 -81 -312 -81q-232 0 -391 156q-160 -154 -401 -154q-239 0 -405 152q-165 151 -165 391q0 238 165 389q166 152 405 152q241 0 401 -154q158 158 393 158
q221 0 373 -150t156 -395zM1415 793q-74 0 -135 -43q-62 -44 -84 -119h424q-23 81 -78 121q-56 41 -127 41zM621 248q101 0 174 75q73 74 73 191q0 118 -74 192t-173 74q-104 0 -179 -74t-75 -192q0 -117 74 -191q75 -75 180 -75z" />
    <glyph glyph-name="Racute" unicode="&#x154;" horiz-adv-x="1390" 
d="M825 1505h-290l145 312h389zM1376 0h-407l-414 471h-98v-471h-338v1372h694q224 0 358 -124q136 -125 136 -324q0 -167 -97 -284q-96 -116 -264 -153zM457 754h319q91 0 145 45t54 121q0 73 -54 118t-145 45h-319v-329z" />
    <glyph glyph-name="racute" unicode="&#x155;" horiz-adv-x="894" 
d="M627 1161h-291l145 312h389zM801 1042q38 0 73 -8l-14 -327h-59q-355 0 -355 -385v-322h-327v1028h327v-197q127 211 355 211z" />
    <glyph glyph-name="Rcommaaccent" unicode="&#x156;" horiz-adv-x="1390" 
d="M1376 0h-407l-414 471h-98v-471h-338v1372h694q224 0 358 -124q136 -125 136 -324q0 -167 -97 -284q-96 -116 -264 -153zM457 754h319q91 0 145 45t54 121q0 73 -54 118t-145 45h-319v-329zM551 -92h332l-203 -322h-234z" />
    <glyph glyph-name="rcommaaccent" unicode="&#x157;" horiz-adv-x="894" 
d="M801 1042q38 0 73 -8l-14 -327h-59q-355 0 -355 -385v-322h-327v1028h327v-197q127 211 355 211zM121 -92h332l-203 -322h-234z" />
    <glyph glyph-name="Rcaron" unicode="&#x158;" horiz-adv-x="1390" 
d="M516 1493l-235 317h315l84 -114l82 114h317l-237 -317h-326zM1376 0h-407l-414 471h-98v-471h-338v1372h694q224 0 358 -124q136 -125 136 -324q0 -167 -97 -284q-96 -116 -264 -153zM457 754h319q91 0 145 45t54 121q0 73 -54 118t-145 45h-319v-329z" />
    <glyph glyph-name="rcaron" unicode="&#x159;" horiz-adv-x="894" 
d="M315 1149l-235 317h315l84 -114l82 114h318l-238 -317h-326zM446 1028v-197q127 211 355 211q38 0 73 -8l-14 -327h-59q-355 0 -355 -385v-322h-327v1028h327z" />
    <glyph glyph-name="Sacute" unicode="&#x15a;" horiz-adv-x="1323" 
d="M823 1505h-291l146 312h389zM657 1403q224 0 377 -106q152 -105 191 -291l-332 -68q-18 92 -86 142t-154 50q-84 0 -133 -39q-51 -41 -51 -100q0 -90 111 -114l284 -64q377 -84 377 -399q0 -211 -162 -328t-403 -117q-240 0 -407 110q-166 109 -193 306l348 68
q50 -203 270 -203q95 0 149 39t54 102q0 48 -28 78q-26 28 -99 43l-287 61q-368 84 -368 398q0 199 149 315q150 117 393 117z" />
    <glyph glyph-name="sacute" unicode="&#x15b;" horiz-adv-x="1054" 
d="M686 1161h-291l146 312h389zM49 268l320 66q21 -121 182 -121q61 0 97 24t36 58q0 58 -102 76l-209 41q-299 56 -299 299q0 159 123 253q124 95 319 95q187 0 312 -80t155 -215l-299 -59q-8 52 -54 86t-118 34q-63 0 -89 -23q-28 -25 -28 -57q0 -55 78 -71l242 -49
q140 -30 213 -112q71 -80 71 -198q0 -166 -129 -256t-338 -90q-194 0 -326 75q-133 76 -157 224z" />
    <glyph glyph-name="Scedilla" unicode="&#x15e;" horiz-adv-x="1323" 
d="M1241 414q0 -180 -123 -294q-124 -115 -319 -143l-94 -305h-340l190 305q-192 24 -325 132q-130 106 -154 276l348 68q50 -203 270 -203q95 0 149 39t54 102q0 48 -28 78q-26 28 -99 43l-287 61q-368 84 -368 398q0 199 149 315q150 117 393 117q224 0 377 -106
q152 -105 191 -291l-332 -68q-18 92 -86 142t-154 50q-84 0 -133 -39q-51 -41 -51 -100q0 -90 111 -114l284 -64q377 -84 377 -399z" />
    <glyph glyph-name="scedilla" unicode="&#x15f;" horiz-adv-x="1054" 
d="M999 315q0 -136 -88 -221t-237 -112l-94 -310h-340l188 303q-150 18 -255 92q-101 72 -124 201l320 66q21 -121 182 -121q61 0 97 24t36 58q0 58 -102 76l-209 41q-299 56 -299 299q0 159 123 253q124 95 319 95q187 0 312 -80t155 -215l-299 -59q-8 52 -54 86t-118 34
q-63 0 -89 -23q-28 -25 -28 -57q0 -55 78 -71l242 -49q140 -30 213 -112q71 -80 71 -198z" />
    <glyph glyph-name="Scaron" unicode="&#x160;" horiz-adv-x="1323" 
d="M512 1493l-236 317h316l84 -114l82 114h317l-237 -317h-326zM580 877l284 -64q377 -84 377 -399q0 -211 -162 -328t-403 -117q-240 0 -407 110q-166 109 -193 306l348 68q50 -203 270 -203q95 0 149 39t54 102q0 48 -28 78q-26 28 -99 43l-287 61q-368 84 -368 398
q0 199 149 315q150 117 393 117q224 0 377 -106q152 -105 191 -291l-332 -68q-18 92 -86 142t-154 50q-84 0 -133 -39q-51 -41 -51 -100q0 -90 111 -114z" />
    <glyph glyph-name="scaron" unicode="&#x161;" horiz-adv-x="1054" 
d="M375 1149l-236 317h316l84 -114l82 114h317l-238 -317h-325zM473 674l242 -49q140 -30 213 -112q71 -80 71 -198q0 -166 -129 -256t-338 -90q-194 0 -326 75q-133 76 -157 224l320 66q21 -121 182 -121q61 0 97 24t36 58q0 58 -102 76l-209 41q-299 56 -299 299
q0 159 123 253q124 95 319 95q187 0 312 -80t155 -215l-299 -59q-8 52 -54 86t-118 34q-63 0 -89 -23q-28 -25 -28 -57q0 -55 78 -71z" />
    <glyph glyph-name="tcedilla" unicode="&#x163;" horiz-adv-x="886" 
d="M805 303l76 -258q-117 -61 -219 -72l-93 -299h-340l201 320q-240 84 -240 385v389h-186v260h186v303h328v-303h303v-260h-303v-356q0 -150 137 -150q77 0 150 41z" />
    <glyph glyph-name="Tcaron" unicode="&#x164;" horiz-adv-x="1306" 
d="M492 1493l-236 317h315l84 -114l82 114h318l-238 -317h-325zM1266 1077h-445v-1077h-336v1077h-444v295h1225v-295z" />
    <glyph glyph-name="tcaron" unicode="&#x165;" horiz-adv-x="886" 
d="M842 1098h-236v407h307zM655 262q77 0 150 41l76 -258q-140 -76 -281 -76q-194 0 -302 105t-108 305v389h-186v260h186v303h328v-303h303v-260h-303v-356q0 -150 137 -150z" />
    <glyph glyph-name="Tbar" unicode="&#x166;" horiz-adv-x="1306" 
d="M821 1077v-276h234v-269h-234v-532h-336v532h-233v269h233v276h-444v295h1225v-295h-445z" />
    <glyph glyph-name="tbar" unicode="&#x167;" horiz-adv-x="886" 
d="M807 311l45 -272q-120 -70 -260 -70q-194 0 -302 105t-108 305v92h-143v229h143v88h-178v240h178v303h326v-303h305v-240h-305v-88h211v-229h-211v-59q0 -150 137 -150q77 0 162 49z" />
    <glyph glyph-name="Umacron" unicode="&#x16a;" horiz-adv-x="1460" 
d="M1069 1511h-680v254h680v-254zM1346 1372v-754q0 -294 -167 -472q-166 -177 -442 -177q-280 0 -451 177t-171 472v754h338v-754q0 -156 77 -246q78 -91 207 -91q124 0 197 91q74 92 74 246v754h338z" />
    <glyph glyph-name="umacron" unicode="&#x16b;" horiz-adv-x="1265" 
d="M969 1167h-680v254h680v-254zM1147 1028v-1028h-328v98q-123 -129 -315 -129q-181 0 -290 118q-110 119 -110 310v631h326v-561q0 -90 49 -146q49 -57 127 -57q100 0 157 71q56 69 56 216v477h328z" />
    <glyph glyph-name="Uring" unicode="&#x16e;" horiz-adv-x="1460" 
d="M729 1456q-107 0 -183 73q-75 72 -75 177q0 107 75 179q76 73 183 73t183 -73q75 -72 75 -179q0 -105 -75 -177q-76 -73 -183 -73zM729 1788q-35 0 -59 -24q-25 -25 -25 -58q0 -31 25 -56q24 -24 59 -24t59 24q25 25 25 56q0 33 -25 58q-24 24 -59 24zM1346 1372v-754
q0 -294 -167 -472q-166 -177 -442 -177q-280 0 -451 177t-171 472v754h338v-754q0 -156 77 -246q78 -91 207 -91q124 0 197 91q74 92 74 246v754h338z" />
    <glyph glyph-name="uring" unicode="&#x16f;" horiz-adv-x="1265" 
d="M629 1112q-108 0 -184 73q-74 71 -74 177q0 108 74 179q76 73 184 73q107 0 183 -73q75 -72 75 -179q0 -105 -75 -177q-76 -73 -183 -73zM629 1444q-36 0 -60 -24t-24 -58q0 -32 24 -56t60 -24q35 0 59 24q25 25 25 56q0 33 -25 58q-24 24 -59 24zM1147 1028v-1028h-328
v98q-123 -129 -315 -129q-181 0 -290 118q-110 119 -110 310v631h326v-561q0 -90 49 -146q49 -57 127 -57q100 0 157 71q56 69 56 216v477h328z" />
    <glyph glyph-name="Uhungarumlaut" unicode="&#x170;" horiz-adv-x="1460" 
d="M655 1505h-280l151 312h369zM786 1505l152 312h375l-248 -312h-279zM1346 1372v-754q0 -294 -167 -472q-166 -177 -442 -177q-280 0 -451 177t-171 472v754h338v-754q0 -156 77 -246q78 -91 207 -91q124 0 197 91q74 92 74 246v754h338z" />
    <glyph glyph-name="uhungarumlaut" unicode="&#x171;" horiz-adv-x="1265" 
d="M555 1161h-281l152 312h369zM686 1161l152 312h374l-247 -312h-279zM819 1028h328v-1028h-328v98q-123 -129 -315 -129q-181 0 -290 118q-110 119 -110 310v631h326v-561q0 -90 49 -146q49 -57 127 -57q100 0 157 71q56 69 56 216v477z" />
    <glyph glyph-name="Uogonek" unicode="&#x172;" horiz-adv-x="1460" 
d="M1139 106q-68 -63 -97 -94q-30 -31 -53 -75q-24 -45 -24 -93q0 -61 63 -61q28 0 115 29l51 -191q-128 -67 -254 -67q-99 0 -163 55t-64 141q0 118 96 223q-40 -4 -72 -4q-280 0 -451 173q-171 172 -171 458v772h338v-772q0 -149 77 -233q78 -86 207 -86q123 0 197 86
t74 233v772h338v-772q0 -304 -207 -494z" />
    <glyph glyph-name="uogonek" unicode="&#x173;" horiz-adv-x="1265" 
d="M1184 -205l12 -186q-94 -45 -190 -45q-92 0 -151 50q-58 49 -58 140q0 132 137 246h-115v98q-123 -129 -315 -129q-181 0 -290 118q-110 119 -110 310v631h326v-561q0 -90 49 -146q49 -57 127 -57q100 0 157 71q56 69 56 216v477h328v-1028q-3 -4 -34 -37
q-22 -23 -29 -32q-19 -23 -21 -25q-14 -15 -19 -24q-6 -10 -10 -18q-7 -14 -8 -21q-2 -12 -2 -19q0 -49 57 -49q39 0 103 20z" />
    <glyph glyph-name="Wcircumflex" unicode="&#x174;" horiz-adv-x="1992" 
d="M913 1493h-315l236 317h325l238 -317h-318l-82 115zM1980 1372l-391 -1372h-362l-230 848l-231 -848h-360l-392 1372h346l240 -864l236 864h321l236 -864l239 864h348z" />
    <glyph glyph-name="wcircumflex" unicode="&#x175;" horiz-adv-x="1628" 
d="M733 1149h-315l235 317h326l238 -317h-318l-82 115zM1614 1028l-330 -1030h-285l-184 557l-186 -557h-285l-330 1030h322l168 -553l194 553h232l194 -555l168 555h322z" />
    <glyph glyph-name="Ycircumflex" unicode="&#x176;" horiz-adv-x="1445" 
d="M639 1493h-315l235 317h326l237 -317h-317l-82 115zM889 430v-430h-344v426l-531 946h369l338 -602l334 602h377z" />
    <glyph glyph-name="ycircumflex" unicode="&#x177;" horiz-adv-x="1236" 
d="M522 1151h-315l235 317h326l238 -317h-318l-82 115zM1223 1030l-594 -1378h-355l166 383l-426 995h353l243 -600l260 600h353z" />
    <glyph glyph-name="Ydieresis" unicode="&#x178;" horiz-adv-x="1445" 
d="M489 1483q-79 0 -131 50q-51 49 -51 128q0 75 52 127q53 53 130 53q79 0 132 -53t53 -127q0 -79 -52 -128q-53 -50 -133 -50zM956 1483q-79 0 -131 50q-51 49 -51 128q0 75 52 127q53 53 130 53q78 0 131 -53q54 -54 54 -127q0 -79 -52 -128q-53 -50 -133 -50zM889 430
v-430h-344v426l-531 946h369l338 -602l334 602h377z" />
    <glyph glyph-name="Zacute" unicode="&#x179;" horiz-adv-x="1300" 
d="M805 1505h-291l145 312h390zM1223 285v-285h-1139v217l692 870h-672v285h1102v-258l-641 -829h658z" />
    <glyph glyph-name="zacute" unicode="&#x17a;" horiz-adv-x="1101" 
d="M707 1161h-291l145 312h389zM1026 260v-260h-950v211l516 557h-504v260h920v-215l-516 -553h534z" />
    <glyph glyph-name="Zdotaccent" unicode="&#x17b;" horiz-adv-x="1300" 
d="M655 1499q-80 0 -131 51t-51 129q0 74 52 126q53 53 130 53q78 0 131 -53q54 -54 54 -126q0 -78 -53 -129t-132 -51zM1223 285v-285h-1139v217l692 870h-672v285h1102v-258l-641 -829h658z" />
    <glyph glyph-name="zdotaccent" unicode="&#x17c;" horiz-adv-x="1101" 
d="M557 1155q-80 0 -131 51t-51 129q0 74 52 126t130 52q79 0 131 -52q53 -53 53 -126q0 -78 -52 -129q-53 -51 -132 -51zM1026 260v-260h-950v211l516 557h-504v260h920v-215l-516 -553h534z" />
    <glyph glyph-name="Zcaron" unicode="&#x17d;" horiz-adv-x="1300" 
d="M496 1493l-236 317h315l84 -114l82 114h318l-238 -317h-325zM1223 285v-285h-1139v217l692 870h-672v285h1102v-258l-641 -829h658z" />
    <glyph glyph-name="zcaron" unicode="&#x17e;" horiz-adv-x="1101" 
d="M395 1149l-235 317h315l84 -114l82 114h317l-237 -317h-326zM1026 260v-260h-950v211l516 557h-504v260h920v-215l-516 -553h534z" />
    <glyph glyph-name="florin" unicode="&#x192;" horiz-adv-x="1204" 
d="M926 1120q-134 0 -162 -143l-31 -174h281v-260h-330l-92 -512q-30 -171 -143 -270t-279 -99q-104 0 -225 66l96 247q66 -22 115 -22q43 0 74 25q33 26 40 65l90 500h-196v260h244l32 186q34 189 165 300q132 112 317 112q142 0 256 -70l-103 -254q-71 43 -149 43z" />
    <glyph glyph-name="AEacute" unicode="&#x1fc;" horiz-adv-x="2142" 
d="M1509 1505h-290l145 312h389zM2062 291v-291h-1067v223h-469l-133 -223h-393l879 1372h1177v-291h-725v-258h668v-274h-668v-258h731zM995 514v494l-295 -494h295z" />
    <glyph glyph-name="aeacute" unicode="&#x1fd;" horiz-adv-x="1835" 
d="M1055 1161h-291l145 312h389zM1784 418h-752q50 -187 230 -187q142 0 204 119l287 -59q-40 -144 -178 -233q-137 -89 -318 -89q-225 0 -383 146q-154 -146 -411 -146q-199 0 -307 90q-109 91 -109 240q0 148 112 230q111 81 318 81h260v47q0 68 -44 109t-115 41
q-67 0 -111 -35q-43 -34 -51 -98l-303 61q23 145 146 234q125 90 321 90q213 0 342 -109q145 109 329 109q229 0 381 -153q152 -154 152 -406v-82zM1032 610h430q-19 94 -73 140q-56 47 -132 47q-81 0 -144 -48t-81 -139zM737 414h-225q-141 0 -141 -97q0 -48 39 -78
t104 -30q86 0 155 51q68 50 68 123v31z" />
    <glyph glyph-name="Scommaaccent" unicode="&#x218;" horiz-adv-x="1323" 
d="M657 1403q224 0 377 -106q152 -105 191 -291l-332 -68q-18 92 -86 142t-154 50q-84 0 -133 -39q-51 -41 -51 -100q0 -90 111 -114l284 -64q377 -84 377 -399q0 -211 -162 -328t-403 -117q-240 0 -407 110q-166 109 -193 306l348 68q50 -203 270 -203q95 0 149 39t54 102
q0 48 -28 78q-26 28 -99 43l-287 61q-368 84 -368 398q0 199 149 315q150 117 393 117zM408 -414l104 322h332l-203 -322h-233z" />
    <glyph glyph-name="scommaaccent" unicode="&#x219;" horiz-adv-x="1054" 
d="M49 268l320 66q21 -121 182 -121q61 0 97 24t36 58q0 58 -102 76l-209 41q-299 56 -299 299q0 159 123 253q124 95 319 95q187 0 312 -80t155 -215l-299 -59q-8 52 -54 86t-118 34q-63 0 -89 -23q-28 -25 -28 -57q0 -55 78 -71l242 -49q140 -30 213 -112q71 -80 71 -198
q0 -166 -129 -256t-338 -90q-194 0 -326 75q-133 76 -157 224zM283 -414l104 322h332l-203 -322h-233z" />
    <glyph glyph-name="uni021A" unicode="&#x21a;" horiz-adv-x="1306" 
d="M1266 1372v-295h-445v-1077h-336v1077h-444v295h1225zM498 -92h331l-202 -322h-234z" />
    <glyph glyph-name="uni021B" unicode="&#x21b;" horiz-adv-x="886" 
d="M600 -31q-194 0 -302 105t-108 305v389h-186v260h186v303h328v-303h303v-260h-303v-356q0 -150 137 -150q77 0 150 41l76 -258q-140 -76 -281 -76zM377 -90h332l-203 -322h-234z" />
    <glyph glyph-name="circumflex" unicode="&#x2c6;" horiz-adv-x="1228" 
d="M698 1149l-82 115l-84 -115h-315l236 317h325l238 -317h-318z" />
    <glyph glyph-name="caron" unicode="&#x2c7;" horiz-adv-x="1228" 
d="M1016 1466l-238 -317h-325l-236 317h315l84 -114l82 114h318z" />
    <glyph glyph-name="breve" unicode="&#x2d8;" horiz-adv-x="1228" 
d="M614 1124q-167 0 -265 88q-99 88 -99 236h258q0 -44 31 -75q30 -30 75 -30q47 0 77 30t30 75h258q0 -148 -99 -236q-98 -88 -266 -88z" />
    <glyph glyph-name="dotaccent" unicode="&#x2d9;" horiz-adv-x="1228" 
d="M614 1513q79 0 131 -52q54 -54 54 -126q0 -78 -53 -129q-52 -51 -132 -51t-131 51t-51 129q0 74 52 126t130 52z" />
    <glyph glyph-name="ring" unicode="&#x2da;" horiz-adv-x="1228" 
d="M872 1362q0 -106 -74 -177q-76 -73 -184 -73q-107 0 -183 73q-75 72 -75 177q0 107 75 179q76 73 183 73q108 0 184 -73q74 -71 74 -179zM698 1362q0 34 -24 58t-60 24q-35 0 -59 -24q-25 -25 -25 -58q0 -31 25 -56q24 -24 59 -24q36 0 60 24t24 56z" />
    <glyph glyph-name="ogonek" unicode="&#x2db;" horiz-adv-x="1228" 
d="M469 6l205 -6q-3 -4 -34 -37q-22 -23 -29 -32q-19 -23 -21 -25q-14 -15 -19 -24q-6 -10 -10 -18q-7 -14 -8 -21q-2 -12 -2 -19q0 -49 57 -49q39 0 103 20l12 -186q-95 -45 -191 -45q-91 0 -150 50q-58 49 -58 140q0 135 145 252z" />
    <glyph glyph-name="tilde" unicode="&#x2dc;" horiz-adv-x="1228" 
d="M457 1186h-199q0 154 70 233q69 78 166 78q71 0 141 -38t106 -38q53 0 64 74h199q0 -160 -69 -238q-68 -77 -169 -77q-72 0 -140 37q-66 36 -106 36q-53 0 -63 -67z" />
    <glyph glyph-name="hungarumlaut" unicode="&#x2dd;" horiz-adv-x="1228" 
d="M438 1161h-280l151 312h369zM848 1161h-279l152 312h375z" />
    <glyph glyph-name="uni0326" unicode="&#x326;" horiz-adv-x="0" 
d="M381 -414l104 322h332l-203 -322h-233z" />
    <glyph glyph-name="Wgrave" unicode="&#x1e80;" horiz-adv-x="1992" 
d="M856 1505l-244 312h389l146 -312h-291zM1980 1372l-391 -1372h-362l-230 848l-231 -848h-360l-392 1372h346l240 -864l236 864h321l236 -864l239 864h348z" />
    <glyph glyph-name="wgrave" unicode="&#x1e81;" horiz-adv-x="1628" 
d="M674 1161l-244 312h389l146 -312h-291zM1614 1028l-330 -1030h-285l-184 557l-186 -557h-285l-330 1030h322l168 -553l194 553h232l194 -555l168 555h322z" />
    <glyph glyph-name="Wacute" unicode="&#x1e82;" horiz-adv-x="1992" 
d="M1145 1505h-291l145 312h390zM1980 1372l-391 -1372h-362l-230 848l-231 -848h-360l-392 1372h346l240 -864l236 864h321l236 -864l239 864h348z" />
    <glyph glyph-name="wacute" unicode="&#x1e83;" horiz-adv-x="1628" 
d="M963 1161h-291l145 312h389zM1614 1028l-330 -1030h-285l-184 557l-186 -557h-285l-330 1030h322l168 -553l194 553h232l194 -555l168 555h322z" />
    <glyph glyph-name="Wdieresis" unicode="&#x1e84;" horiz-adv-x="1992" 
d="M764 1483q-79 0 -131 50q-51 49 -51 128q0 75 52 127q53 53 130 53q78 0 131 -53t53 -127q0 -79 -52 -128q-53 -50 -132 -50zM1231 1483q-79 0 -131 50q-51 49 -51 128q0 75 52 127q53 53 130 53q78 0 131 -53t53 -127q0 -79 -52 -128q-53 -50 -132 -50zM1980 1372
l-391 -1372h-362l-230 848l-231 -848h-360l-392 1372h346l240 -864l236 864h321l236 -864l239 864h348z" />
    <glyph glyph-name="wdieresis" unicode="&#x1e85;" horiz-adv-x="1628" 
d="M582 1139q-79 0 -131 50t-52 128q0 74 53 127t130 53q78 0 131 -53t53 -127q0 -79 -52 -128q-53 -50 -132 -50zM1049 1139q-79 0 -131 50t-52 128q0 74 53 127t130 53q78 0 131 -53t53 -127q0 -79 -52 -128q-53 -50 -132 -50zM1614 1028l-330 -1030h-285l-184 557
l-186 -557h-285l-330 1030h322l168 -553l194 553h232l194 -555l168 555h322z" />
    <glyph glyph-name="Ygrave" unicode="&#x1ef2;" horiz-adv-x="1445" 
d="M582 1505l-244 312h389l145 -312h-290zM889 430v-430h-344v426l-531 946h369l338 -602l334 602h377z" />
    <glyph glyph-name="ygrave" unicode="&#x1ef3;" horiz-adv-x="1236" 
d="M463 1163l-244 312h389l146 -312h-291zM1223 1030l-594 -1378h-355l166 383l-426 995h353l243 -600l260 600h353z" />
    <glyph glyph-name="endash" unicode="&#x2013;" horiz-adv-x="1269" 
d="M1147 412h-1024v252h1024v-252z" />
    <glyph glyph-name="emdash" unicode="&#x2014;" horiz-adv-x="2129" 
d="M2007 412h-1884v252h1884v-252z" />
    <glyph glyph-name="quoteleft" unicode="&#x2018;" horiz-adv-x="612" 
d="M301 1372h248l-121 -590h-362v9z" />
    <glyph glyph-name="quoteright" unicode="&#x2019;" horiz-adv-x="612" 
d="M313 782h-247l120 590h363v-8z" />
    <glyph glyph-name="quotesinglbase" unicode="&#x201a;" horiz-adv-x="612" 
d="M313 -270h-247l120 589h363v-8z" />
    <glyph glyph-name="quotedblleft" unicode="&#x201c;" horiz-adv-x="1050" 
d="M301 1372h248l-121 -590h-362v9zM737 1372h248l-121 -590h-362v9z" />
    <glyph glyph-name="quotedblright" unicode="&#x201d;" horiz-adv-x="1050" 
d="M313 782h-247l120 590h363v-8zM750 782h-248l121 590h362v-8z" />
    <glyph glyph-name="quotedblbase" unicode="&#x201e;" horiz-adv-x="1050" 
d="M313 -270h-247l120 589h363v-8zM750 -270h-248l121 589h362v-8z" />
    <glyph glyph-name="dagger" unicode="&#x2020;" horiz-adv-x="819" 
d="M741 1331v-190h-229v-508h-205v508h-229v190h229v185h205v-185h229z" />
    <glyph glyph-name="daggerdbl" unicode="&#x2021;" horiz-adv-x="819" 
d="M512 1141v-133h229v-191h-229v-184h-205v184h-229v191h229v133h-229v190h229v185h205v-185h229v-190h-229z" />
    <glyph glyph-name="bullet" unicode="&#x2022;" horiz-adv-x="849" 
d="M424 887q153 0 257 -106q103 -104 103 -249q0 -148 -102 -249q-103 -101 -258 -101q-154 0 -257 101q-101 100 -101 249q0 145 102 250t256 105z" />
    <glyph glyph-name="ellipsis" unicode="&#x2026;" horiz-adv-x="1638" 
d="M252 358q80 0 134 -54t54 -130q0 -78 -53 -131t-135 -53q-81 0 -133 52q-53 53 -53 132q0 75 53 130q53 54 133 54zM819 358q81 0 133 -54q54 -56 54 -130q0 -79 -53 -132q-52 -52 -134 -52q-83 0 -135 52q-53 53 -53 132q0 75 53 130q52 54 135 54zM1384 358
q84 0 136 -54q53 -55 53 -130q0 -79 -53 -132q-52 -52 -136 -52q-82 0 -134 52t-52 132q0 75 53 130q53 54 133 54z" />
    <glyph glyph-name="perthousand" unicode="&#x2030;" horiz-adv-x="2603" 
d="M438 1403q147 0 251 -95t104 -249q0 -152 -104 -247t-251 -95q-149 0 -253 95q-103 94 -103 247q0 155 103 249q104 95 253 95zM293 0l991 1372h193l-994 -1372h-190zM438 1200q-54 0 -95 -38q-40 -37 -40 -101q0 -67 40 -104t95 -37q54 0 93 38q40 39 40 103t-40 101
q-41 38 -93 38zM1335 655q147 0 251 -95t104 -249q0 -151 -104 -246q-105 -96 -251 -96q-148 0 -253 96q-103 94 -103 246q0 155 103 249q104 95 253 95zM2169 655q147 0 250 -95q102 -95 102 -249q0 -151 -102 -246q-104 -96 -250 -96q-148 0 -253 96q-104 95 -104 246
q0 154 104 249t253 95zM1335 453q-54 0 -95 -38q-40 -37 -40 -102q0 -66 40 -103q41 -38 95 -38q53 0 93 39t40 102q0 65 -40 102q-41 38 -93 38zM2169 453q-55 0 -96 -38t-41 -102q0 -63 41 -102t96 -39q53 0 93 39t40 102q0 65 -40 102q-41 38 -93 38z" />
    <glyph glyph-name="guilsinglleft" unicode="&#x2039;" horiz-adv-x="624" 
d="M51 537l215 364h307l-215 -364l215 -365h-307z" />
    <glyph glyph-name="guilsinglright" unicode="&#x203a;" horiz-adv-x="624" 
d="M51 172l215 365l-215 364h307l215 -364l-215 -365h-307z" />
    <glyph glyph-name="fraction" unicode="&#x2044;" horiz-adv-x="501" 
d="M-354 0l991 1372h192l-993 -1372h-190z" />
    <glyph glyph-name="Euro" unicode="&#x20ac;" horiz-adv-x="1558" 
d="M895 266q198 0 264 281l328 -66q-45 -232 -204 -372q-160 -140 -388 -140q-218 0 -372 127q-155 128 -212 348h-198v197h170v45v45h-170v195h198q57 221 212 349t372 128q230 0 386 -138t206 -370l-334 -64q-27 140 -95 208q-69 69 -163 69q-160 0 -236 -182h365
l-43 -195h-360l-3 -45q0 -15 3 -45h344l-43 -197h-263q73 -178 236 -178z" />
    <glyph glyph-name="uni2116" unicode="&#x2116;" horiz-adv-x="2453" 
d="M1954 678q-156 0 -265 100q-110 101 -110 256q0 157 110 258t265 101q159 0 269 -101t110 -258q0 -158 -110 -257q-109 -99 -269 -99zM1094 1372h336v-1372h-279l-694 795v-795h-338v1372h280l695 -819v819zM1954 1174q-56 0 -93 -40q-38 -41 -38 -100q0 -56 39 -97
q39 -40 92 -40q56 0 97 39q40 39 40 98q0 60 -39 100t-98 40zM1595 584h723v-246h-723v246z" />
    <glyph glyph-name="uni2117" unicode="&#x2117;" horiz-adv-x="1548" 
d="M770 1403q300 0 508 -205q209 -206 209 -516q0 -307 -209 -510t-508 -203q-298 0 -509 203q-210 202 -210 510q0 311 210 516q209 205 509 205zM770 86q245 0 418 170q172 169 172 428t-172 431q-173 173 -418 173q-247 0 -419 -172q-173 -173 -173 -432q0 -258 173 -428
t419 -170zM496 1057h356q136 0 215 -73q78 -72 78 -189q0 -124 -82 -197q-83 -74 -219 -74h-156v-213h-192v746zM688 686h143q59 0 94 30q33 29 33 77q0 46 -33 72q-36 28 -94 28h-143v-207z" />
    <glyph glyph-name="trademark" unicode="&#x2122;" horiz-adv-x="1411" 
d="M598 1221h-174v-416h-180v416h-172v151h526v-151zM1317 805h-168v272l-115 -270h-90l-115 270v-272h-170v567h193l137 -307l137 307h191v-567z" />
    <glyph glyph-name="oneeighth" unicode="&#x215b;" horiz-adv-x="1667" 
d="M195 1087l-160 -94v228l235 151h148v-784h-223v499zM1360 1372l-991 -1372h-193l993 1372h191zM1464 408q138 -53 138 -195q0 -100 -91 -167q-90 -66 -237 -66q-146 0 -236 66t-90 167q0 142 137 195q-106 52 -106 165q0 92 85 158q86 66 212 66t211 -66q86 -66 86 -158
q0 -115 -109 -165zM1274 635q-41 0 -69 -23q-27 -22 -27 -61q0 -32 27 -56t69 -24q40 0 69 23t29 57q0 39 -27 61q-28 23 -71 23zM1276 152q45 0 72 23q28 24 28 63q0 38 -29 61q-31 25 -73 25q-45 0 -74 -24t-29 -62q0 -39 30 -63q29 -23 75 -23z" />
    <glyph glyph-name="threeeighths" unicode="&#x215c;" horiz-adv-x="1773" 
d="M664 831q0 -111 -87 -183q-88 -73 -223 -73q-130 0 -217 70t-94 186l195 44q12 -117 118 -117q44 0 70 22q27 22 27 58q0 34 -28 54q-26 19 -71 19h-86v156h74q46 0 75 19t29 53t-25 55q-24 20 -69 20q-100 0 -104 -110l-201 43q12 108 95 177q82 69 208 69
q132 0 217 -70q84 -69 84 -176q0 -101 -94 -152q107 -53 107 -164zM1466 1372l-991 -1372h-192l991 1372h192zM1565 408q137 -53 137 -195q0 -101 -90 -167t-238 -66q-145 0 -235 66t-90 167q0 142 137 195q-107 53 -107 165q0 92 85 158q86 66 212 66t211 -66
q86 -66 86 -158q0 -115 -108 -165zM1374 635q-40 0 -68 -23t-28 -61q0 -31 28 -56q27 -24 68 -24t70 23t29 57q0 38 -28 61t-71 23zM1376 152q45 0 72 23q29 24 29 63q0 37 -30 61q-31 25 -73 25q-46 0 -74 -24t-28 -62q0 -39 30 -63q29 -23 74 -23z" />
    <glyph glyph-name="fiveeighths" unicode="&#x215d;" horiz-adv-x="1730" 
d="M678 848q0 -125 -86 -202t-225 -77q-133 0 -222 71q-88 70 -100 175l209 37q7 -44 39 -71q29 -25 72 -25t71 22q29 23 29 64q0 40 -31 62t-80 22h-280l20 446h541v-192h-350l-4 -78h125q121 0 197 -70q75 -69 75 -184zM1452 1372l-991 -1372h-193l992 1372h192zM1530 408
q137 -53 137 -195q0 -101 -90 -167t-238 -66q-145 0 -235 66t-90 167q0 142 137 195q-107 53 -107 165q0 92 85 158t212 66q125 0 211 -66t86 -158q0 -115 -108 -165zM1339 635q-40 0 -68 -23t-28 -61q0 -31 28 -56q27 -24 68 -24t70 23t29 57q0 38 -28 61t-71 23zM1341 152
q45 0 72 23q29 24 29 63q0 37 -30 61q-31 25 -73 25q-45 0 -73 -24q-29 -24 -29 -62q0 -39 30 -63q29 -23 74 -23z" />
    <glyph glyph-name="seveneighths" unicode="&#x215e;" horiz-adv-x="1574" 
d="M102 588l273 592h-361v192h596v-170l-270 -614h-238zM1296 1372l-991 -1372h-192l991 1372h192zM1374 408q137 -53 137 -195q0 -101 -90 -167t-237 -66q-146 0 -236 66t-90 167q0 142 137 195q-106 52 -106 165q0 92 85 158q86 66 212 66q125 0 211 -66t86 -158
q0 -115 -109 -165zM1184 635q-41 0 -69 -23t-28 -61q0 -31 28 -56q27 -24 69 -24q40 0 69 23t29 57q0 38 -28 61t-70 23zM1186 152q44 0 71 23q29 24 29 63q0 37 -30 61q-31 25 -72 25q-46 0 -74 -24q-29 -24 -29 -62q0 -39 30 -63q29 -23 75 -23z" />
    <glyph glyph-name="arrowleft" unicode="&#x2190;" horiz-adv-x="1488" 
d="M1407 512h-807l315 -317l-213 -213l-682 682l685 684l213 -215l-318 -318h807v-303z" />
    <glyph glyph-name="arrowup" unicode="&#x2191;" horiz-adv-x="1529" 
d="M1235 492l-317 315v-807h-304v807l-317 -318l-215 213l684 684l682 -681z" />
    <glyph glyph-name="arrowright" unicode="&#x2192;" horiz-adv-x="1488" 
d="M1468 664l-682 -682l-213 213l316 317h-807v303h807l-318 318l213 215z" />
    <glyph glyph-name="arrowdown" unicode="&#x2193;" horiz-adv-x="1529" 
d="M1448 668l-682 -682l-684 684l215 213l317 -318v807h304v-807l317 316z" />
    <glyph glyph-name="uni2196" unicode="&#x2196;" horiz-adv-x="1531" 
d="M1227 -18l-862 866v-483h-304v1007h1006l-2 -303h-479l864 -864z" />
    <glyph glyph-name="uni2197" unicode="&#x2197;" horiz-adv-x="1529" 
d="M1468 1372v-1007h-303v481l-862 -864l-223 223l864 864h-479l-2 303h1005z" />
    <glyph glyph-name="uni2198" unicode="&#x2198;" horiz-adv-x="1531" 
d="M1470 1008v-1008h-1005l2 303h479l-864 864l223 224l862 -865v482h303z" />
    <glyph glyph-name="uni2199" unicode="&#x2199;" horiz-adv-x="1531" 
d="M1065 303l2 -303h-1006v1008h304v-484l862 867l223 -224l-864 -864h479z" />
    <glyph glyph-name="minus" unicode="&#x2212;" horiz-adv-x="1173" 
d="M1071 487h-969v269h969v-269z" />
    <glyph glyph-name="approxequal" unicode="&#x2248;" horiz-adv-x="1171" 
d="M1069 942v-248q-89 -43 -217 -43q-111 0 -254 49q-145 50 -248 50q-166 0 -248 -60v244q84 63 248 63q108 0 255 -49t251 -49q134 0 213 43zM1069 618v-245q-95 -45 -217 -45q-109 0 -254 50t-248 50q-164 0 -248 -59v241q88 66 248 66q108 0 255 -49t251 -49
q132 0 213 40z" />
    <glyph glyph-name="notequal" unicode="&#x2260;" horiz-adv-x="1173" 
d="M756 719l-80 -146h395v-260h-536l-86 -157h-252l86 157h-181v260h322l80 146h-402v260h543l82 151h252l-82 -151h174v-260h-315z" />
    <glyph glyph-name="lessequal" unicode="&#x2264;" horiz-adv-x="935" 
d="M858 442l-792 234v307l792 234v-293l-477 -95l477 -100v-287zM858 410v-267h-792v267h792z" />
    <glyph glyph-name="greaterequal" unicode="&#x2265;" horiz-adv-x="935" 
d="M559 829l-477 95v293l792 -234v-307l-792 -234v287zM874 143h-792v267h792v-267z" />
    <glyph glyph-name="K.ss03" horiz-adv-x="1462" 
d="M1468 0h-409l-361 524l-241 -288v-236h-338v1372h338v-678l571 678h383l-493 -588z" />
    <glyph glyph-name="Kcommaaccent.ss03" horiz-adv-x="1462" 
d="M1468 0h-409l-361 524l-241 -288v-236h-338v1372h338v-678l571 678h383l-493 -588zM594 -92h332l-203 -322h-234z" />
    <glyph glyph-name="Q.ss04" horiz-adv-x="1605" 
d="M1169 -348l-243 328q-69 -11 -123 -11q-308 0 -519 208q-212 209 -212 507q0 301 212 510t519 209t519 -209t212 -510q0 -169 -74 -317q-73 -147 -205 -248l357 -467h-443zM410 684q0 -175 112 -290t281 -115q168 0 280 115q113 116 113 290q0 175 -113 293
q-113 117 -280 117q-169 0 -281 -117q-112 -116 -112 -293z" />
    <glyph glyph-name="I.ss05" horiz-adv-x="937" 
d="M637 1077v-782h260v-295h-856v295h260v782h-260v295h856v-295h-260z" />
    <glyph glyph-name="IJ.ss05" horiz-adv-x="2183" 
d="M897 1372v-295h-260v-782h260v-295h-856v295h260v782h-260v295h856zM2068 1372v-878q0 -232 -152 -378q-153 -147 -400 -147q-229 0 -374 125t-175 336l327 66q10 -105 68 -166q57 -60 154 -60q95 0 155 63t60 161v583h-424v295h761z" />
    <glyph glyph-name="Iacute.ss05" horiz-adv-x="937" 
d="M616 1505h-290l145 312h389zM637 1077v-782h260v-295h-856v295h260v782h-260v295h856v-295h-260z" />
    <glyph glyph-name="Icircumflex.ss05" horiz-adv-x="937" 
d="M387 1493h-315l235 317h326l237 -317h-317l-82 115zM637 1077v-782h260v-295h-856v295h260v782h-260v295h856v-295h-260z" />
    <glyph glyph-name="Idieresis.ss05" horiz-adv-x="937" 
d="M236 1483q-80 0 -132 50q-51 49 -51 128q0 75 52 127q53 53 131 53t131 -53t53 -127q0 -79 -52 -128q-53 -50 -132 -50zM702 1483q-79 0 -131 50q-51 49 -51 128q0 75 52 127q53 53 130 53q79 0 132 -53t53 -127q0 -79 -52 -128q-53 -50 -133 -50zM637 1077v-782h260
v-295h-856v295h260v782h-260v295h856v-295h-260z" />
    <glyph glyph-name="Idotaccent.ss05" horiz-adv-x="937" 
d="M467 1499q-80 0 -131 51t-51 129q0 74 52 126q53 53 130 53q78 0 131 -53t53 -126q0 -78 -52 -129q-53 -51 -132 -51zM637 1077v-782h260v-295h-856v295h260v782h-260v295h856v-295h-260z" />
    <glyph glyph-name="Igrave.ss05" horiz-adv-x="937" 
d="M328 1505l-244 312h389l145 -312h-290zM637 1077v-782h260v-295h-856v295h260v782h-260v295h856v-295h-260z" />
    <glyph glyph-name="Imacron.ss05" horiz-adv-x="937" 
d="M809 1511h-680v254h680v-254zM637 1077v-782h260v-295h-856v295h260v782h-260v295h856v-295h-260z" />
    <glyph glyph-name="Iogonek.ss05" horiz-adv-x="937" 
d="M637 1077v-782h260v-295h-260q-3 -4 -34 -37q-22 -23 -29 -32q-19 -23 -21 -25q-11 -12 -18 -24l-5 -6q-4 -7 -6 -12q-7 -14 -8 -21q-2 -12 -2 -19q0 -49 57 -49q39 0 103 20l12 -186q-94 -45 -190 -45q-92 0 -151 50q-58 49 -58 140q0 132 137 246h-383v295h260v782
h-260v295h856v-295h-260z" />
    <glyph glyph-name="J.ss05" horiz-adv-x="1245" 
d="M1130 1372v-878q0 -232 -152 -378q-153 -147 -400 -147q-229 0 -374 125t-175 336l327 66q10 -105 68 -166q57 -60 154 -60q95 0 155 63t60 161v583h-424v295h761z" />
    <glyph glyph-name="i.loclTRK" horiz-adv-x="608" 
d="M303 1513q79 0 131 -52q53 -53 53 -126q0 -78 -52 -129q-53 -51 -132 -51q-80 0 -131 51t-51 129q0 74 52 126t130 52zM467 0h-326v1028h326v-1028z" />
    <glyph glyph-name="germandbls.case" horiz-adv-x="2613" 
d="M657 1403q224 0 377 -106q152 -105 191 -291l-332 -68q-18 92 -86 142t-154 50q-84 0 -133 -39q-51 -41 -51 -100q0 -90 111 -114l284 -64q377 -84 377 -399q0 -211 -162 -328t-403 -117q-240 0 -407 110q-166 109 -193 306l348 68q50 -203 270 -203q95 0 149 39t54 102
q0 48 -28 78q-26 28 -99 43l-287 61q-368 84 -368 398q0 199 149 315q150 117 393 117zM1948 1403q223 0 376 -106q152 -105 191 -291l-332 -68q-18 92 -86 142t-153 50t-134 -39q-51 -41 -51 -100q0 -90 111 -114l284 -64q377 -84 377 -399q0 -212 -161 -328
q-162 -117 -404 -117q-239 0 -406 110t-194 306l348 68q50 -203 271 -203q94 0 148 39t54 102q0 49 -27 78q-26 28 -100 43l-286 61q-369 84 -369 398q0 199 149 315q150 117 394 117z" />
    <glyph glyph-name="a.ss01" horiz-adv-x="1138" 
d="M582 1059q218 0 345 -107q126 -106 126 -301v-651h-316v76q-125 -107 -307 -107q-171 0 -277 92t-106 244q0 154 113 243t315 89h262v20q0 64 -40 104t-105 40q-150 0 -172 -129l-309 63q35 150 160 237q126 87 311 87zM522 215q88 0 152 53q63 52 63 138v22h-225
q-61 0 -97 -30t-36 -76q0 -50 39 -78q40 -29 104 -29z" />
    <glyph glyph-name="aacute.ss01" horiz-adv-x="1138" 
d="M727 1161h-291l146 312h389zM582 1059q218 0 345 -107q126 -106 126 -301v-651h-316v76q-125 -107 -307 -107q-171 0 -277 92t-106 244q0 154 113 243t315 89h262v20q0 64 -40 104t-105 40q-150 0 -172 -129l-309 63q35 150 160 237q126 87 311 87zM522 215q88 0 152 53
q63 52 63 138v22h-225q-61 0 -97 -30t-36 -76q0 -50 39 -78q40 -29 104 -29z" />
    <glyph glyph-name="abreve.ss01" horiz-adv-x="1138" 
d="M580 1126q-168 0 -266 88q-99 88 -99 236h258q0 -44 31 -75q29 -29 76 -29t76 29q30 30 30 75h258q0 -148 -99 -236q-98 -88 -265 -88zM582 1059q218 0 345 -107q126 -106 126 -301v-651h-316v76q-125 -107 -307 -107q-171 0 -277 92t-106 244q0 154 113 243t315 89h262
v20q0 64 -40 104t-105 40q-150 0 -172 -129l-309 63q35 150 160 237q126 87 311 87zM522 215q88 0 152 53q63 52 63 138v22h-225q-61 0 -97 -30t-36 -76q0 -50 39 -78q40 -29 104 -29z" />
    <glyph glyph-name="acircumflex.ss01" horiz-adv-x="1138" 
d="M498 1149h-316l236 317h325l238 -317h-317l-82 115zM582 1059q218 0 345 -107q126 -106 126 -301v-651h-316v76q-125 -107 -307 -107q-171 0 -277 92t-106 244q0 154 113 243t315 89h262v20q0 64 -40 104t-105 40q-150 0 -172 -129l-309 63q35 150 160 237q126 87 311 87
zM522 215q88 0 152 53q63 52 63 138v22h-225q-61 0 -97 -30t-36 -76q0 -50 39 -78q40 -29 104 -29z" />
    <glyph glyph-name="adieresis.ss01" horiz-adv-x="1138" 
d="M346 1139q-79 0 -131 50q-51 49 -51 128q0 75 52 127q53 53 130 53q78 0 131 -53t53 -127q0 -79 -52 -128q-53 -50 -132 -50zM813 1139q-79 0 -131 50q-51 49 -51 128q0 75 52 127q53 53 130 53q78 0 131 -53t53 -127q0 -79 -52 -128q-53 -50 -132 -50zM582 1059
q218 0 345 -107q126 -106 126 -301v-651h-316v76q-125 -107 -307 -107q-171 0 -277 92t-106 244q0 154 113 243t315 89h262v20q0 64 -40 104t-105 40q-150 0 -172 -129l-309 63q35 150 160 237q126 87 311 87zM522 215q88 0 152 53q63 52 63 138v22h-225q-61 0 -97 -30
t-36 -76q0 -50 39 -78q40 -29 104 -29z" />
    <glyph glyph-name="agrave.ss01" horiz-adv-x="1138" 
d="M438 1161l-243 312h389l145 -312h-291zM582 1059q218 0 345 -107q126 -106 126 -301v-651h-316v76q-125 -107 -307 -107q-171 0 -277 92t-106 244q0 154 113 243t315 89h262v20q0 64 -40 104t-105 40q-150 0 -172 -129l-309 63q35 150 160 237q126 87 311 87zM522 215
q88 0 152 53q63 52 63 138v22h-225q-61 0 -97 -30t-36 -76q0 -50 39 -78q40 -29 104 -29z" />
    <glyph glyph-name="amacron.ss01" horiz-adv-x="1138" 
d="M920 1167h-680v254h680v-254zM582 1059q218 0 345 -107q126 -106 126 -301v-651h-316v76q-125 -107 -307 -107q-171 0 -277 92t-106 244q0 154 113 243t315 89h262v20q0 64 -40 104t-105 40q-150 0 -172 -129l-309 63q35 150 160 237q126 87 311 87zM522 215q88 0 152 53
q63 52 63 138v22h-225q-61 0 -97 -30t-36 -76q0 -50 39 -78q40 -29 104 -29z" />
    <glyph glyph-name="aogonek.ss01" horiz-adv-x="1138" 
d="M1087 -205l13 -186q-95 -45 -191 -45q-91 0 -150 50t-59 140q0 131 138 246h-101v76q-125 -107 -307 -107q-171 0 -277 92t-106 244q0 154 113 243t315 89h262v20q0 64 -40 104t-105 40q-150 0 -172 -129l-309 63q35 150 160 237q126 87 311 87q218 0 345 -107
q126 -106 126 -301v-651h-2q-3 -4 -34 -37q-22 -23 -29 -32q-19 -23 -21 -25q-14 -15 -19 -24q-6 -10 -10 -18q-7 -14 -8 -21q-2 -12 -2 -19q0 -49 57 -49q38 0 102 20zM522 215q88 0 152 53q63 52 63 138v22h-225q-61 0 -97 -30t-36 -76q0 -50 39 -78q40 -29 104 -29z" />
    <glyph glyph-name="aring.ss01" horiz-adv-x="1138" 
d="M580 1112q-108 0 -184 73q-74 71 -74 177q0 108 74 179q76 73 184 73q107 0 183 -73q75 -72 75 -179q0 -105 -75 -177q-76 -73 -183 -73zM580 1444q-36 0 -60 -24t-24 -58q0 -32 24 -56t60 -24q35 0 59 24q25 25 25 56q0 33 -25 58q-24 24 -59 24zM582 1059
q218 0 345 -107q126 -106 126 -301v-651h-316v76q-125 -107 -307 -107q-171 0 -277 92t-106 244q0 154 113 243t315 89h262v20q0 64 -40 104t-105 40q-150 0 -172 -129l-309 63q35 150 160 237q126 87 311 87zM522 215q88 0 152 53q63 52 63 138v22h-225q-61 0 -97 -30
t-36 -76q0 -50 39 -78q40 -29 104 -29z" />
    <glyph glyph-name="atilde.ss01" horiz-adv-x="1138" 
d="M483 1253q-53 0 -63 -67h-199q0 154 70 233q69 78 166 78q71 0 141 -38t107 -38q52 0 63 74h199q0 -160 -69 -238q-68 -77 -169 -77q-72 0 -140 37q-66 36 -106 36zM582 1059q218 0 345 -107q126 -106 126 -301v-651h-316v76q-125 -107 -307 -107q-171 0 -277 92
t-106 244q0 154 113 243t315 89h262v20q0 64 -40 104t-105 40q-150 0 -172 -129l-309 63q35 150 160 237q126 87 311 87zM522 215q88 0 152 53q63 52 63 138v22h-225q-61 0 -97 -30t-36 -76q0 -50 39 -78q40 -29 104 -29z" />
    <glyph glyph-name="l.ss02" horiz-adv-x="694" 
d="M432 1475v-1125q0 -41 27 -65q28 -25 71 -25q35 0 119 29l51 -256q-133 -64 -241 -64q-159 0 -257 99q-98 100 -98 258v1149h328z" />
    <glyph glyph-name="lacute.ss02" horiz-adv-x="694" 
d="M418 1608h-291l145 311h390zM432 1475v-1125q0 -41 27 -65q28 -25 71 -25q35 0 119 29l51 -256q-133 -64 -241 -64q-159 0 -257 99q-98 100 -98 258v1149h328z" />
    <glyph glyph-name="lcaron.ss02" horiz-adv-x="694" 
d="M432 1475v-1125q0 -41 27 -65q28 -25 71 -25q35 0 119 29l51 -256q-133 -64 -241 -64q-159 0 -257 99q-98 100 -98 258v1149h328zM758 1067h-236v408h307z" />
    <glyph glyph-name="lcommaaccent.ss02" horiz-adv-x="694" 
d="M432 1475v-1125q0 -41 27 -65q28 -25 71 -25q35 0 119 29l51 -256q-133 -64 -241 -64q-159 0 -257 99q-98 100 -98 258v1149h328zM137 -414l105 322h331l-202 -322h-234z" />
    <glyph glyph-name="ldot.ss02" horiz-adv-x="905" 
d="M444 1475v-1125q0 -40 28 -65t73 -25q36 0 117 29l53 -256q-6 -2 -20 -9l-22 -11l-22 -9q-20 -8 -23 -9l-25 -8q-20 -6 -29 -7l-15 -3t-14 -3q-11 -2 -35 -4q-12 -1 -37 -1q-159 0 -257 99q-97 98 -97 258v1149h325zM713 915q78 0 131 -53t53 -127q0 -78 -52 -129
q-53 -51 -132 -51q-80 0 -131 51q-52 52 -52 129q0 74 53 127t130 53z" />
    <glyph glyph-name="lslash.ss02" horiz-adv-x="745" 
d="M700 289l54 -256q-6 -2 -20 -9l-22 -11l-22 -9q-20 -8 -23 -9l-25 -8q-20 -6 -29 -7l-15 -3t-14 -3q-11 -2 -35 -4q-12 -1 -37 -1q-160 0 -257 99q-97 98 -97 258v155l-111 -59v307l111 59v687h325v-508l129 69v-307l-129 -70v-309q0 -40 28 -65t73 -25q37 0 116 29z" />
    <glyph glyph-name="k.ss03" horiz-adv-x="1273" 
d="M1280 0h-403l-275 350l-156 -176v-174h-327v1475h327v-859l371 412h383l-379 -430z" />
    <glyph glyph-name="kcommaaccent.ss03" horiz-adv-x="1273" 
d="M1280 0h-403l-275 350l-156 -176v-174h-327v1475h327v-859l371 412h383l-379 -430zM506 -92h332l-203 -322h-234z" />
    <glyph glyph-name="f_j" horiz-adv-x="1400" 
d="M1102 1149q-83 0 -135 52q-54 54 -54 130t54 132q53 55 135 55t136 -56q54 -55 54 -131q0 -77 -54 -130q-53 -52 -136 -52zM1268 1028v-1067q0 -149 -89 -240q-89 -90 -239 -90q-110 0 -215 43l49 258q52 -16 82 -16q38 0 63 23q23 22 23 59v770h-438v-768h-326v768h-147
v260h147v80q0 180 114 288q113 107 304 107q93 0 186 -35l-59 -258q-62 13 -82 13q-62 0 -99 -34q-38 -35 -38 -95v-66h764z" />
    <glyph glyph-name="f_t" horiz-adv-x="1630" 
d="M1550 303l76 -258q-140 -76 -280 -76q-195 0 -303 105q-107 104 -107 305v389h-432v-768h-326v768h-147v260h147v80q0 180 114 288q113 107 304 107q93 0 186 -35l-59 -258q-62 13 -82 13q-62 0 -99 -34q-38 -35 -38 -95v-66h432v303h328v-303h303v-260h-303v-356
q0 -150 135 -150q74 0 151 41z" />
    <glyph glyph-name="fl.ss02" horiz-adv-x="1466" 
d="M637 1223q-58 0 -96 -35q-37 -34 -37 -94v-66h282v-260h-282v-768h-326v768h-147v260h147v80q0 180 114 288q113 107 300 107q105 0 203 -43l-70 -254q-51 17 -88 17zM1421 289l54 -256q-6 -2 -20 -9q-3 -2 -7 -3.5t-6 -3t-4.5 -2.5t-4.5 -2l-22 -9q-20 -8 -23 -9l-25 -8
q-20 -6 -29 -7l-15 -3t-14 -3q-11 -2 -35 -4q-12 -1 -37 -1q-159 0 -257 99q-97 98 -97 258v1149h325v-1125q0 -40 28 -65t73 -25q37 0 116 29z" />
    <glyph glyph-name="zero.tf" 
d="M625 1403q255 0 413 -198q158 -199 158 -519t-158 -519q-158 -198 -413 -198q-257 0 -414 198q-158 199 -158 519t158 519q157 198 414 198zM625 266q105 0 169 112q62 109 62 308q0 198 -62 307q-63 111 -169 111t-169 -111t-63 -307q0 -197 63 -308q64 -112 169 -112z
" />
    <glyph glyph-name="one.tf" 
d="M1133 299v-299h-1000v299h369v676l-355 -164v307l469 254h213v-1073h304z" />
    <glyph glyph-name="two.tf" 
d="M1135 295v-295h-996v221l475 445q66 63 92 89q25 25 58 85t33 116q0 74 -47 119q-46 45 -123 45q-180 0 -195 -221l-313 59q7 205 147 325q139 120 361 120q221 0 357 -121t136 -324q0 -135 -65 -235q-68 -106 -221 -248l-197 -180h498z" />
    <glyph glyph-name="three.tf" 
d="M979 694q170 -86 170 -282q0 -195 -142 -319t-370 -124q-218 0 -363 118q-146 119 -168 316l320 60q33 -213 213 -213q86 0 142 46q57 46 57 120q0 68 -51 110q-50 41 -138 41h-157v250h143q85 0 135 41q49 40 49 109q0 70 -50 114q-49 43 -132 43q-86 0 -141 -55
q-57 -57 -64 -166l-309 60q24 202 164 321t348 119q220 0 356 -121q137 -122 137 -311t-149 -277z" />
    <glyph glyph-name="four.tf" 
d="M1192 252h-148v-252h-319v252h-659v303l561 817h417v-850h148v-270zM725 522v516l-338 -516h338z" />
    <glyph glyph-name="five.tf" 
d="M479 891h191q225 0 354 -120t129 -322q0 -214 -142 -347t-378 -133q-225 0 -374 124q-151 125 -157 347l320 64q2 -126 63 -187t154 -61q88 0 143 52q56 53 56 136q0 76 -55 123t-144 47h-471l27 758h899v-293h-607z" />
    <glyph glyph-name="six.tf" 
d="M715 891q217 0 347 -126t130 -329q0 -206 -145 -336q-146 -131 -373 -131q-266 0 -424 183q-158 184 -158 510q0 386 191 579q157 162 395 162q184 0 313 -87q128 -87 172 -249l-317 -61q-34 116 -180 116q-96 0 -168 -78q-87 -98 -92 -278q122 125 309 125zM666 246
q81 0 144 57q62 56 62 143t-62 143t-144 56t-142 -57q-59 -56 -59 -146q0 -83 60 -140q59 -56 141 -56z" />
    <glyph glyph-name="seven.tf" 
d="M1151 1372v-244l-533 -1128h-364l522 1077h-698v295h1073z" />
    <glyph glyph-name="eight.tf" 
d="M918 702q120 -46 185 -131q64 -83 64 -196q0 -181 -148 -293q-149 -113 -390 -113t-390 113t-149 293q0 232 248 327q-203 95 -203 316q0 169 138 277t356 108q217 0 355 -108t138 -277q0 -222 -204 -316zM627 1149q-74 0 -125 -42t-51 -118q0 -74 51 -116t125 -42
q77 0 129 43q53 44 53 117q0 74 -53 116q-52 42 -129 42zM627 236q78 0 135 45t57 122t-57 120q-58 44 -135 44t-132 -44t-55 -124q0 -74 54 -119q53 -44 133 -44z" />
    <glyph glyph-name="nine.tf" 
d="M573 1401q267 0 424 -182q158 -184 158 -510q0 -390 -190 -580q-156 -162 -396 -162q-184 0 -313 87q-128 87 -172 249l317 62q39 -117 181 -117q96 0 168 78q92 101 92 278q-119 -125 -310 -125q-216 0 -347 126q-130 126 -130 329q0 205 146 336t372 131zM582 725
q81 0 141 57q59 56 59 146q0 84 -59 140t-141 56t-144 -57q-61 -57 -61 -143t61 -143q60 -56 144 -56z" />
    <glyph glyph-name="zero.zero.tf" 
d="M625 1403q255 0 413 -198q158 -199 158 -519t-158 -519q-158 -198 -413 -198q-257 0 -414 198q-158 199 -158 519t158 519q157 198 414 198zM625 1104q-106 0 -169 -111t-63 -307q0 -68 10 -137l363 485q-58 70 -141 70zM625 266q105 0 169 112q62 109 62 308
q0 76 -8 135l-363 -487q57 -68 140 -68z" />
    <glyph glyph-name="zero.zero" horiz-adv-x="1337" 
d="M680 1403q272 0 439 -198q167 -199 167 -519t-167 -519q-167 -198 -439 -198t-438 198q-166 197 -166 519t166 519q166 198 438 198zM680 1106q-121 0 -193 -114q-71 -112 -71 -306q0 -80 12 -147l389 520q-61 47 -137 47zM680 266q121 0 193 114q73 116 73 306
q0 107 -22 191l-404 -539q66 -72 160 -72z" />
    <glyph glyph-name="zero.dnom" horiz-adv-x="837" 
d="M420 799q161 0 259 -112q97 -110 97 -298t-97 -298q-97 -111 -259 -111q-159 0 -258 112t-99 297t99 297q99 113 258 113zM420 174q121 0 121 215q0 102 -32 158q-31 55 -89 55q-55 0 -88 -55t-33 -158q0 -104 32 -160q31 -55 89 -55z" />
    <glyph glyph-name="one.dnom" horiz-adv-x="526" 
d="M418 0h-223v500l-160 -94v227l235 151h148v-784z" />
    <glyph glyph-name="two.dnom" horiz-adv-x="731" 
d="M395 190h262v-190h-602v141l289 254q40 34 58 52q17 17 31 42q13 23 13 50q0 36 -23 56q-24 21 -63 21q-99 0 -100 -127l-199 43q0 123 82 198q83 75 217 75q136 0 219 -71t83 -195q0 -78 -42 -138q-40 -57 -128 -131z" />
    <glyph glyph-name="three.dnom" horiz-adv-x="718" 
d="M557 399q107 -53 107 -163q0 -112 -87 -184t-223 -72q-132 0 -217 69q-86 70 -94 187l195 43q12 -117 118 -117q44 0 70 22q27 22 27 58q0 34 -28 54q-26 19 -71 19h-86v156h74q46 0 75 19t29 53t-25 55q-24 20 -69 20q-100 0 -104 -110l-201 43q12 108 95 177
q82 69 208 69q132 0 217 -70q84 -69 84 -176q0 -101 -94 -152z" />
    <glyph glyph-name="four.dnom" horiz-adv-x="790" 
d="M743 131h-98v-131h-207v131h-401v201l348 452h260v-471h98v-182zM438 313v248l-188 -248h188z" />
    <glyph glyph-name="five.dnom" horiz-adv-x="720" 
d="M281 512h125q121 0 197 -70q75 -69 75 -184q0 -125 -86 -202q-85 -76 -225 -76q-134 0 -222 70t-100 175l209 37q7 -44 39 -71q29 -25 72 -25t71 22q29 23 29 64q0 40 -31 62t-80 22h-280l20 446h541v-192h-350z" />
    <glyph glyph-name="six.dnom" horiz-adv-x="735" 
d="M422 510q118 0 196 -73q76 -72 76 -189q0 -119 -87 -194q-86 -74 -218 -74q-162 0 -255 102t-93 287q0 221 115 336q92 92 233 92q120 0 199 -59q77 -58 98 -167l-213 -32q-12 77 -90 77q-46 0 -80 -38q-35 -41 -41 -111q68 43 160 43zM381 152q47 0 76 29q30 30 30 75
t-30 75q-29 29 -76 29t-76 -29q-31 -31 -31 -75q0 -45 30 -75q29 -29 77 -29z" />
    <glyph glyph-name="seven.dnom" horiz-adv-x="628" 
d="M610 784v-170l-270 -614h-238l273 592h-361v192h596z" />
    <glyph glyph-name="eight.dnom" horiz-adv-x="770" 
d="M575 408q138 -53 138 -195q0 -101 -90 -167t-238 -66q-145 0 -235 66q-91 67 -91 167q0 142 138 195q-107 53 -107 165q0 92 85 158t212 66q125 0 211 -66t86 -158q0 -115 -109 -165zM385 635q-41 0 -69 -23q-27 -22 -27 -61q0 -32 27 -56t69 -24q41 0 70 23q28 22 28 57
q0 39 -27 61q-28 23 -71 23zM387 152q45 0 72 23q28 24 28 63q0 38 -29 61q-31 25 -73 25q-45 0 -74 -24q-28 -24 -28 -62q0 -40 29 -63t75 -23z" />
    <glyph glyph-name="nine.dnom" horiz-adv-x="735" 
d="M346 797q161 0 255 -103q93 -102 93 -286q0 -221 -114 -338q-90 -90 -236 -90q-119 0 -198 58t-97 165l211 33q12 -76 92 -76q47 0 80 39q32 38 43 112q-70 -47 -162 -47q-119 0 -196 74q-76 73 -76 188q0 121 86 196q85 75 219 75zM354 416q47 0 76 29q31 31 31 75
q0 45 -31 74t-76 29q-47 0 -78 -29q-30 -28 -30 -74q0 -45 30 -75q29 -29 78 -29z" />
    <glyph glyph-name="zero.numr" horiz-adv-x="837" 
d="M420 1393q161 0 259 -112q97 -110 97 -298t-97 -298q-98 -112 -259 -112q-159 0 -258 113q-99 112 -99 297t99 297q99 113 258 113zM420 768q121 0 121 215q0 102 -32 158q-31 55 -89 55q-55 0 -88 -55t-33 -158q0 -104 32 -160q31 -55 89 -55z" />
    <glyph glyph-name="one.numr" horiz-adv-x="526" 
d="M418 588h-223v499l-160 -94v228l235 151h148v-784z" />
    <glyph glyph-name="two.numr" horiz-adv-x="731" 
d="M395 778h262v-190h-602v141l289 254q40 34 58 52q17 17 31 42q13 23 13 49q0 37 -23 57q-24 21 -63 21q-99 0 -100 -127l-199 43q0 123 82 198q83 75 217 75q136 0 219 -71t83 -196q0 -77 -42 -137q-40 -57 -128 -131z" />
    <glyph glyph-name="three.numr" horiz-adv-x="718" 
d="M557 995q107 -53 107 -164t-87 -183q-88 -73 -223 -73q-130 0 -217 70t-94 186l195 44q12 -117 118 -117q44 0 70 22q27 22 27 58q0 34 -28 54q-26 19 -71 19h-86v156h74q46 0 75 19t29 53t-25 55q-24 20 -69 20q-100 0 -104 -110l-201 43q12 108 95 177q82 69 208 69
q132 0 217 -70q84 -69 84 -176q0 -101 -94 -152z" />
    <glyph glyph-name="four.numr" horiz-adv-x="790" 
d="M743 719h-98v-131h-207v131h-401v201l348 452h260v-471h98v-182zM438 901v248l-188 -248h188z" />
    <glyph glyph-name="five.numr" horiz-adv-x="720" 
d="M281 1102h125q121 0 197 -70q75 -69 75 -184q0 -125 -86 -202t-225 -77q-133 0 -222 71q-88 70 -100 175l209 37q7 -44 39 -71q29 -25 72 -25t71 22q29 23 29 64q0 40 -31 62t-80 22h-280l20 446h541v-192h-350z" />
    <glyph glyph-name="six.numr" horiz-adv-x="735" 
d="M422 1106q118 0 196 -73q76 -72 76 -189q0 -119 -87 -194t-218 -75q-161 0 -255 103q-93 102 -93 287q0 220 115 335q93 93 233 93q120 0 199 -59q77 -58 98 -167l-213 -32q-12 77 -90 77q-46 0 -80 -38q-35 -41 -41 -111q68 43 160 43zM381 748q47 0 76 29q30 30 30 75
t-30 75q-29 29 -76 29t-76 -29q-31 -31 -31 -75q0 -45 30 -75q29 -29 77 -29z" />
    <glyph glyph-name="seven.numr" horiz-adv-x="628" 
d="M610 1372v-170l-270 -614h-238l273 592h-361v192h596z" />
    <glyph glyph-name="eight.numr" horiz-adv-x="770" 
d="M575 1004q138 -53 138 -195q0 -101 -90 -167q-91 -67 -238 -67q-144 0 -235 67t-91 167q0 142 138 195q-107 53 -107 165q0 92 85 158q86 66 212 66q125 0 211 -66t86 -158q0 -115 -109 -165zM385 1231q-41 0 -69 -23q-27 -22 -27 -61q0 -32 27 -56t69 -24q41 0 70 23
q28 22 28 57q0 39 -27 61q-28 23 -71 23zM387 748q45 0 72 23q28 24 28 63q0 38 -29 61q-31 25 -73 25q-45 0 -74 -24q-28 -24 -28 -62q0 -40 29 -63t75 -23z" />
    <glyph glyph-name="nine.numr" horiz-adv-x="735" 
d="M346 1393q161 0 255 -103q93 -102 93 -286q0 -221 -114 -338q-91 -91 -236 -91q-118 0 -198 59q-79 58 -97 165l211 32q12 -75 92 -75q47 0 80 39q32 38 43 112q-73 -47 -162 -47q-119 0 -196 74q-76 73 -76 188q0 121 86 196q85 75 219 75zM354 1012q47 0 76 29
q31 31 31 75q0 45 -31 74t-76 29q-47 0 -78 -29q-30 -28 -30 -74q0 -45 30 -75q29 -29 78 -29z" />
    <glyph glyph-name="backslash.case" horiz-adv-x="890" 
d="M842 0h-307l-486 1372h307z" />
    <glyph glyph-name="periodcentered.case" horiz-adv-x="503" 
d="M252 852q80 0 134 -54t54 -130q0 -78 -53 -131q-54 -54 -135 -54q-79 0 -133 54q-53 53 -53 131q0 75 53 130q53 54 133 54z" />
    <glyph glyph-name="bullet.case" horiz-adv-x="849" 
d="M424 1020q153 0 257 -106q103 -104 103 -248q0 -150 -102 -250q-103 -101 -258 -101q-154 0 -257 101q-101 100 -101 250q0 144 102 249t256 105z" />
    <glyph glyph-name="colon.case" horiz-adv-x="503" 
d="M252 1153q80 0 134 -55q54 -56 54 -131q0 -77 -53 -130t-135 -53q-80 0 -133 53t-53 130q0 75 53 131q52 55 133 55zM252 522q80 0 134 -54t54 -130q0 -78 -53 -131t-135 -53q-81 0 -133 52q-53 53 -53 132q0 75 53 130q53 54 133 54z" />
    <glyph glyph-name="exclamdown.case" horiz-adv-x="608" 
d="M309 1020q-82 0 -135 53t-53 129q0 78 53 129q52 51 135 51q81 0 134 -51t53 -129q0 -75 -54 -129q-53 -53 -133 -53zM123 63l20 840h324l20 -840v-63h-364v63z" />
    <glyph glyph-name="questiondown.case" horiz-adv-x="1112" 
d="M569 1028q-80 0 -134 54t-54 128q0 78 53 129q54 52 135 52q80 0 134 -52q53 -51 53 -129q0 -72 -54 -128q-52 -54 -133 -54zM737 459l320 -66q-23 -176 -164 -295q-140 -118 -367 -118q-216 0 -348 123q-133 124 -133 317q0 152 97 253q96 101 268 134v102h311v-329
h-164q-83 0 -136 -41q-52 -40 -52 -109q0 -73 47 -120q46 -46 123 -46q80 0 132 52q51 51 66 143z" />
    <glyph glyph-name="semicolon.case" horiz-adv-x="573" 
d="M322 1153q81 0 133 -55q53 -56 53 -131q0 -77 -53 -130t-133 -53q-83 0 -136 53t-53 130q0 75 53 131q52 55 136 55zM254 -270h-248l121 589h362v-8z" />
    <glyph glyph-name="slash.case" horiz-adv-x="985" 
d="M373 0h-277l516 1372h277z" />
    <glyph glyph-name="braceleft.case" horiz-adv-x="862" 
d="M539 1047v-146q0 -162 -127 -219q127 -57 127 -219v-139q0 -60 53 -60h194v-264h-272q-127 0 -204 74t-77 194v152q0 49 -30 76t-92 45l-70 20v244l70 20q60 18 92 43q30 24 30 74v162q0 120 78 194q79 74 203 74h272v-264h-194q-53 0 -53 -61z" />
    <glyph glyph-name="braceright.case" horiz-adv-x="862" 
d="M821 805v-244l-69 -20q-64 -22 -94 -46q-31 -25 -31 -75v-152q0 -121 -76 -194q-77 -74 -203 -74h-272v264h192q56 0 56 60v139q0 162 125 219q-125 57 -125 219v146q0 25 -16 44q-14 17 -40 17h-192v264h272q125 0 202 -74t77 -194v-162q0 -50 31 -74q33 -25 94 -43z
" />
    <glyph glyph-name="bracketleft.case" horiz-adv-x="839" 
d="M424 1104v-836h340v-268h-645v1372h645v-268h-340z" />
    <glyph glyph-name="bracketright.case" horiz-adv-x="839" 
d="M721 1372v-1372h-645v268h340v836h-340v268h645z" />
    <glyph glyph-name="parenleft.case" horiz-adv-x="716" 
d="M418 686q0 -154 55 -271q56 -120 172 -255l-211 -195q-362 323 -362 721t362 721l205 -197q-113 -137 -167 -254t-54 -270z" />
    <glyph glyph-name="parenright.case" horiz-adv-x="716" 
d="M78 1210l203 197q364 -321 364 -721t-364 -721l-209 195q116 135 172 255q55 117 55 271q0 153 -54 270t-167 254z" />
    <glyph glyph-name="emdash.case" horiz-adv-x="2129" 
d="M2007 547h-1884v252h1884v-252z" />
    <glyph glyph-name="endash.case" horiz-adv-x="1269" 
d="M1147 547h-1024v252h1024v-252z" />
    <glyph glyph-name="hyphen.case" horiz-adv-x="923" 
d="M801 535h-678v276h678v-276z" />
    <glyph glyph-name="guillemotleft.case" horiz-adv-x="1034" 
d="M51 659l215 365h307l-215 -365l215 -364h-307zM461 659l215 365h307l-215 -365l215 -364h-307z" />
    <glyph glyph-name="guillemotright.case" horiz-adv-x="1034" 
d="M51 295l215 364l-215 365h307l215 -365l-215 -364h-307zM461 295l215 364l-215 365h307l215 -365l-215 -364h-307z" />
    <glyph glyph-name="guilsinglleft.case" horiz-adv-x="624" 
d="M51 659l215 365h307l-215 -365l215 -364h-307z" />
    <glyph glyph-name="guilsinglright.case" horiz-adv-x="624" 
d="M51 295l215 364l-215 365h307l215 -365l-215 -364h-307z" />
    <glyph glyph-name="cent.tf" 
d="M618 256q174 0 226 180l299 -65q-30 -147 -136 -250t-255 -137v-250h-273v252q-186 44 -304 185q-118 142 -118 343t118 343q118 141 304 185v248h273v-246q146 -34 252 -134q104 -98 139 -246l-307 -74q-21 89 -78 136q-56 46 -140 46q-110 0 -178 -73q-67 -71 -67 -185
q0 -115 67 -186q67 -72 178 -72z" />
    <glyph glyph-name="dollar.tf" 
d="M1157 432q0 -171 -110 -275q-111 -105 -285 -132v-230h-273v236q-171 38 -285 143q-116 107 -132 262l319 62q15 -116 85 -166q70 -51 167 -51q86 0 136 36q52 37 52 95q0 85 -116 112l-262 58q-351 77 -351 364q0 163 106 269q107 107 281 135v227h273v-234
q166 -38 266 -141q102 -105 117 -258l-311 -53q-6 113 -72 162q-65 49 -152 49q-77 0 -124 -37q-48 -37 -48 -92q0 -84 103 -107l262 -59q354 -79 354 -375z" />
    <glyph glyph-name="Euro.tf" 
d="M664 266q145 0 208 262l332 -61q-44 -225 -187 -361q-145 -137 -353 -137q-205 0 -347 125q-140 124 -190 355h-98v196h75v41v41h-75v195h98q50 232 190 356q142 125 347 125q211 0 356 -139t184 -369l-330 -57q-50 270 -210 270q-148 0 -197 -186h307l-41 -195h-293v-41
v-41h283l-41 -196h-215q51 -183 197 -183z" />
    <glyph glyph-name="florin.tf" 
d="M989 1120q-134 0 -162 -143l-30 -174h280v-260h-329l-93 -512q-30 -171 -143 -270q-112 -99 -279 -99q-103 0 -225 66l96 247q66 -22 115 -22q44 0 75 25q33 26 40 65l90 500h-197v260h244l33 186q34 189 165 300q132 112 316 112q142 0 256 -70l-102 -254
q-68 43 -150 43z" />
    <glyph glyph-name="sterling.tf" 
d="M1176 293v-293h-1104v211l147 45v221h-147v281h147v186q0 207 131 333q130 126 348 126q208 0 333 -121t140 -328l-305 -53q-16 110 -57 154q-40 43 -111 43q-68 0 -108 -42q-41 -43 -41 -112v-186h321v-281h-321v-184h627z" />
    <glyph glyph-name="yen.tf" 
d="M877 678h208v-211h-301v-88h301v-213h-301v-166h-335v166h-285v213h285v88h-285v211h194l-340 694h359l239 -569l238 569h375z" />
    <glyph glyph-name="approxequal.tf" 
d="M1108 942v-248q-89 -43 -217 -43q-111 0 -254 49q-145 50 -248 50q-165 0 -248 -60v244q84 63 248 63q108 0 255 -49t251 -49q134 0 213 43zM1108 618v-245q-94 -45 -217 -45q-109 0 -254 50t-248 50q-164 0 -248 -59v241q89 66 248 66q108 0 255 -49t251 -49
q132 0 213 40z" />
    <glyph glyph-name="divide.tf" 
d="M618 1149q72 0 121 -49t49 -117q0 -73 -48 -119q-49 -47 -122 -47t-120 47t-47 119q0 67 48 117q48 49 119 49zM1110 487h-971v269h971v-269zM618 410q71 0 121 -50q49 -49 49 -116q0 -72 -48 -119q-49 -47 -122 -47t-120 47t-47 119q0 66 48 116t119 50z" />
    <glyph glyph-name="equal.tf" 
d="M1110 719h-971v260h971v-260zM1110 313h-971v260h971v-260z" />
    <glyph glyph-name="greater.tf" 
d="M713 672l-469 133v315l815 -293v-317l-815 -289v311z" />
    <glyph glyph-name="greaterequal.tf" 
d="M713 829l-477 95v293l792 -234v-307l-792 -234v287zM1030 143h-794v267h794v-267z" />
    <glyph glyph-name="less.tf" 
d="M1006 221l-816 289v317l816 293v-315l-469 -133l469 -140v-311z" />
    <glyph glyph-name="lessequal.tf" 
d="M1016 442l-793 234v307l793 234v-293l-477 -95l477 -100v-287zM1016 410v-267h-793v267h793z" />
    <glyph glyph-name="minus.tf" 
d="M1110 487h-971v269h971v-269z" />
    <glyph glyph-name="multiply.tf" 
d="M813 623l270 -271l-188 -190l-272 270l-271 -270l-190 190l270 271l-270 268l190 190l271 -270l272 270l188 -190z" />
    <glyph glyph-name="notequal.tf" 
d="M795 719l-80 -146h395v-260h-537l-86 -157h-254l86 157h-180v260h322l80 146h-402v260h543l82 151h254l-82 -151h174v-260h-315z" />
    <glyph glyph-name="plus.tf" 
d="M1110 487h-352v-356h-266v356h-353v269h353v356h266v-356h352v-269z" />
    <glyph glyph-name="plusminus.tf" 
d="M1110 952v-266h-352v-289h-266v289h-353v266h353v328h266v-328h352zM139 266h971v-266h-971v266z" />
    <glyph glyph-name="bar.case" horiz-adv-x="542" 
d="M424 -84h-305v1540h305v-1540z" />
    <glyph glyph-name="at.case" horiz-adv-x="1916" 
d="M1374 1042v-569q0 -46 30 -70t73 -24q79 0 122 99q43 98 43 229q0 272 -192 443t-475 171q-301 0 -501 -194t-200 -488q0 -291 198 -481q199 -191 491 -191q270 0 491 170l92 -145q-238 -193 -579 -193q-373 0 -622 237t-249 599q0 367 252 608q253 242 627 242
q353 0 600 -218q246 -217 246 -552q0 -91 -21 -173q-23 -89 -63 -160q-44 -77 -124 -123t-190 -46q-181 0 -247 125q-99 -121 -279 -121q-173 0 -290 115q-115 114 -115 305q0 193 116 308q118 116 289 116q152 0 250 -94v75h227zM950 430q80 0 139 57q58 57 58 152
q0 92 -58 149q-60 58 -139 58q-81 0 -137 -56q-57 -57 -57 -151q0 -95 57 -152t137 -57z" />
    <glyph glyph-name="caron.alt" horiz-adv-x="1228" 
d="M725 924h-236v407h308z" />
    </font>
</defs>
</svg>
