<?xml version="1.0" encoding="utf-8"?>
<!-- Generator: Adobe Illustrator 22.0.0, SVG Export Plug-In . SVG Version: 6.00 Build 0)  -->
<svg version="1.1" xmlns="http://www.w3.org/2000/svg" xmlns:xlink="http://www.w3.org/1999/xlink" x="0px" y="0px"
	 viewBox="0 0 368.6 392.2" style="enable-background:new 0 0 368.6 392.2;" xml:space="preserve">
<style type="text/css">
	.st0{fill:#FAFAFA;}
	.st1{fill:#39385E;}
	.st2{fill:#E8505B;}
	.st3{fill:#FFFFFF;}
	.st4{fill:#F2F2F2;}
	.st5{opacity:0.2;}
	.st6{fill:#EBEBEB;}
	.st7{fill:#E0E0E0;}
	.st8{fill:#707070;}
	.st9{fill:#FFBE9D;}
	.st10{fill:#EB996E;}
	.st11{opacity:0.3;}
	.st12{fill:none;stroke:#545475;stroke-miterlimit:10;}
	.st13{fill:none;stroke:#CE3E50;stroke-miterlimit:10;}
	.st14{fill:none;stroke:#4C4C4C;stroke-miterlimit:10;}
</style>
<g id="Background_Complete">
</g>
<g id="Screens">
	<g>
		<g>
			<g>
				<g>
					<path class="st0" d="M70.3,55.8c-1.7,0-3.9,0-6.5,0c-0.6,0-1.3-0.1-1.9,0.2c-0.6,0.2-1.2,0.7-1.5,1.4c-0.2,0.3-0.3,0.7-0.4,1
						c-0.1,0.4,0,0.7,0,1.1c0,0.4,0,0.8,0,1.2c0,0.4,0,0.8-0.1,1.2c-0.2,0.8-0.7,1.6-1.4,2.1c-0.4,0.2-0.8,0.4-1.3,0.4
						c-0.5,0-0.9,0-1.4,0c-1.8,0-3.8,0-5.8,0c-4,0-8.4,0-13.1,0c-1.2,0-2.4,0-3.6,0c-0.3,0-0.6,0-0.9,0c-0.3,0-0.6,0-0.9-0.1
						c-0.6-0.2-1.2-0.5-1.6-1c-0.4-0.5-0.7-1.1-0.8-1.7c0-0.3,0-0.6,0-1c0-0.3,0-0.6,0-1c0-0.6,0-1.3-0.2-1.9
						c-0.2-0.6-0.6-1.1-1.2-1.5c-0.5-0.4-1.2-0.5-1.9-0.5c-0.7,0-1.4,0-2,0c-1.4,0-2.8,0-4.2,0c-2.8,0-5.7,0-8.7,0
						c-1.5,0-3,0.2-4.3,0.8C5.2,57.3,4,58.2,3,59.4c-1,1.2-1.7,2.6-2,4.1c-0.1,0.4-0.1,0.8-0.2,1.2c0,0.3,0,0.7,0,1v64.5
						c0,0.9,0,1.7,0,2.6c0,2.6,0,5.3,0,7.9v83.8c0,1.1,0.1,2.1,0.4,3.1c0.6,2.1,2,4,3.8,5.3c1.8,1.3,4.1,1.8,6.3,1.7
						c2.2,0,4.5,0,6.7,0c4.5,0,8.9,0,13.3,0c8.8,0,17.5,0,26,0c4.3,0,8.5,0,12.7,0c2.1,0,4.2,0,6.2,0c2-0.1,4-0.9,5.6-2.2
						c0.8-0.6,1.5-1.4,2-2.2c0.6-0.8,1-1.8,1.2-2.7c0.3-1,0.4-2,0.4-3c0-1,0-2,0-3c0-4,0-8,0-11.9c0-31.2,0-59.4,0-83
						c0-23.6,0-42.8,0.1-56c0-1.7,0-3.2,0-4.7c0-1.5-0.2-2.8-0.7-4c-0.5-1.2-1.1-2.2-1.9-2.9c-0.7-0.8-1.5-1.4-2.2-1.8
						c-1.5-0.9-2.8-1.2-3.7-1.3c-0.4-0.1-0.8-0.1-1-0.1c-0.2,0-0.3,0-0.3,0s-0.5,0-1.4,0C73.4,55.8,72.1,55.8,70.3,55.8z"/>
				</g>
			</g>
		</g>
		<g>
			<g>
				<g>
					<g>
						<g>
							<g>
								<g>
									<g>
										<g>
											<g>
												<path class="st1" d="M77.7,72c0,0-1.6,0.1-3.7,0.1c-2,0-3.7,0-3.7,0c0,0,1.6-0.1,3.7-0.1C76.1,71.9,77.7,71.9,77.7,72z"
													/>
											</g>
										</g>
									</g>
								</g>
							</g>
						</g>
						<g>
							<g>
								<g>
									<g>
										<g>
											<g>
												<path class="st1" d="M77.7,73.9c0,0-1.6,0.1-3.7,0.1c-2,0-3.7,0-3.7,0c0,0,1.6-0.1,3.7-0.1
													C76.1,73.8,77.7,73.8,77.7,73.9z"/>
											</g>
										</g>
									</g>
								</g>
							</g>
						</g>
						<g>
							<g>
								<g>
									<g>
										<g>
											<g>
												<path class="st1" d="M77.7,75.7c0,0-1.6,0.1-3.7,0.1c-2,0-3.7,0-3.7,0c0,0,1.6-0.1,3.7-0.1
													C76.1,75.7,77.7,75.7,77.7,75.7z"/>
											</g>
										</g>
									</g>
								</g>
							</g>
						</g>
					</g>
					<g>
						<g>
							<g>
								<g>
									<g>
										<g>
											<path class="st1" d="M11.1,77.9c0,0,0.1,0,0.2,0c0.1,0,0.3,0,0.4,0c0.4,0,0.9,0,1.6,0l0,0c0-0.3,0-0.7,0-1.1
												c0-0.2,0-0.4,0-0.7c0-0.2,0.3-0.5,0.5-0.5c0.3,0,0.5,0,0.7,0c0.3,0,0.5,0.3,0.5,0.6c0,0.5,0,1.1,0,1.7l-0.1-0.1
												c0.6,0,1.3,0,2,0l-0.1,0.1c0-0.8,0-1.6,0-2.5c0-0.2,0-0.4,0-0.6c0-0.2-0.1-0.3-0.3-0.5c-0.3-0.3-0.6-0.6-0.9-0.9
												c-0.3-0.3-0.6-0.6-0.8-0.8c-0.1-0.1-0.3-0.3-0.4-0.4c-0.1-0.1-0.2-0.3-0.4-0.3c-0.2,0-0.3,0-0.5,0.1
												c-0.1,0.1-0.2,0.2-0.4,0.4c-0.2,0.2-0.5,0.5-0.7,0.7c-0.4,0.5-0.9,0.9-1.2,1.3c-0.1,0.2-0.1,0.5-0.1,0.7
												c0,0.2,0,0.5,0,0.7c0,0.4,0,0.8,0,1.1c0,0.3,0,0.5,0,0.7C11.1,77.8,11.1,77.9,11.1,77.9c0,0,0-0.1,0-0.2
												c0-0.2,0-0.4,0-0.7c0-0.3,0-0.7,0-1.1c0-0.2,0-0.5,0-0.7c0-0.1,0-0.3,0-0.4c0-0.1,0-0.3,0.1-0.4c0.4-0.4,0.8-0.8,1.2-1.3
												c0.2-0.2,0.5-0.5,0.7-0.7c0.1-0.1,0.2-0.2,0.4-0.4c0.2-0.1,0.4-0.2,0.6-0.1c0.2,0,0.3,0.2,0.5,0.3
												c0.1,0.1,0.3,0.3,0.4,0.4c0.3,0.3,0.6,0.5,0.8,0.8c0.3,0.3,0.6,0.6,0.9,0.8c0.1,0.1,0.2,0.1,0.2,0.2
												c0.1,0.1,0.1,0.2,0.1,0.3c0,0.2,0,0.4,0,0.6c0,0.8,0,1.7,0,2.5l0,0.1l-0.1,0c-0.7,0-1.3,0-2,0l-0.1,0l0-0.1
												c0-0.6,0-1.1,0-1.7c0-0.2-0.2-0.4-0.4-0.5c-0.2,0-0.5,0-0.7,0c-0.2,0-0.4,0.2-0.4,0.4c0,0.2,0,0.4,0,0.6
												c0,0.4,0,0.8,0,1.1v0l0,0c-0.7,0-1.2,0-1.6,0c-0.2,0-0.3,0-0.4,0C11.1,77.9,11.1,77.9,11.1,77.9z"/>
										</g>
									</g>
								</g>
							</g>
						</g>
					</g>
				</g>
			</g>
			<g>
				<g>
					<g>
						<g>
							
								<rect x="-3.1" y="120.6" transform="matrix(5.567364e-03 -1 1 5.567364e-03 -112.5514 193.7662)" class="st2" width="88.5" height="65.8"/>
						</g>
					</g>
				</g>
				<g>
					<g>
						<g>
							<g>
								<g>
									<path class="st2" d="M51.6,136c0,5.1-2.4,9.3-5.2,9.2c-2.9,0-5.2-4.2-5.1-9.3c0-5.1,2.4-9.3,5.2-9.2
										C49.3,126.7,51.6,130.9,51.6,136z"/>
								</g>
							</g>
						</g>
					</g>
				</g>
			</g>
			<g>
				<g>
					<g>
						<g>
							<path class="st2" d="M23.2,97.1c0,4.1-3.3,7.4-7.4,7.4c-4.1,0-7.4-3.3-7.4-7.4s3.3-7.4,7.4-7.4
								C19.9,89.8,23.2,93.1,23.2,97.1z"/>
						</g>
					</g>
					<g>
						<g>
							<g>
								<path class="st3" d="M18.4,100.1h-5.1v-0.6c0-1.4,1.1-2.5,2.5-2.5l0,0c1.4,0,2.5,1.1,2.5,2.5V100.1z"/>
							</g>
						</g>
						<g>
							<g>
								<path class="st3" d="M17.3,95.7c0,0.8-0.7,1.5-1.5,1.5c-0.8,0-1.5-0.7-1.5-1.5c0-0.8,0.7-1.5,1.5-1.5
									C16.7,94.2,17.3,94.8,17.3,95.7z"/>
							</g>
						</g>
					</g>
				</g>
			</g>
		</g>
	</g>
	<g>
		<g>
			<g>
				<g>
					<path class="st4" d="M83,41.3c-0.8,0-1.5,0-2.3,0c-1.5,0-3.1,0-4.6,0c-3.1,0-6.4,0-9.6,0c-1.6,0-3.3,0.2-4.8,0.9
						c-1.5,0.7-2.9,1.7-4,3c-1.1,1.3-1.9,2.9-2.3,4.6c-0.1,0.4-0.1,0.9-0.2,1.3c0,0.4,0,0.7,0,1.1v71.9c0,1,0,1.9,0,2.9
						c0,2.9,0,5.9,0,8.8v93.5c0,1.2,0.1,2.4,0.4,3.5c0.7,2.4,2.2,4.5,4.3,5.9c2,1.4,4.5,2.1,7,1.9c2.5,0,5,0,7.5,0c5,0,9.9,0,14.8,0
						c9.8,0,19.4,0,28.9,0c4.7,0,9.4,0,14.1,0c2.3,0,4.7,0,6.9,0c2.3-0.1,4.5-1,6.2-2.4c0.9-0.7,1.6-1.6,2.2-2.5
						c0.6-0.9,1.1-2,1.4-3c0.3-1.1,0.4-2.2,0.4-3.3c0-1.1,0-2.2,0-3.4c0-4.5,0-8.9,0-13.2c0-34.8,0-66.2,0.1-92.6
						c0-26.4,0-47.7,0.1-62.4c0-1.8,0-3.6,0-5.2c0-1.6-0.3-3.1-0.8-4.5c-0.5-1.3-1.3-2.4-2.1-3.3c-0.8-0.9-1.7-1.6-2.5-2
						c-1.7-1-3.1-1.3-4.1-1.5c-0.5-0.1-0.9-0.1-1.1-0.1c-0.3,0-0.4,0-0.4,0s-0.5,0-1.5,0c-1,0-2.5,0-4.4,0"/>
				</g>
			</g>
		</g>
		<g>
			<g>
				<g>
					<g>
						<g>
							<g>
								<g>
									<g>
										<g>
											<g>
												<g>
													<g>
														<g>
															<path class="st1" d="M136.9,41.1c-1,0-2.5,0-4.4,0c-1.4,0-3.1,0-5,0c0,0,0,0.1,0,0.1c1.9,0,3.6,0,5,0
																C134.5,41.2,136,41.2,136.9,41.1c1,0,1.5,0,1.5,0S137.9,41.1,136.9,41.1z"/>
														</g>
													</g>
												</g>
											</g>
										</g>
									</g>
								</g>
							</g>
						</g>
					</g>
					<g>
						<g>
							<g>
								<g>
									<g>
										<g>
											<g>
												<path class="st1" d="M140.6,59.1c0,0-1.8,0.1-4.1,0.1c-2.3,0-4.1,0-4.1-0.1c0,0,1.8-0.1,4.1-0.1
													C138.8,59,140.6,59,140.6,59.1z"/>
											</g>
										</g>
									</g>
								</g>
							</g>
						</g>
						<g>
							<g>
								<g>
									<g>
										<g>
											<g>
												<path class="st1" d="M140.6,61.2c0,0-1.8,0.1-4.1,0.1c-2.3,0-4.1,0-4.1-0.1c0,0,1.8-0.1,4.1-0.1
													C138.8,61.1,140.6,61.1,140.6,61.2z"/>
											</g>
										</g>
									</g>
								</g>
							</g>
						</g>
						<g>
							<g>
								<g>
									<g>
										<g>
											<g>
												<path class="st1" d="M140.6,63.3c0,0-1.8,0.1-4.1,0.1c-2.3,0-4.1,0-4.1-0.1c0,0,1.8-0.1,4.1-0.1
													C138.8,63.2,140.6,63.2,140.6,63.3z"/>
											</g>
										</g>
									</g>
								</g>
							</g>
						</g>
					</g>
				</g>
				<g>
					<g>
						<g>
							<g>
								<path class="st2" d="M110.8,77.1c0,4.1-3.3,7.4-7.4,7.4c-4.1,0-7.4-3.3-7.4-7.4c0-4.1,3.3-7.4,7.4-7.4
									C107.5,69.7,110.8,73,110.8,77.1z"/>
							</g>
						</g>
						<g>
							<g>
								<g>
									<path class="st3" d="M105.9,80.1h-5.1v-0.6c0-1.4,1.1-2.5,2.5-2.5l0,0c1.4,0,2.5,1.1,2.5,2.5V80.1z"/>
								</g>
							</g>
							<g>
								<g>
									<path class="st3" d="M104.9,75.6c0,0.8-0.7,1.5-1.5,1.5c-0.8,0-1.5-0.7-1.5-1.5c0-0.8,0.7-1.5,1.5-1.5
										C104.2,74.1,104.9,74.8,104.9,75.6z"/>
								</g>
							</g>
						</g>
					</g>
				</g>
				<g>
					<g>
						<g>
							<path class="st1" d="M121.8,96.6c0,0.3-8.8,0.6-19.5,0.6c-10.8,0-19.5-0.3-19.5-0.6c0-0.3,8.7-0.6,19.5-0.6
								C113,96,121.8,96.3,121.8,96.6z"/>
						</g>
					</g>
				</g>
			</g>
			<g>
				<g>
					<g>
						<g>
							
								<rect x="66.5" y="165.9" transform="matrix(5.574088e-03 -1 1 5.574088e-03 -104.041 260.8797)" class="st2" width="25.4" height="33.7"/>
						</g>
					</g>
				</g>
				<g>
					<g>
						<g>
							<polygon class="st2" points="62.2,195.3 74.1,179.6 81.3,189.5 86.3,184.3 96,195.5 							"/>
						</g>
					</g>
				</g>
				<g>
					<g>
						<g>
							<g>
								<g>
									<path class="st2" d="M84.5,177.8c0,1.5-1.2,2.7-2.7,2.6c-1.5,0-2.7-1.2-2.6-2.7c0-1.5,1.2-2.7,2.7-2.6
										C83.3,175.1,84.5,176.3,84.5,177.8z"/>
								</g>
							</g>
						</g>
					</g>
				</g>
				<g class="st5">
					<g>
						<g>
							<polygon points="62.2,195.3 74.1,179.6 81.3,189.5 86.3,184.3 96,195.5 							"/>
						</g>
					</g>
				</g>
				<g class="st5">
					<g>
						<g>
							<g>
								<g>
									<path d="M84.5,177.8c0,1.5-1.2,2.7-2.7,2.6c-1.5,0-2.7-1.2-2.6-2.7c0-1.5,1.2-2.7,2.7-2.6
										C83.3,175.1,84.5,176.3,84.5,177.8z"/>
								</g>
							</g>
						</g>
					</g>
				</g>
			</g>
			<g>
				<g>
					<g>
						<g>
							
								<rect x="71.7" y="96.4" transform="matrix(5.572276e-03 -1 1 5.572276e-03 -34.8897 235.7056)" class="st2" width="58.6" height="78"/>
						</g>
					</g>
				</g>
				<g>
					<g>
						<g>
							<polygon class="st2" points="61.9,164.5 89.3,128.2 106.1,151.1 117.6,139 139.9,164.9 							"/>
						</g>
					</g>
				</g>
				<g>
					<g>
						<g>
							<g>
								<g>
									<path class="st2" d="M113.4,123.9c0,3.4-2.8,6.1-6.2,6.1c-3.4,0-6.1-2.8-6.1-6.2c0-3.4,2.8-6.1,6.2-6.1
										C110.7,117.7,113.4,120.5,113.4,123.9z"/>
								</g>
							</g>
						</g>
					</g>
				</g>
				<g class="st5">
					<g>
						<g>
							<polygon points="61.9,164.5 89.3,128.2 106.1,151.1 117.6,139 139.9,164.9 							"/>
						</g>
					</g>
				</g>
				<g class="st5">
					<g>
						<g>
							<g>
								<g>
									<path d="M113.4,123.9c0,3.4-2.8,6.1-6.2,6.1c-3.4,0-6.1-2.8-6.1-6.2c0-3.4,2.8-6.1,6.2-6.1
										C110.7,117.7,113.4,120.5,113.4,123.9z"/>
								</g>
							</g>
						</g>
					</g>
				</g>
			</g>
			<g>
				<g>
					<g>
						<g>
							
								<rect x="111" y="165.9" transform="matrix(5.574056e-03 -1 1 5.574056e-03 -59.7392 305.4292)" class="st2" width="25.4" height="33.7"/>
						</g>
					</g>
				</g>
				<g>
					<g>
						<g>
							<polygon class="st2" points="106.8,195.3 118.6,179.6 125.9,189.5 130.9,184.3 140.5,195.5 							"/>
						</g>
					</g>
				</g>
				<g>
					<g>
						<g>
							<g>
								<g>
									<path class="st2" d="M131.9,185.2c0,1.5-1.2,2.7-2.7,2.6c-1.5,0-4.7-4.6-4.7-6c0-1.5,3.2,0.7,4.7,0.7
										C130.7,182.5,131.9,183.7,131.9,185.2z"/>
								</g>
							</g>
						</g>
					</g>
				</g>
				<g class="st5">
					<g>
						<g>
							<polygon points="106.8,195.3 118.6,179.6 125.9,189.5 130.9,184.3 140.5,195.5 							"/>
						</g>
					</g>
				</g>
				<g class="st5">
					<g>
						<g>
							<g>
								<g>
									<path d="M131.9,185.2c0,1.5-1.2,2.7-2.7,2.6c-1.5,0-4.7-4.6-4.7-6c0-1.5,3.2,0.7,4.7,0.7
										C130.7,182.5,131.9,183.7,131.9,185.2z"/>
								</g>
							</g>
						</g>
					</g>
				</g>
			</g>
		</g>
	</g>
	<g>
		<g>
			<g>
				<g>
					<path class="st0" d="M295.6,51.2c-1.4,0-2.8,0-4.2,0c-2.8,0-5.7,0-8.6,0c-1.5,0-3,0.2-4.3,0.8c-1.4,0.6-2.6,1.5-3.6,2.7
						c-1,1.2-1.7,2.6-2,4.1c-0.1,0.4-0.1,0.8-0.2,1.2c0,0.3,0,0.7,0,1v64.5c0,0.9,0,1.7,0,2.6c0,2.6,0,5.3,0,7.9v83.8
						c0,1.1,0.1,2.1,0.4,3.1c0.6,2.1,2,4,3.8,5.3c1.8,1.3,4.1,1.8,6.3,1.7c2.2,0,4.5,0,6.7,0c4.5,0,8.9,0,13.3,0
						c8.8,0,17.4,0,25.9,0c4.3,0,8.5,0,12.6,0c2.1,0,4.2,0,6.2,0c2-0.1,4-0.9,5.6-2.2c0.8-0.6,1.5-1.4,2-2.2c0.6-0.8,1-1.8,1.2-2.7
						c0.3-1,0.4-2,0.4-3c0-1,0-2,0-3c0-4,0-8,0-11.9c0-31.2,0-59.4,0-83c0-23.6,0-42.8,0.1-56c0-1.7,0-3.2,0-4.7
						c0-1.5-0.2-2.8-0.7-4c-0.5-1.2-1.1-2.2-1.9-2.9c-0.7-0.8-1.5-1.4-2.2-1.8c-1.5-0.9-2.8-1.2-3.7-1.3c-0.4-0.1-0.8-0.1-1-0.1
						c-0.2,0-0.3,0-0.3,0s-0.5,0-1.3,0c-0.9,0-2.2,0-4,0c-1.7,0-3.9,0-6.4,0"/>
					<path class="st0" d="M304.2,59.9"/>
					<path class="st0" d="M308.7,59.9"/>
				</g>
			</g>
		</g>
		<g>
			<g>
				<g>
					<rect x="286.5" y="118.4" class="st6" width="55.8" height="11.4"/>
				</g>
			</g>
			<g>
				<g>
					<g>
						<g>
							<g>
								<g>
									<g>
										<g>
											<g>
												<g>
													<g>
														<path class="st1" d="M332.3,52.7"/>
													</g>
												</g>
											</g>
										</g>
									</g>
								</g>
							</g>
						</g>
					</g>
				</g>
				<g>
					<g>
						<g>
							<g>
								<g>
									<g>
										<g>
											<path class="st1" d="M349.4,67.1c0,0-1.6,0.1-3.7,0.1c-2,0-3.7,0-3.7,0c0,0,1.6-0.1,3.7-0.1
												C347.8,67.1,349.4,67.1,349.4,67.1z"/>
										</g>
									</g>
								</g>
							</g>
						</g>
					</g>
					<g>
						<g>
							<g>
								<g>
									<g>
										<g>
											<path class="st1" d="M349.4,69c0,0-1.6,0.1-3.7,0.1c-2,0-3.7,0-3.7,0c0,0,1.6-0.1,3.7-0.1
												C347.8,68.9,349.4,68.9,349.4,69z"/>
										</g>
									</g>
								</g>
							</g>
						</g>
					</g>
					<g>
						<g>
							<g>
								<g>
									<g>
										<g>
											<path class="st1" d="M349.5,70.9c0,0-1.6,0.1-3.7,0.1c-2,0-3.7,0-3.7,0c0,0,1.6-0.1,3.7-0.1
												C347.8,70.8,349.5,70.8,349.5,70.9z"/>
										</g>
									</g>
								</g>
							</g>
						</g>
					</g>
				</g>
				<g>
					<g>
						<g>
							<g>
								<g>
									<g>
										<path class="st1" d="M282.8,73c0,0,0.1,0,0.2,0c0.1,0,0.3,0,0.4,0c0.4,0,0.9,0,1.6,0l0,0c0-0.3,0-0.7,0-1.1
											c0-0.2,0-0.4,0-0.7c0-0.2,0.3-0.5,0.5-0.5c0.3,0,0.5,0,0.7,0c0.3,0,0.5,0.3,0.5,0.6c0,0.5,0,1.1,0,1.7l-0.1-0.1
											c0.6,0,1.3,0,2,0l-0.1,0.1c0-0.8,0-1.6,0-2.5c0-0.2,0-0.4,0-0.6c0-0.2-0.1-0.3-0.3-0.5c-0.3-0.3-0.6-0.6-0.9-0.9
											c-0.3-0.3-0.6-0.6-0.8-0.8c-0.1-0.1-0.3-0.3-0.4-0.4c-0.1-0.1-0.2-0.3-0.4-0.3c-0.2,0-0.3,0-0.5,0.1
											c-0.1,0.1-0.2,0.2-0.4,0.4c-0.2,0.2-0.5,0.5-0.7,0.7c-0.4,0.5-0.9,0.9-1.2,1.3c-0.1,0.2-0.1,0.5-0.1,0.7
											c0,0.2,0,0.5,0,0.7c0,0.4,0,0.8,0,1.1c0,0.3,0,0.5,0,0.7C282.8,72.9,282.8,73,282.8,73c0,0,0-0.1,0-0.2c0-0.2,0-0.4,0-0.7
											c0-0.3,0-0.7,0-1.1c0-0.2,0-0.5,0-0.7c0-0.1,0-0.3,0-0.4c0-0.1,0-0.3,0.1-0.4c0.4-0.4,0.8-0.8,1.2-1.3
											c0.2-0.2,0.5-0.5,0.7-0.7c0.1-0.1,0.2-0.2,0.4-0.4c0.2-0.1,0.4-0.2,0.6-0.1c0.2,0,0.3,0.2,0.5,0.3
											c0.1,0.1,0.3,0.3,0.4,0.4c0.3,0.3,0.6,0.5,0.8,0.8c0.3,0.3,0.6,0.6,0.9,0.8c0.1,0.1,0.2,0.1,0.2,0.2
											c0.1,0.1,0.1,0.2,0.1,0.3c0,0.2,0,0.4,0,0.6c0,0.8,0,1.7,0,2.5l0,0.1l-0.1,0c-0.7,0-1.3,0-2,0l-0.1,0l0-0.1
											c0-0.6,0-1.1,0-1.7c0-0.2-0.2-0.4-0.4-0.5c-0.2,0-0.5,0-0.7,0c-0.2,0-0.4,0.2-0.4,0.4c0,0.2,0,0.4,0,0.6
											c0,0.4,0,0.8,0,1.1v0l0,0c-0.7,0-1.2,0-1.6,0c-0.2,0-0.3,0-0.4,0C282.9,73,282.8,73,282.8,73z"/>
									</g>
								</g>
							</g>
						</g>
					</g>
				</g>
			</g>
			<g>
				<g>
					<rect x="286.6" y="135.4" class="st6" width="55.8" height="11.4"/>
				</g>
			</g>
			<g>
				<g>
					<rect x="286.6" y="152" class="st6" width="55.8" height="11.4"/>
				</g>
			</g>
			<g>
				<g>
					<path class="st2" d="M329.1,186.1h-28c-3.1,0-5.7-2.6-5.7-5.7l0,0c0-3.1,2.6-5.7,5.7-5.7h28c3.1,0,5.7,2.6,5.7,5.7l0,0
						C334.8,183.5,332.2,186.1,329.1,186.1z"/>
				</g>
			</g>
		</g>
	</g>
	<g>
		<g>
			<g>
				<g>
					<path class="st4" d="M296.2,39.3c-1.9,0-4.3,0-7.2,0c-0.7,0-1.5-0.1-2.2,0.2c-0.7,0.3-1.3,0.8-1.7,1.5
						c-0.2,0.4-0.3,0.7-0.4,1.2c-0.1,0.4,0,0.8-0.1,1.3c0,0.4,0,0.9,0,1.3c0,0.4,0,0.9-0.1,1.4c-0.2,0.9-0.8,1.8-1.6,2.3
						c-0.4,0.3-0.9,0.4-1.4,0.5c-0.5,0-1,0-1.5,0c-2,0-4.2,0-6.4,0c-4.5,0-9.4,0-14.6,0c-1.3,0-2.6,0-4,0c-0.3,0-0.7,0-1,0
						c-0.3,0-0.7,0-1-0.1c-0.7-0.2-1.3-0.6-1.8-1.1c-0.5-0.5-0.8-1.2-0.9-1.9c0-0.4,0-0.7,0-1.1c0-0.4,0-0.7,0-1.1
						c0-0.7,0.1-1.5-0.2-2.1c-0.2-0.7-0.7-1.3-1.3-1.7c-0.6-0.4-1.3-0.6-2.1-0.6c-0.8,0-1.5,0-2.3,0c-1.5,0-3.1,0-4.6,0
						c-3.1,0-6.4,0-9.6,0c-1.6,0-3.3,0.2-4.8,0.9c-1.5,0.7-2.9,1.7-4,3c-1.1,1.3-1.9,2.9-2.3,4.6c-0.1,0.4-0.1,0.9-0.2,1.3
						c0,0.4,0,0.7-0.1,1.1v71.9c0,1,0,1.9,0,2.9c0,2.9,0,5.9,0,8.8v93.5c0,1.2,0.1,2.4,0.4,3.5c0.7,2.4,2.2,4.5,4.3,5.9
						c2,1.4,4.5,2.1,7,1.9c2.5,0,5,0,7.5,0c5,0,9.9,0,14.8,0c9.8,0,19.4,0,28.9,0c4.7,0,9.4,0,14.1,0c2.3,0,4.7,0,6.9,0
						c2.3-0.1,4.5-1,6.2-2.4c0.9-0.7,1.6-1.6,2.2-2.5c0.6-0.9,1.1-2,1.4-3c0.3-1.1,0.4-2.2,0.4-3.3c0-1.1,0-2.2,0-3.4
						c0-4.5,0-8.9,0-13.2c0-34.8,0-66.2,0.1-92.6c0-26.4,0-47.7,0.1-62.4c0-1.8,0-3.6,0-5.2c0-1.6-0.3-3.1-0.8-4.5
						c-0.5-1.3-1.3-2.4-2.1-3.3c-0.8-0.9-1.7-1.6-2.5-2c-1.7-1-3.1-1.3-4.1-1.5c-0.5-0.1-0.9-0.1-1.1-0.1c-0.3,0-0.4,0-0.4,0
						s-0.5,0-1.5,0C299.7,39.3,298.2,39.3,296.2,39.3z"/>
				</g>
			</g>
		</g>
		<g>
			<g>
				<g>
					<g>
						<g>
							<g>
								<g>
									<g>
										<g>
											<path class="st1" d="M304.4,57.4c0,0-1.8,0.1-4.1,0.1c-2.3,0-4.1,0-4.1-0.1c0,0,1.8-0.1,4.1-0.1
												C302.5,57.3,304.4,57.3,304.4,57.4z"/>
										</g>
									</g>
								</g>
							</g>
						</g>
					</g>
					<g>
						<g>
							<g>
								<g>
									<g>
										<g>
											<path class="st1" d="M304.4,59.5c0,0-1.8,0.1-4.1,0.1c-2.3,0-4.1,0-4.1-0.1c0,0,1.8-0.1,4.1-0.1
												C302.6,59.4,304.4,59.4,304.4,59.5z"/>
										</g>
									</g>
								</g>
							</g>
						</g>
					</g>
					<g>
						<g>
							<g>
								<g>
									<g>
										<g>
											<path class="st1" d="M304.4,61.6c0,0-1.8,0.1-4.1,0.1c-2.3,0-4.1,0-4.1-0.1c0,0,1.8-0.1,4.1-0.1
												C302.6,61.5,304.4,61.5,304.4,61.6z"/>
										</g>
									</g>
								</g>
							</g>
						</g>
					</g>
				</g>
				<g>
					<g>
						<g>
							<g>
								<g>
									<g>
										<path class="st1" d="M230.1,63.9c0,0,0.1,0,0.2,0c0.1,0,0.3,0,0.5,0c0.4,0,1,0,1.7,0l0,0c0-0.4,0-0.8,0-1.3
											c0-0.2,0-0.5,0-0.7c0-0.3,0.3-0.5,0.6-0.5c0.3,0,0.5,0,0.8,0c0.3,0,0.6,0.3,0.6,0.7c0,0.6,0,1.2,0,1.8l-0.1-0.1
											c0.7,0,1.4,0,2.2,0l-0.1,0.1c0-0.9,0-1.8,0-2.7c0-0.2,0-0.5,0-0.7c0-0.2-0.1-0.4-0.3-0.5c-0.3-0.3-0.6-0.6-1-0.9
											c-0.3-0.3-0.6-0.6-0.9-0.9c-0.2-0.1-0.3-0.3-0.4-0.4c-0.2-0.1-0.3-0.3-0.5-0.3c-0.2,0-0.4,0-0.5,0.1
											c-0.1,0.1-0.3,0.3-0.4,0.4c-0.3,0.3-0.5,0.5-0.8,0.8c-0.5,0.5-1,1-1.4,1.4c-0.2,0.2-0.1,0.5-0.1,0.8c0,0.3,0,0.5,0,0.8
											c0,0.5,0,0.9,0,1.2c0,0.3,0,0.6,0,0.8C230.1,63.8,230.1,63.9,230.1,63.9c0,0,0-0.1,0-0.3c0-0.2,0-0.5,0-0.8
											c0-0.4,0-0.8,0-1.3c0-0.2,0-0.5,0-0.8c0-0.1,0-0.3,0-0.4c0-0.2,0-0.3,0.1-0.5c0.4-0.5,0.9-0.9,1.4-1.5
											c0.3-0.3,0.5-0.5,0.8-0.8c0.1-0.1,0.3-0.3,0.4-0.4c0.2-0.1,0.4-0.2,0.6-0.1c0.2,0.1,0.4,0.2,0.5,0.4
											c0.1,0.1,0.3,0.3,0.5,0.4c0.3,0.3,0.6,0.6,0.9,0.9c0.3,0.3,0.6,0.6,1,0.9c0.1,0.1,0.2,0.2,0.2,0.3
											c0.1,0.1,0.1,0.2,0.1,0.4c0,0.2,0,0.5,0,0.7c0,0.9,0,1.9,0,2.7l0,0.1l-0.1,0c-0.8,0-1.5,0-2.2,0l-0.1,0l0-0.1
											c0-0.6,0-1.3,0-1.8c0-0.3-0.2-0.5-0.4-0.5c-0.3,0-0.6,0-0.8,0c-0.2,0-0.4,0.2-0.5,0.4c0,0.2,0,0.5,0,0.7
											c0,0.5,0,0.9,0,1.3v0l0,0c-0.7,0-1.3,0-1.8,0c-0.2,0-0.3,0-0.5,0C230.1,63.9,230.1,63.9,230.1,63.9z"/>
									</g>
								</g>
							</g>
						</g>
					</g>
				</g>
			</g>
			<g>
				<g>
					<g>
						<g>
							
								<ellipse transform="matrix(0.153 -0.9882 0.9882 0.153 122.4299 353.2079)" class="st2" cx="267.3" cy="105.2" rx="18.5" ry="18.5"/>
						</g>
					</g>
					<g>
						<g>
							<g>
								<path class="st3" d="M273.6,112.6h-12.7v-1.6c0-3.5,2.8-6.3,6.3-6.3l0,0c3.5,0,6.3,2.8,6.3,6.3V112.6z"/>
							</g>
						</g>
						<g>
							<g>
								<circle class="st3" cx="267.3" cy="101.5" r="3.7"/>
							</g>
						</g>
					</g>
				</g>
			</g>
			<g>
				<g>
					<rect x="234.3" y="144.8" class="st6" width="62.3" height="12.7"/>
				</g>
			</g>
			<g>
				<g>
					<rect x="234.3" y="163.3" class="st6" width="62.3" height="12.7"/>
				</g>
			</g>
			<g>
				<g>
					<path class="st2" d="M281.6,201.3h-31.3c-3.5,0-6.4-2.8-6.4-6.4l0,0c0-3.5,2.8-6.4,6.4-6.4h31.3c3.5,0,6.4,2.8,6.4,6.4l0,0
						C288,198.4,285.2,201.3,281.6,201.3z"/>
				</g>
			</g>
			<g>
				<g>
					<g>
						<path class="st1" d="M285.5,137.2c0,0.3-8.8,0.6-19.5,0.6c-10.8,0-19.5-0.3-19.5-0.6c0-0.3,8.7-0.6,19.5-0.6
							C276.8,136.6,285.5,136.8,285.5,137.2z"/>
					</g>
				</g>
			</g>
			<g>
				<g>
					<g>
						<path class="st7" d="M242.9,154h-2.8c-0.3,0-0.5-0.2-0.5-0.5l0,0c0-1,0.8-1.8,1.8-1.8h0.1c1,0,1.8,0.8,1.8,1.8l0,0
							C243.4,153.8,243.2,154,242.9,154z"/>
					</g>
				</g>
				<g>
					<g>
						<path class="st7" d="M242.7,150.7c0,0.6-0.5,1.1-1.1,1.1c-0.6,0-1.1-0.5-1.1-1.1c0-0.6,0.5-1.1,1.1-1.1
							C242.2,149.6,242.7,150.1,242.7,150.7z"/>
					</g>
				</g>
			</g>
			<g>
				<g>
					<g>
						<rect x="239.9" y="169.8" class="st7" width="3.3" height="2.3"/>
					</g>
				</g>
				<g>
					<g>
						<path class="st7" d="M243.6,170.3h-1.1v-0.7c0-0.5-0.4-0.9-0.9-0.9c-0.5,0-0.9,0.4-0.9,0.9v0.7h-1.1v-0.7c0-1.1,0.9-2,2-2
							c1.1,0,2,0.9,2,2V170.3z"/>
					</g>
				</g>
			</g>
		</g>
	</g>
	<g>
		<g>
			<g>
				<g>
					<path class="st0" d="M230.3,0.3c-2.9,0-6.5,0-10.7,0c-1.1,0-2.2-0.1-3.2,0.3c-1,0.4-2,1.2-2.5,2.3c-0.3,0.5-0.5,1.1-0.6,1.7
						c-0.1,0.6-0.1,1.2-0.1,1.9c0,0.6,0,1.3,0,2c0,0.7,0,1.4-0.1,2c-0.3,1.4-1.1,2.7-2.4,3.4c-0.6,0.4-1.3,0.7-2.1,0.7
						c-0.8,0.1-1.5,0-2.3,0c-3,0-6.2,0-9.6,0c-6.7,0-13.9,0-21.7,0c-1.9,0-3.9,0-5.9,0c-0.5,0-1,0-1.5,0c-0.5,0-1,0-1.6-0.2
						c-1-0.3-2-0.8-2.7-1.6c-0.7-0.8-1.2-1.8-1.3-2.9c-0.1-0.5-0.1-1.1-0.1-1.6c0-0.5,0-1.1,0-1.6c0-1.1,0.1-2.2-0.3-3.2
						c-0.3-1-1-1.9-1.9-2.5c-0.9-0.6-2-0.9-3.1-0.8c-1.1,0-2.2,0-3.4,0c-2.3,0-4.6,0-6.9,0c-4.7,0-9.5,0-14.4,0
						c-2.4,0-4.9,0.3-7.2,1.4c-2.3,1-4.3,2.5-6,4.5c-1.6,1.9-2.8,4.3-3.4,6.8c-0.2,0.6-0.2,1.3-0.3,1.9c0,0.5-0.1,1.1-0.1,1.6v107.1
						c0,1.4,0,2.8,0,4.3c0,4.3,0,8.7,0,13.1v139.1c0,1.8,0.1,3.5,0.7,5.2c1.1,3.5,3.3,6.7,6.4,8.8c3.1,2.1,6.8,3.1,10.5,2.9
						c3.7,0,7.4,0,11.1,0c7.4,0,14.7,0,22,0c14.6,0,29,0,43.1,0c7.1,0,14.1,0,21,0c3.5,0,6.9,0.1,10.3,0c3.4-0.2,6.7-1.5,9.3-3.6
						c1.3-1.1,2.4-2.3,3.3-3.7c0.9-1.4,1.6-2.9,2-4.5c0.5-1.6,0.6-3.2,0.6-4.9c0-1.7,0-3.3,0-5c0-6.6,0-13.2,0-19.7
						c0-51.9,0.1-98.6,0.1-137.8c0-39.2,0.1-71,0.1-92.9c0-2.7,0-5.3,0-7.8c0-2.4-0.4-4.7-1.2-6.6c-0.8-2-1.9-3.6-3.1-4.9
						c-1.2-1.3-2.5-2.3-3.7-3c-2.5-1.5-4.7-2-6.1-2.2c-0.7-0.1-1.3-0.1-1.7-0.2c-0.4,0-0.6,0-0.6,0s-0.8,0-2.2,0
						C235.4,0.3,233.2,0.3,230.3,0.3z"/>
				</g>
			</g>
		</g>
		<g>
			<g>
				<g>
					<g>
						<g>
							<g>
								<g>
									<g>
										<g>
											<path class="st1" d="M242.4,27c0,0.1-2.7,0.2-6.1,0.2c-3.4,0-6.1,0-6.1-0.1c0-0.1,2.7-0.2,6.1-0.2
												C239.7,26.9,242.4,26.9,242.4,27z"/>
										</g>
									</g>
								</g>
							</g>
						</g>
					</g>
					<g>
						<g>
							<g>
								<g>
									<g>
										<g>
											<path class="st1" d="M242.5,30.1c0,0.1-2.7,0.2-6.1,0.2c-3.4,0-6.1,0-6.1-0.1c0-0.1,2.7-0.2,6.1-0.2
												C239.7,30,242.5,30,242.5,30.1z"/>
										</g>
									</g>
								</g>
							</g>
						</g>
					</g>
					<g>
						<g>
							<g>
								<g>
									<g>
										<g>
											<path class="st1" d="M242.5,33.2c0,0.1-2.7,0.2-6.1,0.2c-3.4,0-6.1,0-6.1-0.1c0-0.1,2.7-0.2,6.1-0.2
												C239.8,33.1,242.5,33.1,242.5,33.2z"/>
										</g>
									</g>
								</g>
							</g>
						</g>
					</g>
				</g>
				<g>
					<g>
						<g>
							<g>
								<g>
									<g>
										<path class="st1" d="M132.1,36.7c0,0,0.1,0,0.3,0c0.2,0,0.4,0,0.7,0c0.7,0,1.5,0,2.6-0.1l-0.1,0.1c0-0.6,0-1.2,0-1.9
											c0-0.3,0-0.7,0-1.1c0.1-0.4,0.4-0.8,0.9-0.8c0.4,0,0.8,0,1.2,0c0.5,0.1,0.9,0.5,0.8,1c0,0.9,0,1.8,0,2.7l-0.1-0.1
											c1,0,2.1,0,3.3,0l-0.1,0.1c0-1.3,0-2.7,0-4.1c0-0.3,0-0.7,0-1c0-0.3-0.2-0.5-0.5-0.8c-0.5-0.5-1-0.9-1.4-1.4
											c-0.5-0.5-0.9-0.9-1.4-1.4c-0.2-0.2-0.4-0.4-0.7-0.7c-0.2-0.2-0.4-0.4-0.7-0.5c-0.3-0.1-0.5,0-0.7,0.1
											c-0.2,0.2-0.4,0.4-0.6,0.6c-0.4,0.4-0.8,0.8-1.2,1.2c-0.7,0.8-1.5,1.5-2.1,2.1c-0.2,0.4-0.1,0.8-0.2,1.2
											c0,0.4,0,0.8,0,1.2c0,0.7,0,1.3,0,1.9c0,0.5,0,0.9,0,1.2C132.1,36.6,132.1,36.7,132.1,36.7c0,0,0-0.1,0-0.4
											c0-0.3,0-0.7,0-1.2c0-0.5,0-1.2,0-1.9c0-0.4,0-0.8,0-1.2c0-0.2,0-0.4,0-0.6c0-0.2,0.1-0.5,0.2-0.7
											c0.6-0.7,1.3-1.4,2.1-2.2c0.4-0.4,0.8-0.8,1.2-1.2c0.2-0.2,0.4-0.4,0.6-0.6c0.3-0.2,0.6-0.3,0.9-0.2
											c0.3,0.1,0.6,0.4,0.8,0.6c0.2,0.2,0.4,0.4,0.7,0.7c0.5,0.4,0.9,0.9,1.4,1.4c0.5,0.5,0.9,0.9,1.4,1.4
											c0.1,0.1,0.3,0.2,0.4,0.4c0.1,0.2,0.2,0.4,0.2,0.6c0,0.3,0,0.7,0,1c0,1.4,0,2.8,0,4.1l0,0.1l-0.1,0c-1.1,0-2.2,0-3.3,0
											l-0.1,0l0-0.1c0-0.9,0-1.9,0-2.7c0-0.4-0.3-0.7-0.7-0.8c-0.4,0-0.8,0-1.2,0c-0.4,0-0.6,0.3-0.7,0.6c0,0.3,0,0.7,0,1
											c0,0.7,0,1.3,0,1.9v0.1l-0.1,0c-1.1,0-2,0-2.6,0c-0.3,0-0.5,0-0.7,0C132.1,36.7,132.1,36.7,132.1,36.7z"/>
									</g>
								</g>
							</g>
						</g>
					</g>
				</g>
				<g>
					<g>
						<g>
							<g>
								<g>
									<g>
										<g>
											<g>
												<path class="st1" d="M233,74c0,0,0.2,0,0.7-0.1c0.4,0,1.1-0.1,1.9-0.4c0.8-0.3,1.8-0.7,2.8-1.5c1-0.7,2-1.8,2.6-3.3
													c0.3-0.7,0.6-1.5,0.7-2.4c0.1-0.9,0.1-1.8,0.1-2.8c0-1,0-2-0.1-3.1c-0.2-1-0.5-2.1-1.1-3.1c-1.2-1.9-3.2-3.6-5.8-4
													c-1.3-0.2-2.6-0.1-4-0.2c-1.4,0-2.8,0-4.2,0c-23.2,0-55.1,0-90.4,0.1c-2.2,0-4.3,0.8-5.8,2.3c-1.6,1.4-2.5,3.5-2.7,5.6
													c-0.1,1,0,2.1,0,3.2c0,1.1,0,2.1,0.3,3.1c0.6,2,1.9,3.7,3.6,4.9c0.8,0.6,1.8,1,2.8,1.2c1,0.2,2,0.2,3,0.2
													c2,0,4.1,0,6.1,0c4,0,7.9,0,11.8,0c15.3,0,29.1,0,40.7,0c11.6,0,20.9,0.1,27.4,0.1c3.2,0,5.7,0,7.5,0c0.8,0,1.5,0,1.9,0
													C232.8,74,233,74,233,74s-0.2,0-0.7,0c-0.4,0-1.1,0-1.9,0c-1.7,0-4.2,0-7.5,0c-6.5,0-15.8,0-27.4,0.1
													c-11.6,0-25.4,0-40.7,0c-3.8,0-7.7,0-11.8,0c-2,0-4,0-6.1,0c-1,0-2.1,0-3.1-0.2c-1-0.2-2-0.6-2.9-1.2
													c-1.8-1.2-3.1-3-3.7-5.1c-0.3-1-0.4-2.2-0.3-3.2c0-1.1,0-2.1,0-3.2c0.2-2.2,1.2-4.3,2.8-5.8c1.6-1.5,3.9-2.4,6.1-2.4
													c35.3,0,67.3,0,90.4,0.1c1.4,0,2.9,0,4.2,0c1.4,0,2.7-0.1,4,0.2c2.6,0.5,4.8,2.2,5.9,4.2c0.6,1,1,2.1,1.2,3.1
													c0.2,1.1,0.1,2.1,0.1,3.1c0,1,0,1.9-0.1,2.8c-0.1,0.9-0.4,1.7-0.7,2.5c-0.7,1.5-1.7,2.6-2.7,3.3c-1,0.8-2,1.2-2.8,1.4
													c-0.8,0.2-1.5,0.3-1.9,0.3C233.2,74,233,74,233,74z"/>
											</g>
										</g>
									</g>
								</g>
							</g>
						</g>
					</g>
					<g>
						<g>
							<g>
								<g>
									<g>
										<g>
											<g>
												<path class="st1" d="M234.8,63.1c0,0,0-0.3-0.2-0.9c-0.2-0.6-0.5-1.4-1.4-2c-0.8-0.6-2.1-1-3.4-0.5
													c-1.3,0.4-2.4,1.8-2.3,3.4c0,1.6,1.1,2.9,2.3,3.4c1.3,0.5,2.6,0.1,3.4-0.5c0.8-0.6,1.2-1.4,1.4-2
													C234.7,63.4,234.7,63.1,234.8,63.1c0,0,0,0.1,0,0.2c0,0.2,0,0.4-0.1,0.7c-0.1,0.6-0.5,1.5-1.4,2.2
													c-0.9,0.7-2.3,1.1-3.7,0.6c-1.4-0.5-2.7-2-2.6-3.7c0-1.8,1.2-3.3,2.6-3.7c1.4-0.5,2.9-0.1,3.7,0.6
													c0.9,0.7,1.2,1.6,1.4,2.2c0.1,0.3,0.1,0.5,0.1,0.7C234.8,63,234.8,63.1,234.8,63.1z"/>
											</g>
										</g>
									</g>
								</g>
							</g>
						</g>
						<g>
							<g>
								<g>
									<g>
										<g>
											<g>
												<path class="st1" d="M236.9,69.6c-0.1,0.1-0.9-0.7-1.8-1.7c-0.9-1-1.6-1.9-1.5-2c0.1-0.1,0.9,0.7,1.8,1.7
													C236.3,68.6,236.9,69.5,236.9,69.6z"/>
											</g>
										</g>
									</g>
								</g>
							</g>
						</g>
					</g>
				</g>
			</g>
		</g>
	</g>
	<g>
		<g>
			
				<ellipse transform="matrix(0.2287 -0.9735 0.9735 0.2287 173.7524 428.3399)" class="st2" cx="357.2" cy="104.5" rx="10.9" ry="10.9"/>
		</g>
		<g>
			<path class="st3" d="M356.5,108.1c-0.1,0-0.2,0-0.3-0.1l-3.7-3c-0.2-0.2-0.2-0.5-0.1-0.7c0.2-0.2,0.5-0.2,0.7-0.1l3.3,2.7
				l4.6-5.7c0.2-0.2,0.5-0.2,0.7-0.1c0.2,0.2,0.2,0.5,0.1,0.7l-5,6.1C356.8,108,356.7,108,356.5,108.1
				C356.6,108.1,356.6,108.1,356.5,108.1z"/>
		</g>
	</g>
</g>
<g id="Magnifying_Glass">
	<g>
		<g>
			<g>
				<g>
					<path class="st1" d="M247,241.9c-15.7-4.5-25.1-20.3-22-36c-0.3,0.8-0.6,1.5-0.8,2.3c-4.7,16.5,4.9,33.7,21.4,38.4
						c16.5,4.7,33.7-4.9,38.4-21.4c0.2-0.8,0.4-1.6,0.6-2.4C279,237.9,262.7,246.4,247,241.9z"/>
				</g>
				<g>
					<g>
						<path class="st8" d="M262.3,186.9c15.7,4.5,25.1,20.3,22,36c0.3-0.8,0.6-1.5,0.8-2.3c4.7-16.5-4.9-33.7-21.4-38.4
							c-16.5-4.7-33.7,4.9-38.4,21.4c-0.2,0.8-0.4,1.6-0.6,2.4C230.2,190.9,246.6,182.5,262.3,186.9z"/>
					</g>
				</g>
				<g>
					<g>
						<path class="st1" d="M285.4,220.4c0,0,0-0.2,0.1-0.5c0.1-0.3,0.2-0.8,0.3-1.4c0.1-0.3,0.1-0.7,0.2-1.1
							c0.1-0.4,0.1-0.8,0.2-1.3c0.1-0.9,0.3-2,0.2-3.3c0.1-2.5-0.2-5.5-1.1-8.9c-0.9-3.4-2.5-7.1-5.2-10.6
							c-2.6-3.5-6.3-6.8-10.9-9.1c-1.2-0.5-2.3-1.1-3.6-1.5c-0.6-0.2-1.3-0.4-1.9-0.6c-0.7-0.2-1.3-0.3-2-0.5
							c-0.3-0.1-0.7-0.2-1-0.2l-1-0.1c-0.7-0.1-1.4-0.2-2.1-0.2c-1.4,0-2.8-0.1-4.3,0c-1.5,0-2.9,0.4-4.4,0.6
							c-0.7,0.2-1.4,0.4-2.2,0.6c-0.7,0.2-1.4,0.4-2.1,0.7c-1.4,0.5-2.8,1.2-4.2,1.9c-1.3,0.8-2.7,1.6-3.9,2.6
							c-2.5,1.9-4.8,4.2-6.6,7c-1.8,2.7-3.2,5.7-4.2,8.9c-0.9,3.2-1.3,6.5-1.1,9.8c0.1,3.3,0.8,6.4,1.9,9.4c0.5,1.5,1.2,2.9,1.9,4.3
							c0.8,1.3,1.6,2.6,2.6,3.8c0.5,0.6,0.9,1.2,1.4,1.7c0.5,0.5,1,1.1,1.5,1.6c1.1,1,2.2,2,3.4,2.8c1.1,0.9,2.4,1.6,3.6,2.3
							c0.6,0.3,1.3,0.6,1.9,0.9l0.9,0.4c0.3,0.1,0.7,0.2,1,0.3c0.7,0.2,1.3,0.4,1.9,0.7c0.6,0.2,1.3,0.3,2,0.5
							c1.3,0.4,2.6,0.5,3.9,0.6c5.1,0.5,10-0.4,14.1-2c4.1-1.6,7.4-3.9,10-6.3c2.5-2.4,4.4-4.8,5.6-7c0.7-1,1.1-2,1.5-2.9
							c0.2-0.4,0.4-0.8,0.5-1.2c0.1-0.4,0.3-0.7,0.4-1c0.2-0.6,0.4-1.1,0.5-1.4C285.3,220.6,285.4,220.4,285.4,220.4s0,0.2-0.1,0.5
							c-0.1,0.3-0.3,0.8-0.5,1.4c-0.1,0.3-0.2,0.7-0.3,1c-0.1,0.4-0.3,0.8-0.5,1.2c-0.4,0.9-0.8,1.9-1.5,2.9c-1.2,2.2-3,4.6-5.5,7.1
							c-2.5,2.4-5.9,4.8-10,6.4c-4.1,1.6-9,2.6-14.3,2.1c-1.3-0.2-2.6-0.3-3.9-0.6c-0.7-0.2-1.3-0.3-2-0.5c-0.7-0.2-1.3-0.4-2-0.7
							c-0.3-0.1-0.7-0.2-1-0.3l-1-0.4c-0.6-0.3-1.3-0.6-1.9-0.9c-1.2-0.7-2.5-1.4-3.7-2.3c-1.2-0.8-2.3-1.8-3.4-2.8
							c-0.5-0.5-1-1.1-1.6-1.7c-0.5-0.5-1-1.2-1.5-1.8c-1-1.2-1.8-2.5-2.6-3.9c-0.7-1.4-1.5-2.8-2-4.3c-1.1-3-1.9-6.2-2-9.5
							c-0.1-3.3,0.3-6.7,1.1-10c1-3.3,2.4-6.3,4.3-9.1c1.8-2.8,4.2-5.1,6.7-7.1c1.2-1,2.6-1.8,4-2.7c1.4-0.7,2.8-1.4,4.2-1.9
							c0.7-0.3,1.4-0.6,2.2-0.7c0.7-0.2,1.5-0.4,2.2-0.6c1.5-0.3,2.9-0.6,4.4-0.6c1.5-0.2,2.9,0,4.4,0c0.7,0.1,1.4,0.2,2.1,0.3
							l1,0.1c0.3,0.1,0.7,0.2,1,0.2c0.7,0.2,1.4,0.3,2,0.5c0.7,0.2,1.3,0.4,1.9,0.6c1.3,0.4,2.5,1,3.7,1.5c4.7,2.3,8.4,5.7,11,9.3
							c2.7,3.6,4.3,7.3,5.2,10.7c0.9,3.4,1.1,6.5,1,8.9c0,1.2-0.2,2.3-0.3,3.3c-0.1,0.5-0.1,0.9-0.2,1.3c-0.1,0.4-0.2,0.7-0.3,1.1
							c-0.2,0.6-0.3,1.1-0.4,1.4C285.5,220.2,285.4,220.4,285.4,220.4z"/>
					</g>
				</g>
			</g>
			<g>
				<path class="st1" d="M273.6,238.1c0.4,0.3,29.8,27.4,40.7,37.6c1.8,1.7,4.7,1.7,6.5-0.1v0c1.9-1.9,1.9-5-0.1-6.8l-40.4-37.3
					L273.6,238.1z"/>
			</g>
		</g>
	</g>
</g>
<g id="Character">
	<g>
		<g>
			<g>
				<path class="st9" d="M123.6,230.4l-2.3,0.7c-1.5,0.4-2.8,1.3-3.8,2.4l-5.6,6.1c-0.5,0.6-0.8,1.3-0.8,2.1c0,2.1,0.2,6.2,0.5,6.3
					c2.7,0.9,2.9-4.9,2.9-4.9s0.8-2.7,2.9-2.2c2.4,0.5,0.7,5.3,0.7,5.3s-0.4,0.1-0.4-0.1c0-0.1,0.5-1.6-0.2-2.8l-2,1.4l-0.5,2.8
					c0,0.8,0.3,1.5,0.8,2l0.7,0.7c0.5,0.5,1.1,0.8,1.7,0.8l1.7,0.1l0.7,0.1c0.7,0.1,1.3-0.2,1.7-0.8l0.6-0.9l1.1,0.1
					c0.9,0.1,1.8-0.3,2.3-1l3.3-7.6l3.7-10.9l-8.5-3.8L123.6,230.4z"/>
			</g>
			<g>
				<g>
					<g>
						<path class="st10" d="M125.4,247c0,0,0,0.2-0.3,0.5c-0.2,0.3-0.7,0.5-1.2,0.4l-0.1,0l0,0.1c0,0.1-0.1,0.1-0.1,0.2
							c-0.7,1-1.1,1.8-1.1,1.9c0,0,0.6-0.8,1.3-1.8c0-0.1,0.1-0.1,0.1-0.2l-0.1,0c0.6,0.1,1.1-0.2,1.3-0.5
							C125.5,247.2,125.4,247,125.4,247z"/>
					</g>
				</g>
			</g>
			<g>
				<g>
					<path class="st10" d="M117.6,251c0,0,0.6,0,1.2-0.6c0.6-0.6,1.4-1.6,2-2.7c0.2-0.3,0.3-0.6,0.5-0.9c0.2-0.3,0.5-0.4,0.8-0.5
						c0.5-0.2,0.9-0.5,1.2-0.9c0.4-0.7,0.3-1.3,0.4-1.3c0,0,0.3,0.6-0.2,1.4c-0.2,0.4-0.7,0.8-1.2,1c-0.3,0.1-0.5,0.3-0.7,0.5
						c-0.2,0.2-0.3,0.5-0.5,0.8c-0.6,1.2-1.4,2.2-2.1,2.7C118.2,251.2,117.6,251,117.6,251z"/>
				</g>
			</g>
			<g>
				<g>
					<path class="st10" d="M118.1,246.2c0,0.1-0.4,0.3-0.7,0.9c-0.3,0.5-0.5,1-0.6,1c-0.1,0,0-0.6,0.4-1.2
						C117.5,246.2,118.1,246.1,118.1,246.2z"/>
				</g>
			</g>
		</g>
		<g>
			<g>
				<path class="st8" d="M149.5,127.2c0,0-4.5,3.4-6.1,9.5c-1.2,4.5-11.2,46.3-11.2,46.3c-0.2,5.6-0.4,9.3,3.3,12.2l0,0
					c4.4,3.5,18.1,1.9,23.5-0.7c2.4-1.2-1.8-27.8-1.8-27.8L149.5,127.2z"/>
			</g>
		</g>
		<g>
			<polygon class="st8" points="132.1,183 147.5,168.2 161,201.3 132.7,234.4 121.3,228.9 			"/>
		</g>
		<g>
			<g>
				<g>
					<g>
						<polygon class="st2" points="192.4,359.4 193.7,390.8 222.6,390.4 213.5,359 						"/>
					</g>
				</g>
			</g>
			<g class="st11">
				<g>
					<g>
						<polygon points="221.7,367.9 221.9,371.4 197.1,371.7 197,369.1 						"/>
					</g>
				</g>
			</g>
		</g>
		<g>
			<g>
				<g>
					<g>
						<g>
							<g>
								<path class="st2" d="M156.7,361.3l0.8,19.1c0,0-19.1,7.2-19.3,10.8l47.2-0.3l-10.2-29.8L156.7,361.3z"/>
							</g>
						</g>
					</g>
				</g>
				<g>
					<g>
						<g>
							<g>
								<path class="st1" d="M156.8,372c0,0.1,0.7,0.2,1.9,0c0.6-0.1,1.2-0.3,2-0.6c0.4-0.2,0.7-0.4,1.1-0.6
									c0.2-0.1,0.4-0.2,0.6-0.4c0.2-0.2,0.3-0.7,0.1-1c-0.2-0.3-0.5-0.4-0.8-0.4c-0.3,0-0.5,0.1-0.7,0.1c-0.4,0.1-0.8,0.2-1.2,0.4
									c-0.7,0.3-1.3,0.7-1.7,1.1c-0.9,0.8-1.2,1.5-1.1,1.5c0.1,0.1,0.5-0.5,1.4-1.2c0.4-0.3,1-0.7,1.7-1c0.3-0.1,0.7-0.3,1.1-0.3
									c0.4-0.1,0.7-0.1,0.8,0.1c0,0.1,0,0.1,0,0.2c-0.1,0.1-0.2,0.2-0.4,0.3c-0.3,0.2-0.7,0.4-1,0.6c-0.6,0.3-1.3,0.6-1.8,0.7
									C157.5,371.8,156.8,371.9,156.8,372z"/>
							</g>
						</g>
					</g>
				</g>
				<g>
					<g>
						<g>
							<g>
								<path class="st1" d="M157,372.2c0.1,0,0.4-0.6,0.5-1.8c0-0.6,0-1.3-0.3-2c-0.1-0.4-0.3-0.8-0.5-1.1
									c-0.2-0.4-0.5-0.9-1.2-0.9c-0.4,0-0.7,0.3-0.8,0.5c-0.1,0.3-0.1,0.5-0.2,0.7c-0.1,0.4-0.1,0.9,0,1.3
									c0.1,0.8,0.5,1.5,0.8,1.9c0.7,1,1.5,1.2,1.5,1.1c0.1-0.1-0.6-0.4-1.1-1.4c-0.3-0.5-0.5-1.1-0.6-1.8c0-0.3,0-0.7,0-1.1
									c0.1-0.4,0.2-0.7,0.4-0.7c0.2,0,0.5,0.3,0.7,0.6c0.2,0.3,0.3,0.7,0.5,1c0.2,0.7,0.3,1.3,0.4,1.9
									C157.1,371.5,156.9,372.2,157,372.2z"/>
							</g>
						</g>
					</g>
				</g>
			</g>
		</g>
		<g>
			<g>
				<g>
					<path class="st9" d="M235.2,63.8l2.7,10.3c0,0,1,5.7-1.7,5.7c-2.3,0-2.6-3.1-2.6-3.1s1.2-6.2-1.9-5.9c-0.4,0-1.5,4.3-2.1,6.5
						c-0.2,0.8-0.1,1.6,0.3,2.4l4.4,7.8c0.8,1.4,3.3,2.6,4.7,3.5l2.2,1.3l-1,4.6l12.4,0.2l-3.8-14.5l-1.6-8.8
						c-0.4-0.9-1.3-1.5-2.2-1.6l-1.2-0.2l-0.4-1.1c-0.3-0.7-0.9-1.1-1.6-1.2l-0.7-0.1l-1-2.5c-0.3-0.8-2.8-6.3-3.7-6.3
						C236.5,60.7,234.5,61.2,235.2,63.8z"/>
				</g>
			</g>
			<g>
				<g>
					<g>
						<path class="st10" d="M244,76.2c0,0,0-0.5-0.2-1.1c-0.2-0.7-0.7-1.5-1.7-2.1c-0.5-1-0.8-2-0.9-2.7c-0.2-0.7-0.2-1.2-0.1-1.2
							c0,0,0.1,0.4,0.3,1.1c0.2,0.7,0.5,1.7,0.9,2.6c0.2,0.2,0.4,0.3,0.6,0.5c0.2,0.2,0.4,0.4,0.5,0.6c0.3,0.4,0.5,0.8,0.6,1.2
							c0.1,0.4,0.1,0.7,0.1,0.9C244.1,76.1,244,76.2,244,76.2z"/>
					</g>
				</g>
			</g>
			<g>
				<g>
					<g>
						<path class="st10" d="M245.9,75.2c0,0,0-0.2-0.2-0.6c-0.2-0.3-0.6-0.7-1.2-0.7l-0.1,0l0-0.1c0-0.1,0-0.1-0.1-0.2
							c-0.4-1.2-0.8-2.2-0.7-2.2c0.1,0,0.5,1,0.9,2.2c0,0.1,0,0.1,0.1,0.2l-0.1-0.1c0.6,0.1,1.1,0.5,1.3,0.9
							C246,74.9,246,75.2,245.9,75.2z"/>
					</g>
				</g>
			</g>
		</g>
		<g>
			<g>
				<g>
					<g>
						<g>
							<g>
								<g>
									<g>
										<g>
											<path class="st9" d="M177.3,122.1l13.8-0.2l-1.5-11.8c0,0,0.9-0.2,1-5.3s0.3-13.8,0.3-13.8l0,0
												c-5.9-2.5-12.8-1.7-17.9,2.2l-0.8,0.6L177.3,122.1z"/>
										</g>
									</g>
								</g>
							</g>
						</g>
					</g>
				</g>
			</g>
			<g>
				<g>
					<g>
						<g>
							<g>
								<g>
									<path class="st9" d="M173.9,100.2c-0.1,0-3.5-1-3.4,2.5c0.1,3.5,3.6,2.7,3.6,2.6C174.1,105.1,173.9,100.2,173.9,100.2z"/>
								</g>
							</g>
						</g>
					</g>
				</g>
			</g>
			<g>
				<g>
					<g>
						<g>
							<g>
								<g>
									<path class="st9" d="M190.3,99.5c0.1,0,3.2-0.9,3.1,2.6c-0.1,3.5-3.6,2.7-3.6,2.6C189.8,104.5,190.3,99.5,190.3,99.5z"/>
								</g>
							</g>
						</g>
					</g>
				</g>
			</g>
			<g>
				<g>
					<path class="st1" d="M172.8,99.8c0.5,2.9,0.4,4.5,0.9,6.4c0.8,3.1,2.3,5.5,5.1,7c2.8,1.5,6.6,1.5,9-0.6
						c1.7-1.5,2.8-3.1,3.1-5.3c0.2-2.2,0.5-6.1,0.5-8.3c0-4,0.3-7.8,0.3-7.8l-11.4-2.1l-6.5,3.9L172.8,99.8z"/>
				</g>
			</g>
			<g>
				<g>
					<path class="st1" d="M173.3,104.8c-0.2-2-0.4-4-0.6-6c-0.2-2-0.6-4-0.8-6c-0.2-1.5-0.2-3.1,0.4-4.6c0.4-1.2,1.3-2.2,2.4-2.8
						c1.5-0.7,3-0.3,4.5,0c0.7,0.1,1.5,0.1,2.2-0.2c0.7-0.3,1.5-0.8,2.3-0.8c0.9,0,1.6,0.6,2.3,1.2s1.3,1.2,2.1,1.5
						c0.8,0.2,1.7,0,2.4,0.5c0.8,0.5,0.8,1.6,1.2,2.5c0.3,0.8,0.9,1.4,1.2,2.2c1,2.1,0.2,5.1-1.3,6.8c-0.7,0.8-2.2,0.5-3.2,0.6
						c-0.6,0-2.2-0.2-2.5,0.4c-0.5,0.8,2.1-0.2,1.5,0.6c-0.7,0.9,2.9-2.4,3.4-1.4"/>
				</g>
			</g>
		</g>
		<g>
			<g>
				<g>
					<polyline class="st1" points="185.4,288.6 186.9,301.3 190.8,372.1 223.7,372.1 224.7,216.6 156.5,216 144,304.7 154.8,373.6 
						187.9,373.6 182.5,308.5 185.4,288.6 					"/>
				</g>
			</g>
		</g>
		<g>
			<g>
				<g>
					<g>
						<path class="st8" d="M237.7,118.5h-30.6c0,0-4.2-2.4-6.2-2c-2,0.4-3.8,2.5-3.8,2.5l4,33.7l9.9,5.3c0,0,36.8-3.8,36.9-3.8
							c4.6-0.5,9.4-3.1,11.7-7.4c2.1-3.9-0.1-15.6-0.8-19.7c-2.4-13.1-4.3-21.8-6.1-35L240,92.7l-0.5,13.2L237.7,118.5z"/>
					</g>
				</g>
				<g>
					<g>
						<polygon class="st8" points="151.2,197.9 138.2,157.7 149.5,127.2 171.4,119.4 201,116.5 221.9,120.9 224.7,201.3 
							224.7,216.6 155.3,219.8 						"/>
					</g>
				</g>
			</g>
		</g>
	</g>
	<line class="st12" x1="154.8" y1="366.8" x2="185.4" y2="366.8"/>
	<line class="st12" x1="191.2" y1="366.8" x2="221.9" y2="366.8"/>
	<line class="st13" x1="159.6" y1="376.1" x2="178.3" y2="376.1"/>
	<line class="st13" x1="194.5" y1="374.9" x2="216.8" y2="374.9"/>
	<line class="st13" x1="194.5" y1="386.4" x2="219.5" y2="386.4"/>
	<line class="st13" x1="150.2" y1="383.4" x2="154.8" y2="390.8"/>
	<polyline class="st12" points="159.6,366.3 149.4,304.3 161,222.9 	"/>
	<line class="st12" x1="157.3" y1="222.9" x2="224.2" y2="219.8"/>
	<line class="st14" x1="124.9" y1="226.3" x2="135.2" y2="231.5"/>
	<line class="st14" x1="156.5" y1="216" x2="223.4" y2="211.9"/>
	<line class="st14" x1="133.4" y1="230.1" x2="151.7" y2="205.9"/>
	<line class="st14" x1="153.5" y1="210.1" x2="151.2" y2="191.4"/>
	<line class="st14" x1="222" y1="156.2" x2="220.9" y2="131.6"/>
	<line class="st14" x1="252.2" y1="94" x2="240.8" y2="94.6"/>
	<line class="st14" x1="243.4" y1="96.5" x2="241.6" y2="119.3"/>
	<line class="st14" x1="240.8" y1="94.6" x2="234.9" y2="132.1"/>
	<polyline class="st14" points="171.4,119.4 174.1,123.7 199,122.1 201,116.5 	"/>
</g>
</svg>
