<svg width="50" height="26" id="OBJECTS" xmlns="http://www.w3.org/2000/svg" viewBox="0 0 76.08 38.5"><defs><style>.cls-1{fill:#532fee;}</style></defs><rect class="cls-1" x="0.3" y="14.87" width="7.37" height="7.37" rx="1.72" ry="1.72"/><rect class="cls-1" x="13.94" y="14.87" width="7.37" height="7.37" rx="1.72" ry="1.72"/><rect class="cls-1" x="27.58" y="14.87" width="7.37" height="7.37" rx="1.72" ry="1.72"/><rect class="cls-1" x="41.21" y="14.87" width="7.37" height="7.37" rx="1.72" ry="1.72"/><rect class="cls-1" x="54.85" y="14.87" width="7.37" height="7.37" rx="1.72" ry="1.72"/><rect class="cls-1" x="68.49" y="14.87" width="7.37" height="7.37" rx="1.72" ry="1.72"/><rect class="cls-1" x="28.07" width="7.37" height="7.37" rx="1.72" ry="1.72"/><rect class="cls-1" x="41.71" width="7.37" height="7.37" rx="1.72" ry="1.72"/><rect class="cls-1" x="55.34" width="7.37" height="7.37" rx="1.72" ry="1.72"/><rect class="cls-1" x="41.21" y="30.84" width="7.37" height="7.37" rx="1.72" ry="1.72"/><rect class="cls-1" x="54.85" y="30.84" width="7.37" height="7.37" rx="1.72" ry="1.72"/></svg>