<?xml version="1.0" encoding="utf-8"?>
<!-- Generator: Adobe Illustrator 22.0.0, SVG Export Plug-In . SVG Version: 6.00 Build 0)  -->
<svg version="1.1" xmlns="http://www.w3.org/2000/svg" xmlns:xlink="http://www.w3.org/1999/xlink" x="0px" y="0px"
	 viewBox="0 0 2932.7 2935" style="enable-background:new 0 0 2932.7 2935;" xml:space="preserve">
<style type="text/css">
	.st0{display:none;}
	.st1{display:inline;fill:url(#SVGID_1_);}
	.st2{display:inline;}
	.st3{fill:#F4F4F4;}
	.st4{fill:#E5E5E5;}
	.st5{fill:#532FEE;}
	.st6{fill:#83E8FF;}
	.st7{display:inline;opacity:0.31;}
	.st8{fill:#A122FC;}
	.st9{display:inline;fill:#F4F4F4;}
	.st10{fill:url(#SVGID_2_);}
	.st11{fill:#F4BBAC;}
	.st12{fill:#37355F;}
	.st13{fill:#FFFFFF;}
	.st14{fill:#EF8876;}
	.st15{fill:#FF4F5B;}
</style>
<g id="_x2014_ÎÓÈ_x5F_1" class="st0">
	<linearGradient id="SVGID_1_" gradientUnits="userSpaceOnUse" x1="2535.7278" y1="2947.0208" x2="322.1705" y2="559.4982">
		<stop  offset="0" style="stop-color:#381FCC"/>
		<stop  offset="0.2828" style="stop-color:#4243DA"/>
		<stop  offset="0.5705" style="stop-color:#4A60E5"/>
		<stop  offset="0.8194" style="stop-color:#4F72EC"/>
		<stop  offset="0.9995" style="stop-color:#5178EE"/>
	</linearGradient>
	<rect x="-537.3" y="-334.4" class="st1" width="3780.7" height="4011.4"/>
	<g class="st2">
		<path class="st3" d="M1479.1,2045.5h-112.6c-7.4,0-13.5,6.1-13.5,13.5v548.2c0,7.4,6.1,13.5,13.5,13.5h112.6
			c7.4,0,13.5-6.1,13.5-13.5v-548.2C1492.5,2051.5,1486.5,2045.5,1479.1,2045.5z"/>
	</g>
	<g class="st2">
		<path class="st4" d="M1479.1,2045.5h-46.9c4.6,0,8.5,6.1,8.5,13.5v548.2c0,7.4-3.8,13.5-8.5,13.5h46.9c7.4,0,13.5-6.1,13.5-13.5
			v-548.2C1492.5,2051.5,1486.5,2045.5,1479.1,2045.5z"/>
	</g>
	<g class="st2">
		<path class="st4" d="M2366.2,1117.5c-81-1.8-148.6,63-150.4,144l-3.1,144c-1.8,81,63,148.6,144,150.4c81,1.8,148.6-63,150.4-144
			l3.1-144C2511.9,1186.9,2447.1,1119.3,2366.2,1117.5z"/>
	</g>
	<g class="st2">
		<path class="st3" d="M2239.5,798.8C2034.8,575,1739.8,502,1449.8,502.2c-289.6-12.8-587.6,47.4-801.8,262.1
			c-312.1,313.8-219.1,834.3,114,1105.4c363.9,296,940.3,307.8,1315.6,28.6C2422.2,1641.9,2537.7,1125.9,2239.5,798.8z"/>
	</g>
	<g class="st2">
		<path class="st4" d="M2239.9,798.2c-137.3-157.9-339.5-249.5-544.6-277.1c234.6,76.3,460.6,228.9,561.2,461.6
			c10.6,24.1,19.6,48.7,27.1,73.8c14.9,50.3,23.4,102.7,24.2,156.5c1.1,20.6,1.3,41.3,0.6,62c-3.9,124.1-39,248-99.7,355.2
			c-16.1,27-34.3,53.3-54.3,78.5c-58.3,68.3-126.4,130.5-201.4,184.3c-153.2,110.4-338.7,188.1-527.8,206.9
			c233.3,3,467.2-63.9,652.2-201.5c280-208.3,408.7-588,287.3-898.5c-9.3-23.9-20.2-47.4-32.5-70.3c-12.3-23-26.2-45.4-41.6-67.3
			C2275.3,840.3,2258.3,818.9,2239.9,798.2z"/>
	</g>
	<g class="st2">
		<path class="st3" d="M507.6,1077.1c-81-1.8-148.6,63-150.4,144l-3.1,144c-1.8,81,63,148.6,144,150.4c81,1.8,148.6-63,150.4-144
			l3.1-144C653.4,1146.6,588.6,1078.9,507.6,1077.1z"/>
	</g>
	<g class="st2">
		<path class="st5" d="M1685.4,1124.3l-548.1,2.8c-164.7,0.8-298.8,136.3-298,301v0c0.8,164.7,136.3,298.8,301,298l548.1-2.8
			c164.7-0.8,298.8-136.3,298-301v0C1985.7,1257.6,1850.2,1123.5,1685.4,1124.3z"/>
	</g>
	<g class="st2">
		<path class="st3" d="M1318.3,1543.8c0,0.1,0,0.1,0,0.2c0.3,52.7,43.2,95.1,95.8,94.8c52.7-0.3,95.1-43.2,94.8-95.8
			c0-0.1,0-0.1,0-0.2L1318.3,1543.8z"/>
	</g>
	<g class="st2">
		<path class="st6" d="M1129.3,1323.2c-62.4,0.3-112.7,51.1-112.3,113.5c0.3,62.4,51.1,112.7,113.5,112.3
			c62.4-0.3,112.7-51.1,112.3-113.5C1242.5,1373.1,1191.7,1322.8,1129.3,1323.2z M1130.3,1516.4c-44.3,0.2-80.5-35.5-80.7-79.9
			c-0.2-44.3,35.5-80.5,79.9-80.7s80.5,35.5,80.7,79.9C1210.4,1480,1174.6,1516.1,1130.3,1516.4z"/>
	</g>
	<g class="st2">
		<path class="st6" d="M1695.7,1320.3c-62.4,0.3-112.7,51.1-112.3,113.5c0.3,62.4,51.1,112.7,113.5,112.3
			c62.4-0.3,112.7-51.1,112.3-113.5C1808.9,1370.3,1758,1320,1695.7,1320.3z M1696.7,1513.5c-44.3,0.2-80.5-35.5-80.7-79.9
			c-0.2-44.3,35.5-80.5,79.9-80.7s80.5,35.5,80.7,79.9C1776.8,1477.1,1741,1513.2,1696.7,1513.5z"/>
	</g>
	<g class="st7">
		<path class="st8" d="M1116.3,1323.2c-62.4,0.3-112.7,51.1-112.3,113.5c0.3,62.4,51.1,112.7,113.5,112.3
			c62.4-0.3,112.7-51.1,112.3-113.5C1229.5,1373.1,1178.7,1322.8,1116.3,1323.2z M1117.3,1516.4c-44.3,0.2-80.5-35.5-80.7-79.9
			c-0.2-44.3,35.5-80.5,79.9-80.7s80.5,35.5,80.7,79.9C1197.4,1480,1161.6,1516.1,1117.3,1516.4z"/>
	</g>
	<g class="st7">
		<path class="st8" d="M1682.7,1320.3c-62.4,0.3-112.7,51.1-112.3,113.5c0.3,62.4,51.1,112.7,113.5,112.3
			c62.4-0.3,112.7-51.1,112.3-113.5C1795.9,1370.3,1745,1320,1682.7,1320.3z M1683.7,1513.5c-44.3,0.2-80.5-35.5-80.7-79.9
			c-0.2-44.3,35.5-80.5,79.9-80.7s80.5,35.5,80.7,79.9C1763.8,1477.1,1728,1513.2,1683.7,1513.5z"/>
	</g>
	<g class="st2">
		
			<ellipse transform="matrix(0.2553 -0.9669 0.9669 0.2553 -553.3263 2139.7329)" class="st3" cx="1112.4" cy="1429.1" rx="38.9" ry="38.9"/>
	</g>
	<g class="st2">
		
			<ellipse transform="matrix(0.9176 -0.3975 0.3975 0.9176 -428.0717 786.9697)" class="st3" cx="1684.4" cy="1426.2" rx="38.9" ry="38.9"/>
	</g>
	<g class="st2">
		<path class="st3" d="M1454.9,434.3l-51-1.6c-47.2-1.5-87.1,35.9-88.7,83.1l-1.6,51c-1.5,47.2,35.9,87.1,83.1,88.7l51,1.6
			c47.2,1.5,87.1-35.9,88.7-83.1l1.6-51C1539.5,475.7,1502.1,435.8,1454.9,434.3z"/>
	</g>
	<circle class="st9" cx="1412.9" cy="2807.1" r="517.6"/>
</g>
<g id="Capa_2">
	
		<linearGradient id="SVGID_2_" gradientUnits="userSpaceOnUse" x1="2535.7278" y1="2947.0208" x2="322.1705" y2="559.4982" gradientTransform="matrix(-1 0 0 1 2705.9907 0)">
		<stop  offset="0" style="stop-color:#381FCC"/>
		<stop  offset="0.2828" style="stop-color:#4243DA"/>
		<stop  offset="0.5705" style="stop-color:#4A60E5"/>
		<stop  offset="0.8194" style="stop-color:#4F72EC"/>
		<stop  offset="0.9995" style="stop-color:#5178EE"/>
	</linearGradient>
	<polygon class="st10" points="-537.3,3677.1 3243.3,3677.1 3243.3,-334.4 -537.3,-334.4 	"/>
	<g>
		<path class="st11" d="M1184.9,2428.2c143.2,6.4,232.7-40,285.1-85.1c16.2-118.2,31.8-231,31.8-231s279,3.9,328.5-267.3
			c34.8-190.6,74.2-559.5,94.6-761.9c-37.8,18-80,28.1-121.8,30.3c-88.4,4.6-175.7-22.2-256.8-57.6c-47.7-20.8-99.7-45.1-149.4-30.1
			c-47.5,14.3-83.3,62.7-132.9,63.3c-43.3,0.6-91.5-35.1-125.1-7.8c-13.7,11.2-18.9,29.5-23.4,46.6c-24.1,93-94.1,279.4-118.2,372.4
			c-20.8,7.2-37.3,3.1-52.3-6c-3.4,29.7-5.8,50-6.3,51.5c-0.7,2.5-39,7.7-81.7-1L815,2244C882.2,2315.9,1009.1,2420.3,1184.9,2428.2
			z M1390.5,1466.2c-20.4-1.5-34.1-39.9-30.6-85.7c3.5-45.8,22.8-81.7,43.1-80.1c20.4,1.5,34.1,39.9,30.6,85.7
			C1430.2,1431.9,1410.9,1467.7,1390.5,1466.2z M1834.5,1425.8c-3.5,45.8-22.8,81.7-43.1,80.1c-20.4-1.5-34.1-39.9-30.6-85.7
			c3.5-45.8,22.8-81.7,43.1-80.1C1824.2,1341.7,1837.9,1380,1834.5,1425.8z M1747.4,1323c13.2-7,34.6-12.2,57.9-8
			c23.3,4.2,41.5,16.7,51.3,27.9c10.1,11.3,12.6,20.6,10.2,22.3c-5.1,4-28.3-21.1-65.7-27.6c-37.3-7.1-67.9,8.2-71.2,2.7
			C1728.3,1337.8,1734,1330,1747.4,1323z M1609.7,1647.5c9.9,0.6,18.3-0.1,20.2-5.7c2.9-6,0.8-17.2-2.1-29.7
			c-5.8-28.1-11.1-54.1-16.6-81.1c-22.5-115.3-36.3-209.6-30.9-210.7c5.4-1.1,28.1,91.5,50.6,206.9c5,27.1,9.9,53.2,15.1,81.4
			c1.7,12,6.2,26.2-1.4,41.2c-10,16.3-28.2,12.9-36,11.9c-38.2-4.9-61.7-9.4-61.5-12.1C1547.3,1646.7,1571.2,1646.2,1609.7,1647.5z
			 M1593,1754.7c0,0-55.6,62.4-129.1,20.4c-76.3-43.6-45.5-105-45.5-105C1383.4,1640.3,1516.1,1745.5,1593,1754.7z M1330,1273
			c13.2-7,34.6-12.2,57.9-8c23.3,4.2,41.5,16.7,51.3,27.9c10.1,11.3,12.6,20.5,10.2,22.3c-5.1,4-28.3-21.1-65.7-27.6
			c-37.3-7.1-67.9,8.2-71.2,2.7C1310.9,1287.7,1316.6,1280,1330,1273z"/>
		<path class="st12" d="M1801.1,1337.6c37.4,6.5,60.6,31.6,65.7,27.6c2.4-1.7-0.2-11-10.2-22.3c-9.8-11.2-28.1-23.6-51.3-27.9
			c-23.3-4.2-44.7,1-57.9,8c-13.4,7-19.1,14.8-17.4,17.2C1733.3,1345.8,1763.8,1330.5,1801.1,1337.6z"/>
		<path class="st12" d="M1383.8,1287.5c37.4,6.5,60.6,31.6,65.7,27.6c2.4-1.7-0.2-11-10.2-22.3c-9.8-11.2-28.1-23.7-51.3-27.9
			c-23.3-4.2-44.7,1-57.9,8c-13.4,7-19.1,14.8-17.4,17.3C1315.9,1295.7,1346.4,1280.5,1383.8,1287.5z"/>
		<path class="st12" d="M1608.6,1661.6c7.8,1,26.1,4.4,36-11.9c7.6-15,3.1-29.2,1.4-41.2c-5.2-28.2-10.1-54.3-15.1-81.4
			c-22.5-115.3-45.1-207.9-50.6-206.9c-5.4,1.1,8.4,95.4,30.9,210.7c5.5,27,10.9,53,16.6,81.1c3,12.5,5.1,23.7,2.1,29.7
			c-1.9,5.6-10.3,6.3-20.2,5.7c-38.5-1.3-62.4-0.7-62.7,2C1546.8,1652.2,1570.4,1656.7,1608.6,1661.6z"/>
		<path class="st13" d="M1418.4,1670.2c0,0-30.8,61.4,45.5,105c73.5,42,129.1-20.4,129.1-20.4
			C1516.1,1745.5,1383.4,1640.3,1418.4,1670.2z"/>
		<path class="st12" d="M1056.2,713.1l1.4-0.3c-0.1-0.1-0.2-0.3-0.2-0.4C1056.9,712.6,1056.6,712.9,1056.2,713.1z"/>
		<path class="st12" d="M894.8,933.1l72.4-37.6c308.5-160.5,679.5-143,971.6,45.9c0,0-5.2,55.8-13.8,141.4
			c42.2-20.1,79.1-49.9,104.1-89.3c47.5-74.7,40.6-184.9-27.4-241.6c-74.3-61.8-186.9-44.2-274.1-85.9
			c-41.5-19.9-75.6-52.5-115.6-75.2c-87-49.4-195.8-47.4-291.2-17.5c-84.1,26.4-160.3,72.4-234.5,120.3
			c-4.9,11.8-9.5,21.3-13.3,27.2c0,4.1-0.7,6.7-2.1,7.2c-0.8,0.3-1.8-0.1-3-1c-0.9,0.6-1.7,0.9-2.4,0.7c-1.4-0.4-2.1-2.6-2.3-6.1
			c-1.7-2.4-3.5-5.3-5.4-8.8l-1.4,0.3c0.4-0.3,0.8-0.5,1.2-0.8c-3.9-7.1-8.1-16.2-12.6-26.7c-32.1-21-79-20.9-113.8-1.6
			c-45.2,25.1-72.6,73.5-89.3,122.5c-45.4,132.8-27.1,273.7-11.6,415.3c12.4-7.3,25.1-12.1,37.7-14.9L894.8,933.1z"/>
		<path class="st12" d="M967.1,895.5l-72.4,37.6l-27,273.9c54.2-12.1,105.1,11.5,107.7,13.5c0,0-20,181.8-30.5,273.5
			c15.1,9.1,31.5,13.3,52.3,6c24.1-93,94.1-279.4,118.2-372.4c4.4-17.1,9.6-35.5,23.4-46.6c33.6-27.3,81.8,8.3,125.1,7.8
			c49.7-0.6,85.4-49,132.9-63.3c49.8-15,101.8,9.4,149.4,30.1c81.2,35.4,168.4,62.2,256.8,57.6c41.8-2.2,83.9-12.3,121.8-30.3
			c8.6-85.6,13.8-141.4,13.8-141.4C1646.6,752.5,1275.7,734.9,967.1,895.5z"/>
		<path class="st11" d="M858.7,1465.9c-4.9-0.6-10.2-2.1-15.6-4.8c-29.6-16.2-43-62.4-34.6-106.7c4.3-22.5,14.2-42.6,26.7-58
			c0.7-0.9,1.4-1.8,2.1-2.7c-2.1-23.9-4.7-47.8-7.3-71.7c-33.9,20.1-64.9,60-81.4,134.5c-29.1,131.1,44.4,175.2,108.4,188.2l0-0.2
			L858.7,1465.9z"/>
		<path class="st11" d="M839.3,1316.2c-7,12-12.5,26-15.4,41.1c-7.7,39.6,3.6,80.6,24.8,94.2c3.4,2.2,6.8,3.7,10.2,4.7l0.5-22.6
			c-5.1-1.6-10.5-2.7-16.2-3.3C844,1392.5,842.3,1354.4,839.3,1316.2z"/>
		<path class="st11" d="M938.7,1545.5c0.4-1.5,2.9-21.8,6.3-51.5c-27.3-16.5-50-49.4-85.6-60.4l-0.5,22.6c7,2.1,13.7,2,18.4,1
			c7.1-1.5,10.7-4.3,11.5-3.3c0.7,0.6-1.6,5.2-9.5,9.1c-4.9,2.3-12.2,3.9-20.5,2.9l-1.7,78.4l0,0.2
			C899.7,1553.2,938,1548,938.7,1545.5z"/>
		<path class="st11" d="M862.8,1274.1l0.4-20.1l4.6-47c-12.6,2.8-25.3,7.5-37.7,14.9c2.6,23.9,5.2,47.8,7.3,71.7
			C844.3,1285.2,853.3,1278.1,862.8,1274.1z"/>
		<path class="st11" d="M846.7,1305.1c-2.6,3.5-5,7.2-7.3,11.1c3,38.2,4.7,76.3,3.8,114.1c5.7,0.6,11.1,1.7,16.2,3.3l3.1-144.8
			C856.8,1292.8,851.5,1298.3,846.7,1305.1z"/>
		<path class="st11" d="M867.8,1207l-4.6,47l-0.4,20.1c6.5-2.7,13.3-3.9,19.9-2.9c8.3,0.9,15.5,4.8,19.8,10.2
			c4.2,5.3,5.6,11.1,5.6,15.6c-0.3,9.4-5.3,12.7-5.8,12c-1.1-0.6,1.3-4.7-0.3-11.4c-1.3-6.7-8-15.5-20.2-15.4
			c-6.4-0.3-13,2.1-19.4,6.6l-3.1,144.8c35.6,11,58.3,43.9,85.6,60.4c10.5-91.7,30.5-273.5,30.5-273.5
			C972.9,1218.6,922,1195,867.8,1207z"/>
		<path class="st14" d="M823.9,1357.3c2.9-15.1,8.4-29.1,15.4-41.1c-0.6-7.5-1.2-15.1-1.9-22.6c-0.7,0.9-1.4,1.8-2.1,2.7
			c-12.5,15.4-22.4,35.5-26.7,58c-8.4,44.3,5,90.6,34.6,106.7c5.4,2.8,10.7,4.2,15.6,4.8l0.2-9.6c-3.4-1-6.8-2.5-10.2-4.7
			C827.5,1437.9,816.2,1396.9,823.9,1357.3z"/>
		<path class="st14" d="M879.2,1463c8-3.9,10.2-8.5,9.5-9.1c-0.8-0.9-4.4,1.8-11.5,3.3c-4.7,1-11.3,1.1-18.4-1l-0.2,9.6
			C867.1,1466.9,874.4,1465.3,879.2,1463z"/>
		<path class="st14" d="M846.7,1305.1c4.8-6.8,10.2-12.4,15.8-16.3l0.3-14.7c-9.5,3.9-18.4,11.1-25.3,19.4
			c0.7,7.5,1.3,15.1,1.9,22.6C841.6,1312.3,844.1,1308.6,846.7,1305.1z"/>
		<path class="st14" d="M881.8,1282.3c12.2-0.1,18.8,8.7,20.2,15.4c1.6,6.8-0.8,10.8,0.3,11.4c0.5,0.7,5.5-2.6,5.8-12
			c0.1-4.5-1.4-10.3-5.6-15.6c-4.3-5.4-11.5-9.3-19.8-10.2c-6.6-1-13.3,0.2-19.9,2.9l-0.3,14.7
			C868.8,1284.4,875.4,1282,881.8,1282.3z"/>
		<path class="st12" d="M1086.1,693.7c4.9-11.9,10.1-26.3,14.9-41.9c13.7-43.9,19.8-80.9,13.7-82.8c-6.1-1.9-22.1,32.1-35.8,76
			c-4.9,15.9-8.9,30.8-11.6,43.6c1.4,5.5,2.5,10.6,3.4,15.2C1075.8,700.3,1080.9,697,1086.1,693.7z"/>
		<path class="st12" d="M1072.8,720.9c3.8-5.9,8.4-15.4,13.3-27.2c-5.1,3.3-10.3,6.7-15.4,10C1072,710.8,1072.8,716.7,1072.8,720.9z
			"/>
		<path class="st12" d="M1062.9,721.6c0.2,3.6,1,5.7,2.3,6.1c0.7,0.2,1.5,0,2.4-0.7C1066.3,726,1064.7,724.1,1062.9,721.6z"/>
		<path class="st12" d="M1064.4,703.7c0.7-4.6,1.7-9.7,2.9-15.3c-3.1-12.4-7.4-26.8-12.7-42.1c-14.9-43-31.9-76.2-37.9-74.1
			c-6,2.1,1.1,38.7,16.1,81.7c4,11.4,8.1,22.1,12.1,31.7C1052.2,690.6,1058.9,696.6,1064.4,703.7z"/>
		<path class="st12" d="M1063.4,711.5l-5.8,1.3c1.9,3.5,3.7,6.4,5.4,8.8C1062.8,719,1062.9,715.6,1063.4,711.5z"/>
		<path class="st12" d="M1063.8,708.2c-2.1,1.4-4.3,2.8-6.4,4.2c0.1,0.1,0.2,0.3,0.2,0.4l5.8-1.3
			C1063.5,710.5,1063.6,709.3,1063.8,708.2z"/>
		<path class="st12" d="M1063.8,708.2c0.2-1.4,0.4-2.9,0.6-4.4c-5.5-7.2-12.2-13.2-19.6-18.1c4.4,10.5,8.7,19.6,12.6,26.7
			C1059.5,711,1061.6,709.6,1063.8,708.2z"/>
		<path class="st12" d="M1067.6,727.1c1.2,0.9,2.2,1.3,3,1c1.5-0.5,2.1-3,2.1-7.2C1070.8,723.9,1069.1,726,1067.6,727.1z"/>
		<path class="st12" d="M1066.4,706.4c1.4-0.9,2.8-1.8,4.3-2.8c-0.9-4.6-2-9.7-3.4-15.2c-1.2,5.6-2.2,10.7-2.9,15.3
			C1065.1,704.6,1065.8,705.5,1066.4,706.4z"/>
		<path class="st12" d="M1064.4,703.7c-0.2,1.5-0.5,3-0.6,4.4c0.9-0.6,1.8-1.2,2.7-1.7C1065.8,705.5,1065.1,704.6,1064.4,703.7z"/>
		<path class="st12" d="M1069,710.3c-0.8-1.3-1.7-2.6-2.5-3.8c-0.9,0.6-1.8,1.2-2.7,1.7c-0.2,1.2-0.3,2.3-0.4,3.4L1069,710.3z"/>
		<path class="st12" d="M1070.7,703.7c-1.4,0.9-2.8,1.8-4.3,2.8c0.9,1.3,1.7,2.5,2.5,3.8l-5.6,1.2c-0.4,4-0.6,7.5-0.4,10.1
			c1.8,2.5,3.3,4.4,4.7,5.4c1.5-1,3.2-3.1,5.2-6.1C1072.8,716.7,1072,710.8,1070.7,703.7z"/>
		
			<ellipse transform="matrix(7.516108e-02 -0.9972 0.9972 7.516108e-02 243.4396 3108.5728)" class="st12" cx="1797.6" cy="1423" rx="83.1" ry="37"/>
		
			<ellipse transform="matrix(7.516133e-02 -0.9972 0.9972 7.516133e-02 -87.5918 2672.1438)" class="st12" cx="1396.8" cy="1383.3" rx="83.1" ry="37"/>
		<path class="st15" d="M-6.2,2933.8l2391.3-5.3l-81.1-335.9c0,0-238.8-201.4-770.2-328.2c0,0-17.4,38.8-63.8,78.7
			c-13.9,101.7-28.3,207.4-33.5,248.5c-0.1,0.9-1,1.2-1.8,0.9L809.7,2332l5.3-88c-36-38.5-54.9-67.7-54.9-67.7
			s-344.6,58.9-766.3,244.2C-6.2,2585.1-6.2,2933.8-6.2,2933.8z M1825.9,2485.3C1155.5,3011,504,2346.9,504,2346.9
			S1155.5,3011,1825.9,2485.3z"/>
		<path class="st15" d="M1434.6,2592.4c0.8,0.3,1.7,0,1.8-0.9c5.2-41.1,19.6-146.7,33.5-248.5c-52.4,45.1-141.9,91.5-285.1,85.1
			c-175.8-7.9-302.7-112.2-369.9-184.1l-5.3,88L1434.6,2592.4z"/>
		<path class="st15" d="M2691.9,2928.4c-230.2-233.4-387.9-335.9-387.9-335.9c53.4,121.1-6.5,199,40.5,335.9
			C2344.5,2928.4,2584.5,2928.4,2691.9,2928.4z"/>
	</g>
</g>
</svg>
