<?xml version="1.0" encoding="utf-8"?>
<!-- Generator: Adobe Illustrator 22.0.0, SVG Export Plug-In . SVG Version: 6.00 Build 0)  -->
<svg version="1.1" xmlns="http://www.w3.org/2000/svg" xmlns:xlink="http://www.w3.org/1999/xlink" x="0px" y="0px"
	 viewBox="0 0 454.2 428.8" style="enable-background:new 0 0 454.2 428.8;" xml:space="preserve">
<style type="text/css">
	.st0{fill:#E0E0E0;}
	.st1{fill:#EBEBEB;}
	.st2{fill:#FAFAFA;}
	.st3{fill:#F5F5F5;}
	.st4{fill:none;stroke:#263238;stroke-width:0.5;stroke-linecap:round;stroke-linejoin:round;stroke-miterlimit:10;}
	.st5{fill:#E8505B;}
	.st6{fill:#39385E;}
	.st7{fill:#FFFFFF;}
	.st8{fill:#5430EF;}
	.st9{fill:#FFBE9D;}
	.st10{fill:#EB996E;}
	.st11{fill:#AA6550;}
	.st12{fill:#995037;}
	.st13{fill:#455A64;}
	.st14{fill:none;stroke:#839198;stroke-miterlimit:10;}
	.st15{fill:none;stroke:#6C54F7;stroke-miterlimit:10;}
	.st16{fill:none;stroke:#56567C;stroke-miterlimit:10;}
	.st17{fill:none;stroke:#BA3848;stroke-miterlimit:10;}
</style>
<g id="Background_Complete">
</g>
<g id="Analysis">
</g>
<g id="Character_2">
</g>
<g id="Character_1">
	<g>
		<g>
			<g>
				<path class="st0" d="M335.8,1.3c0,0,15.3,0.2,8.7,30.5c-6.5,30.3-5.7,36-5.7,48c0,14,11.3,19.1,11.3,19.1h-20.7l-15.3-70.7V1.3
					H335.8z"/>
			</g>
			<g>
				<polygon class="st0" points="340.3,239.7 131,239.7 132.8,34.8 330,24.5 				"/>
			</g>
			<g>
				<polygon class="st1" points="333.2,234.4 123.8,234.4 125.6,29.5 328.9,25.6 				"/>
			</g>
			<g>
				<g>
					<polygon class="st2" points="328.8,228.7 119.9,228.7 119.9,23.8 328.9,23.3 					"/>
				</g>
			</g>
			<g>
				<path class="st3" d="M328.9,23c-10.8-12.7,1.7-22.1,6-22.3l-199-0.1c-10.4,0-18.3,9.5-16.5,19.8c0.3,1.6,0.8,3.1,0.8,3.1"/>
			</g>
			<g>
				<g>
					<path class="st4" d="M312.8,159.8c0,0-0.2,0-0.7,0c-0.5,0-1.1,0-1.9,0c-1.7,0-4.2,0-7.4,0c-6.4,0-15.7,0-27.2,0.1
						c-23,0-54.6,0-89.6,0.1c-13.6,0-26.6,0-38.6,0l-0.2,0l0-0.2c0-25.6,0.1-47.6,0.1-63.3c0-7.8,0.1-14,0.1-18.3c0-2.1,0-3.8,0-4.9
						c0-0.5,0-1,0-1.3c0-0.3,0-0.4,0-0.4s0,0.1,0,0.4c0,0.3,0,0.7,0,1.3c0,1.1,0,2.8,0,4.9c0,4.3,0,10.5,0.1,18.3
						c0,15.6,0.1,37.7,0.1,63.3l-0.2-0.2c12,0,25.1,0,38.6,0c35,0,66.7,0.1,89.6,0.1c11.5,0,20.7,0.1,27.2,0.1c3.2,0,5.7,0,7.4,0
						c0.8,0,1.5,0,1.9,0C312.6,159.8,312.8,159.8,312.8,159.8z"/>
				</g>
			</g>
			<g>
				<rect x="160.9" y="138" class="st5" width="16.7" height="16.7"/>
			</g>
			<g>
				<rect x="185.4" y="126.1" class="st5" width="16.7" height="28.6"/>
			</g>
			<g>
				<rect x="210" y="112.5" class="st5" width="16.7" height="42.2"/>
			</g>
			<g>
				<rect x="233.8" y="97.4" class="st5" width="16.7" height="57.3"/>
			</g>
			<g>
				<rect x="258.2" y="78.1" class="st5" width="16.7" height="76.7"/>
			</g>
			<g>
				<rect x="282.4" y="63.3" class="st5" width="16.7" height="90.6"/>
			</g>
			<g>
				<g>
					<path class="st4" d="M160.9,120.9c0,0,0.1-0.1,0.2-0.2c0.2-0.1,0.4-0.3,0.7-0.4c0.6-0.4,1.5-1,2.5-1.7c2.3-1.5,5.5-3.6,9.6-6.3
						c8.2-5.4,19.8-12.9,33.2-21.7l0.4-0.3l0,0.5c0,2.4,0,4.9,0,7.5l-0.4-0.2c4.2-2.8,8.6-5.8,13.1-8.8c18-12,34.3-22.9,46.1-30.8
						c5.9-3.9,10.7-7.1,14-9.3c1.6-1.1,2.9-1.9,3.8-2.5c0.4-0.3,0.8-0.5,1-0.6c0.2-0.1,0.3-0.2,0.4-0.2c0,0-0.1,0.1-0.3,0.2
						c-0.2,0.2-0.6,0.4-1,0.7c-0.9,0.6-2.1,1.5-3.8,2.6c-3.3,2.2-8.1,5.5-13.9,9.4c-11.8,7.9-28.1,18.9-46,30.9
						c-4.5,3-8.8,5.9-13.1,8.8l-0.4,0.3l0-0.5c0-2.6,0-5.1,0-7.5l0.4,0.2c-13.4,8.7-25,16.2-33.3,21.5c-4.1,2.6-7.4,4.7-9.7,6.2
						c-1.1,0.7-2,1.2-2.6,1.6c-0.3,0.2-0.5,0.3-0.7,0.4C161,120.9,160.9,120.9,160.9,120.9z"/>
				</g>
			</g>
			<g>
				<g>
					<path class="st6" d="M285.4,53c-0.1,0-0.1-0.8-0.2-2.1c0-1.3-0.1-3.1-0.1-5l0.3,0.3c-0.2,0-0.4,0-0.6,0c-2.1,0-4.1,0-5.5-0.1
						c-1.4,0-2.3-0.1-2.3-0.2c0-0.1,0.9-0.1,2.3-0.2c1.4,0,3.3-0.1,5.5-0.1c0.2,0,0.4,0,0.6,0l0.3,0l0,0.3c0,2,0,3.8-0.1,5
						C285.5,52.2,285.4,53,285.4,53z"/>
				</g>
			</g>
			<g>
				<g>
					<g>
						<path class="st6" d="M197.1,173.3c0,0.1-5.2,0.3-11.5,0.3c-6.4,0-11.5-0.1-11.5-0.3s5.2-0.3,11.5-0.3
							C191.9,173,197.1,173.1,197.1,173.3z"/>
					</g>
				</g>
				<g>
					<g>
						<path class="st6" d="M185.2,181.2c-0.1,0-0.3-1.2-0.3-2.7c0-1.5,0.1-2.7,0.3-2.7c0.1,0,0.3,1.2,0.3,2.7
							C185.5,180,185.4,181.2,185.2,181.2z"/>
					</g>
				</g>
				<g>
					<g>
						<path class="st6" d="M213.5,183.9c0,0.1-13.9,0.3-31,0.3c-17.1,0-31-0.1-31-0.3c0-0.1,13.9-0.3,31-0.3
							C199.6,183.6,213.5,183.7,213.5,183.9z"/>
					</g>
				</g>
				<g>
					<g>
						<path class="st6" d="M152,191.6c-0.1,0-0.3-1.7-0.3-3.7c0-2.1,0.1-3.7,0.3-3.7s0.3,1.7,0.3,3.7
							C152.3,189.9,152.1,191.6,152,191.6z"/>
					</g>
				</g>
				<g>
					<g>
						<path class="st6" d="M174,190.7c-0.1,0-0.3-1.4-0.3-3.2c0-1.8,0.1-3.2,0.3-3.2c0.1,0,0.3,1.4,0.3,3.2
							C174.3,189.3,174.2,190.7,174,190.7z"/>
					</g>
				</g>
				<g>
					<g>
						<path class="st6" d="M196.7,191.2c-0.1,0-0.3-1.6-0.3-3.5c0-2,0.1-3.5,0.3-3.5c0.1,0,0.3,1.6,0.3,3.5
							C196.9,189.6,196.8,191.2,196.7,191.2z"/>
					</g>
				</g>
				<g>
					<g>
						<path class="st6" d="M213.9,191.2c-0.1,0-0.3-1.6-0.3-3.6c0-2,0.1-3.6,0.3-3.6c0.1,0,0.3,1.6,0.3,3.6
							C214.2,189.5,214.1,191.2,213.9,191.2z"/>
					</g>
				</g>
				<g>
					<g>
						<path class="st6" d="M159.7,193.6c0,0.1-3.3,0.3-7.5,0.3c-4.1,0-7.5-0.1-7.5-0.3c0-0.1,3.3-0.3,7.5-0.3
							C156.3,193.4,159.7,193.5,159.7,193.6z"/>
					</g>
				</g>
				<g>
					<g>
						<path class="st6" d="M178.8,193.6c0,0.1-2.6,0.3-5.7,0.3c-3.2,0-5.7-0.1-5.7-0.3c0-0.1,2.6-0.3,5.7-0.3
							C176.2,193.4,178.8,193.5,178.8,193.6z"/>
					</g>
				</g>
				<g>
					<g>
						<path class="st6" d="M203.1,194.3c0,0.1-2.7,0.3-6.1,0.3c-3.4,0-6.1-0.1-6.1-0.3s2.7-0.3,6.1-0.3
							C200.4,194,203.1,194.1,203.1,194.3z"/>
					</g>
				</g>
				<g>
					<g>
						<path class="st6" d="M222.9,193.2c0,0.1-2.9,0.3-6.5,0.3c-3.6,0-6.5-0.1-6.5-0.3c0-0.1,2.9-0.3,6.5-0.3
							C219.9,193,222.9,193.1,222.9,193.2z"/>
					</g>
				</g>
				<g>
					<g>
						<g>
							<path class="st6" d="M152.2,200.9c-0.1,0-0.3-1-0.3-2.2c0-1.2,0.1-2.2,0.3-2.2s0.3,1,0.3,2.2
								C152.5,199.9,152.3,200.9,152.2,200.9z"/>
						</g>
					</g>
					<g>
						<g>
							<path class="st6" d="M166.4,200.9c0,0.1-6,0.3-13.5,0.3c-7.5,0-13.5-0.1-13.5-0.3c0-0.1,6-0.3,13.5-0.3
								C160.4,200.7,166.4,200.8,166.4,200.9z"/>
						</g>
					</g>
					<g>
						<g>
							<path class="st6" d="M166.4,207.2c-0.1,0-0.3-1.4-0.3-3.1c0-1.7,0.1-3.1,0.3-3.1s0.3,1.4,0.3,3.1
								C166.7,205.8,166.6,207.2,166.4,207.2z"/>
						</g>
					</g>
					<g>
						<g>
							<path class="st6" d="M139.4,207.6c-0.1,0-0.3-1.5-0.3-3.3c0-1.8,0.1-3.3,0.3-3.3s0.3,1.5,0.3,3.3
								C139.7,206.1,139.6,207.6,139.4,207.6z"/>
						</g>
					</g>
				</g>
				<g>
					<g>
						<g>
							<path class="st6" d="M197.2,200.9c-0.1,0-0.3-1-0.3-2.2c0-1.2,0.1-2.2,0.3-2.2c0.1,0,0.3,1,0.3,2.2
								C197.5,199.9,197.4,200.9,197.2,200.9z"/>
						</g>
					</g>
					<g>
						<g>
							<path class="st6" d="M230.1,200.9c0,0.1-10.2,0.3-22.8,0.3c-12.6,0-22.8-0.1-22.8-0.3c0-0.1,10.2-0.3,22.8-0.3
								C219.8,200.7,230.1,200.8,230.1,200.9z"/>
						</g>
					</g>
					<g>
						<g>
							<path class="st6" d="M211.4,207.2c-0.1,0-0.3-1.4-0.3-3.1c0-1.7,0.1-3.1,0.3-3.1c0.1,0,0.3,1.4,0.3,3.1
								C211.7,205.8,211.6,207.2,211.4,207.2z"/>
						</g>
					</g>
					<g>
						<g>
							<path class="st6" d="M231,207.2c-0.1,0-0.3-1.4-0.3-3.1c0-1.7,0.1-3.1,0.3-3.1s0.3,1.4,0.3,3.1
								C231.3,205.8,231.1,207.2,231,207.2z"/>
						</g>
					</g>
					<g>
						<g>
							<path class="st6" d="M184.4,207.6c-0.1,0-0.3-1.5-0.3-3.3c0-1.8,0.1-3.3,0.3-3.3s0.3,1.5,0.3,3.3
								C184.7,206.1,184.6,207.6,184.4,207.6z"/>
						</g>
					</g>
				</g>
				<g>
					<g>
						<path class="st6" d="M144.7,211.4c0,0.1-2.4,0.3-5.3,0.3c-2.9,0-5.3-0.1-5.3-0.3c0-0.1,2.4-0.3,5.3-0.3
							C142.4,211.1,144.7,211.3,144.7,211.4z"/>
					</g>
				</g>
				<g>
					<g>
						<path class="st6" d="M171.2,210.6c0,0.1-2.6,0.3-5.8,0.3c-3.2,0-5.8-0.1-5.8-0.3s2.6-0.3,5.8-0.3
							C168.6,210.4,171.2,210.5,171.2,210.6z"/>
					</g>
				</g>
				<g>
					<g>
						<path class="st6" d="M190.3,210.6c0,0.1-2.3,0.3-5.1,0.3c-2.8,0-5.1-0.1-5.1-0.3s2.3-0.3,5.1-0.3
							C188,210.4,190.3,210.5,190.3,210.6z"/>
					</g>
				</g>
				<g>
					<g>
						<path class="st6" d="M216.1,210.6c0,0.1-2.5,0.3-5.5,0.3c-3,0-5.5-0.1-5.5-0.3s2.5-0.3,5.5-0.3
							C213.6,210.4,216.1,210.5,216.1,210.6z"/>
					</g>
				</g>
				<g>
					<g>
						<path class="st6" d="M236.7,209.9c0,0.1-2.5,0.3-5.6,0.3c-3.1,0-5.6-0.1-5.6-0.3c0-0.1,2.5-0.3,5.6-0.3
							C234.2,209.7,236.7,209.8,236.7,209.9z"/>
					</g>
				</g>
			</g>
			<g>
				<g>
					<path class="st7" d="M312.7,214h-70.5v-43.7h70.5V214z"/>
				</g>
				<g>
					<g>
						<path class="st5" d="M295.6,201.9c-4.9-1.9-10.5,3.3-15.3,1.2c-2.8-1.2-4.1-4.4-5.4-7.1c-1.4-2.7-3.7-5.6-6.7-5.3
							c-3.1,0.3-5.5,3.9-8.5,3c-1.9-0.5-2.8-2.6-3.3-4.5c-0.5-1.9-0.8-4-2.2-5.3c-1.4-1.3-4.4-1-4.6,1v23.1h55.1
							C304.8,208.1,297.3,202.5,295.6,201.9z"/>
					</g>
				</g>
				<g>
					<g>
						<g>
							<path class="st0" d="M306.3,208.1c0,0-13.4,0.1-29.8,0.1c-16.5,0-29.8,0-29.8-0.1c0,0,13.4-0.1,29.8-0.1
								C292.9,208,306.3,208,306.3,208.1z"/>
						</g>
					</g>
				</g>
				<g>
					<g>
						<g>
							<path class="st6" d="M306.3,198c0,0-13.4,0.1-29.8,0.1c-16.5,0-29.8,0-29.8-0.1s13.4-0.1,29.8-0.1
								C292.9,197.9,306.3,197.9,306.3,198z"/>
						</g>
					</g>
				</g>
				<g>
					<g>
						<g>
							<path class="st6" d="M306.3,187.9c0,0-13.4,0.1-29.8,0.1c-16.5,0-29.8,0-29.8-0.1s13.4-0.1,29.8-0.1
								C292.9,187.8,306.3,187.8,306.3,187.9z"/>
						</g>
					</g>
				</g>
				<g>
					<g>
						<g>
							<path class="st6" d="M306.3,178.3c0,0-13.4,0.1-29.8,0.1c-16.5,0-29.8,0-29.8-0.1s13.4-0.1,29.8-0.1
								C292.9,178.2,306.3,178.2,306.3,178.3z"/>
						</g>
					</g>
				</g>
			</g>
			<g>
				<g>
					<g>
						<path class="st1" d="M169,76c0,0-2,18.4,0.6,28.5l24.6-1.1c0,0-5.3-18.2-2-26.3L169,76z"/>
					</g>
				</g>
				<g>
					<g>
						<g>
							<path class="st8" d="M169.1,75.4c0,0,0.2,19.9,1.2,26l25-1.2c0,0-2.2-19.6-1.4-24.8H169.1z"/>
						</g>
					</g>
					<g>
						<g>
							<g>
								<path class="st7" d="M190.2,83.8c0,0.1-3.7,0.4-8.4,0.7c-4.6,0.3-8.4,0.4-8.4,0.3c0-0.1,3.7-0.4,8.4-0.7
									C186.4,83.9,190.2,83.7,190.2,83.8z"/>
							</g>
						</g>
					</g>
					<g>
						<g>
							<g>
								<path class="st7" d="M190.2,88c0,0.1-3.7,0.4-8.4,0.7c-4.6,0.3-8.4,0.4-8.4,0.3c0-0.1,3.7-0.4,8.4-0.7
									C186.4,88.1,190.2,87.9,190.2,88z"/>
							</g>
						</g>
					</g>
					<g>
						<g>
							<g>
								<path class="st7" d="M185.9,92.2c0,0-0.5,0.1-1.4,0.2c-0.9,0.1-2.1,0.2-3.4,0.3c-1.3,0.1-2.5,0.1-3.4,0.2
									c-0.9,0-1.4,0-1.4,0c0,0,0.5-0.1,1.4-0.2s2.1-0.2,3.4-0.3c1.3-0.1,2.5-0.1,3.4-0.2C185.4,92.1,185.9,92.1,185.9,92.2z"/>
							</g>
						</g>
					</g>
				</g>
			</g>
		</g>
	</g>
	<g>
		<g>
			<g>
				<g>
					<g>
						<g>
							<g>
								<g>
									<path class="st5" d="M352,386.6l-1.6,20.5c0,0-20.3,6.5-20.4,10.3l55.3,0.5l1.2-31.4L352,386.6z"/>
								</g>
							</g>
						</g>
					</g>
					<g>
						<g>
							<g>
								<g>
									<path class="st6" d="M349.7,398.1c0,0.1,0.8,0.2,2-0.1c0.6-0.1,1.3-0.3,2.1-0.7c0.4-0.2,0.7-0.4,1.1-0.6
										c0.2-0.1,0.4-0.2,0.6-0.5c0.2-0.2,0.3-0.7,0.1-1c-0.2-0.3-0.6-0.4-0.9-0.4c-0.3,0-0.5,0.1-0.7,0.1
										c-0.4,0.1-0.8,0.3-1.2,0.5c-0.7,0.4-1.4,0.8-1.8,1.3c-0.9,0.9-1.2,1.6-1.1,1.7c0.1,0.1,0.5-0.6,1.4-1.3
										c0.5-0.4,1-0.7,1.7-1.1c0.4-0.2,0.7-0.3,1.1-0.4c0.4-0.1,0.8-0.1,0.9,0c0,0.1,0,0.1,0,0.2c-0.1,0.1-0.3,0.2-0.4,0.4
										c-0.3,0.2-0.7,0.4-1,0.6c-0.7,0.4-1.3,0.6-1.9,0.8C350.4,397.9,349.7,398,349.7,398.1z"/>
								</g>
							</g>
						</g>
					</g>
				</g>
				<g>
					<g>
						<path class="st5" d="M437.8,383.2l4.6,24l9.1,17.9c0.7,1.3,0.1,2.9-1.3,3.4l0,0c-0.7,0.3-1.6,0.3-2.3-0.2
							c-4.4-2.7-37.1-9.4-37.3-11.2c-0.3-2.1-6.5-25-6.5-25L437.8,383.2z"/>
					</g>
				</g>
				<g>
					<path class="st6" d="M351.7,197.9c-0.3,0-3.3,201.1-3.3,201.1l40.4-0.2l1-44.5l0.9-25.5l0.2-24l12.8,97.7l40.9-9.4l-30.9-196.6
						l-29.1-5.6L351.7,197.9z"/>
				</g>
				<g>
					<g>
						<g>
							<path class="st6" d="M397.9,87.8c1.7-3.3,2.2-9.3,0.3-12.7c-1.9-3.3-5.9-5.7-9.6-6.8c-0.6-0.2-1.3-0.3-1.9-0.1
								c-0.6,0.2-1.1,0.9-0.9,1.5c-0.7-0.5-1.5-1.1-2.3-1.3c-0.9-0.3-1.9-0.2-2.5,0.4c-0.7,0.6-0.9,1.7-0.2,2.4
								c-1-0.5-2.3-0.3-3.1,0.5c-0.8,0.8-1.2,2-0.8,3.1c0.3,1,1.2,2.2,1.9,3c0.7,0.8,0.8,1.5,0.6,2.6"/>
						</g>
					</g>
					<g>
						<g>
							<g>
								<g>
									<g>
										<g>
											<g>
												<g>
													<g>
														<g>
															<g>
																<g>
																	<g>
																		<g>
																			<g>
																				<g>
																					<g>
																						<path class="st9" d="M383.9,115.3c0.1-1.6,0.4-16.1,0.4-16.2c0,0-5.4-0.7-5.6-6c-0.1-2.6,0.1-7.9,0.3-12.8
																							c0.3-5.2,4.5-9.3,9.7-9.5l0.5,0c5.6,0.2,8.6,5,8.3,10.6l-0.8,31"/>
																					</g>
																				</g>
																			</g>
																		</g>
																	</g>
																</g>
															</g>
														</g>
													</g>
												</g>
												<g>
													<g>
														<g>
															<g>
																<g>
																	<g>
																		<g>
																			<g>
																				<g>
																					<g>
																						<path class="st10" d="M384.3,99.2c0,0,3.4,0.1,6.9-2.3c0,0-1.6,3.4-7,3L384.3,99.2z"/>
																					</g>
																				</g>
																			</g>
																		</g>
																	</g>
																</g>
															</g>
														</g>
													</g>
												</g>
											</g>
										</g>
									</g>
									<g>
										<g>
											<g>
												<g>
													<g>
														<g>
															<g>
																<g>
																	<g>
																		<g>
																			<g>
																				<g>
																					<g>
																						<g>
																							<g>
																								<g>
																									<path class="st6" d="M380.9,84.6c0,0.8,0.3,1.4,0.7,1.4c0.4,0,0.7-0.6,0.7-1.4c0-0.8-0.3-1.4-0.6-1.4
																										C381.2,83.2,380.9,83.8,380.9,84.6z"/>
																								</g>
																							</g>
																						</g>
																					</g>
																				</g>
																			</g>
																		</g>
																	</g>
																</g>
															</g>
															<g>
																<g>
																	<g>
																		<g>
																			<g>
																				<g>
																					<g>
																						<g>
																							<g>
																								<g>
																									<g>
																										<path class="st6" d="M380.2,83c0.1,0.1,0.7-0.4,1.5-0.4c0.8,0,1.4,0.4,1.5,0.3c0,0-0.1-0.2-0.3-0.4
																											c-0.3-0.2-0.7-0.4-1.2-0.3c-0.5,0-0.9,0.2-1.2,0.4C380.3,82.7,380.2,82.9,380.2,83z"/>
																									</g>
																								</g>
																							</g>
																						</g>
																					</g>
																				</g>
																			</g>
																		</g>
																	</g>
																</g>
															</g>
														</g>
														<g>
															<g>
																<g>
																	<g>
																		<g>
																			<g>
																				<g>
																					<g>
																						<g>
																							<g>
																								<g>
																									<path class="st6" d="M388.6,84.7c0,0.8,0.3,1.5,0.6,1.5c0.4,0,0.7-0.6,0.7-1.5c0-0.8-0.3-1.5-0.6-1.5
																										C388.9,83.3,388.6,83.9,388.6,84.7z"/>
																								</g>
																							</g>
																						</g>
																					</g>
																				</g>
																			</g>
																		</g>
																	</g>
																</g>
															</g>
															<g>
																<g>
																	<g>
																		<g>
																			<g>
																				<g>
																					<g>
																						<g>
																							<g>
																								<g>
																									<g>
																										<path class="st6" d="M388.3,82.9c0.1,0.1,0.7-0.4,1.5-0.4c0.8,0,1.4,0.4,1.5,0.3c0,0-0.1-0.2-0.3-0.4
																											c-0.3-0.2-0.7-0.4-1.2-0.3c-0.5,0-0.9,0.2-1.2,0.4C388.4,82.6,388.3,82.8,388.3,82.9z"/>
																									</g>
																								</g>
																							</g>
																						</g>
																					</g>
																				</g>
																			</g>
																		</g>
																	</g>
																</g>
															</g>
														</g>
														<g>
															<g>
																<g>
																	<g>
																		<g>
																			<g>
																				<g>
																					<g>
																						<g>
																							<g>
																								<g>
																									<path class="st6" d="M385.5,89.1c0,0-0.5-0.1-1.3-0.2c-0.2,0-0.4-0.1-0.5-0.2c-0.1-0.2,0-0.4,0.1-0.6
																										c0.2-0.5,0.4-1.1,0.6-1.6c0.8-2.3,1.4-4.2,1.3-4.2c-0.1,0-0.8,1.8-1.6,4.1c-0.2,0.6-0.4,1.1-0.5,1.6
																										c-0.1,0.2-0.2,0.5-0.1,0.8c0.1,0.2,0.2,0.3,0.4,0.3c0.1,0,0.3,0,0.4,0C385,89.1,385.5,89.1,385.5,89.1z"/>
																								</g>
																							</g>
																						</g>
																					</g>
																				</g>
																			</g>
																		</g>
																	</g>
																</g>
															</g>
														</g>
														<g>
															<g>
																<g>
																	<g>
																		<g>
																			<g>
																				<g>
																					<g>
																						<g>
																							<g>
																								<g>
																									<path class="st6" d="M388,89.5c-0.1,0-0.1,0.9-0.9,1.5c-0.7,0.7-1.7,0.6-1.7,0.7c0,0.1,0.2,0.2,0.6,0.2
																										c0.4,0,1-0.1,1.4-0.5c0.5-0.4,0.6-0.9,0.7-1.3C388.1,89.8,388,89.5,388,89.5z"/>
																								</g>
																							</g>
																						</g>
																					</g>
																				</g>
																			</g>
																		</g>
																	</g>
																</g>
															</g>
														</g>
													</g>
												</g>
											</g>
											<g>
												<g>
													<g>
														<g>
															<g>
																<g>
																	<g>
																		<g>
																			<g>
																				<g>
																					<path class="st6" d="M388,79.6c0.1,0.2,0.9,0.1,1.9,0.2c1,0.1,1.8,0.3,1.9,0.1c0.1-0.1-0.1-0.3-0.4-0.5
																						c-0.3-0.2-0.8-0.4-1.4-0.4c-0.6,0-1.1,0.1-1.5,0.2C388.1,79.3,388,79.5,388,79.6z"/>
																				</g>
																			</g>
																		</g>
																	</g>
																</g>
															</g>
														</g>
													</g>
												</g>
											</g>
											<g>
												<g>
													<g>
														<g>
															<g>
																<g>
																	<g>
																		<g>
																			<g>
																				<g>
																					<path class="st6" d="M380.5,80.6c0.2,0.2,0.7,0,1.4-0.1c0.7-0.1,1.3,0.1,1.4-0.1c0.1-0.1,0-0.3-0.3-0.5
																						c-0.3-0.2-0.7-0.3-1.1-0.3c-0.5,0-0.9,0.2-1.1,0.4C380.5,80.3,380.4,80.5,380.5,80.6z"/>
																				</g>
																			</g>
																		</g>
																	</g>
																</g>
															</g>
														</g>
													</g>
												</g>
											</g>
										</g>
									</g>
								</g>
							</g>
						</g>
						<g>
							<g>
								<g>
									<g>
										<g>
											<g>
												<g>
													<g>
														<g>
															<g>
																<g>
																	<path class="st9" d="M397.1,85.4c0.1,0,3.6-1.2,3.6,2.5c0,3.7-3.7,2.9-3.7,2.8C397.1,90.6,397.1,85.4,397.1,85.4z"
																		/>
																</g>
															</g>
														</g>
													</g>
												</g>
											</g>
										</g>
									</g>
								</g>
							</g>
							<g>
								<g>
									<g>
										<g>
											<g>
												<g>
													<g>
														<g>
															<g>
																<g>
																	<g>
																		<path class="st10" d="M398.2,89.3c0,0,0.1,0,0.2,0.1c0.1,0,0.3,0.1,0.5,0c0.4-0.1,0.7-0.8,0.7-1.4
																			c0-0.3-0.1-0.7-0.2-0.9c-0.1-0.3-0.3-0.5-0.5-0.5c-0.2,0-0.3,0.1-0.4,0.2c0,0.1,0,0.2,0,0.2c0,0-0.1-0.1,0-0.2
																			c0-0.1,0.1-0.2,0.1-0.2c0.1-0.1,0.2-0.1,0.4-0.1c0.3,0,0.5,0.3,0.7,0.6c0.1,0.3,0.2,0.6,0.2,1
																			c0,0.7-0.4,1.4-0.9,1.6c-0.3,0.1-0.5,0-0.6-0.1C398.2,89.4,398.2,89.3,398.2,89.3z"/>
																	</g>
																</g>
															</g>
														</g>
													</g>
												</g>
											</g>
										</g>
									</g>
								</g>
							</g>
						</g>
						<g>
							<g>
								<g>
									<path class="st6" d="M376.7,73.4c-0.4,4.8,5.4,6.7,8,4.1c1.2-1.2,2.2-2.8,3.8-3.3c1.1-0.4,2.3-0.2,3.3,0.4c0,0,0,0,0,0
										c1.5,0.8,2.4,2.5,2.6,4.2c0.3,2.4-0.1,4.4,0.6,6.6c0.1,0.3,0.2,0.6,0.5,0.8c0.4,0.3,1.1,0,1.5-0.4c0.6-0.7,0.8-1.6,0.9-2.4
										c0.3-2,0.3-4-0.2-5.9c-0.5-1.9-1.5-3.8-3-5.1c-1.9-1.7-4.4-2.5-6.9-2.4c-2.5,0.1-4.9,1.1-6.8,2.7c-0.9,0.7-1.7,1.6-2.2,2.7
										"/>
								</g>
							</g>
						</g>
					</g>
				</g>
				<g>
					<g>
						<g>
							<g>
								<g>
									<g>
										<g>
											<path class="st9" d="M324.1,123.2l-43.4-4.1l-6.9-1.6c0,0-15.7-2.8-17.2-3.3c-1.7-0.5-2.4,0.2-2.5,0.8
												c-0.2,1,0.7,2.1,2.2,2.6c0.5,0.2,8.5,2.6,8.5,2.6s-0.8,0.2-2.6,0.9c-1.9,0.7-3.6,3.2-4.4,6.1c-0.8,2.9-0.8,3.7,0.3,4.1
												c0.4,0.1,0.9,0,1.2-0.2c0.6-0.4,1-1,1.2-1.7c1.3-4.6,4.2-5,4.2-5l0.9,0.2c0,0-2.8,2.2-2.7,4.6c0,0.4,0.1,0.7,0.3,1
												c-0.4,1.2-0.1,2.6,0.8,3.6c0.9,1,2.3,1.5,3.6,1.2c0.6-0.1,1.3-0.5,1.3-1.2c0-0.3-0.1-0.7-0.2-1c-0.1-0.2-0.1-0.3-0.2-0.5
												l2.6,0.3c0,0,5.9,0.3,8.4,0.7l40.9,10.6c5.7,1.5,11.4-2,12.8-7.7v0C334.7,129.9,330.4,123.8,324.1,123.2z"/>
										</g>
									</g>
								</g>
							</g>
						</g>
						<g>
							<g>
								<g>
									<g>
										<g>
											<g>
												<path class="st9" d="M279.7,120.2c0,0.9-0.9,1.6-1.8,1.8c-0.9,0.2-1.8,0.1-2.7,0.3c-2.7,0.5-4.7,3-7.4,3.3
													c-0.4,0-0.9,0-1-0.4c-0.1-0.3,0.2-0.7,0.4-0.9c2.2-2.1,4.3-4.1,6.5-6.2"/>
											</g>
										</g>
									</g>
								</g>
							</g>
							<g>
								<g>
									<g>
										<g>
											<g>
												<g>
													<path class="st10" d="M273.8,118.1c0,0-0.3,0.2-0.8,0.6c-0.5,0.4-1.1,1-2,1.8c-0.9,0.8-1.8,1.7-2.9,2.7
														c-0.3,0.3-0.5,0.5-0.8,0.8c-0.2,0.3-0.7,0.5-0.7,1.1c0,0.3,0.2,0.6,0.5,0.7c0.3,0.1,0.5,0.1,0.7,0.1
														c0.4-0.1,0.9-0.2,1.3-0.3c1.7-0.6,2.9-1.7,4.2-2.4c0.6-0.3,1.3-0.6,1.9-0.7c0.6-0.1,1.2-0.1,1.8-0.2
														c1.1-0.1,2.1-0.6,2.4-1.2c0.4-0.6,0.3-1,0.3-1c-0.1,0,0,0.4-0.4,0.8c-0.4,0.5-1.2,0.9-2.3,0.9c-0.5,0-1.2,0-1.8,0.1
														c-0.7,0.1-1.4,0.4-2,0.7c-1.4,0.7-2.6,1.7-4.2,2.3c-0.4,0.1-0.8,0.2-1.2,0.3c-0.4,0-0.7-0.1-0.7-0.3
														c0-0.2,0.3-0.5,0.6-0.8c0.3-0.3,0.5-0.5,0.8-0.8c1-1,2-1.9,2.8-2.8c0.8-0.8,1.4-1.4,1.9-1.9
														C273.6,118.4,273.9,118.2,273.8,118.1z"/>
												</g>
											</g>
										</g>
									</g>
								</g>
							</g>
						</g>
						<g>
							<g>
								<g>
									<g>
										<g>
											<g>
												<path class="st10" d="M265.8,124.4c0,0.1-0.7-0.3-1.7,0c-0.5,0.2-1,0.5-1.4,1.1c-0.4,0.6-0.7,1.3-1,2.1
													c-0.3,0.8-0.5,1.6-0.9,2.2c-0.4,0.6-0.8,1.1-1.4,1.4c-0.5,0.3-1,0.2-1.3,0.1c-0.3-0.1-0.4-0.3-0.4-0.3
													c0,0,0.2,0.1,0.4,0.2c0.3,0.1,0.7,0.1,1.2-0.2c0.4-0.3,0.9-0.8,1.2-1.4c0.3-0.6,0.6-1.4,0.8-2.1
													c0.3-0.8,0.6-1.5,1.1-2.1c0.5-0.6,1.1-1,1.6-1.1c0.6-0.1,1-0.1,1.3,0C265.7,124.2,265.8,124.3,265.8,124.4z"/>
											</g>
										</g>
									</g>
								</g>
							</g>
						</g>
						<g>
							<g>
								<g>
									<g>
										<g>
											<g>
												<path class="st10" d="M255.8,117.3c0,0,0.6,0.2,1.6,0.5c1.1,0.4,2.4,0.8,3.8,1.2c1.4,0.4,2.7,0.8,3.8,1.2
													c1,0.3,1.6,0.5,1.6,0.5c0,0-0.6-0.1-1.6-0.3c-1-0.2-2.4-0.6-3.9-1.1c-1.5-0.5-2.8-0.9-3.8-1.3
													C256.4,117.6,255.8,117.4,255.8,117.3z"/>
											</g>
										</g>
									</g>
								</g>
							</g>
						</g>
						<g>
							<g>
								<g>
									<g>
										<g>
											<g>
												<path class="st10" d="M267,126.7c0,0-0.1,0.2-0.3,0.4c-0.2,0.2-0.5,0.7-0.4,1.2c0,0.3,0.2,0.5,0.5,0.6
													c0.3,0.1,0.7,0.2,1.1,0.2c0.4,0.1,0.9,0.2,1.2,0.6c0.3,0.4,0.4,0.9,0.3,1.4c-0.1,0.5-0.5,0.9-0.9,1.1
													c-0.4,0.2-0.9,0.3-1.3,0.2c-0.8-0.1-1.5-0.4-2-0.7c-0.5-0.3-1-0.6-1.2-0.8c-0.2-0.3-0.3-0.4-0.3-0.4
													c0,0,0.1,0.1,0.4,0.4c0.2,0.2,0.7,0.5,1.2,0.7c0.5,0.2,1.2,0.5,2,0.6c0.7,0.1,1.6-0.3,1.9-1.1c0.1-0.4,0-0.8-0.2-1.1
													c-0.2-0.3-0.6-0.4-1-0.5c-0.4-0.1-0.8-0.1-1.1-0.3c-0.3-0.2-0.6-0.5-0.6-0.8c-0.1-0.7,0.4-1.1,0.6-1.3
													C266.9,126.8,267,126.7,267,126.7z"/>
											</g>
										</g>
									</g>
								</g>
							</g>
						</g>
						<g>
							<g>
								<g>
									<g>
										<g>
											<g>
												<path class="st10" d="M268.2,132.1c0,0,0.2,0,0.4,0.2c0.2,0.2,0.5,0.6,0.5,1.2c0,0.6-0.4,1.2-1.1,1.6
													c-0.7,0.3-1.5,0.4-2.3,0.1c-0.8-0.3-1.5-0.8-1.9-1.3c-0.4-0.6-0.6-1.2-0.7-1.8c-0.1-0.5,0-1,0.1-1.3
													c0.1-0.3,0.2-0.4,0.2-0.4c0.1,0-0.2,0.7,0,1.7c0.1,0.5,0.3,1.1,0.7,1.6c0.4,0.5,1,1,1.8,1.2c0.7,0.2,1.5,0.2,2.1-0.1
													c0.6-0.3,0.9-0.8,1-1.3c0-0.5-0.2-0.9-0.4-1.1C268.3,132.1,268.1,132.1,268.2,132.1z"/>
											</g>
										</g>
									</g>
								</g>
							</g>
						</g>
						<g>
							<g>
								<g>
									<g>
										<g>
											<g>
												<path class="st10" d="M275.2,128.2c0,0,0-0.3,0.2-0.8c0.2-0.4,0.7-1,1.5-1.3l0,0.3c-0.3-0.1-0.7-0.3-1-0.5
													c-1.9-1.1-2.9-2.6-2.8-2.7c0.1-0.1,1.1,1.3,3,2.4c0.3,0.2,0.7,0.4,1,0.5l0.3,0.2l-0.3,0.1c-0.7,0.3-1.2,0.8-1.5,1.2
													C275.3,128,275.2,128.2,275.2,128.2z"/>
											</g>
										</g>
									</g>
								</g>
							</g>
						</g>
						<g>
							<g>
								<g>
									<g>
										<g>
											<g>
												<path class="st10" d="M261.6,124.2c0.1-0.1,0.5,0.4,0.6,1.2c0.1,0.8-0.3,1.4-0.3,1.3c-0.1,0,0.1-0.6,0-1.3
													C261.8,124.7,261.5,124.2,261.6,124.2z"/>
											</g>
										</g>
									</g>
								</g>
							</g>
						</g>
					</g>
				</g>
				<g>
					<g>
						<path class="st8" d="M348.4,154L348.4,154c0,0,3.3,35.7,3.3,36.2c0,0.5-2.3,1.3-2.1,5.1l2,4.5l62,0.8l1.7-50.3l2.2-42.8
							l-18-3.5l-2.4-4.4l-9.3,10.9l-3.5-5.6l0-4.9l-3.4,2.8l-11.3,0.2c-11.9,0-24,4.9-28.7,6.9l-19.9,8.3l-33,0.9l4.3,19l12,7.1
							C317.6,153,333.1,156.1,348.4,154z"/>
					</g>
				</g>
			</g>
			<g>
				<path class="st8" d="M417.4,107.4c0,0,13.5,4.5,17.9,13.3c1.3,2.7,14.3,27,17.8,39.3c1.1,3.8,0.8,7.9-0.7,11.6l-27.2,31
					l-11.4-9.9l-2.1-28.6l0,0L417.4,107.4z"/>
			</g>
			<g>
				<g>
					<path class="st9" d="M409.7,220.2c-3.5-2.3-5-4.5-6.4-6.6c0-0.1,0-0.2,0-0.2c0-0.1-0.1-0.1-0.2-0.1c-0.8-1.2-1.4-2.3-1.9-3.3
						c2-1.3,4.6-3.3,1.8-3.7c-3.5-0.5-6-2.2-6.4-3.1c-0.4-0.9,0.8-1.8,1.7-1.2c0.7,0.5,2.2,0.9,3.4,1.2c0.9,0.2,1.9,0.3,2.9,0.2
						c0.6-0.1,2.7-1.5,4.9-2.6c0.3-0.1,0.7-0.2,1-0.1l0.9-0.1c0.9-0.1,1.7-0.6,2.2-1.4l2.3-4.5l7.5,6.3l-4.6,8.5
						C418.8,209.4,413.4,216.5,409.7,220.2z"/>
				</g>
			</g>
		</g>
	</g>
	<g>
		<path class="st6" d="M49.6,86c-2.1,1.5-2.4,4.1-2.8,6.4c-0.3,1.8-0.5,3.6-0.7,5.4c-0.2,1.8-0.6,3.4-1.1,5.2c-1,3.4-2.8,6-4.2,9.2
			c-1.3,2.9-2.1,6-1.9,9.2c0.2,3.2,1.5,4.4,4.7,5c3.1,0.5,7.6,0.4,10.5-0.7c1.9-0.7,3-2.6,3.7-4.5c0.8-2.1,1.3-4.3,1.9-6.4
			c0.3-1.1,1.3-3.3,1.1-4.3"/>
		<g>
			<g>
				<g>
					<g>
						<polygon class="st11" points="20.3,350.6 17.4,404.1 50.8,408.8 40.7,356.5 						"/>
					</g>
				</g>
			</g>
			<g>
				<g>
					<g>
						<g>
							<polygon class="st8" points="16.8,403.7 13.5,418.2 49.9,418.2 50.8,408.7 							"/>
						</g>
					</g>
				</g>
			</g>
		</g>
		<g>
			<g>
				<g>
					<g>
						<g>
							<polygon class="st11" points="80.3,345.9 84.9,412.1 115.8,410.9 112.2,378.4 							"/>
						</g>
					</g>
				</g>
			</g>
			<g>
				<g>
					<g>
						<g>
							<g>
								<g>
									<g>
										<path class="st8" d="M115.2,405.7l0.8,1.3c0,0,19.3,6.5,19.6,10l-50.6,1.1l-0.3-9.6l1.4,0.3
											C91.4,409.9,110.1,408,115.2,405.7z"/>
									</g>
								</g>
							</g>
						</g>
					</g>
				</g>
			</g>
		</g>
		<g>
			<g>
				<g>
					<g>
						<g>
							<path class="st6" d="M32.9,197.2c-1.2,0-2.2,0.6-2.8,1.6c-3.1,5.4-9.1,23.3-9.1,34.7l-3.4,165.6l35.5,5.1L63,296.8
								c0,0,18.5,107.8,19.8,107.8c1.3,0,34.6-3.5,34.6-3.5L87.7,197.9L32.9,197.2z"/>
						</g>
					</g>
				</g>
			</g>
		</g>
		<g>
			<g>
				<g>
					<g>
						<path class="st6" d="M52.4,105.9c-2.3-3.9-2.9-9-3.5-13.5c-0.3-2.1-0.8-5.1,0.7-6.4c1.6-1.4,1.7-3.6,3.5-4.7
							c1.8-1.1,4.3-1.2,6,0.1"/>
					</g>
				</g>
				<g>
					<g>
						<g>
							<g>
								<g>
									<g>
										<g>
											<g>
												<g>
													<path class="st11" d="M58.7,119.6L58.7,119.6c3.5,0.3,6.5-2.4,6.7-5.9c0.1-3.4,0.3-6.8,0.3-6.8s5.1-0.5,5.5-5.5
														c0.4-5.1,0.3-16.8,0.3-16.8l0,0c-5.7-2.9-12.5-2.5-17.8,1.1l0.3,17.8l0,9.6C53.8,116.3,55.5,119.4,58.7,119.6z"/>
												</g>
											</g>
										</g>
									</g>
								</g>
							</g>
						</g>
						<g>
							<g>
								<path class="st6" d="M66.1,95.2c-0.9-1.1-2.3-1.5-3.5-0.8c-1.2,0.8-1.6,2.4-1,3.7c0.4,0.9,1.5,1.7,2.5,1.9
									c1,0.2,1.6,1.1,1.5,2.1c-0.1,1.3-2.3,1.7-3.2,2.8c-1.5,1.6-4.8,2.3-6.9,2.6c-2.2,0.2-1.9,0.3-3.1-1.5
									c-0.9-1.3-1.2-2.5-1.2-4.1c-0.1-3.7-0.1-7.5-0.2-11.2c0-1.3,0-2.7,0.3-4c0.3-1.3,1-2.6,2.1-3.3c1.2-0.8,2.8-0.9,4.2-1.3
									c1.8-0.6,3.3-1.7,4.9-2.6c1.6-0.8,3.7-1.3,5.3-0.5c1.2,0.6,2,1.8,3.1,2.4c1.6,0.9,3.9,0.7,4.7,3.1c0.3,0.8,0.2,1.7,0,2.6
									c-1.1,3.3-5.2,4.6-8.1,3.2c-0.1,0.6,0.5,1.8-0.1,3.5C67.1,94.3,67,95.1,66.1,95.2"/>
							</g>
						</g>
					</g>
					<g>
						<g>
							<g>
								<path class="st12" d="M65.2,98.3c0,0,0,0.1-0.1,0.2c-0.1,0.1-0.3,0.3-0.6,0.3c-0.6,0.1-1.3-0.6-1.3-1.4
									c0-0.4,0.1-0.8,0.4-1.1c0.2-0.3,0.5-0.4,0.8-0.5c0.5-0.1,0.8,0.1,0.8,0.1c0,0.1-0.3,0-0.7,0.1c-0.4,0.1-0.9,0.6-0.9,1.3
									c0,0.7,0.5,1.1,0.9,1.2C65,98.6,65.2,98.3,65.2,98.3z"/>
							</g>
						</g>
					</g>
				</g>
			</g>
			<g>
				<g>
					<path class="st6" d="M52.8,110.9c0.3,0.6,1.1,0.9,1.8,0.7c0.7-0.2,1.2-0.7,1.7-1.2c0.5-0.5,1-1,1.7-1.2c1.4-0.4,3,0.5,4.1-0.3
						c1-0.8,0.9-2.5,1.9-3.3c0.5-0.4,1.3-0.5,1.8-0.9c1-0.8,0.9-2.5,0-3.4c-0.9-0.9-2.2-1.3-3.4-1.7l-10.9,4.6L52.8,110.9z"/>
				</g>
			</g>
		</g>
		<g>
			<polyline class="st5" points="73.1,116.5 70.8,111.6 50.2,110.9 47,117.2 72.8,117.2 			"/>
		</g>
		<g>
			<g>
				<g>
					<g>
						<path class="st13" d="M143.9,160.6c-0.1-0.7,5.4-29.8,7-37.8c0.2-1-0.6-2-1.7-2H108c-0.8,0-1.5,0.5-1.6,1.3l-8.4,35.6
							l-20.8,1.6l0.7,1.4H143.9z"/>
					</g>
					<g>
						<polygon class="st1" points="142.1,158 148.8,122.7 108.3,123 99.4,158 						"/>
						<path class="st6" d="M99.3,158L99.3,158l8.9-35.1h0l40.6-0.2l0,0l-6.7,35.3h0L99.3,158z M108.3,123l-8.9,35l42.7-0.1l6.7-35.2
							L108.3,123z"/>
					</g>
					<g>
						<g>
							<path class="st6" d="M142.1,158.2c0,0.1-11.9,0.3-26.5,0.3c-14.6,0-26.5-0.1-26.5-0.3c0-0.1,11.9-0.3,26.5-0.3
								C130.2,158,142.1,158.1,142.1,158.2z"/>
						</g>
					</g>
				</g>
				<g>
					<g>
						<g>
							<g>
								<g>
									<path class="st13" d="M139.3,149.3c0,0-0.2,0-0.5,0.1c-0.4,0-0.9,0-1.5,0c-1.4,0-3.3,0-5.6,0.1c-4.7,0-11.2,0.1-18.4,0.1
										c-2,0-4,0-5.9,0l-0.3,0l0.1-0.3c1.4-5.6,2.7-10.4,3.6-14c0.5-1.7,0.8-3,1.1-4.1c0.3-0.9,0.4-1.5,0.5-1.5
										c0,0-0.1,0.5-0.3,1.5c-0.2,1-0.6,2.4-1,4.1c-0.9,3.6-2.1,8.4-3.4,14l-0.2-0.3c1.9,0,3.9,0,5.9,0c7.2,0,13.7,0,18.4,0.1
										c2.3,0,4.2,0.1,5.6,0.1c0.6,0,1.1,0,1.5,0C139.1,149.3,139.3,149.3,139.3,149.3z"/>
								</g>
							</g>
							<g>
								<polygon class="st5" points="109.9,148 110.7,144.6 115.9,144.6 115.2,148 								"/>
							</g>
							<g>
								<polygon class="st5" points="117,148 118.6,141.3 123.8,141.3 122.3,148 								"/>
							</g>
							<g>
								<polygon class="st5" points="124.1,148 124.9,144.6 130.1,144.6 129.4,148 								"/>
							</g>
							<g>
								<polygon class="st5" points="131.2,148 134.2,135 139.4,135 136.5,148 								"/>
							</g>
						</g>
						<g>
							<g>
								<path class="st13" d="M114,151.8c0,0.1-1,0.3-2.1,0.2c-1.2,0-2.1-0.1-2.1-0.3c0-0.1,0.9-0.3,2.1-0.2
									C113.1,151.5,114,151.6,114,151.8z"/>
							</g>
						</g>
						<g>
							<g>
								<path class="st13" d="M120.9,151.8c0,0.1-1,0.3-2.1,0.2c-1.2,0-2.1-0.1-2.1-0.3c0-0.1,0.9-0.3,2.1-0.2
									C120,151.5,120.9,151.6,120.9,151.8z"/>
							</g>
						</g>
						<g>
							<g>
								<path class="st13" d="M127.8,151.8c0,0.1-1,0.3-2.1,0.2c-1.2,0-2.1-0.1-2.1-0.3c0-0.1,0.9-0.3,2.1-0.2
									C126.8,151.5,127.8,151.6,127.8,151.8z"/>
							</g>
						</g>
						<g>
							<g>
								<path class="st13" d="M134.6,151.7c0,0.1-1,0.3-2.1,0.2c-1.2,0-2.1-0.1-2.1-0.3c0-0.1,0.9-0.3,2.1-0.2
									C133.7,151.5,134.6,151.6,134.6,151.7z"/>
							</g>
						</g>
					</g>
					<g>
						<g>
							<path class="st13" d="M124.5,128.2c0,0.1-2.6,0.3-5.8,0.3c-3.2,0-5.8-0.1-5.8-0.3s2.6-0.3,5.8-0.3
								C121.9,128,124.5,128.1,124.5,128.2z"/>
						</g>
					</g>
					<g>
						<g>
							<path class="st13" d="M118.4,126.8c0,0.1-1.2,0.3-2.6,0.3c-1.4,0-2.6-0.1-2.6-0.3c0-0.1,1.2-0.3,2.6-0.3
								C117.2,126.5,118.4,126.7,118.4,126.8z"/>
						</g>
					</g>
				</g>
			</g>
			<g>
				<path class="st5" d="M108.8,184.1l22.2-19.4l-0.9-1.4c-1.3-2.1-3.3-3.8-5.6-4.7l-3.7,0.7l-22.1,3.4L108.8,184.1z"/>
			</g>
			<g>
				<polygon class="st5" points="12.1,179.7 31.3,176.9 37.8,153.7 14.3,157 				"/>
			</g>
			<g>
				<g>
					<g>
						<path class="st5" d="M107.1,185.5c4.9-2.5,5.5-11.3,3.1-16.3l-20.5-43.9c-0.5-1.1-1.2-2.1-2.1-2.8c-8.1-7-17-5.8-17-5.8
							L49.2,116c0,0-15.7,0.4-27.5,12.5c-0.8,0.8-11.9,12.8-18.3,25.6c-3,5.9-4.6,22.4,4.7,25.2l0,0c8.1,2.6,14.5,0.7,19.1-0.8l0,0
							l2.7,7l2.4,7.5c-0.7,2,0.8,4.2,3,4.2l52.3,0.7l-4.1-24.7l0,0l5.7,10C91.5,188.2,102.1,187.9,107.1,185.5L107.1,185.5z"/>
					</g>
				</g>
				<g>
					<g>
						<g>
							<path class="st14" d="M25.4,88.9"/>
						</g>
					</g>
				</g>
			</g>
			<g>
				<path class="st5" d="M30,195L30,195c-0.5-1.4,0-2.9,1.2-3.7l1.2-0.8c0.4-0.3,1-0.5,1.5-0.5l51.5-4l3.4,6.5l-1.5,5.4L33,197.2
					C31.7,197.2,30.5,196.3,30,195z"/>
			</g>
			<g>
				<polyline class="st11" points="131.1,164.7 140.8,160.6 127.9,160.6 130.7,164.2 				"/>
			</g>
		</g>
	</g>
	<g>
		<g>
			<g>
				<g>
					<g>
						<g>
							<g>
								<g>
									
										<ellipse transform="matrix(0.9584 -0.2854 0.2854 0.9584 -7.343 23.6309)" class="st3" cx="77.4" cy="37" rx="21.7" ry="21.7"/>
								</g>
							</g>
						</g>
					</g>
				</g>
			</g>
		</g>
		<g>
			<g>
				<g>
					<g>
						<g>
							<g>
								<g>
									<path class="st4" d="M87.3,37.7c0,0-0.3,0-0.8,0.1c-0.5,0-1.3,0-2.1,0c-1.8,0-4.3,0-7.1,0l-0.1,0l0-0.1c0-0.5,0-0.9,0-1.4
										c0-3.1,0-6,0-8.1c0-1,0-1.8,0-2.4c0-0.6,0-0.9,0.1-0.9c0,0,0,0.3,0.1,0.9c0,0.6,0,1.4,0,2.4c0,2.1,0,4.9,0,8.1
										c0,0.5,0,1,0,1.4l-0.1-0.1c2.8,0,5.3,0,7.1,0c0.9,0,1.6,0,2.1,0C87,37.6,87.3,37.7,87.3,37.7z"/>
								</g>
							</g>
						</g>
					</g>
				</g>
			</g>
		</g>
		<g>
			<g>
				<g>
					<g>
						<g>
							<g>
								<g>
									<path class="st4" d="M77.4,18.8c0.1,0,0.1,0.8,0.1,1.8c0,1-0.1,1.8-0.1,1.8s-0.1-0.8-0.1-1.8
										C77.2,19.7,77.3,18.8,77.4,18.8z"/>
								</g>
							</g>
						</g>
					</g>
				</g>
			</g>
		</g>
		<g>
			<g>
				<g>
					<g>
						<g>
							<g>
								<g>
									<path class="st4" d="M87.3,21.8c0.1,0.1-0.5,0.7-1.2,1.4c-0.7,0.7-1.3,1.2-1.4,1.2c-0.1-0.1,0.5-0.7,1.2-1.4
										C86.6,22.2,87.2,21.7,87.3,21.8z"/>
								</g>
							</g>
						</g>
					</g>
				</g>
			</g>
		</g>
		<g>
			<g>
				<g>
					<g>
						<g>
							<g>
								<g>
									<path class="st4" d="M93.1,28.1c0,0.1-0.7,0.5-1.5,1C90.7,29.6,90,30,90,30c0-0.1,0.6-0.6,1.4-1.1
										C92.3,28.3,93,28,93.1,28.1z"/>
								</g>
							</g>
						</g>
					</g>
				</g>
			</g>
		</g>
		<g>
			<g>
				<g>
					<g>
						<g>
							<g>
								<g>
									<path class="st4" d="M96.5,37.5c0,0.1-1.1,0.1-2.5,0.1c-1.4,0-2.5-0.1-2.5-0.1c0-0.1,1.1-0.1,2.5-0.1
										C95.3,37.4,96.5,37.4,96.5,37.5z"/>
								</g>
							</g>
						</g>
					</g>
				</g>
			</g>
		</g>
		<g>
			<g>
				<g>
					<g>
						<g>
							<g>
								<g>
									<path class="st4" d="M61.9,37.2c0,0.1-1.1,0.1-2.4,0.1c-1.3,0-2.4-0.1-2.4-0.1c0-0.1,1.1-0.1,2.4-0.1
										C60.9,37,61.9,37.1,61.9,37.2z"/>
								</g>
							</g>
						</g>
					</g>
				</g>
			</g>
		</g>
		<g>
			<g>
				<g>
					<g>
						<g>
							<g>
								<g>
									<path class="st4" d="M64.4,44.2c0.1,0.1-0.7,0.8-1.8,1.6c-1,0.8-1.9,1.5-2,1.4c0-0.1,0.7-0.8,1.8-1.6
										C63.4,44.7,64.3,44.1,64.4,44.2z"/>
								</g>
							</g>
						</g>
					</g>
				</g>
			</g>
		</g>
		<g>
			<g>
				<g>
					<g>
						<g>
							<g>
								<g>
									<path class="st4" d="M70.4,49.6c0.1,0-0.5,1-1.2,2.1c-0.7,1.1-1.2,2.1-1.3,2.1c-0.1,0,0.3-1,1-2.2
										C69.6,50.4,70.3,49.5,70.4,49.6z"/>
								</g>
							</g>
						</g>
					</g>
				</g>
			</g>
		</g>
		<g>
			<g>
				<g>
					<g>
						<g>
							<g>
								<g>
									<path class="st4" d="M77.4,56.5c-0.1,0-0.1-1.1-0.1-2.5c0-1.4,0.1-2.5,0.1-2.5s0.1,1.1,0.1,2.5
										C77.5,55.4,77.4,56.5,77.4,56.5z"/>
								</g>
							</g>
						</g>
					</g>
				</g>
			</g>
		</g>
		<g>
			<g>
				<g>
					<g>
						<g>
							<g>
								<g>
									<path class="st4" d="M88.1,53.2c0,0.1-1-0.5-2.1-1.4c-1-0.9-1.7-1.8-1.7-1.8c0.1-0.1,0.8,0.7,1.9,1.6
										C87.3,52.5,88.1,53.1,88.1,53.2z"/>
								</g>
							</g>
						</g>
					</g>
				</g>
			</g>
		</g>
		<g>
			<g>
				<g>
					<g>
						<g>
							<g>
								<g>
									<path class="st4" d="M93.1,47.8c-0.1,0.1-0.8-0.6-1.6-1.5c-0.9-0.9-1.5-1.6-1.5-1.6c0.1-0.1,0.8,0.6,1.6,1.5
										C92.5,47,93.2,47.7,93.1,47.8z"/>
								</g>
							</g>
						</g>
					</g>
				</g>
			</g>
		</g>
		<g>
			<g>
				<g>
					<g>
						<g>
							<g>
								<g>
									<path class="st4" d="M64.1,30.5c-0.1,0.1-0.7-0.5-1.5-1.3c-0.7-0.7-1.3-1.4-1.3-1.5c0.1-0.1,0.7,0.5,1.5,1.3
										C63.6,29.8,64.2,30.4,64.1,30.5z"/>
								</g>
							</g>
						</g>
					</g>
				</g>
			</g>
		</g>
		<g>
			<g>
				<g>
					<g>
						<g>
							<g>
								<g>
									<path class="st4" d="M70.4,23.9c-0.1,0.1-0.7-0.5-1.4-1.2c-0.7-0.7-1.3-1.4-1.2-1.4c0.1-0.1,0.7,0.5,1.4,1.2
										C69.9,23.2,70.4,23.9,70.4,23.9z"/>
								</g>
							</g>
						</g>
					</g>
				</g>
			</g>
		</g>
	</g>
	<line class="st15" x1="413.8" y1="192.9" x2="427.9" y2="160.6"/>
	<line class="st15" x1="412.7" y1="155.1" x2="426.1" y2="164.7"/>
	<line class="st15" x1="321" y1="118.1" x2="340.3" y2="118.1"/>
	<line class="st15" x1="378.6" y1="107.4" x2="387.4" y2="117.3"/>
	<polyline class="st15" points="398.2,108.1 388,119 386.8,136.6 	"/>
	<line class="st15" x1="358.2" y1="192.9" x2="408.6" y2="195.6"/>
	<line class="st16" x1="355.6" y1="223.4" x2="352.9" y2="395.9"/>
	<line class="st16" x1="413.8" y1="228.7" x2="439.1" y2="390.1"/>
	<line class="st16" x1="349.7" y1="393.4" x2="386.4" y2="393.4"/>
	<line class="st16" x1="405.2" y1="396.5" x2="443.5" y2="386.5"/>
	<line class="st17" x1="409" y1="405.9" x2="438.5" y2="398.3"/>
	<line class="st17" x1="344" y1="411.4" x2="346" y2="416.6"/>
	<line class="st17" x1="439.9" y1="424.2" x2="446.4" y2="418.9"/>
	<line class="st17" x1="352.7" y1="402.1" x2="383.7" y2="402.1"/>
	<path class="st16" d="M354.3,221.4c0,0,11.8-3,13.1-18.6"/>
	<path class="st16" d="M399.8,206.1c0,0,2.2,12.8,14,15.3"/>
	<line class="st17" x1="80.3" y1="190.7" x2="34" y2="190.7"/>
	<line class="st17" x1="83.4" y1="173.2" x2="71.4" y2="144.6"/>
	<line class="st17" x1="27.1" y1="178.5" x2="21" y2="157"/>
	<path class="st16" d="M34,204.2c0,0-5.7,16.7-1.8,24.4H44l6.8-24.4H34z"/>
	<path class="st16" d="M63.7,204.2h18.7c0,0,0.9,19.1-3.5,24.4H65C65,228.7,61.6,221,63.7,204.2z"/>
	<line class="st16" x1="27" y1="248.4" x2="24.1" y2="396.5"/>
	<line class="st16" x1="50.8" y1="396.5" x2="19.7" y2="393.4"/>
	<line class="st16" x1="89" y1="247.4" x2="111.6" y2="394.9"/>
	<line class="st15" x1="17.7" y1="408.8" x2="47.5" y2="412.1"/>
	<line class="st15" x1="87" y1="412" x2="115.8" y2="410.9"/>
</g>
</svg>
