<svg width="169" height="153" xmlns="http://www.w3.org/2000/svg" viewBox="0 0 463.12 417.67"><defs><style>.cls-1{fill:#e0e0e0;}.cls-2{fill:#fafafa;}.cls-3{fill:#39385e;}.cls-4{fill:#6d6d6d;}.cls-5{fill:#5430ef;}.cls-6{fill:#e8505b;}.cls-7{fill:#eb996e;}.cls-8{fill:#ffbe9d;}.cls-10,.cls-12,.cls-9{fill:none;stroke-miterlimit:10;}.cls-9{stroke:#ba3848;}.cls-10{stroke:#56567c;}.cls-11{opacity:0.3;}.cls-12{stroke:#6c54f7;}</style></defs><title>how-work-shape-2</title><g id="Background_Complete" data-name="Background Complete"><rect class="cls-1" x="140.34" y="196.21" width="11.33" height="45.24"/><rect class="cls-1" x="157" y="206.08" width="11.33" height="35.37"/><rect class="cls-1" x="173.91" y="214.16" width="11.33" height="27.29"/><rect class="cls-1" x="189.57" y="225.25" width="11.33" height="16.21"/></g><g id="Analysis"><rect class="cls-2" x="140.34" y="0.26" width="266.07" height="174.52"/><path class="cls-3" d="M407.77,175.67c0-1.68-.08-68.08-.2-174.52l.2.2-266,.06h0l.26-.26c0,62.06,0,121.13,0,174.52l-.24-.24,266.07.24-266.07.24h-.24v-.24c0-53.39,0-112.46,0-174.52V.89h.28l266,0H408v.21C407.85,107.59,407.78,174,407.77,175.67Z" transform="translate(-1.36 -0.89)"/><path class="cls-4" d="M231.36,105.75l32.45.45c-.24,17.3-14.82,31.39-32.45,31.39h-.19Z" transform="translate(-1.36 -0.89)"/><path class="cls-3" d="M285,149.7a2.88,2.88,0,0,1-.69.05l-2,.06-7.25.08H275l-.06-.07-10.7-13.49-8.64-11,.17.08-9.55-.09-2.67-.06a5.9,5.9,0,0,1-1-.06,6.49,6.49,0,0,1,1-.07l2.67-.05,9.55-.09h.1l.07.08,8.69,11,10.61,13.56-.15-.07,7.25.08,2,0A3.15,3.15,0,0,1,285,149.7Z" transform="translate(-1.36 -0.89)"/><path class="cls-3" d="M296.67,153.44c0,.14-4.71.25-10.5.25s-10.51-.11-10.51-.25,4.7-.25,10.51-.25S296.67,153.3,296.67,153.44Z" transform="translate(-1.36 -0.89)"/><path class="cls-3" d="M296.67,157.33c0,.14-4.71.25-10.5.25s-10.51-.11-10.51-.25,4.7-.25,10.51-.25S296.67,157.19,296.67,157.33Z" transform="translate(-1.36 -0.89)"/><path class="cls-5" d="M226.22,101.13,225.77,133c-17.63-.24-32-14.54-32-31.84,0-17.46,14.66-31.84,32.46-31.84s32.46,14.38,32.46,31.84Z" transform="translate(-1.36 -0.89)"/><path class="cls-3" d="M213.55,90.72a1.91,1.91,0,0,1-.56.13l-1.62.26-5.83.82h-.09l-.08-.07-7.77-7.56c-3.74-3.67-7.1-7-9.52-9.44L185.24,72a7.53,7.53,0,0,1-1-1.11,9.63,9.63,0,0,1,1.13,1l3,2.79C190.81,77,194.21,80.29,198,84l7.71,7.63-.17,0,5.85-.65,1.63-.15A2,2,0,0,1,213.55,90.72Z" transform="translate(-1.36 -0.89)"/><path class="cls-3" d="M176,69.46c0,.14-4.7.25-10.5.25S155,69.6,155,69.46s4.7-.25,10.5-.25S176,69.32,176,69.46Z" transform="translate(-1.36 -0.89)"/><path class="cls-3" d="M176,73.35c0,.14-4.7.25-10.5.25s-10.5-.11-10.5-.25,4.7-.25,10.5-.25S176,73.21,176,73.35Z" transform="translate(-1.36 -0.89)"/><rect class="cls-6" x="296.1" y="20.34" width="6.32" height="70.58"/><rect class="cls-6" x="308.31" y="44.31" width="6.32" height="46.61"/><rect class="cls-6" x="320.51" y="29.11" width="6.32" height="62.17"/><rect class="cls-6" x="332.71" y="23.07" width="6.32" height="67.86"/><rect class="cls-6" x="344.91" y="45.75" width="6.32" height="45.18"/><rect class="cls-6" x="357.11" y="54.61" width="6.32" height="36.32"/><rect class="cls-6" x="369.31" y="27.59" width="6.32" height="63.34"/><path class="cls-3" d="M361.43,97c-37,0-67-.12-67-.26S340,96.47,377,96.47" transform="translate(-1.36 -0.89)"/><path class="cls-3" d="M306.48,102.29a42.43,42.43,0,0,1-9.38,0,42.43,42.43,0,0,1,9.38,0Z" transform="translate(-1.36 -0.89)"/><path class="cls-3" d="M322,102.57a60.55,60.55,0,0,1-11.21,0,60.55,60.55,0,0,1,11.21,0Z" transform="translate(-1.36 -0.89)"/><path class="cls-3" d="M335.31,102.57a60.55,60.55,0,0,1-11.21,0,60.55,60.55,0,0,1,11.21,0Z" transform="translate(-1.36 -0.89)"/><path class="cls-3" d="M348.58,102.57a60.55,60.55,0,0,1-11.21,0,60.55,60.55,0,0,1,11.21,0Z" transform="translate(-1.36 -0.89)"/><path class="cls-3" d="M361.85,102.57a60.55,60.55,0,0,1-11.21,0,60.55,60.55,0,0,1,11.21,0Z" transform="translate(-1.36 -0.89)"/><path class="cls-3" d="M375.12,102.57a60.55,60.55,0,0,1-11.21,0,60.55,60.55,0,0,1,11.21,0Z" transform="translate(-1.36 -0.89)"/><path class="cls-3" d="M377.18,102.57" transform="translate(-1.36 -0.89)"/><rect class="cls-5" x="308.31" y="44.31" width="6.32" height="46.61"/><rect class="cls-5" x="332.71" y="23.07" width="6.32" height="67.86"/><rect class="cls-5" x="357.11" y="54.61" width="6.32" height="36.32"/><circle class="cls-6" cx="197.54" cy="47.84" r="8.33"/></g><g id="Character_2" data-name="Character 2"><path class="cls-7" d="M331.56,207.1a12.93,12.93,0,0,1,2.35-9.61c.14.08-1,2-1.63,4.7S331.72,207.1,331.56,207.1Z" transform="translate(-1.36 -0.89)"/><path class="cls-8" d="M334,197.27l-28.29-28.64c-1-.82-1.58-4.59-1.7-5.74a8.65,8.65,0,0,1,.22-2.95,13.79,13.79,0,0,1,1.23-3.52c.62-1-.23-2.15-1.19-1.77s-3.34,2.92-3.89,6.56a1.48,1.48,0,0,1-2.08.9c-2.39-.83-10.5-4.15-11.95-4.51-1.29-.32-2.83-.27-2,.69a49.2,49.2,0,0,0,5.73,3.92c-2.14-1.3-6.79-4-7.3-3.09-.3.52.28,1.49,2.18,2.86a9.89,9.89,0,0,0-3.09-1.32c-2.49.25,5.15,5.13,5.15,5.13-5.38-3.37-5.12-3.59-5.72-3-.45.47.48,1.57,3.13,3.81,2.14,1.81,12.72,11.13,12.72,11.13l21.8,44.15a20.05,20.05,0,0,0,15,8.43l43.55-.93,4.36-33.55Z" transform="translate(-1.36 -0.89)"/><path class="cls-7" d="M290.19,167.9a32.6,32.6,0,0,1-7.25-4.8,33.22,33.22,0,0,1,7.25,4.8Z" transform="translate(-1.36 -0.89)"/><path class="cls-7" d="M291.7,166a37.95,37.95,0,0,1-8-4.65,36.84,36.84,0,0,1,8,4.65Z" transform="translate(-1.36 -0.89)"/><path class="cls-7" d="M293.27,164a32.61,32.61,0,0,1-7.67-4.3,33.59,33.59,0,0,1,7.67,4.3Z" transform="translate(-1.36 -0.89)"/><path class="cls-6" d="M266.18,380.55l-5.6,17.16s-19.31.08-20.66,3.15L285,418.56l9.81-26.38Z" transform="translate(-1.36 -0.89)"/><path class="cls-3" d="M356.38,265.35c-6.87-2.24-32.93-14.46-52.71-19.34-7.55-1.86-21.05-.36-27.5,4h0c-8.39,5.68-10.75,20.82-8.78,30.75l6.09,61.09,32.11-14,2.08-44.8L349,294.13l42.59-12.32-.13-2.06-35.12-14.4" transform="translate(-1.36 -0.89)"/><path class="cls-3" d="M366.81,274.16l-60.16,13A26.84,26.84,0,0,0,287.21,304l-29.55,81.52,36.74,13.21,33.27-74.64,36.21-11.62a52.79,52.79,0,0,0,32.77-17.06l8.46-9.4Z" transform="translate(-1.36 -0.89)"/><path class="cls-7" d="M405.28,255.91a25,25,0,0,1-4.61,2,23.31,23.31,0,0,1-4.79,1.5,24.65,24.65,0,0,1,4.61-2A23.31,23.31,0,0,1,405.28,255.91Z" transform="translate(-1.36 -0.89)"/><path class="cls-6" d="M375.58,193.88l-11.91,48.47L350.39,263l56.49,23.37,18.62-40.92L446,200.05c-4.13-7.63-17.69-9.47-20.34-9.78l-21.37-1.51Z" transform="translate(-1.36 -0.89)"/><polygon class="cls-6" points="382.41 191.53 345.79 195.07 349.03 232.02 378.06 233.35 380.95 198.24 382.41 191.53"/><polygon class="cls-5" points="367.07 322.13 366.07 399.28 334.31 411.41 407.16 411.06 375.01 398.82 374.72 322.13 367.07 322.13"/><path class="cls-5" d="M345.3,316.9c9.12,3.55,18.56,6.79,28.34,7.12s20.08-2.59,26.75-9.76c5.34-5.74,7.83-13.48,10.18-21l5.07-16.18c1.4-4.48,3.5-9.72.95-12.11-3.59-3.39-13.18-4.68-16.8-1.33-5.39,5-5.63,7.09-8.07,11.37-5.61,9.87-10.49,18.87-21.06,23-5.1,2-10.76,2.16-15.88,4.09s-10.34,9.34-9.48,14.75" transform="translate(-1.36 -0.89)"/><path class="cls-8" d="M403.78,197.87a2.72,2.72,0,0,1-3.83-2.71l.68-8s-5.34-.79-5.44-6.12.73-17.57.73-17.57h0a18.49,18.49,0,0,1,18.62,2.2l.8.6L413.63,193" transform="translate(-1.36 -0.89)"/><path class="cls-7" d="M400.62,187.1a12.36,12.36,0,0,0,6.93-2s-1.61,3.85-6.93,3.41Z" transform="translate(-1.36 -0.89)"/><path class="cls-8" d="M414.72,171.81c.09,0,3.65-1.11,3.57,2.54s-3.73,2.8-3.74,2.69S414.72,171.81,414.72,171.81Z" transform="translate(-1.36 -0.89)"/><path class="cls-7" d="M415.7,175.69s.06.05.17.1a.61.61,0,0,0,.47,0,1.55,1.55,0,0,0,.76-1.39,2.05,2.05,0,0,0-.15-.91.74.74,0,0,0-.47-.5.33.33,0,0,0-.38.16c-.05.1,0,.18-.05.18s-.07-.06,0-.21a.44.44,0,0,1,.15-.23.46.46,0,0,1,.35-.08.9.9,0,0,1,.65.58,2.12,2.12,0,0,1,.2,1,1.64,1.64,0,0,1-1,1.55.68.68,0,0,1-.58-.11C415.7,175.78,415.69,175.7,415.7,175.69Z" transform="translate(-1.36 -0.89)"/><path class="cls-3" d="M397,171c.09.09.67-.34,1.49-.34s1.42.4,1.51.3-.06-.22-.32-.41a2.12,2.12,0,0,0-1.21-.37,2,2,0,0,0-1.18.4C397,170.75,396.93,170.93,397,171Z" transform="translate(-1.36 -0.89)"/><path class="cls-3" d="M405,171.07c.1.1.67-.33,1.49-.34s1.42.4,1.51.3,0-.22-.32-.41a2,2,0,0,0-1.21-.36,1.9,1.9,0,0,0-1.18.39C405.07,170.84,405,171,405,171.07Z" transform="translate(-1.36 -0.89)"/><path class="cls-3" d="M402.1,177.16a5.69,5.69,0,0,0-1.33-.23c-.21,0-.41-.06-.44-.2a1,1,0,0,1,.13-.62c.2-.51.4-1,.61-1.6a28.09,28.09,0,0,0,1.36-4.17,27,27,0,0,0-1.69,4c-.21.56-.4,1.1-.58,1.61a1.25,1.25,0,0,0-.11.82.52.52,0,0,0,.35.3,1.2,1.2,0,0,0,.36,0A4.91,4.91,0,0,0,402.1,177.16Z" transform="translate(-1.36 -0.89)"/><path class="cls-3" d="M404.52,177.71c-.13,0-.13.88-.89,1.52s-1.7.55-1.7.67.21.17.61.18a2.2,2.2,0,0,0,1.42-.51,1.91,1.91,0,0,0,.69-1.27C404.68,177.93,404.58,177.71,404.52,177.71Z" transform="translate(-1.36 -0.89)"/><path class="cls-3" d="M404.8,167.86c.08.22.89.11,1.86.22s1.74.36,1.86.16-.08-.3-.39-.51a3,3,0,0,0-1.39-.48,3.15,3.15,0,0,0-1.45.18C404.94,167.58,404.76,167.75,404.8,167.86Z" transform="translate(-1.36 -0.89)"/><path class="cls-3" d="M397.26,168.6c.15.19.71,0,1.39,0s1.25.11,1.38-.08,0-.28-.28-.46a2,2,0,0,0-1.13-.29,1.9,1.9,0,0,0-1.11.38C397.28,168.32,397.2,168.51,397.26,168.6Z" transform="translate(-1.36 -0.89)"/><path class="cls-3" d="M393.29,160.14a2,2,0,0,1,.72-1.76,1.39,1.39,0,0,1,1.81.12,1.63,1.63,0,0,1,1.38-2c.87-.06,1.62.59,2.46.82a3.88,3.88,0,0,0,2.48-.31c.79-.32,1.52-.77,2.32-1.06a6.81,6.81,0,0,1,8.74,3.93,3,3,0,0,1,3.22,1.19,5,5,0,0,1,.79,3.49,11.08,11.08,0,0,1-.59,2.4,1.33,1.33,0,0,1,0,.2c0,2.94-.33,6.38-1.58,6.41-2.18,0-1.69-4.06-1.69-4.06-2.69-1-1.72-5-2.39-5.63s-2.09-2-7.66.9a11,11,0,0,1-6.64.77l-.14,0h0l-.05,0a4.86,4.86,0,0,1-1.44-.59,2.85,2.85,0,0,1-1.19-1.31,1.54,1.54,0,0,1,.29-1.67A3.49,3.49,0,0,1,393.29,160.14Z" transform="translate(-1.36 -0.89)"/><ellipse class="cls-3" cx="398.3" cy="172.29" rx="1.21" ry="0.62" transform="translate(184.13 549.6) rotate(-84.03)"/><ellipse class="cls-3" cx="406.03" cy="172.82" rx="1.21" ry="0.62" transform="translate(190.53 557.78) rotate(-84.03)"/><path class="cls-8" d="M415.08,216.26l15.34,29-19.2,9.91-4.53-1.39a11.06,11.06,0,0,0-10.6,2.28L389,262.32h54.68c6.66,0,20.12-5.18,20.76-11.81.49-5-2-9.93-3.69-14.78L449.4,207.08c-3.2-7.78-17.18-14.12-24.86-10.68h0C417.08,199.74,411.82,208.77,415.08,216.26Z" transform="translate(-1.36 -0.89)"/><path class="cls-6" d="M415.08,219.4A138.14,138.14,0,0,1,423.25,237l36.43-12.27S449,204.57,445.61,199.43c-1.39-2.08-10.08-6.34-19.12-7.43a17.75,17.75,0,0,0-2.8.72,11.94,11.94,0,0,0-8.3,9.13l-.22,1.08C414.68,207.36,412.82,215.55,415.08,219.4Z" transform="translate(-1.36 -0.89)"/><path class="cls-9" d="M395.88,195.44s-1.81,7.39,4.74,6.86c0,0,9.55-.13,19.05-9.84" transform="translate(-1.36 -0.89)"/><line class="cls-9" x1="415.89" y1="218.62" x2="421.89" y2="236.06"/><line class="cls-9" x1="453.98" y1="220.29" x2="420.62" y2="232.36"/><line class="cls-9" x1="350.14" y1="197.23" x2="353.31" y2="231.29"/><line class="cls-9" x1="352.85" y1="226.32" x2="365.78" y2="227.34"/><line class="cls-9" x1="362.31" y1="241.46" x2="371.14" y2="208.96"/><line class="cls-10" x1="349.03" y1="265.87" x2="386.43" y2="280.95"/><line class="cls-10" x1="289.56" y1="391.62" x2="321.81" y2="317.87"/><line class="cls-10" x1="261.06" y1="380.87" x2="289.56" y2="391.62"/><line class="cls-10" x1="275.31" y1="327.62" x2="270.06" y2="263.37"/><line class="cls-10" x1="321.81" y1="317.87" x2="344.51" y2="311.19"/></g><g id="Character_1" data-name="Character 1"><path class="cls-6" d="M17.57,366.86l-5.89,23.36-10,17.14a2.46,2.46,0,0,0,1,3.45h0a2.44,2.44,0,0,0,2.26,0c4.49-2.41,40.77-7,41.11-8.71.38-2,7.84-24.23,7.84-24.23Z" transform="translate(-1.36 -0.89)"/><path class="cls-3" d="M19.31,385.23a12.4,12.4,0,0,0-3-1.42,11.86,11.86,0,0,0-3.29-.08c0-.06.31-.28.93-.44a5.3,5.3,0,0,1,2.48,0,5.18,5.18,0,0,1,2.22,1.12C19.16,384.84,19.36,385.19,19.31,385.23Z" transform="translate(-1.36 -0.89)"/><path class="cls-3" d="M16.74,382.52a2,2,0,0,1,.21-.88,6.36,6.36,0,0,1,1.34-2.11,2.77,2.77,0,0,1,1.51-1,1,1,0,0,1,1,.51,1.64,1.64,0,0,1,.08,1.15,3.49,3.49,0,0,1-3.81,2.3,4,4,0,0,1-3.26-3.1,1.38,1.38,0,0,1,.24-1.15,1,1,0,0,1,1.12-.22,3.39,3.39,0,0,1,1.31,1.22,7.13,7.13,0,0,1,1.09,2.24,2.2,2.2,0,0,1,.13.9,11.35,11.35,0,0,0-1.52-2.92,3.18,3.18,0,0,0-1.16-1,.54.54,0,0,0-.62.12.93.93,0,0,0-.11.76A3.61,3.61,0,0,0,17.17,382a3,3,0,0,0,3.26-1.9,1.17,1.17,0,0,0,0-.81.56.56,0,0,0-.56-.29,2.62,2.62,0,0,0-1.3.8A9.63,9.63,0,0,0,16.74,382.52Z" transform="translate(-1.36 -0.89)"/><path class="cls-6" d="M110.8,377.55l-1.25,18s17.88,7.32,18,10.67l-52.45-1.17.79-28.13Z" transform="translate(-1.36 -0.89)"/><path class="cls-3" d="M110.14,387.62a3.2,3.2,0,0,1-1.75-.07,7.69,7.69,0,0,1-1.82-.62,9.26,9.26,0,0,1-1-.57,2.33,2.33,0,0,1-.51-.43.74.74,0,0,1,0-.91,1,1,0,0,1,.76-.37,2.1,2.1,0,0,1,.66.12,5.93,5.93,0,0,1,1.07.41,6.09,6.09,0,0,1,1.58,1.11c.79.78,1,1.43,1,1.46s-.46-.49-1.26-1.14a6.58,6.58,0,0,0-2.53-1.28c-.37-.11-.69-.12-.79,0s0,.09,0,.2a2.18,2.18,0,0,0,.38.31,10.19,10.19,0,0,0,.91.56,10.5,10.5,0,0,0,1.67.71A12,12,0,0,1,110.14,387.62Z" transform="translate(-1.36 -0.89)"/><path class="cls-3" d="M109.91,387.86a2.84,2.84,0,0,1-.41-1.71,5.62,5.62,0,0,1,.31-1.91,5.44,5.44,0,0,1,.48-1.05,1.45,1.45,0,0,1,1.15-.85.82.82,0,0,1,.71.52,2.14,2.14,0,0,1,.16.64,3.83,3.83,0,0,1,0,1.18,3.91,3.91,0,0,1-.81,1.79c-.71.88-1.43,1.07-1.44,1s.55-.4,1.1-1.26a4.09,4.09,0,0,0,.61-1.62,3.49,3.49,0,0,0,0-1c0-.37-.17-.68-.31-.64s-.48.26-.63.55a5.89,5.89,0,0,0-.47.94,6.56,6.56,0,0,0-.4,1.73C109.84,387.19,110,387.84,109.91,387.86Z" transform="translate(-1.36 -0.89)"/><path class="cls-3" d="M73.09,71.89a25.85,25.85,0,0,1-1.55-4.11c-.24-1.07-.6-2.68-.19-3.7a2.59,2.59,0,0,1,2.76-1.77,6.27,6.27,0,0,1,3.5-5,16,16,0,0,1,6-1.71,5.06,5.06,0,0,1,2.26.22,2.88,2.88,0,0,1,1.39,1.43,5,5,0,0,1,4.4-.82c1.66.41,3.57,1.25,4.34,2.79a4.88,4.88,0,0,1,.22,3.66c-.3,1-1.33,2.63-2.33,2.28" transform="translate(-1.36 -0.89)"/><path class="cls-8" d="M74.72,100.06l14.91-.69c.08-1.58-.72-11.36-.72-11.36s5.63-.88,5.7-6.51-.91-18.57-.91-18.57h0A19.58,19.58,0,0,0,74,65.4l-.83.65Z" transform="translate(-1.36 -0.89)"/><path class="cls-7" d="M88.92,87.92a13.15,13.15,0,0,1-7.35-2.08s1.74,4,7.36,3.54Z" transform="translate(-1.36 -0.89)"/><path class="cls-8" d="M73.89,71.88c-.1,0-3.87-1.14-3.75,2.71s4,2.93,4,2.82S73.89,71.88,73.89,71.88Z" transform="translate(-1.36 -0.89)"/><path class="cls-7" d="M72.89,76s-.07.05-.18.1a.64.64,0,0,1-.5,0,1.67,1.67,0,0,1-.82-1.47,2.28,2.28,0,0,1,.16-1,.75.75,0,0,1,.49-.53.33.33,0,0,1,.4.17c.06.1,0,.18,0,.19s.08-.07.05-.23a.46.46,0,0,0-.16-.23A.47.47,0,0,0,72,73a1,1,0,0,0-.69.62,2.24,2.24,0,0,0-.19,1.08,1.73,1.73,0,0,0,1,1.63.75.75,0,0,0,.61-.12C72.88,76.08,72.9,76,72.89,76Z" transform="translate(-1.36 -0.89)"/><path class="cls-3" d="M92.64,70.85c-.1.11-.71-.34-1.58-.34s-1.5.44-1.59.33,0-.24.33-.44A2.23,2.23,0,0,1,91.08,70a2.13,2.13,0,0,1,1.25.4C92.6,70.62,92.69,70.81,92.64,70.85Z" transform="translate(-1.36 -0.89)"/><path class="cls-3" d="M84.13,71c-.1.1-.71-.35-1.58-.35s-1.5.44-1.59.33.05-.24.33-.44a2.23,2.23,0,0,1,1.28-.39,2.11,2.11,0,0,1,1.25.4C84.09,70.78,84.18,71,84.13,71Z" transform="translate(-1.36 -0.89)"/><path class="cls-3" d="M87.27,77.44a5.41,5.41,0,0,1,1.41-.26c.22,0,.43-.07.46-.22a1.11,1.11,0,0,0-.15-.65c-.2-.54-.42-1.1-.65-1.68a29.6,29.6,0,0,1-1.47-4.41,29.19,29.19,0,0,1,1.82,4.28l.63,1.69a1.27,1.27,0,0,1,.11.87.57.57,0,0,1-.36.32,1.37,1.37,0,0,1-.38.05A6.34,6.34,0,0,1,87.27,77.44Z" transform="translate(-1.36 -0.89)"/><path class="cls-3" d="M84.72,78c.14,0,.14.94,1,1.6s1.8.57,1.81.7-.22.18-.65.19A2.3,2.3,0,0,1,85.32,80a2,2,0,0,1-.73-1.34C84.55,78.26,84.66,78,84.72,78Z" transform="translate(-1.36 -0.89)"/><path class="cls-3" d="M84.35,67.62c-.08.24-.95.13-2,.25s-1.84.4-2,.19.09-.32.42-.55A3.17,3.17,0,0,1,82.29,67a3.27,3.27,0,0,1,1.54.18C84.2,67.33,84.39,67.51,84.35,67.62Z" transform="translate(-1.36 -0.89)"/><path class="cls-3" d="M92.32,68.35c-.15.2-.75,0-1.47,0s-1.32.13-1.46-.07,0-.3.3-.48a2,2,0,0,1,1.19-.33,2.08,2.08,0,0,1,1.17.4C92.3,68.05,92.39,68.25,92.32,68.35Z" transform="translate(-1.36 -0.89)"/><path class="cls-3" d="M72.89,65.79c.08,1.64-.29,3.47,0,5.08,0,.24.68.89.73,1.13.33,1.43.93,2,1.77.57a13,13,0,0,0,.67-2.78l1-5.2a9,9,0,0,0,4.28,1A4.37,4.37,0,0,0,85,63.45a4.67,4.67,0,0,0,3.31,2.16,4.59,4.59,0,0,0,3.74-1.24,1.9,1.9,0,0,0,2.51.54,2.27,2.27,0,0,0,.92-2.49c-.39-1.37-1.86-2.12-3.23-2.52-5.36-1.58-11.29-.34-16.1,2.48a8.27,8.27,0,0,0-1.94,1.47c-.55.6-1.32,1.31-1.34,2.12" transform="translate(-1.36 -0.89)"/><ellipse class="cls-3" cx="83.18" cy="72.47" rx="0.63" ry="1.24" transform="translate(-7.42 6.71) rotate(-5.05)"/><ellipse class="cls-3" cx="90.96" cy="72.47" rx="0.63" ry="1.24" transform="translate(-7.39 7.4) rotate(-5.05)"/><polygon class="cls-5" points="118.55 184.71 112.92 388.41 67.86 387.58 68.56 334.33 52.26 392.58 7.49 381.66 50.19 188.1 118.55 184.71"/><path class="cls-8" d="M204.93,95.83l1.32-.48S217.58,97.06,217,95c-.79-2.7-11-3.6-11.92-3.49-1.57.18-10.7,2.58-11.9,3.49s-7.92,9.78-7.92,9.78l5.69,8s8.44.73,11.52-2.82c1.56-1.81,3.82-4.91,3.82-4.91s-.24-.75-.05-1.08c.58-1,0-1.45,0-1.45a1.82,1.82,0,0,0,1.12-1.61,1.34,1.34,0,0,0-.4-1c-.71-.48-1-.35-1-.35a2.66,2.66,0,0,0,1.47-2c.09-1.28-1.8-1.59-1.8-1.59" transform="translate(-1.36 -0.89)"/><path class="cls-7" d="M216.84,95.54a5.88,5.88,0,0,1-2.35.61,14.21,14.21,0,0,1-2.66.06c-1-.12-2.05-.29-3.18-.47l-2.4-.39h.15A34.7,34.7,0,0,1,200.82,97a34.36,34.36,0,0,1,5.39-2.19l.07,0h.08l2.37.37,3.15.51a16.32,16.32,0,0,0,2.57.06C215.92,95.64,216.82,95.45,216.84,95.54Z" transform="translate(-1.36 -0.89)"/><path class="cls-8" d="M204.29,96.5l-3.06,3.32a3.71,3.71,0,0,0-.89,1.27,1.17,1.17,0,0,0,1.45,1.65,3.43,3.43,0,0,0,1.09-.6,38.28,38.28,0,0,0,3.78-3.06" transform="translate(-1.36 -0.89)"/><path class="cls-7" d="M206.88,98.88a10.55,10.55,0,0,1-1.62,1.71,15.3,15.3,0,0,1-2,1.63,7,7,0,0,1-1.39.71,2.16,2.16,0,0,1-.89.12,1.24,1.24,0,0,1-.88-.48,1.67,1.67,0,0,1,0-1.81,7.27,7.27,0,0,1,1-1.22c.64-.72,1.24-1.35,1.75-1.87a8,8,0,0,1,1.79-1.54,16.59,16.59,0,0,1-1.52,1.79l-1.66,1.93a9.75,9.75,0,0,0-.87,1.16,1.22,1.22,0,0,0,0,1.25,1,1,0,0,0,1.2.19,6.74,6.74,0,0,0,1.29-.64,16.66,16.66,0,0,0,2-1.5A10.26,10.26,0,0,1,206.88,98.88Z" transform="translate(-1.36 -0.89)"/><path class="cls-8" d="M205.76,100s.91-1.22,1.38-1.22a1.43,1.43,0,0,1,1.55.79c.34.71.08,1-1,2.65" transform="translate(-1.36 -0.89)"/><path class="cls-8" d="M205.76,100l-2.5,2.85a3.32,3.32,0,0,0-.73,1.09,1.2,1.2,0,0,0,.22,1.24,1,1,0,0,0,1,.18,2.64,2.64,0,0,0,.89-.51,35.17,35.17,0,0,0,3.09-2.63" transform="translate(-1.36 -0.89)"/><path class="cls-7" d="M208.79,100.4a4.54,4.54,0,0,1-1,2,12.21,12.21,0,0,1-1.72,1.77,12.43,12.43,0,0,1-1.18.87,3.63,3.63,0,0,1-1.52.65,1.14,1.14,0,0,1-.93-.32,1.25,1.25,0,0,1-.32-.88,2.33,2.33,0,0,1,.65-1.43c.58-.72,1.13-1.33,1.61-1.84A7.28,7.28,0,0,1,206,99.72a16.22,16.22,0,0,1-1.39,1.76c-.44.54-1,1.17-1.52,1.89a2.06,2.06,0,0,0-.51,1.14.61.61,0,0,0,.7.68,3.38,3.38,0,0,0,1.29-.56,15,15,0,0,0,2.89-2.45C208.37,101.16,208.71,100.37,208.79,100.4Z" transform="translate(-1.36 -0.89)"/><path class="cls-8" d="M189.22,106.31a2.58,2.58,0,0,0,3,0c.93-.54,1.65-1.38,2.53-2,2.65-1.8,6.41-1.3,9-3.23.36-.26.72-.71.53-1.11s-.68-.43-1.09-.43l-10.61.08" transform="translate(-1.36 -0.89)"/><path class="cls-7" d="M192.54,99.69a4.5,4.5,0,0,1,1.15-.12c.74,0,1.8-.09,3.12-.12l4.64-.1,1.34,0a2.08,2.08,0,0,1,1.56.35.89.89,0,0,1,.15,1,1.82,1.82,0,0,1-.54.67,6.58,6.58,0,0,1-1.35.8c-1.92.86-3.88,1-5.52,1.48a8.11,8.11,0,0,0-2.19,1c-.62.41-1.15.91-1.68,1.32a3.72,3.72,0,0,1-3,1c-.79-.16-1-.59-1-.59a2.93,2.93,0,0,0,1,.36,3.62,3.62,0,0,0,2.69-1.1c.5-.42,1-.94,1.67-1.41a8.45,8.45,0,0,1,2.31-1.07c1.7-.54,3.65-.7,5.43-1.5a6.3,6.3,0,0,0,1.22-.71c.35-.27.52-.65.34-.79s-.67-.19-1.12-.18h-1.34l-4.64,0c-1.32,0-2.39,0-3.13-.07A4.29,4.29,0,0,1,192.54,99.69Z" transform="translate(-1.36 -0.89)"/><path class="cls-8" d="M207,103.16s.68-.9,1-.9a1.06,1.06,0,0,1,1.15.58c.25.52.06.75-.75,2" transform="translate(-1.36 -0.89)"/><path class="cls-8" d="M207,103.16l-1.85,2.11a2.61,2.61,0,0,0-.54.81.89.89,0,0,0,.16.92.77.77,0,0,0,.72.13,2,2,0,0,0,.66-.38,23.46,23.46,0,0,0,2.28-2" transform="translate(-1.36 -0.89)"/><path class="cls-7" d="M209.26,103.43a2.91,2.91,0,0,1-.74,1.52,8.58,8.58,0,0,1-1.27,1.33,8.72,8.72,0,0,1-.88.65,2.69,2.69,0,0,1-1.16.5.92.92,0,0,1-.74-.26,1,1,0,0,1-.25-.7,1.84,1.84,0,0,1,.49-1.1c.46-.51.89-1,1.24-1.33.73-.74,1.19-1.17,1.24-1.12a5.54,5.54,0,0,1-1,1.37c-.38.45-.75.91-1.14,1.38a1.34,1.34,0,0,0-.36.8c0,.29.15.46.44.44a2.44,2.44,0,0,0,.93-.41c.3-.19.58-.39.84-.59a9.74,9.74,0,0,0,1.3-1.2C208.92,104,209.18,103.39,209.26,103.43Z" transform="translate(-1.36 -0.89)"/><path class="cls-7" d="M199.44,108.23a12.47,12.47,0,0,0-.66-2.34c-.58-1.19-1.56-1.78-1.48-1.91s1.27.31,1.95,1.68A2.72,2.72,0,0,1,199.44,108.23Z" transform="translate(-1.36 -0.89)"/><path class="cls-6" d="M120.7,193.49s-1.94-40.14-2.5-48.5c14,7.79,36.59,13.67,38.72,12.59,8.6-4.39,35-44,35-44L184.28,104l-30.83,17.36L113,97.25h0c-2.82-2.06-13.22-3.47-16.91-3.93l-.28,0c-1.44-.17-5.51-.38-6.38-.48h0c-6.38,4.8-9.09,5.4-15.36.44l-2.48-.14a16.8,16.8,0,0,0-4.64.36c-1.61.35-3.76.82-5.32,1.12-9,1.71-13,4.22-20.32,9.5l21.39,30.56-15.94,23,3.78,35.87H120.7" transform="translate(-1.36 -0.89)"/><g class="cls-11"><path d="M62.71,170.06a10.47,10.47,0,0,0,9.12,2.62c2.29-.46,4.47-1.71,6.81-1.56,2.56.17,4.68,2,7,3,4.37,2,9.45,1.34,14.08.11,2.13-.57,4.35-1.34,5.73-3.06a10.3,10.3,0,0,0,1.76-4.75,49.57,49.57,0,0,0,.69-9.42c0-2-.27-4.09-1.52-5.62a6.51,6.51,0,0,0-4.23-2.13,16.55,16.55,0,0,0-4.81.27,79.74,79.74,0,0,0-34.9,15" transform="translate(-1.36 -0.89)"/></g><path class="cls-6" d="M85.2,159.65S54,183.42,32.45,183.25C22.3,183.17,20.64,162,22,151c4-32.22,19.34-46.86,19.34-46.86l25.42,24.39-6.36,21.25,16.65-1.1Z" transform="translate(-1.36 -0.89)"/><path class="cls-6" d="M119.26,100.32" transform="translate(-1.36 -0.89)"/><path class="cls-4" d="M78.38,147.84l-2.32-11.27a1.45,1.45,0,0,1,1.43-1.74l29.17.13a1.45,1.45,0,0,1,1.43,1.62l-3,25.82a2,2,0,0,1-2,1.78L84,164a2,2,0,0,1-1.93-1.52Z" transform="translate(-1.36 -0.89)"/><path class="cls-8" d="M75.81,141.9h0a3.07,3.07,0,0,1,2.86,2c.48,1.24,1.18,2.7,2,3.12,1.44.78,3.91,1.4,5.21.77s6.51-5.33,7.43-4.81,1.69,1.7.78,2.74-5.73,4.16-4.82,5.21,11.07-3.55,12.63-3.14,2.47,1.36,1.56,2-7.81,3.23-8.2,4.14c0,0,10.42-2.73,10.81-2.08s1,1.69,0,2.08S96,156.62,95.21,157a19,19,0,0,1-4,1.17A42.58,42.58,0,0,0,87,159.51a9.21,9.21,0,0,1-6.48-.17l-1.06-.43a4.13,4.13,0,0,1-2.56-4.08l.21-3.55L76,148.35Z" transform="translate(-1.36 -0.89)"/><path class="cls-2" d="M93.31,139.17a1.06,1.06,0,1,1-1.06-1.06A1.06,1.06,0,0,1,93.31,139.17Z" transform="translate(-1.36 -0.89)"/><path class="cls-12" d="M104.89,197.1S104,212.18,115,213.51" transform="translate(-1.36 -0.89)"/><line class="cls-9" x1="52.04" y1="141.01" x2="48.52" y2="152.3"/><line class="cls-9" x1="43.06" y1="153.5" x2="73.81" y2="150.07"/><line class="cls-9" x1="155.18" y1="118.73" x2="135.98" y2="127.62"/><line class="cls-9" x1="180.31" y1="105.92" x2="187.86" y2="115"/><line class="cls-9" x1="154.19" y1="153.25" x2="186.77" y2="113.68"/><path class="cls-9" d="M68.67,94.51a18.22,18.22,0,0,0,12.9,5.55,14,14,0,0,0,11.74-6.38" transform="translate(-1.36 -0.89)"/><line class="cls-9" x1="50.19" y1="188.11" x2="118.55" y2="188.11"/><path class="cls-12" d="M66,197.49s-.33,16.36-17.33,19" transform="translate(-1.36 -0.89)"/><path class="cls-12" d="M50,221.25c-.66,2.6-34.81,156.8-34.81,156.8" transform="translate(-1.36 -0.89)"/><line class="cls-12" x1="113.64" y1="225.25" x2="108.96" y2="383.54"/><line class="cls-12" x1="10.48" y1="376.03" x2="51.81" y2="386.97"/><line class="cls-12" x1="70.14" y1="383.3" x2="110.37" y2="383.3"/><line class="cls-9" x1="13.14" y1="386.97" x2="44.64" y2="394.12"/><line class="cls-9" x1="7.49" y1="397.96" x2="13.14" y2="406.46"/><line class="cls-9" x1="109.56" y1="404.12" x2="112.64" y2="398.62"/><line class="cls-9" x1="107.31" y1="390.68" x2="75.81" y2="390.68"/><line class="cls-9" x1="250.81" y1="398.12" x2="251.14" y2="403.62"/><line class="cls-9" x1="261.82" y1="388.86" x2="290.37" y2="399.7"/></g></svg>