<?xml version="1.0" encoding="utf-8"?>
<!-- Generator: Adobe Illustrator 22.0.0, SVG Export Plug-In . SVG Version: 6.00 Build 0)  -->
<svg version="1.1" id="Layer_1" xmlns="http://www.w3.org/2000/svg" xmlns:xlink="http://www.w3.org/1999/xlink" x="0px" y="0px"
	 viewBox="0 0 166.7 196" style="enable-background:new 0 0 166.7 196;" xml:space="preserve">
<style type="text/css">
	.st0{fill:#E0E0E0;}
	.st1{fill:#EBEBEB;}
	.st2{fill:#D6D6D6;}
	.st3{fill:#5430EF;}
	.st4{fill:#E8505B;}
	.st5{fill:#B78876;}
	.st6{fill:#AA6550;}
	.st7{fill:#39385E;}
	.st8{fill:#FAFAFA;}
	.st9{fill:none;stroke:#48486B;stroke-miterlimit:10;}
	.st10{fill:#A3A3A3;}
	.st11{fill:none;stroke:#CE3A4C;stroke-miterlimit:10;}
	.st12{fill:#FFBE9D;}
	.st13{fill:#EB996E;}
	.st14{fill:none;stroke:#C1C1C1;stroke-miterlimit:10;}
	.st15{fill:none;stroke:#7E6AEF;stroke-miterlimit:10;}
</style>
<g>
	<g>
		<g>
			<path class="st0" d="M163.3,61.5c0,0,0-0.4,0-1.1c0-0.7,0-1.8,0-3.2c0-2.8,0-7,0-12.3c0-10.6,0-25.8-0.1-44.2l0.1,0.1
				c-21.8,0-48.2,0-76.5,0h0l0.1-0.1c0,22,0,42.7,0,60.9l-0.1-0.1c22.7,0,41.8,0,55.3,0.1c6.7,0,12,0,15.7,0c1.8,0,3.2,0,4.1,0
				c0.5,0,0.8,0,1.1,0C163.2,61.5,163.3,61.5,163.3,61.5s-0.1,0-0.4,0c-0.2,0-0.6,0-1.1,0c-0.9,0-2.3,0-4.1,0c-3.6,0-8.9,0-15.6,0
				c-13.5,0-32.6,0-55.3,0.1l-0.1,0l0-0.1c0-18.1,0-38.9,0-60.9V0.5h0.1h0c28.3,0,54.6,0,76.5,0h0.1l0,0.1c0,18.4,0,33.6-0.1,44.2
				c0,5.3,0,9.5,0,12.3c0,1.4,0,2.5,0,3.2C163.3,61.2,163.3,61.5,163.3,61.5z"/>
		</g>
	</g>
	<g>
		<rect x="84.4" y="0.3" class="st1" width="81.1" height="2.3"/>
	</g>
	<rect x="93.7" y="14.5" class="st2" width="7.9" height="7.9"/>
	<rect x="104.5" y="14.5" class="st3" width="7.9" height="7.9"/>
	<rect x="115.3" y="14.5" class="st2" width="7.9" height="7.9"/>
	<rect x="126.1" y="14.5" class="st2" width="7.9" height="7.9"/>
	<rect x="136.9" y="14.5" class="st2" width="7.9" height="7.9"/>
	<rect x="147.7" y="14.5" class="st2" width="7.9" height="7.9"/>
	<rect x="93.7" y="25.4" class="st2" width="7.9" height="7.9"/>
	<rect x="104.5" y="25.4" class="st2" width="7.9" height="7.9"/>
	<rect x="115.3" y="25.4" class="st4" width="7.9" height="7.9"/>
	<rect x="126.1" y="25.4" class="st4" width="7.9" height="7.9"/>
	<rect x="136.9" y="25.4" class="st3" width="7.9" height="7.9"/>
	<rect x="147.7" y="25.4" class="st2" width="7.9" height="7.9"/>
	<rect x="93.7" y="36.3" class="st2" width="7.9" height="7.9"/>
	<rect x="104.5" y="36.3" class="st3" width="7.9" height="7.9"/>
	<rect x="115.3" y="36.3" class="st3" width="7.9" height="7.9"/>
	<rect x="126.1" y="36.3" class="st3" width="7.9" height="7.9"/>
	<rect x="136.9" y="36.3" class="st2" width="7.9" height="7.9"/>
	<rect x="147.7" y="36.3" class="st2" width="7.9" height="7.9"/>
	<rect x="93.7" y="47.3" class="st2" width="7.9" height="7.9"/>
	<rect x="104.5" y="47.3" class="st2" width="7.9" height="7.9"/>
	<rect x="115.3" y="47.3" class="st4" width="7.9" height="7.9"/>
	<rect x="126.1" y="47.3" class="st2" width="7.9" height="7.9"/>
	<rect x="136.9" y="47.3" class="st2" width="7.9" height="7.9"/>
	<rect x="147.7" y="47.3" class="st3" width="7.9" height="7.9"/>
</g>
<g>
	<g>
		<g>
			<g>
				<g>
					<g>
						<g>
							<path class="st5" d="M91,47.4L91,47.4c1.1-1.6,1.7-2.7,2.4-3.7c0.9-1.2,1.2-1.8,1-1.9c-0.3-0.2-0.2-0.1-2.2,1.8
								c0,0,2.9-2.8,1.8-2.7c-0.5,0.1-2.9,2.4-2.9,2.4c2.1-1.7,2.6-2.7,2.3-3c-0.4-0.4-3.3,2.4-3.3,2.4s2.2-2.1,2.5-2.6
								c0.3-0.5-0.4-0.4-0.9-0.1c-0.6,0.3-3.8,2.5-4.7,3.1c-0.7,0.4-1-0.2-1-0.2c-0.6-1.5-1.8-2.4-2.3-2.5c-0.5-0.1-0.7,0.5-0.4,0.9
								c0.3,0.3,0.6,0.9,0.9,1.4c0.2,0.4,0.3,0.8,0.4,1.3c0.1,0.5,0.1,0.9,0.1,1.3l-1.5,8.1l5.1,3.6L91,47.4z"/>
						</g>
					</g>
				</g>
			</g>
		</g>
		<g>
			<g>
				<g>
					<g>
						<g>
							<path class="st6" d="M91,44.8c0,0.1,0.7-0.5,1.4-1.3c0.7-0.8,1.3-1.4,1.3-1.5c-0.1,0-0.7,0.5-1.4,1.3
								C91.5,44.1,91,44.8,91,44.8z"/>
						</g>
					</g>
				</g>
			</g>
		</g>
		<g>
			<g>
				<g>
					<g>
						<g>
							<path class="st6" d="M90.2,44.1c0,0.1,0.8-0.5,1.6-1.3c0.8-0.8,1.5-1.4,1.4-1.5c0-0.1-0.8,0.5-1.6,1.3
								C90.8,43.4,90.1,44.1,90.2,44.1z"/>
						</g>
					</g>
				</g>
			</g>
		</g>
		<g>
			<g>
				<g>
					<g>
						<g>
							<path class="st6" d="M89.3,43.4c0,0.1,0.7-0.5,1.5-1.2c0.8-0.7,1.4-1.3,1.4-1.4c0-0.1-0.7,0.5-1.5,1.2
								C89.9,42.7,89.3,43.3,89.3,43.4z"/>
						</g>
					</g>
				</g>
			</g>
		</g>
	</g>
	<g>
		<g>
			<g>
				<g>
					<g>
						<g>
							<g>
								<g>
									<g>
										<g>
											<g>
												<g>
													<g>
														<g>
															<g>
																<g>
																	<path class="st5" d="M55.6,29.2c3-0.2,5.5,2,5.7,5c0.1,2.5,0.3,5.1,0.3,6.5c0,2.9-2.9,3.3-2.9,3.3s0.4,5,0.4,5.8
																		l-7.6,0.4l-0.7-15.4C50.5,31.9,52.7,29.5,55.6,29.2L55.6,29.2z"/>
																</g>
															</g>
														</g>
													</g>
												</g>
											</g>
										</g>
									</g>
								</g>
							</g>
							<g>
								<g>
									<g>
										<g>
											<g>
												<g>
													<g>
														<g>
															<path class="st5" d="M50.9,35.8c0,0-2-0.6-1.9,1.4c0.1,2,2,1.5,2,1.4C51,38.6,50.9,35.8,50.9,35.8z"/>
														</g>
													</g>
												</g>
											</g>
										</g>
									</g>
								</g>
								<g>
									<g>
										<g>
											<g>
												<g>
													<g>
														<g>
															<g>
																<path class="st6" d="M50.4,37.9C50.4,37.9,50.4,37.9,50.4,37.9C50.3,38,50.2,38,50.1,38c-0.2-0.1-0.4-0.4-0.4-0.8
																	c0-0.2,0-0.4,0.1-0.5c0.1-0.1,0.1-0.3,0.3-0.3c0.1,0,0.2,0,0.2,0.1c0,0.1,0,0.1,0,0.1c0,0,0,0,0-0.1
																	c0,0,0-0.1-0.1-0.1c0,0-0.1-0.1-0.2,0c-0.2,0-0.3,0.2-0.3,0.3c-0.1,0.2-0.1,0.4-0.1,0.6c0,0.4,0.2,0.8,0.5,0.8
																	C50.2,38.1,50.3,38,50.4,37.9C50.4,37.9,50.4,37.9,50.4,37.9z"/>
															</g>
														</g>
													</g>
												</g>
											</g>
										</g>
									</g>
								</g>
							</g>
							<g>
								<g>
									<g>
										<g>
											<g>
												<g>
													<g>
														<g>
															<g>
																<g>
																	<g>
																		<g>
																			<g>
																				<path class="st7" d="M60.5,36.7c0,0.5-0.1,0.9-0.4,0.9c-0.2,0-0.4-0.4-0.4-0.9c0-0.5,0.1-0.9,0.4-0.9
																					C60.3,35.8,60.5,36.2,60.5,36.7z"/>
																			</g>
																		</g>
																	</g>
																</g>
															</g>
														</g>
													</g>
													<g>
														<g>
															<g>
																<g>
																	<g>
																		<g>
																			<g>
																				<g>
																					<path class="st7" d="M60.5,35.3c-0.1,0.1-0.4-0.2-0.8-0.2c-0.4,0-0.8,0.2-0.8,0.2c0,0,0-0.1,0.2-0.2
																						c0.1-0.1,0.4-0.2,0.7-0.2c0.3,0,0.5,0.1,0.6,0.2C60.5,35.1,60.6,35.2,60.5,35.3z"/>
																				</g>
																			</g>
																		</g>
																	</g>
																</g>
															</g>
														</g>
													</g>
												</g>
												<g>
													<g>
														<g>
															<g>
																<g>
																	<g>
																		<g>
																			<g>
																				<path class="st7" d="M56.1,36.4c0,0.5-0.1,0.9-0.4,0.9c-0.2,0-0.4-0.4-0.4-0.9c0-0.5,0.1-0.9,0.4-0.9
																					C55.9,35.5,56.1,35.9,56.1,36.4z"/>
																			</g>
																		</g>
																	</g>
																</g>
															</g>
														</g>
													</g>
													<g>
														<g>
															<g>
																<g>
																	<g>
																		<g>
																			<g>
																				<g>
																					<path class="st7" d="M56.2,35.3c-0.1,0.1-0.4-0.2-0.8-0.2c-0.4,0-0.8,0.2-0.8,0.2c0,0,0-0.1,0.2-0.2
																						c0.1-0.1,0.4-0.2,0.7-0.2c0.3,0,0.5,0.1,0.6,0.2C56.1,35.2,56.2,35.3,56.2,35.3z"/>
																				</g>
																			</g>
																		</g>
																	</g>
																</g>
															</g>
														</g>
													</g>
												</g>
												<g>
													<g>
														<g>
															<g>
																<g>
																	<g>
																		<g>
																			<g>
																				<path class="st7" d="M57.8,38.6c0,0,0.3-0.1,0.7-0.1c0.1,0,0.2,0,0.2-0.1c0-0.1,0-0.2-0.1-0.3
																					c-0.1-0.3-0.2-0.6-0.3-0.9c-0.5-1.2-0.8-2.2-0.8-2.3c0,0,0.5,1,0.9,2.2c0.1,0.3,0.2,0.6,0.3,0.9
																					c0,0.1,0.1,0.3,0.1,0.4c0,0.1-0.1,0.1-0.2,0.2c-0.1,0-0.1,0-0.2,0C58.1,38.7,57.8,38.7,57.8,38.6z"/>
																			</g>
																		</g>
																	</g>
																</g>
															</g>
														</g>
													</g>
												</g>
												<g>
													<g>
														<g>
															<g>
																<g>
																	<g>
																		<g>
																			<g>
																				<path class="st7" d="M56.5,38.9c0.1,0,0.1,0.5,0.5,0.8c0.4,0.3,0.9,0.3,0.9,0.4c0,0-0.1,0.1-0.3,0.1
																					c-0.2,0-0.5-0.1-0.8-0.3c-0.3-0.2-0.4-0.5-0.4-0.7C56.4,39.1,56.4,38.9,56.5,38.9z"/>
																			</g>
																		</g>
																	</g>
																</g>
															</g>
														</g>
													</g>
												</g>
											</g>
										</g>
									</g>
									<g>
										<g>
											<g>
												<g>
													<g>
														<g>
															<g>
																<path class="st7" d="M56.3,33.6c0,0.1-0.5,0.1-1,0.1c-0.5,0.1-0.9,0.2-1,0.1c0-0.1,0-0.2,0.2-0.3
																	c0.2-0.1,0.4-0.2,0.7-0.3c0.3,0,0.6,0,0.8,0.1C56.2,33.4,56.3,33.5,56.3,33.6z"/>
															</g>
														</g>
													</g>
												</g>
											</g>
										</g>
									</g>
									<g>
										<g>
											<g>
												<g>
													<g>
														<g>
															<g>
																<path class="st7" d="M60.4,34c-0.1,0.1-0.4,0-0.8,0c-0.4,0-0.7,0.1-0.8,0c0-0.1,0-0.2,0.2-0.2
																	c0.1-0.1,0.4-0.2,0.6-0.2c0.3,0,0.5,0.1,0.6,0.2C60.4,33.8,60.4,33.9,60.4,34z"/>
															</g>
														</g>
													</g>
												</g>
											</g>
										</g>
									</g>
								</g>
							</g>
						</g>
					</g>
				</g>
			</g>
		</g>
		<g>
			<path class="st7" d="M50.7,35.7c0,0.3-0.1,0.6,0,0.9s0.2,0.6,0.5,0.7c0.5,0.2,1.1-0.1,1.3-0.6c0.2-0.5,0.2-1.1,0.1-1.6
				c-0.1-0.8-0.1-1.5,0-2.3c0.1-0.7,0.5-1.5,1.1-1.9c0.6-0.5,1.4-0.6,2.1-0.3c0.4,0.2,0.7,0.6,1.1,0.8c0.4,0.2,0.8,0.4,1.2,0.3
				c0.4-0.1,0.8-0.4,0.9-0.8c0.1-0.4-0.1-0.9-0.5-1.2c-0.4-0.3-0.8-0.4-1.3-0.5c-1.2-0.2-2.6-0.2-3.7,0.3C52.5,30,51.5,30.9,51,32
				c-0.6,1.4-0.2,2.4-0.3,3.9"/>
		</g>
	</g>
	<g>
		<g>
			<g>
				<g>
					<path class="st0" d="M90.5,49.8l-6.7-1.6l-5.3,8.7l-11.3-7.7l0,0c-1.3-0.9-3.5-1.1-5.2-1.3c0,0-0.1,0-0.1,0
						c-0.7-0.1-1.8,0.1-2.2,0.1c-2.9,2.2-6.1,2.3-9,0c0,0-3.2,0.3-4.5,0.5c-4.1,0.8-10.2,2.4-11,5.2l2.4,13.2l1,11.3l-4.1,10.1
						c-0.3,1,0.4,2.1,1.5,2.2l32.6,0.4l0.4-0.2c0.5-1,0.9-2.1,0.7-3.2c-1.1-4.8-0.3-12.2-0.6-16.7c5,4.9,10.5,8.9,14.5,6.4
						C87,75.1,90.5,49.8,90.5,49.8z"/>
				</g>
			</g>
			<g>
				<g>
					<g>
						<g>
							<polygon class="st4" points="50,47.5 50,47.5 50,47.5 							"/>
						</g>
					</g>
				</g>
			</g>
		</g>
		<g>
			<g>
				<polygon class="st0" points="50.7,48.8 51.1,45 55.1,46.5 56.6,49.2 57.6,46.2 59,45.7 60.4,48.5 59.7,51 55.5,51.9 				"/>
			</g>
		</g>
	</g>
	<g>
		<g>
			<g>
				<g>
					<g>
						<path class="st3" d="M70.2,176.6l-0.4,9.2c0,0,9.3,3.5,9.4,5.2L55.6,191l0-14.4L70.2,176.6z"/>
					</g>
				</g>
				<g>
					<g>
						<g>
							<path class="st7" d="M69.9,183.7c0,0.1-0.4,0-0.9,0c-0.5,0-0.9,0.2-0.9,0.1c-0.1-0.1,0.3-0.4,0.9-0.4
								C69.6,183.3,70,183.6,69.9,183.7z"/>
						</g>
					</g>
				</g>
			</g>
			<g>
				<g>
					<g>
						<path class="st7" d="M70,181.8c0,0-0.3,0.1-0.9,0c-0.3,0-0.6-0.1-0.9-0.3c-0.2-0.1-5.9-0.2-6.1-0.3c-0.1-0.1-0.2-0.1-0.3-0.2
							c-0.1-0.1-0.2-0.3,0-0.5c0.1-0.1,0.3-0.2,0.4-0.2c0.1,0,5.8,0,5.9,0c0.2,0,0.4,0.1,0.6,0.2c0.3,0.2,0.6,0.4,0.8,0.5
							C69.9,181.5,70,181.8,70,181.8c-0.1,0.1-0.3-0.2-0.7-0.5c-0.2-0.2-0.5-0.3-0.8-0.5c-0.2-0.1-0.3-0.1-0.5-0.2
							c-0.2-0.1-5.9-0.1-6,0c0,0,0,0,0,0.1c0,0.1,0.1,0.1,0.2,0.2c0.2,0.1,5.9,0.2,6.1,0.3c0.3,0.2,0.6,0.3,0.9,0.3
							C69.7,181.7,70,181.7,70,181.8z"/>
					</g>
				</g>
			</g>
			<g>
				<g>
					<g>
						<path class="st7" d="M69.9,181.9c0,0-0.2-0.3-0.2-0.9c0-0.3,0-0.6,0.1-1c0.1-0.2,0.1-0.4,0.2-0.5c0.1-0.2,0.2-0.4,0.6-0.5
							c0.2,0,0.3,0.1,0.4,0.3c0.1,0.1,0.1,0.2,0.1,0.3c0,0.2,0,0.4,0,0.6c-0.1,0.4-0.2,0.7-0.4,0.9c-0.4,0.5-0.7,0.6-0.7,0.5
							c0,0,0.3-0.2,0.5-0.7c0.1-0.2,0.3-0.5,0.3-0.8c0-0.2,0-0.3,0-0.5c0-0.2-0.1-0.3-0.2-0.3c-0.1,0-0.2,0.1-0.3,0.3
							c-0.1,0.2-0.2,0.3-0.2,0.5c-0.1,0.3-0.2,0.6-0.2,0.9C69.8,181.6,69.9,181.9,69.9,181.9z"/>
					</g>
				</g>
			</g>
		</g>
	</g>
	<g>
		<g>
			<g>
				<path class="st3" d="M33.6,173.9l-2.9,11.6l-4.9,8.5c-0.4,0.6-0.1,1.4,0.5,1.7l0,0c0.4,0.2,0.8,0.2,1.1,0
					c2.2-1.2,17.7-5.6,17.9-6.5c0.2-1,3.9-12,3.9-12L33.6,173.9z"/>
			</g>
		</g>
		<g>
			<g>
				<g>
					<path class="st7" d="M41.8,183c-0.1,0.1-7.9-0.5-8.8-0.7c-0.9-0.2-1.6,0-1.6,0c0,0,0.2-0.1,0.5-0.2c0.3-0.1,0.8-0.1,1.2,0
						c0.5,0.1,0.9,0.3,1.1,0.6C34.4,182.8,41.8,183,41.8,183z"/>
				</g>
			</g>
		</g>
		<g>
			<g>
				<g>
					<path class="st7" d="M33.2,181.7c0,0,0-0.2,0.1-0.4c0.1-0.3,0.3-0.7,0.7-1c0.2-0.2,7.7-0.4,8.1-0.5c0.2,0,0.4,0.1,0.5,0.3
						c0.1,0.2,0.1,0.4,0,0.6c-0.2,0.7-8.4,1.3-9.2,1.1c-0.8-0.1-1.5-0.8-1.6-1.5c0-0.2,0-0.4,0.1-0.6c0.1-0.2,0.4-0.2,0.6-0.1
						c0.3,0.1,0.5,0.4,0.6,0.6c0.3,0.4,0.5,0.8,0.5,1.1c0.1,0.3,0.1,0.4,0.1,0.4c0,0-0.1-0.6-0.8-1.4c-0.2-0.2-0.3-0.4-0.6-0.5
						c-0.1,0-0.2,0-0.3,0.1c-0.1,0.1-0.1,0.2-0.1,0.4c0.1,0.6,0.7,1.2,1.4,1.3c0.7,0.1,8.8-0.4,8.9-0.9c0-0.1,0-0.3,0-0.4
						c-0.1-0.1-0.2-0.2-0.3-0.1c-0.2,0-7.8,0.2-8,0.4C33.4,181,33.3,181.7,33.2,181.7z"/>
				</g>
			</g>
		</g>
	</g>
	<g>
		<g>
			<polygon class="st4" points="54.3,48.3 55.6,49 55.3,51.1 53.4,50.7 			"/>
		</g>
	</g>
	<g>
		<g>
			<g>
				<polygon class="st3" points="54.3,48.3 55.6,49 55.3,51.1 53.4,50.7 				"/>
			</g>
		</g>
		<g>
			<g>
				<polygon class="st3" points="57.2,48.9 58.1,48 59,50.2 57.8,50.8 				"/>
			</g>
		</g>
		<g>
			<g>
				<polygon class="st3" points="55.8,51.6 55.2,76.7 59.5,80.9 61.5,75.4 57.4,51.5 				"/>
			</g>
		</g>
		<g>
			<g>
				<path class="st3" d="M55.8,48.2c0.3,0,0.7-0.1,1-0.2c0.3-0.1,0.6,0.1,0.8,0.4l0.5,1c0.1,0.1,0.1,0.3,0.1,0.5L58,51
					c-0.1,0.3-0.3,0.5-0.5,0.6l-1.2,0.2c-0.3,0.1-0.6-0.1-0.8-0.4l-0.6-1.2c-0.1-0.2-0.1-0.4,0-0.6l0.4-1
					C55.4,48.4,55.6,48.3,55.8,48.2z"/>
			</g>
		</g>
	</g>
	<g>
		<g>
			<g>
				<g>
					<g>
						<g>
							<g>
								<g>
									<g>
										<path class="st7" d="M68.6,90.8l3.8,92.1c0,0.6-0.5,1.1-1.1,1.1l-16.3-0.1c-0.6,0-1.1-0.5-1.1-1.2L52.7,150l-3.9,32.2
											c-0.2,1-1.1,1.7-2.1,1.7l-16.3-0.3c-1.2,0-2.1-1.1-1.9-2.3l7-90.8L68.6,90.8z"/>
									</g>
								</g>
							</g>
						</g>
					</g>
				</g>
			</g>
		</g>
	</g>
	<g>
		<g>
			<g>
				<g>
					<path class="st0" d="M53.8,78.3c0,0-19.4,6-20.7,6.3c-4.5,1-13.5-0.9-8.4-13.9c0.7-1.8,10.6-17.6,10.6-17.6L39.5,64l0.8,8.4
						l9.8,0.9L53.8,78.3z"/>
				</g>
			</g>
		</g>
		<g>
			<g>
				<g>
					<g>
						<g>
							<path class="st7" d="M50.7,72.9l-1.1-5.2c-0.1-0.4,0.2-0.8,0.7-0.8L63.7,67c0.4,0,0.7,0.3,0.7,0.7L63,79.6
								c-0.1,0.5-0.5,0.8-0.9,0.8l-8.7-0.1c-0.4,0-0.8-0.3-0.9-0.7L50.7,72.9z"/>
						</g>
					</g>
				</g>
				<g>
					<g>
						<g>
							<g>
								<g>
									<path class="st5" d="M49.5,70.2L49.5,70.2c0.6,0,1.1,0.4,1.3,0.9c0.2,0.6,0.5,1.2,0.9,1.4c0.7,0.4,1.8,0.6,2.4,0.4
										c0.6-0.3,3-2.4,3.4-2.2c0.4,0.2,0.8,0.8,0.4,1.3c-0.4,0.5-2.6,1.9-2.2,2.4c0.4,0.5,5.1-1.6,5.8-1.4
										c0.7,0.2,1.1,0.6,0.7,0.9c-0.4,0.3-3.6,1.5-3.8,1.9c0,0,4.8-1.3,5-1c0.2,0.3,0.5,0.8,0,1c-0.5,0.2-4.6,1.3-5,1.4
										c-0.4,0.2-1.6,0.5-1.8,0.5c-0.1,0-1.1,0.3-1.9,0.6c-1,0.3-2,0.3-3-0.1L51.2,78c-0.8-0.3-1.2-1.1-1.2-1.9l0.1-1.6l-0.5-1.3
										L49.5,70.2z"/>
								</g>
							</g>
						</g>
					</g>
				</g>
			</g>
			<g>
				<g>
					<path class="st8" d="M57.6,68.9c0,0.3-0.2,0.5-0.5,0.5c-0.3,0-0.5-0.2-0.5-0.5s0.2-0.5,0.5-0.5C57.3,68.4,57.6,68.7,57.6,68.9z
						"/>
				</g>
			</g>
		</g>
	</g>
</g>
<line class="st9" x1="33.1" y1="180" x2="38.5" y2="93.5"/>
<g>
	<g>
		<path class="st7" d="M115.2,110.8H75v-1.5h38.6C114.5,109.3,115.2,110,115.2,110.8L115.2,110.8z"/>
	</g>
	<g>
		<path class="st7" d="M104.1,110.5H76.7c-0.9,0-1.7-0.8-1.7-1.7V88.9c0-0.9,0.8-1.7,1.7-1.7h27.3c0.9,0,1.7,0.8,1.7,1.7v19.9
			C105.8,109.7,105,110.5,104.1,110.5z"/>
	</g>
	<g>
		<g>
			<g>
				<rect x="76.3" y="88.3" class="st8" width="28.2" height="20.7"/>
			</g>
		</g>
		<g>
			<g>
				<path class="st0" d="M96.4,103.6c0,0,0-2.2,0-4.9c0-2.7,0-4.9,0-4.9s0,2.2,0,4.9C96.4,101.5,96.4,103.6,96.4,103.6z"/>
			</g>
		</g>
		<g>
			<circle class="st4" cx="92.5" cy="100.8" r="0.2"/>
		</g>
		<g>
			<circle class="st4" cx="96.4" cy="98.2" r="0.2"/>
		</g>
		<g>
			<circle class="st7" cx="88.6" cy="96.8" r="0.2"/>
		</g>
		<g>
			<circle class="st7" cx="96.4" cy="99.7" r="0.2"/>
		</g>
		<g>
			<g>
				<path class="st0" d="M99,104.6c0,0-0.2,0-0.4,0c-0.2,0-0.4,0-0.4,0c0,0,0.2,0,0.4,0C98.8,104.5,99,104.6,99,104.6z"/>
			</g>
		</g>
		<g>
			<rect x="80.7" y="90.6" class="st4" width="5.6" height="0.4"/>
		</g>
	</g>
</g>
<g>
	<g>
		<polygon class="st10" points="4.1,191.1 12.5,116.7 19.6,119.2 8,191.1 		"/>
	</g>
	<g>
		<rect x="0.5" y="110.7" class="st10" width="140.2" height="9.4"/>
	</g>
</g>
<rect x="79.1" y="96.9" class="st3" width="7.7" height="7.7"/>
<rect x="79.1" y="104.9" class="st4" width="7.7" height="0.6"/>
<rect x="79.1" y="106" class="st4" width="3.8" height="0.6"/>
<rect x="87.1" y="96.9" class="st3" width="7.7" height="7.7"/>
<rect x="87.1" y="104.9" class="st4" width="7.7" height="0.6"/>
<rect x="87.1" y="106" class="st4" width="3.8" height="0.6"/>
<g>
	<g>
		<g>
			<g>
				<g>
					<g>
						<path class="st4" d="M95.3,177.4l3.5,8.6c0,0-7.6,6.4-7.1,8l22.8-8.7l-4.8-13.6L95.3,177.4z"/>
					</g>
				</g>
			</g>
		</g>
	</g>
	<g>
		<g>
			<g>
				<g>
					<g>
						<path class="st4" d="M117.1,173.2l3.5,8.6c0,0-7.6,6.4-7.1,8l24.4-6.5l-4.8-13.6L117.1,173.2z"/>
					</g>
				</g>
			</g>
		</g>
	</g>
	<line class="st11" x1="108.5" y1="176.5" x2="112" y2="184"/>
	<line class="st11" x1="98.4" y1="180.3" x2="108.5" y2="176.5"/>
	<line class="st11" x1="120" y1="176" x2="132.7" y2="173.9"/>
	<line class="st11" x1="135.9" y1="182.5" x2="132.7" y2="173.9"/>
	<line class="st11" x1="122.6" y1="186.3" x2="119.7" y2="184.8"/>
	<g>
		<g>
			<g>
				<g>
					<path class="st12" d="M129.3,67.9l-1.1,9.2l1.8,4.3l-6.9,0.2l-1.4-3.3c0,0-3.4-0.4-3.6-2.6c-0.1-1.4,2.2-11.6,2.2-11.6
						L129.3,67.9z"/>
				</g>
			</g>
			<g>
				<g>
					<path class="st7" d="M127,78.9c0.8-0.6,1.2-0.9,1.6-1.8c0.4-0.9,0.6-1.9,1-2.8c0.4-0.9,1-1.8,1.5-2.7c0.4-0.9,0.6-2.1,0.2-3
						c0,0-0.1-1.2-1.8-1.7c0,0-0.9-2.6-3.1-2.8c-2.9-0.3-2.8-1.2-4.7-1.9c-1.8-0.7-2.5,0.9-2.5,0.9s-1.2,0.5-1.4,1.6c0,0,0,0,0,0
						c-0.3,1.1,0.2,2.2,1.2,2.8c0.1,0.1,0.2,0.1,0.4,0.2c0.3,0.2,0.7,0.4,0.9,0.7c0.3,0.5,0.2,1.1,0.1,1.7c-0.1,0.6-0.3,1.1-0.3,1.7
						c0,0.2,0.1,0.4,0.3,0.4c0.2,0,0.3-0.3,0.4-0.5c0.2-0.6,1.2-1,1.6-0.4c0.3,0.4,0.3,0.9,0,1.3c-0.3,0.4-0.9,0.7-1.1,1.2
						c-0.3,0.8,0.5,1.8,0.8,2.4c0.1,0.2,0.2,0.4,0.3,0.6c0.7,0.9,1.4,1.5,2.4,2.1c0.7,0.4,1.6,0.5,2.3,0.1"/>
				</g>
			</g>
		</g>
	</g>
	<g>
		<g>
			<g>
				<g>
					<g>
						<g>
							<path class="st12" d="M84.8,93.7L84.8,93.7c-1.7-0.7-2.9-1.4-4-1.8c-1.4-0.5-2-0.8-1.9-1.1c0.2-0.4,0.1-0.2,2.8,0.4
								c0,0-3.9-0.9-2.9-1.3c0.4-0.2,3.7,0.5,3.7,0.5c-2.7-0.3-3.6-0.8-3.6-1.2c0.1-0.6,4.1,0.3,4.1,0.3s-3-0.6-3.5-0.9
								c-0.5-0.3,0.1-0.5,0.7-0.6c0.7-0.1,4.5,0.1,5.6,0c0.8,0,0.7-0.7,0.7-0.7c-0.3-1.6,0.3-3,0.6-3.3c0.3-0.3,0.9,0.1,0.8,0.6
								c-0.1,0.4,0,1.1,0,1.6c0.1,0.4,0.2,0.9,0.4,1.3c0.2,0.5,0.4,0.8,0.6,1.2l5.5,6.1l-2.4,5.8L84.8,93.7z"/>
						</g>
					</g>
				</g>
			</g>
		</g>
		<g>
			<g>
				<g>
					<g>
						<g>
							<path class="st13" d="M83.4,91.5c0,0.1-0.9-0.1-1.9-0.3c-1-0.2-1.9-0.5-1.8-0.6c0-0.1,0.9,0.1,1.9,0.3
								C82.5,91.2,83.4,91.4,83.4,91.5z"/>
						</g>
					</g>
				</g>
			</g>
		</g>
		<g>
			<g>
				<g>
					<g>
						<g>
							<path class="st13" d="M83.7,90.4c0,0.1-0.9,0-2-0.2c-1.1-0.2-2-0.4-2-0.5c0-0.1,0.9,0,2,0.2C82.8,90.2,83.7,90.4,83.7,90.4z"
								/>
						</g>
					</g>
				</g>
			</g>
		</g>
		<g>
			<g>
				<g>
					<g>
						<g>
							<path class="st13" d="M84,89.4c0,0.1-0.9,0-1.9-0.2c-1.1-0.2-1.9-0.4-1.9-0.4c0-0.1,0.9,0,1.9,0.2C83.2,89.1,84,89.3,84,89.4
								z"/>
						</g>
					</g>
				</g>
			</g>
		</g>
	</g>
	<g>
		<g>
			<path class="st7" d="M121.1,119.5c0,0-29.3,6.1-29.7,6.2c-4.9,1-7.9,5.9-8.7,10.5c-0.8,4.8,0.7,9.3,2,13.9
				c1.5,5.1,3.6,10.1,5.2,15.2c1.6,5,3.1,10,4.7,15.1l17.3-6.9l-6.9-35.3l36.7-2.5v-16.1l-20.5-0.7"/>
		</g>
		<g>
			<path class="st7" d="M137.8,119.5l-23.7,3.6c-3.3,0.5-6.1,2.3-7.9,5.1l0,0c-1.8,2.8-2.4,6.3-1.4,9.5l10.9,37.6l20.2-3.7
				l-6.7-33.9l17-1.2v-16.1l-8.3-1.6"/>
		</g>
	</g>
	<g>
		<g>
			<path class="st4" d="M90.7,90c0.5-0.1,16.6,12.5,16.6,12.5L97,106.5L86.6,96.2C86.6,96.2,85.9,90.6,90.7,90z"/>
		</g>
		<g>
			<g>
				<path class="st4" d="M146.1,84.9c-4.5-4.5-10.1-5-12-5.4c-0.4-0.1-0.8-0.1-1.2-0.1l-13.2,0h-0.6c-2.5,0-4.9,0.9-6.7,2.6
					c-1.5,1.4-3.3,3.6-5.3,6.8l-6.9,9.6l-4.2,7.1c0,0,0.9,1.1,0.9,1.1c1.7,2.1,4.7,2.8,7.3,2.6c2.2-0.1,4.2-1.2,6.4-1.6
					c0.8-0.1,1.6-0.1,2.5-0.2c2-0.2,3.8,0.9,4.6,2.7c0.5,1.4,1.1,2.7,1.2,3c0.5,1.6,1,3.1,1.6,4.7l-3.7,2.4l15.6,6.3l16.2-6.9
					c0,0-4.5-16-4.5-16c0,0,10.6,1.5,11.3-1.3C156.1,99.4,150.2,89,146.1,84.9z"/>
			</g>
		</g>
		<line class="st11" x1="141.6" y1="88.3" x2="144.2" y2="93.9"/>
	</g>
	<g>
		<g>
			<polygon class="st10" points="100,138.8 93.8,191.1 96.5,191.1 103.1,138.8 			"/>
		</g>
		<g>
			<polygon class="st10" points="124.9,138.8 130.6,191.1 133.5,191.1 127.9,138.8 			"/>
		</g>
		<g>
			<polyline class="st7" points="155.7,138.8 160.5,191.1 163.8,191.1 158.3,138.8 154.4,138.8 			"/>
		</g>
		<g>
			<path class="st7" d="M139.8,93.8h23.1c2.2,0,3.9,1.9,3.6,4.1l-5.5,38.2c-0.2,1.5-1.5,2.7-3.1,2.7h-30L139.8,93.8z"/>
		</g>
		<g>
			<path class="st10" d="M96.9,138.8c0.1-0.6,0-3.5,0-3.5l28.7,0.5c2.2,0,4.1-1.5,4.4-3.7l5.7-34.9c0.3-2,2-3.4,4-3.4l0,0l-6.2,39.3
				c-0.5,3.3-3.3,5.7-6.6,5.7H96.9z"/>
		</g>
	</g>
	<line class="st11" x1="114.4" y1="106.6" x2="123.2" y2="103.6"/>
	<path class="st11" d="M144.2,93.9"/>
	<path class="st11" d="M141.6,88.3"/>
	<line class="st11" x1="99.1" y1="100.5" x2="102.1" y2="96.6"/>
</g>
<line class="st9" x1="38.5" y1="93.5" x2="67.4" y2="93.8"/>
<line class="st14" x1="42.6" y1="64.1" x2="38.5" y2="72.1"/>
<line class="st14" x1="38.5" y1="72.1" x2="50.1" y2="73.3"/>
<line class="st14" x1="78.6" y1="56.9" x2="75" y2="61.7"/>
<line class="st9" x1="55.2" y1="180.3" x2="71" y2="180.3"/>
<line class="st15" x1="32.5" y1="184.8" x2="45.2" y2="185.3"/>
<line class="st15" x1="29.7" y1="190.3" x2="31.4" y2="192.9"/>
<line class="st15" x1="56.6" y1="185.1" x2="68.1" y2="185.1"/>
<line class="st15" x1="72.4" y1="187.8" x2="71.1" y2="190.5"/>
</svg>
