<svg width="111" height="119" id="Layer_1" data-name="Layer 1" xmlns="http://www.w3.org/2000/svg" viewBox="0 0 134.79 145.77"><defs><style>.cls-1{fill:#39385e;}.cls-2{fill:#d1d1d1;}.cls-3,.cls-4{fill:#fff;}.cls-3,.cls-8{opacity:0.2;}.cls-4{opacity:0.3;}.cls-5{fill:#adadad;opacity:0.6;}.cls-6{fill:#ffc3bd;}.cls-7{fill:#eb474e;}.cls-9{fill:#5430ef;}.cls-10{fill:#2d2d49;}.cls-11{fill:#e0e0e0;}.cls-12,.cls-13,.cls-14{fill:none;stroke-miterlimit:10;}.cls-12{stroke:#48486b;}.cls-13{stroke:#6c54f7;}.cls-14{stroke:#d33c4e;}</style></defs><title>how-work-icon1</title><path class="cls-1" d="M50.07,3.64S50.79,1.08,54.93,2s.85,4.12.85,4.12a5.33,5.33,0,0,1,2,5.67c-1,4.39-3.68,3.36-4.93,5.36s.28,1-5.22-2.05c-3.32-1.86-3.54-2.81-4.21-5.3C42.37,6.1,45.13,2.45,50.07,3.64Z" transform="translate(-1.18 -0.78)"/><path class="cls-2" d="M48.46,100.73l6-29.86a7.36,7.36,0,0,1,6.87-5.72h57.82a4.55,4.55,0,0,1,4.57,5.72l-6,29.86a7.35,7.35,0,0,1-6.87,5.72H53A4.54,4.54,0,0,1,48.46,100.73Z" transform="translate(-1.18 -0.78)"/><path class="cls-2" d="M32.81,20.39H43L58.76,97.84H48.61C27.22,97.84,6.35,80.5,2,59.11S11.43,20.39,32.81,20.39Z" transform="translate(-1.18 -0.78)"/><ellipse class="cls-2" cx="50.86" cy="59.11" rx="34.98" ry="42.87" transform="translate(-28.28 56.45) rotate(-47.91)"/><ellipse class="cls-3" cx="50.86" cy="59.11" rx="34.98" ry="42.87" transform="translate(-28.28 56.45) rotate(-47.91)"/><path class="cls-2" d="M103.79,89.22l3.69-18.35a7.37,7.37,0,0,1,6.87-5.72h5.8a4.55,4.55,0,0,1,4.57,5.72l-6,29.86a7.34,7.34,0,0,1-6.87,5.72H39.08V89.22Z" transform="translate(-1.18 -0.78)"/><path class="cls-4" d="M103.79,89.22l3.69-18.35a7.37,7.37,0,0,1,6.87-5.72h5.8a4.55,4.55,0,0,1,4.57,5.72l-6,29.86a7.34,7.34,0,0,1-6.87,5.72H39.08V89.22Z" transform="translate(-1.18 -0.78)"/><polygon class="cls-1" points="31.82 144.44 35.49 144.44 44.4 105.67 37.76 105.67 31.82 144.44"/><polygon class="cls-5" points="31.82 144.44 35.49 144.44 44.4 105.67 37.76 105.67 31.82 144.44"/><polygon class="cls-1" points="13.6 144.44 17.27 144.44 26.18 105.67 19.54 105.67 13.6 144.44"/><polygon class="cls-5" points="13.6 144.44 17.27 144.44 26.18 105.67 19.54 105.67 13.6 144.44"/><polygon class="cls-1" points="89.45 144.44 85.78 144.44 76.87 105.67 83.51 105.67 89.45 144.44"/><polygon class="cls-5" points="89.45 144.44 85.78 144.44 76.87 105.67 83.51 105.67 89.45 144.44"/><polygon class="cls-1" points="107.67 144.44 104 144.44 95.09 105.67 101.73 105.67 107.67 144.44"/><polygon class="cls-5" points="107.67 144.44 104 144.44 95.09 105.67 101.73 105.67 107.67 144.44"/><path class="cls-6" d="M66.29,30.11c1.92,3.32,4,6.71,6.08,9.94,1.07,1.62,2.16,3.21,3.28,4.73a36.91,36.91,0,0,0,3.53,4.15s0,0-.07,0-.13-.1-.21-.14a2.53,2.53,0,0,0-1.05-.37,2.36,2.36,0,0,0-.46,0,2.24,2.24,0,0,0-.51.07,2.06,2.06,0,0,0-.48.15,2.15,2.15,0,0,0-.4.21,2.63,2.63,0,0,0-.78.76A1.5,1.5,0,0,0,75,50s0,0,0,0a7.41,7.41,0,0,0,.13-1c.06-.86.07-1.81.06-2.76,0-1.92-3.83-3.09-3.94-5.06l3.08-12.69,3.32-.5c1,3.93,1.77,7.86,2.41,11.86.31,2,.61,4,.8,6.08A20,20,0,0,1,81,51.06c-.3,1.67-1.35,4.27-2.89,5.16-2,1.18-5.8.59-8,.11a11.25,11.25,0,0,1-6-3.32c-1.64-1.74-3.91-3.08-5.29-5-2.36-3.39-4-9.49-5.95-13.13Z" transform="translate(-1.18 -0.78)"/><path class="cls-2" d="M63.18,23.79c4.51.76,8.19,14.31,8.09,14L62.58,45.9S57.22,37.83,58,33.79C58.77,29.59,59.62,23.19,63.18,23.79Z" transform="translate(-1.18 -0.78)"/><path class="cls-7" d="M63.18,23.79c4.51.76,8.19,14.31,8.09,14L62.58,45.9S57.22,37.83,58,33.79C58.77,29.59,59.62,23.19,63.18,23.79Z" transform="translate(-1.18 -0.78)"/><path class="cls-2" d="M68.16,32.56c-.43,5.8-1.72,15.57-4.9,32L36,63.77c.72-10.08-5-17.6-7.46-35.24A5.72,5.72,0,0,1,33.59,22c1.75-.18,8.37-.33,10.38-.37A85.79,85.79,0,0,1,56.36,22c1.33.16,2.71.37,4,.59A9.39,9.39,0,0,1,68.16,32.56Z" transform="translate(-1.18 -0.78)"/><path class="cls-7" d="M68.16,32.56c-.43,5.8-1.72,15.57-4.9,32L36,63.77c.72-10.08-5-17.6-7.46-35.24A5.72,5.72,0,0,1,33.59,22c1.75-.18,8.37-.33,10.38-.37A85.79,85.79,0,0,1,56.36,22c1.33.16,2.71.37,4,.59A9.39,9.39,0,0,1,68.16,32.56Z" transform="translate(-1.18 -0.78)"/><path class="cls-6" d="M47.84,14.51c.37,2.19.67,6.2-.89,7.61,0,0,.72,2,4.95,2,3.13-.87,1.82-1.81,1.82-1.81-2.41-.65-2.29-2.45-1.82-4.13Z" transform="translate(-1.18 -0.78)"/><path class="cls-8" d="M49.5,16l2.4,2.17a6.58,6.58,0,0,0-.25,1.2,3,3,0,0,1-2.24-2.2A3.23,3.23,0,0,1,49.5,16Z" transform="translate(-1.18 -0.78)"/><path class="cls-6" d="M45.41,10.4c.65,3.59.86,5.13,2.9,6.76,3.09,2.47,7.35.88,7.78-2.84.39-3.34-.75-8.65-4.46-9.66A5,5,0,0,0,45.41,10.4Z" transform="translate(-1.18 -0.78)"/><path class="cls-1" d="M50.32,4.23c4.92,2,0,3.68-1.83,5.59-1.58,1.69-.1,4.38-2.76,2.49-1.27-.91-1.22-5.69-.51-6.58S48.85,3.63,50.32,4.23Z" transform="translate(-1.18 -0.78)"/><path class="cls-6" d="M44.63,13.68a2.88,2.88,0,0,0,1.69,1.39c1,.28,1.46-.58,1.2-1.5s-1-2-2-1.84A1.28,1.28,0,0,0,44.63,13.68Z" transform="translate(-1.18 -0.78)"/><polygon class="cls-6" points="55.93 134.81 71.3 139.87 78.32 125.52 63.41 124.07 55.93 134.81"/><path class="cls-9" d="M74.23,136.7l-13.4-5.79a.52.52,0,0,0-.68.18l-3,4.51a1.15,1.15,0,0,0,.33,1.59c1.79,1.34,3.23,1.43,6.21,2.9,1.83.9,12.18,5.75,14.93,6.38s3.47-2.07,2.38-2.58c-4.9-2.29-4.94-4.19-5.9-6.32A1.76,1.76,0,0,0,74.23,136.7Z" transform="translate(-1.18 -0.78)"/><polygon class="cls-6" points="110.19 126.01 122.57 119.61 113.01 100.41 105.03 116.36 110.19 126.01"/><path class="cls-9" d="M123.35,117.75l-14,4.25a.51.51,0,0,0-.47.52v6a1.1,1.1,0,0,0,1.24,1.05c2.61-.37,10.4-4,13.7-4.39,2-.26,7.22-.73,10-1.08s2.56-3.14,1.36-3.24c-5.39-.47-8.64-1.6-10.61-2.86A1.85,1.85,0,0,0,123.35,117.75Z" transform="translate(-1.18 -0.78)"/><path class="cls-10" d="M58,69.86s38.23-.21,37,12.59c-2,21.17-17,50.33-17,50.33l-15.32-5.47A85.52,85.52,0,0,0,71.3,89.46c-8.61,0-11.64-.24-21.19-.24-10.69,0-15.31-11.75-4.9-25.45C51.57,63.77,58,69.86,58,69.86Z" transform="translate(-1.18 -0.78)"/><path class="cls-1" d="M39.21,65.36l-.74,0c-.15,0-.26-.08-.24-.17L38.67,62c0-.09.14-.16.29-.16l.74,0c.15,0,.26.09.25.18L39.5,65.2C39.49,65.29,39.36,65.36,39.21,65.36Z" transform="translate(-1.18 -0.78)"/><path class="cls-1" d="M61.27,66l-.74,0c-.15,0-.26-.08-.25-.18l.44-3.16a.28.28,0,0,1,.3-.16l.74,0c.14,0,.25.08.24.18l-.44,3.16C61.55,65.94,61.41,66,61.27,66Z" transform="translate(-1.18 -0.78)"/><path class="cls-1" d="M50.24,65.68l-.74,0c-.15,0-.26-.08-.25-.17l.45-3.17c0-.09.14-.16.29-.16l.74,0c.15,0,.26.09.24.18l-.44,3.16C50.52,65.62,50.39,65.69,50.24,65.68Z" transform="translate(-1.18 -0.78)"/><path class="cls-1" d="M53.73,64.1s49.08-10.46,51.13,1.58c3.57,21,16,44.88,16,44.88L106.68,119S94.84,101.16,88,81.36C79.79,84,55.92,89.22,46.37,89.22c-10.69,0-15.86-11-11.18-26.73C41.56,62.49,53.73,64.1,53.73,64.1Z" transform="translate(-1.18 -0.78)"/><path class="cls-2" d="M4.88,70.87l6,29.86a7.35,7.35,0,0,0,6.87,5.72H38.42A4.55,4.55,0,0,0,43,100.73L37,70.87a7.35,7.35,0,0,0-6.87-5.72H9.44A4.54,4.54,0,0,0,4.88,70.87Z" transform="translate(-1.18 -0.78)"/><path class="cls-2" d="M48.23,100.73l-6-29.86a7.35,7.35,0,0,0-6.87-5.72H29.55A4.55,4.55,0,0,0,25,70.87l6,29.86a7.36,7.36,0,0,0,6.88,5.72h5.79A4.55,4.55,0,0,0,48.23,100.73Z" transform="translate(-1.18 -0.78)"/><path class="cls-4" d="M48.23,100.73l-6-29.86a7.35,7.35,0,0,0-6.87-5.72H29.55A4.55,4.55,0,0,0,25,70.87l6,29.86a7.36,7.36,0,0,0,6.88,5.72h5.79A4.55,4.55,0,0,0,48.23,100.73Z" transform="translate(-1.18 -0.78)"/><path class="cls-6" d="M34.44,32.48c-.34,1.76,4.91,4.2,4.64,6s.2,4.28,0,6.13c-.18,1.56-1.17,2.87-1.42,4.42l-.49,3C39.92,53.8,46.88,59,50,60c1.8.58,3.66,1.11,5.47,1.62l-.54,3.32c-4.56-.35-12-.32-16.44-1.35-3.81-.88-7.19-1.28-10.62-3.41-5.26-3.25-3.34-10.38-3-15.5.16-2,1.55-5.74,1.85-7.72S27.35,33,27.82,31Z" transform="translate(-1.18 -0.78)"/><path class="cls-7" d="M29.81,24.54c-2.74.81-4.56,18-4.56,18l13.83,2.08S41.75,34.55,40.63,31,32.94,23.61,29.81,24.54Z" transform="translate(-1.18 -0.78)"/><path class="cls-6" d="M63.67,61.56,61,60.35a3.3,3.3,0,0,0-2.12-.21l-6.28,1.47-.84,2.11c.91,2.47,5.09,2.14,5.09,2.14L60.2,67a1.43,1.43,0,0,0,1.53-.42l2.42-2.82A1.4,1.4,0,0,0,63.67,61.56Z" transform="translate(-1.18 -0.78)"/><path class="cls-6" d="M82.1,20l-3.45.3a2,2,0,0,0-1.73,1.4l-.91,3s-2.71,3.2-1.23,5.38l2.2.54,4.93-4.29a3,3,0,0,0,1-1.7l.61-3.07A1.31,1.31,0,0,0,82.1,20Z" transform="translate(-1.18 -0.78)"/><path class="cls-9" d="M82.69,17.75a7.93,7.93,0,1,1-15.86,0Z" transform="translate(-1.18 -0.78)"/><ellipse class="cls-1" cx="73.58" cy="16.97" rx="7.93" ry="0.33"/><path class="cls-9" d="M81.89,24.54a2.76,2.76,0,1,1,2.75-2.75A2.75,2.75,0,0,1,81.89,24.54Zm0-4.94a2.19,2.19,0,1,0,2.19,2.19A2.2,2.2,0,0,0,81.89,19.6Z" transform="translate(-1.18 -0.78)"/><path class="cls-11" d="M73.27.78a10.4,10.4,0,0,0,1.31,2.74,18,18,0,0,0,2,2.19,8.5,8.5,0,0,1,1.93,2.75,5,5,0,0,1,.13,3.36,10.4,10.4,0,0,0-1.31-2.74,19.56,19.56,0,0,0-2-2.19,8.5,8.5,0,0,1-1.93-2.75A5,5,0,0,1,73.27.78Z" transform="translate(-1.18 -0.78)"/><path class="cls-11" d="M70.9,4.1a10.73,10.73,0,0,0,1.31,2.74,19.69,19.69,0,0,0,2,2.19,8.29,8.29,0,0,1,1.93,2.75,5,5,0,0,1,.13,3.35,10.49,10.49,0,0,0-1.31-2.73,18,18,0,0,0-2-2.19A8.5,8.5,0,0,1,71,7.46,5,5,0,0,1,70.9,4.1Z" transform="translate(-1.18 -0.78)"/><path class="cls-1" d="M50.48,4.89c2.39,1.82,3.26.77,4.45,2.68-.45-2.73-2.11-3.46-3.69-3.49S49.88,4.42,50.48,4.89Z" transform="translate(-1.18 -0.78)"/><path class="cls-1" d="M54.17,11s.32.19.73.21.72-.15.76-.1,0,.11-.17.2a1.1,1.1,0,0,1-.62.14,1,1,0,0,1-.57-.23C54.18,11.13,54.14,11,54.17,11Z" transform="translate(-1.18 -0.78)"/><path class="cls-1" d="M50.2,11.05s.32.19.73.21.72-.16.76-.11,0,.11-.17.2a1.14,1.14,0,0,1-.61.15,1.07,1.07,0,0,1-.58-.23C50.21,11.17,50.17,11.08,50.2,11.05Z" transform="translate(-1.18 -0.78)"/><path class="cls-1" d="M53,13.51a2.74,2.74,0,0,1,.67-.12c.1,0,.2,0,.22-.1a.57.57,0,0,0-.07-.31l-.31-.8a14.63,14.63,0,0,1-.7-2.08,12.16,12.16,0,0,1,.86,2c.11.28.21.55.3.8a.62.62,0,0,1,.06.41.25.25,0,0,1-.18.15l-.17,0A3,3,0,0,1,53,13.51Z" transform="translate(-1.18 -0.78)"/><path class="cls-1" d="M51.64,14.51c.06,0,.29.34.78.4s.87-.23.9-.18,0,.13-.2.24a1.12,1.12,0,0,1-.74.17.94.94,0,0,1-.63-.35C51.63,14.64,51.62,14.53,51.64,14.51Z" transform="translate(-1.18 -0.78)"/><path class="cls-1" d="M51.7,9.76c0,.11-.45.06-.93.11s-.87.19-.93.09,0-.15.19-.26a1.69,1.69,0,0,1,.7-.24,1.56,1.56,0,0,1,.72.09C51.63,9.62,51.72,9.7,51.7,9.76Z" transform="translate(-1.18 -0.78)"/><path class="cls-1" d="M55.39,9.21c-.07.1-.35,0-.69,0s-.63.06-.7,0,0-.14.15-.23a.91.91,0,0,1,.56-.15,1,1,0,0,1,.55.19C55.38,9.07,55.42,9.17,55.39,9.21Z" transform="translate(-1.18 -0.78)"/><line class="cls-12" x1="63.41" y1="124.07" x2="77.76" y2="128.82"/><line class="cls-12" x1="75.98" y1="127.74" x2="89.21" y2="91.86"/><line class="cls-12" x1="117.26" y1="107.99" x2="105.04" y2="116.36"/><path class="cls-12" d="M108,115.94,89.68,77.53s-25.83,9.8-43.24,9.37" transform="translate(-1.18 -0.78)"/><line class="cls-13" x1="60.85" y1="131.49" x2="58.01" y2="136.57"/><line class="cls-13" x1="71.93" y1="143.07" x2="75.18" y2="141.16"/><line class="cls-13" x1="109.6" y1="121.66" x2="109.93" y2="127.74"/><line class="cls-13" x1="125.43" y1="123.74" x2="126.85" y2="119.74"/><line class="cls-14" x1="25.26" y1="39.66" x2="38.17" y2="41.64"/><line class="cls-14" x1="37.9" y1="43.86" x2="39.6" y2="34.83"/><line class="cls-14" x1="63.69" y1="55.86" x2="67" y2="33.32"/><path class="cls-14" d="M54.93,22.15S56,24.71,52.81,25s-6.43-.42-8.09-2.87" transform="translate(-1.18 -0.78)"/></svg>