<?xml version="1.0" encoding="utf-8"?>
<!-- Generator: Adobe Illustrator 22.0.0, SVG Export Plug-In . SVG Version: 6.00 Build 0)  -->
<svg version="1.1" id="Layer_1" xmlns="http://www.w3.org/2000/svg" xmlns:xlink="http://www.w3.org/1999/xlink" x="0px" y="0px"
	 viewBox="0 0 46.9 44" style="enable-background:new 0 0 46.9 44;" xml:space="preserve">
<style type="text/css">
	.st0{fill:#444444;}
</style>
<path class="st0" d="M278.3-88.1l4.5-0.9c0,0-3.8,4.3-4.5,4.5l0,0c-0.1,2.1,0,2.7,0,2.7c-8.7,37.5-40.9,20.9-40.9,20.9
	c11.7,0.3,12.7-4.5,12.7-4.5c-6.8-1-8.2-5.5-8.2-5.5c2.4,1.1,3.6-0.9,3.6-0.9c-7.4-1.9-6.4-9.1-6.4-9.1c1.3,1.1,3.3,1.5,4.5,1.7
	c-0.8-1-7.7-9.3-3.5-13.6c0,0,5.1,9.1,18.5,9.9l0.9-0.2c-0.2-0.6-0.2-1.3-0.2-2c0-5.3,4.3-9.6,9.6-9.6c6.4,0,7.7,3.6,7.7,3.6
	l4.5-2.7C281-93.6,280.5-89.1,278.3-88.1z"/>
<path class="st0" d="M98.1-88.5v4.5h7.3l-0.9,8.2h-6.4v19.1h-10v-19.1h-4.5V-84h4.5v-4.5c0,0-0.8-8.6,7.3-10h10v7.3h-4.5
	C100.8-91.2,98.3-91.3,98.1-88.5z"/>
<g>
	<circle class="st0" cx="172.3" cy="-76.9" r="7.1"/>
	<path class="st0" d="M189.2-93.4c-2.1-2.1-5-3.4-8.5-3.4h-16.6c-7.1,0-11.7,4.8-11.7,11.7v16.6c0,3.5,1.1,6.6,3.3,8.6
		c2.1,2.1,5.2,3.2,8.5,3.2h16.4c3.3,0,6.4-1.1,8.5-3.2s3.3-5.2,3.3-8.6V-85C192.3-88.4,191.3-91.3,189.2-93.4z M172.3-65.8
		c-6.1,0-11-5-11-11c0-6.1,5-11,11-11s11.1,4.8,11.1,11S178.4-65.8,172.3-65.8z M183.1-85.1c-1.3,0-2.4-0.9-2.4-2.4
		c0-1.3,0.9-2.4,2.4-2.4c1.3,0,2.4,1.1,2.4,2.4S184.4-85.1,183.1-85.1z"/>
</g>
<path class="st0" d="M37.5,44V25.7c0,0-1-3.8-4.7-3.7s-4.9,0.7-6.6,2.7V44h-9.4V15h9.4v4.3c0,0,3.1-6,9.4-5.5
	c5.8,0.4,11.2,4.3,11.2,11.5l0,0V44H37.5z M5.6,11.2C2.5,11.2,0,8.7,0,5.6S2.5,0,5.6,0s5.6,2.5,5.6,5.6S8.7,11.2,5.6,11.2z M10.3,44
	H0.9V15h9.4V44z"/>
<path class="st0" d="M80.7,10.5v4.7h7.7l-0.9,8.6h-6.7V44H70.2V23.9h-4.7v-8.6h4.7v-4.7c0,0-0.8-9.1,7.7-10.5h10.5v7.7h-4.7
	C83.6,7.7,80.9,7.6,80.7,10.5z"/>
<g>
	<circle class="st0" cx="132.3" cy="21.9" r="7.8"/>
	<path class="st0" d="M150.8,3.8c-2.3-2.3-5.5-3.7-9.3-3.7h-18.2c-7.8,0-12.8,5.2-12.8,12.8V31c0,3.8,1.2,7.2,3.6,9.4
		c2.3,2.3,5.7,3.5,9.3,3.5h17.9c3.6,0,7-1.2,9.3-3.5c2.3-2.3,3.6-5.7,3.6-9.4V13C154.2,9.3,153.1,6.1,150.8,3.8z M132.3,34
		c-6.7,0-12-5.5-12-12c0-6.7,5.5-12,12-12c6.6,0,12.1,5.2,12.1,12S139,34,132.3,34z M144.1,12.9c-1.4,0-2.6-1-2.6-2.6
		c0-1.4,1-2.6,2.6-2.6c1.4,0,2.6,1.2,2.6,2.6S145.6,12.9,144.1,12.9z"/>
</g>
<path class="st0" d="M205.1,9.9l4.5-0.9c0,0-3.8,4.3-4.5,4.5l0,0c-0.1,2.1,0,2.7,0,2.7c-8.7,37.5-40.9,20.9-40.9,20.9
	c11.7,0.3,12.7-4.5,12.7-4.5c-6.8-1-8.2-5.5-8.2-5.5c2.4,1.1,3.6-0.9,3.6-0.9c-7.4-1.9-6.4-9.1-6.4-9.1c1.3,1.1,3.3,1.5,4.5,1.7
	c-0.8-1-7.7-9.3-3.5-13.6c0,0,5.1,9.1,18.5,9.9l0.9-0.2c-0.2-0.6-0.2-1.3-0.2-2c0-5.3,4.3-9.6,9.6-9.6c6.4,0,7.7,3.6,7.7,3.6
	l4.5-2.7C207.8,4.4,207.3,8.9,205.1,9.9z"/>
</svg>
