<?xml version="1.0" encoding="utf-8"?>
<!-- Generator: Adobe Illustrator 22.0.0, SVG Export Plug-In . SVG Version: 6.00 Build 0)  -->
<svg version="1.1" id="Layer_1" xmlns="http://www.w3.org/2000/svg" xmlns:xlink="http://www.w3.org/1999/xlink" x="0px" y="0px"
	 viewBox="0 0 46.9 44" style="enable-background:new 0 0 46.9 44;" xml:space="preserve">
<style type="text/css">
	.st0{fill:#444444;}
</style>
<path class="st0" d="M169.3-88.1l4.5-0.9c0,0-3.8,4.3-4.5,4.5l0,0c-0.1,2.1,0,2.7,0,2.7c-8.7,37.5-40.9,20.9-40.9,20.9
	c11.7,0.3,12.7-4.5,12.7-4.5c-6.8-1-8.2-5.5-8.2-5.5c2.4,1.1,3.6-0.9,3.6-0.9c-7.4-1.9-6.4-9.1-6.4-9.1c1.3,1.1,3.3,1.5,4.5,1.7
	c-0.8-1-7.7-9.3-3.5-13.6c0,0,5.1,9.1,18.5,9.9l0.9-0.2c-0.2-0.6-0.2-1.3-0.2-2c0-5.3,4.3-9.6,9.6-9.6c6.4,0,7.7,3.6,7.7,3.6
	l4.5-2.7C172-93.6,171.5-89.1,169.3-88.1z"/>
<path class="st0" d="M-10.9-88.5v4.5h7.3l-0.9,8.2h-6.4v19.1h-10v-19.1h-4.5V-84h4.5v-4.5c0,0-0.8-8.6,7.3-10h10v7.3h-4.5
	C-8.2-91.2-10.7-91.3-10.9-88.5z"/>
<g>
	<circle class="st0" cx="63.3" cy="-76.9" r="7.1"/>
	<path class="st0" d="M80.2-93.4c-2.1-2.1-5-3.4-8.5-3.4H55.1c-7.1,0-11.7,4.8-11.7,11.7v16.6c0,3.5,1.1,6.6,3.3,8.6
		c2.1,2.1,5.2,3.2,8.5,3.2h16.4c3.3,0,6.4-1.1,8.5-3.2s3.3-5.2,3.3-8.6V-85C83.3-88.4,82.3-91.3,80.2-93.4z M63.3-65.8
		c-6.1,0-11-5-11-11c0-6.1,5-11,11-11s11.1,4.8,11.1,11S69.4-65.8,63.3-65.8z M74.1-85.1c-1.3,0-2.4-0.9-2.4-2.4
		c0-1.3,0.9-2.4,2.4-2.4c1.3,0,2.4,1.1,2.4,2.4S75.4-85.1,74.1-85.1z"/>
</g>
<path class="st0" d="M-71.5,44V25.7c0,0-1-3.8-4.7-3.7c-3.7,0.2-4.9,0.7-6.6,2.7V44h-9.4V15h9.4v4.3c0,0,3.1-6,9.4-5.5
	c5.8,0.4,11.2,4.3,11.2,11.5l0,0V44H-71.5z M-103.4,11.2c-3.1,0-5.6-2.5-5.6-5.6s2.5-5.6,5.6-5.6c3.1,0,5.6,2.5,5.6,5.6
	S-100.3,11.2-103.4,11.2z M-98.7,44h-9.4V15h9.4V44z"/>
<path class="st0" d="M-28.3,10.5v4.7h7.7l-0.9,8.6h-6.7V44h-10.5V23.9h-4.7v-8.6h4.7v-4.7c0,0-0.8-9.1,7.7-10.5h10.5v7.7h-4.7
	C-25.4,7.7-28.1,7.6-28.3,10.5z"/>
<g>
	<circle class="st0" cx="23.3" cy="21.9" r="7.8"/>
	<path class="st0" d="M41.8,3.8c-2.3-2.3-5.5-3.7-9.3-3.7H14.4C6.6,0.1,1.6,5.3,1.6,12.9V31c0,3.8,1.2,7.2,3.6,9.4
		c2.3,2.3,5.7,3.5,9.3,3.5h17.9c3.6,0,7-1.2,9.3-3.5c2.3-2.3,3.6-5.7,3.6-9.4V13C45.2,9.3,44.1,6.1,41.8,3.8z M23.3,34
		c-6.7,0-12-5.5-12-12c0-6.7,5.5-12,12-12s12.1,5.2,12.1,12S30,34,23.3,34z M35.1,12.9c-1.4,0-2.6-1-2.6-2.6c0-1.4,1-2.6,2.6-2.6
		c1.4,0,2.6,1.2,2.6,2.6S36.6,12.9,35.1,12.9z"/>
</g>
<path class="st0" d="M96.1,9.9l4.5-0.9c0,0-3.8,4.3-4.5,4.5l0,0c-0.1,2.1,0,2.7,0,2.7c-8.7,37.5-40.9,20.9-40.9,20.9
	c11.7,0.3,12.7-4.5,12.7-4.5c-6.8-1-8.2-5.5-8.2-5.5c2.4,1.1,3.6-0.9,3.6-0.9c-7.4-1.9-6.4-9.1-6.4-9.1c1.3,1.1,3.3,1.5,4.5,1.7
	c-0.8-1-7.7-9.3-3.5-13.6c0,0,5.1,9.1,18.5,9.9l0.9-0.2c-0.2-0.6-0.2-1.3-0.2-2c0-5.3,4.3-9.6,9.6-9.6c6.4,0,7.7,3.6,7.7,3.6
	l4.5-2.7C98.8,4.4,98.3,8.9,96.1,9.9z"/>
</svg>
