<svg width="80" height="80" viewBox="0 0 80 80" fill="none" xmlns="http://www.w3.org/2000/svg">
<rect width="80" height="80" rx="6" fill="#2E57F8"/>
<path opacity="0.503635" fill-rule="evenodd" clip-rule="evenodd" d="M40 29C51.267 29 57 40.5 57 40.5C57 40.5 51.267 51 40 51C28.733 51 23 40.5 23 40.5C23 40.5 28.733 29 40 29Z" fill="white"/>
<path fill-rule="evenodd" clip-rule="evenodd" d="M40 46C43.3137 46 46 43.3137 46 40C46 36.6863 43.3137 34 40 34C36.6863 34 34 36.6863 34 40C34 43.3137 36.6863 46 40 46ZM40 43C41.6569 43 43 41.6569 43 40C43 38.3431 41.6569 37 40 37C38.3431 37 37 38.3431 37 40C37 41.6569 38.3431 43 40 43Z" fill="white"/>
</svg>
