<svg width="81" height="80" viewBox="0 0 81 80" fill="none" xmlns="http://www.w3.org/2000/svg">
<rect x="0.5" width="80" height="80" rx="6" fill="#39385E"/>
<path opacity="0.75" fill-rule="evenodd" clip-rule="evenodd" d="M56.5 50C58.1569 50 59.5 48.6569 59.5 47V26C59.5 24.3431 58.1569 23 56.5 23H24.5C22.8431 23 21.5 24.3431 21.5 26V47C21.5 48.6569 22.8431 50 24.5 50H21.5C20.6716 50 20 50.6716 20 51.5C20 52.3284 20.6716 53 21.5 53H59.5C60.3284 53 61 52.3284 61 51.5C61 50.6716 60.3284 50 59.5 50H56.5Z" fill="white"/>
<path d="M25 48C23.8954 48 23 47.1046 23 46V27C23 25.8954 23.8954 25 25 25H56C57.1046 25 58 25.8954 58 27V46C58 47.1046 57.1046 48 56 48H25Z" fill="white"/>
<path d="M34 34.9272L35.2727 36.2131C38.4355 33.0175 43.5645 33.0175 46.7273 36.2131L48 34.9272C44.1373 31.0243 37.8691 31.0243 34 34.9272ZM39.0909 40.071L41 42L42.9091 40.071C41.8591 39.0037 40.1473 39.0037 39.0909 40.071ZM36.5455 37.4991L37.8182 38.7851C39.5745 37.0104 42.4255 37.0104 44.1818 38.7851L45.4545 37.4991C42.9982 35.0172 39.0082 35.0172 36.5455 37.4991Z" fill="#0C0058" fill-opacity="0.85"/>
<path d="M23 53L24.28 50H56.5L58 53H23Z" fill="white" fill-opacity="0.13"/>
<path d="M19 52C18.4477 52 18 51.5523 18 51C18 50.4477 18.4477 50 19 50H62C62.5523 50 63 50.4477 63 51C63 51.5523 62.5523 52 62 52H37.9286H19Z" fill="#0C0058" fill-opacity="0.14"/>
</svg>
