<svg width="81" height="80" viewBox="0 0 81 80" fill="none" xmlns="http://www.w3.org/2000/svg">
<rect x="0.5" width="80" height="80" rx="6" fill="#EA464E"/>
<g clip-path="url(#clip0)">
<path d="M29.2929 45.3175L45.9524 28.658L52.7063 35.4119L35.5 52.5L34 49.5L32 49.5L31 46.5L29.2929 45.3175Z" fill="#FFB7B7"/>
<path d="M25.6457 29.646C24.7987 30.494 24.9797 31.688 25.6537 32.361C25.6807 32.387 28.3877 34.973 32.1947 38.78C32.241 38.8268 32.2962 38.864 32.3569 38.8893C32.4177 38.9147 32.4829 38.9277 32.5487 38.9277C32.6146 38.9277 32.6797 38.9147 32.7405 38.8893C32.8013 38.864 32.8564 38.8268 32.9027 38.78C32.9964 38.6862 33.0491 38.5591 33.0491 38.4265C33.0491 38.2939 32.9964 38.1668 32.9027 38.073C32.3287 37.499 31.7827 36.956 31.2647 36.442L32.8537 34.853C32.9448 34.7587 32.9952 34.6324 32.994 34.5013C32.9929 34.3702 32.9403 34.2448 32.8476 34.1521C32.7549 34.0594 32.6295 34.0068 32.4984 34.0057C32.3673 34.0045 32.241 34.0549 32.1467 34.146L30.5537 35.739C29.7845 34.9795 29.0128 34.2225 28.2387 33.468L31.8537 29.853C31.9448 29.7587 31.9952 29.6324 31.994 29.5013C31.9929 29.3702 31.9403 29.2448 31.8476 29.1521C31.7549 29.0594 31.6295 29.0068 31.4984 29.0057C31.3673 29.0045 31.241 29.0549 31.1467 29.146L27.5207 32.772C26.7847 32.059 26.3607 31.654 26.3537 31.647C26.1427 31.436 25.8657 30.842 26.3537 30.354L31.3537 25.354C31.5467 25.158 32.0607 24.769 32.6247 25.33C32.6497 25.358 35.1747 28.226 39.0287 32.08C39.123 32.1711 39.2493 32.2215 39.3804 32.2203C39.5115 32.2192 39.6369 32.1666 39.7296 32.0739C39.8223 31.9812 39.8749 31.8558 39.876 31.7247C39.8772 31.5936 39.8268 31.4673 39.7357 31.373C35.9057 27.544 33.3997 24.698 33.3537 24.646C32.4217 23.716 31.2977 23.995 30.6467 24.646L25.6457 29.646Z" fill="white"/>
<path d="M46.8541 48.146C46.7603 48.0523 46.6331 47.9996 46.5006 47.9996C46.368 47.9996 46.2408 48.0523 46.1471 48.146L44.5561 49.736C44.0477 49.2208 43.5377 48.7071 43.0261 48.195C42.9318 48.104 42.8055 48.0536 42.6744 48.0547C42.5433 48.0558 42.4179 48.1084 42.3252 48.2011C42.2325 48.2938 42.1799 48.4192 42.1787 48.5503C42.1776 48.6814 42.228 48.8077 42.3191 48.902C44.4616 51.0392 46.5712 53.2091 48.6471 55.411C48.9901 55.755 49.4601 55.944 49.9701 55.944C50.4951 55.944 51.0261 55.739 51.3551 55.409L56.3531 50.352C56.9821 49.723 57.0181 48.656 56.4311 48.067L49.7251 41.362C49.6308 41.271 49.5045 41.2206 49.3734 41.2217C49.2423 41.2228 49.1169 41.2754 49.0242 41.3681C48.9315 41.4608 48.8789 41.5862 48.8777 41.7173C48.8766 41.8484 48.927 41.9747 49.0181 42.069L55.7241 48.774C55.9241 48.974 55.8861 49.406 55.6451 49.647L50.6461 54.704C50.5311 54.82 50.2701 54.944 49.9701 54.944C49.7981 54.944 49.5521 54.902 49.3661 54.715C49.3561 54.704 48.9371 54.257 48.2101 53.496L51.8541 49.852C51.9451 49.7577 51.9955 49.6314 51.9944 49.5003C51.9933 49.3692 51.9407 49.2438 51.848 49.1511C51.7553 49.0584 51.6299 49.0058 51.4988 49.0047C51.3677 49.0036 51.2414 49.054 51.1471 49.145L47.5181 52.774C46.7686 51.995 46.0152 51.2196 45.2581 50.448L46.8541 48.852C46.9475 48.7583 47 48.6314 47 48.499C47 48.3667 46.9475 48.2398 46.8541 48.146Z" fill="white"/>
<path d="M25.1413 55.8496C25.2049 55.9149 25.2851 55.9614 25.373 55.9842C25.461 56.007 25.5536 56.0051 25.6406 55.9788L35.6052 52.995C35.6853 52.9714 35.758 52.9276 35.8165 52.8678L52.8461 35.6349C52.87 35.6108 52.882 35.5798 52.8999 35.5527L56.543 31.8908C56.6878 31.7463 56.8027 31.5744 56.8812 31.3851C56.9596 31.1957 57 30.9926 57 30.7875C57 30.5824 56.9596 30.3793 56.8812 30.1899C56.8027 30.0006 56.6878 29.8287 56.543 29.6842L51.3265 24.4417C50.7405 23.8528 49.7172 23.8528 49.1313 24.4417L45.4055 28.1868C45.3816 28.2108 45.3686 28.2419 45.3507 28.2699L28.2952 45.4147C28.2394 45.4705 28.1977 45.5388 28.1736 45.614L25.0248 55.3448C24.9964 55.4316 24.9923 55.5246 25.0129 55.6136C25.0334 55.7026 25.0779 55.7842 25.1413 55.8496ZM45.7861 29.2485L46.8214 30.2892L31.3533 45.8795L29.6324 45.4868L45.7861 29.2485ZM31.9751 46.6718L47.5269 30.9983L49.9543 33.4383L34.262 49.0095H31.9751V46.6718ZM51.7888 35.2833L35.6022 51.6638L35.0273 49.6586L50.6588 34.1464L51.7888 35.2833ZM28.9787 46.3643L30.9786 46.821V49.5104C30.9786 49.6432 31.0311 49.7706 31.1246 49.8645C31.218 49.9584 31.3447 50.0112 31.4769 50.0112H34.0916L34.7234 52.2147L26.2654 54.7478L28.9787 46.3643ZM49.8368 25.1499C49.9425 25.0479 50.0833 24.991 50.2299 24.991C50.3764 24.991 50.5172 25.0479 50.623 25.1499L55.8395 30.3934C55.8915 30.4451 55.9328 30.5066 55.9609 30.5745C55.9891 30.6424 56.0035 30.7152 56.0034 30.7887C56.0033 30.8622 55.9887 30.935 55.9604 31.0028C55.9321 31.0706 55.8906 31.1321 55.8385 31.1836L52.4794 34.5611L46.4777 28.5283L49.8368 25.1499Z" fill="white"/>
</g>
<defs>
<clipPath id="clip0">
<rect width="31.87" height="32" fill="white" transform="translate(25 24)"/>
</clipPath>
</defs>
</svg>
