<svg width="255" height="290" viewBox="0 0 255 290" fill="none" xmlns="http://www.w3.org/2000/svg">
<path fill-rule="evenodd" clip-rule="evenodd" d="M175.763 36.1852C179.74 31.5202 182.432 25.8031 181.982 19.397C180.686 0.939045 154.973 4.99955 149.971 14.3155C144.969 23.6315 145.563 47.2622 152.028 48.9272C154.606 49.5912 160.098 47.9647 165.687 44.5982L162.179 69.4H182.895L175.763 36.1852Z" fill="#D59C7B"/>
<path fill-rule="evenodd" clip-rule="evenodd" d="M177.355 40.3403C179.955 28.7818 187.362 20.9029 186.231 15.7367C185.477 12.2927 183.467 10.1509 180.201 9.31149C178.512 2.48339 173.064 -0.420861 163.858 0.598724C150.048 2.1281 141.619 7.85872 145.259 20.4686C148.605 20.4686 152.644 19.2594 158.23 21.3311C160.002 21.9884 161.27 24.0268 162.033 27.4463H164.557C167.006 23.3883 169.422 21.8971 171.803 22.9727C174.184 24.0483 174.725 26.6609 173.427 30.8105L174.67 40.3403H177.355Z" fill="#191847"/>
<path fill-rule="evenodd" clip-rule="evenodd" d="M240.727 177.213H141.463C133.836 177.213 127.653 183.391 127.653 191.013V270.362C127.653 277.984 133.836 284.162 141.463 284.162H240.727C248.354 284.162 254.537 277.984 254.537 270.362V191.013C254.537 183.391 248.354 177.213 240.727 177.213ZM226.916 201.363C228.823 201.363 230.369 202.907 230.369 204.813V256.562C230.369 258.468 228.823 260.012 226.916 260.012H155.274C153.367 260.012 151.821 258.468 151.821 256.562V204.813C151.821 202.907 153.367 201.363 155.274 201.363H226.916Z" fill="#C5CFD6"/>
<path fill-rule="evenodd" clip-rule="evenodd" d="M42.0633 279.85C59.0812 259.085 70.5959 243.69 76.6075 233.666C86.9007 216.503 95.3252 201.232 97.9838 195.398C104.323 181.486 83.3888 174.972 78.6508 181.461C71.4797 191.282 56.1646 222.186 32.7058 274.173L42.0633 279.85Z" fill="#E6B192"/>
<path fill-rule="evenodd" clip-rule="evenodd" d="M76.9356 273.813L108.607 194.149C115.381 179.627 82.6686 170.081 77.6903 176.84C66.3881 192.183 39.5253 252.711 36.158 257.282L76.9356 273.813Z" fill="#2F3676"/>
<path fill-rule="evenodd" clip-rule="evenodd" d="M161.288 257.838C155.118 248.846 132.677 218.591 120.454 206.073C116.941 202.476 113.514 199.023 110.273 195.806C100.638 186.242 81.4541 202.314 91.0711 211.025C115.021 232.718 149.966 262.003 152.886 264.614C156.978 268.274 165.166 263.49 161.288 257.838Z" fill="#D49C7B"/>
<path fill-rule="evenodd" clip-rule="evenodd" d="M159.843 253.775C161.968 255.524 163.351 256.952 163.991 258.06C164.77 259.407 165.681 261.503 166.726 264.347C165.162 265.249 151.109 273.355 124.567 288.667C121.38 285.678 120.883 283.359 123.076 281.709C125.27 280.059 127.08 278.667 128.507 277.534L143.056 257.499C143.336 257.113 143.876 257.027 144.262 257.307C144.269 257.312 144.275 257.317 144.282 257.322L147.306 259.649C150.08 259.408 152.15 258.893 153.516 258.105C154.626 257.465 155.9 256.132 157.338 254.108L157.338 254.108C157.89 253.331 158.967 253.149 159.745 253.7C159.778 253.724 159.811 253.749 159.843 253.775Z" fill="#E4E4E4"/>
<path fill-rule="evenodd" clip-rule="evenodd" d="M49.3835 276.747C50.3492 279.323 50.832 281.25 50.832 282.529C50.832 284.084 50.5727 286.354 50.0541 289.337C48.2484 289.337 32.0206 289.337 1.37045 289.337C0.105331 285.158 0.835629 282.902 3.56134 282.569C6.28706 282.236 8.55135 281.935 10.3542 281.666L32.9819 271.586C33.4173 271.392 33.9277 271.588 34.1218 272.023C34.1251 272.03 34.1283 272.038 34.1314 272.045L35.5859 275.571C38.1092 276.747 40.1596 277.336 41.7372 277.336C43.019 277.336 44.7891 276.818 47.0475 275.784L47.0475 275.784C47.9142 275.387 48.9389 275.767 49.3362 276.633C49.3533 276.67 49.3691 276.708 49.3835 276.747Z" fill="#E4E4E4"/>
<path fill-rule="evenodd" clip-rule="evenodd" d="M120.003 198.128C146.327 193.843 163.959 190.913 172.899 189.338C198.382 184.848 205.813 171.145 201.419 141.248H154.467C148.254 143.041 122.292 154.13 76.5816 174.514C68.3574 178.594 69.889 190.622 71.3923 194.585C71.4536 194.747 85.318 218.486 112.985 265.802L151.394 241.353L119.931 201.009C119.1 199.337 119.124 198.377 120.003 198.128Z" fill="#5C63AB"/>
<path fill-rule="evenodd" clip-rule="evenodd" d="M116.621 129.957L89.0879 150.16C81.6203 152.174 75.3814 154.679 70.3711 157.676C69.1876 158.753 67.7572 160.936 72.6655 160.558C77.5738 160.181 82.7536 160.005 83.4309 161.678C84.1081 163.351 81.1379 165.351 82.5069 167.609C83.4196 169.113 87.7315 165.34 95.4425 156.289L122.708 144.992L116.621 129.957ZM222.335 130.655L204.297 130.726C215.435 166.652 221.447 185.714 222.335 187.912C224.332 192.858 220.106 200.391 218.298 204.439C224.185 207.071 223.558 197.323 230.984 200.776C237.762 203.927 242.918 209.636 250.749 204.808C251.712 204.214 252.767 201.979 250.218 200.232C243.867 195.881 234.715 188.265 233.478 185.758C231.792 182.34 228.078 163.972 222.335 130.655Z" fill="#D49C7B"/>
<path fill-rule="evenodd" clip-rule="evenodd" d="M171.074 55.0239L163.61 53.7446C135.917 77.6492 124.543 123.573 90.598 147.9L98.7682 158.02C157.656 150.734 172.252 94.7185 171.074 55.0239Z" fill="#FF6E6E"/>
<path fill-rule="evenodd" clip-rule="evenodd" d="M203.611 148.75C173.684 148.75 151.67 148.75 137.57 148.75C134.552 148.75 135.121 144.396 135.557 142.199C140.592 116.841 160.245 89.5062 160.245 53.4099L179.295 50.425C195.051 75.7467 200.5 106.923 203.611 148.75Z" fill="#DDE3E9"/>
<path fill-rule="evenodd" clip-rule="evenodd" d="M203.08 75.315C205.847 74.5203 208.038 72.6669 209.653 69.7547C216.616 57.2009 214.101 50.2891 206.66 48.0172C199.219 45.7452 192.584 50.425 180.729 50.425C180.084 50.425 179.493 50.4654 178.957 50.5462L172.993 50.8862C155.883 108.829 151.165 147.488 158.837 166.863H210.817C213.896 174.038 216.844 180.076 219.658 184.975H233.821C235.154 141.908 224.907 105.355 203.08 75.315Z" fill="#EA464E"/>
<path fill-rule="evenodd" clip-rule="evenodd" d="M199.498 137.104C197.864 150.772 195.207 160.691 191.527 166.863H210.817C207.225 158.492 203.452 148.573 199.498 137.104Z" fill="black" fill-opacity="0.1"/>
</svg>
