<svg width="467" height="230" viewBox="0 0 467 230" fill="none" xmlns="http://www.w3.org/2000/svg">
<mask id="mask0" style="mask-type:alpha" maskUnits="userSpaceOnUse" x="0" y="0" width="467" height="230">
<rect width="467" height="230" fill="#C4C4C4"/>
</mask>
<g mask="url(#mask0)">
<path fill-rule="evenodd" clip-rule="evenodd" d="M467.218 -69.92H339.782C281.969 -69.92 235.103 -23.1696 235.103 34.5C235.103 92.1696 281.969 138.92 339.782 138.92H467.218C525.031 138.92 571.897 92.1696 571.897 34.5C571.897 -23.1696 525.031 -69.92 467.218 -69.92ZM339.782 -79H467.218C530.058 -79 581 -28.1843 581 34.5C581 97.1843 530.058 148 467.218 148H339.782C276.942 148 226 97.1843 226 34.5C226 -28.1843 276.942 -79 339.782 -79Z" fill="white"/>
<mask id="path-3-inside-1" fill="white">
<path fill-rule="evenodd" clip-rule="evenodd" d="M245 148C245 124.252 225.748 105 202 105C178.252 105 159 124.252 159 148H245Z"/>
</mask>
<path d="M245 148V154H251V148H245ZM159 148H153V154H159V148ZM202 111C222.435 111 239 127.565 239 148H251C251 120.938 229.062 99 202 99V111ZM165 148C165 127.565 181.565 111 202 111V99C174.938 99 153 120.938 153 148H165ZM159 154H245V142H159V154Z" fill="white" fill-opacity="0.22" mask="url(#path-3-inside-1)"/>
<path fill-rule="evenodd" clip-rule="evenodd" d="M372.347 99.8047C375.904 95.6235 378.311 90.4994 377.909 84.7577C376.75 68.2142 353.753 71.8535 349.28 80.2033C344.807 88.553 345.338 109.733 351.12 111.225C353.425 111.82 358.337 110.362 363.336 107.345L360.198 129.575H378.725L372.347 99.8047Z" fill="#B28B67"/>
<path fill-rule="evenodd" clip-rule="evenodd" d="M341.074 68.6278C341.458 67.2773 342.49 66.121 343.88 65.778C344.218 65.6948 344.566 65.6612 344.913 65.6752C345.037 65.6802 345.072 65.7161 345.13 65.6289C345.174 65.5643 345.175 65.4064 345.192 65.3305C345.248 65.0943 345.317 64.8611 345.402 64.6339C345.693 63.859 346.182 63.1733 346.771 62.5956C347.874 61.5149 349.364 60.769 350.912 60.6341C351.759 60.5602 352.6 60.6981 353.401 60.974C353.815 61.1169 354.217 61.2948 354.609 61.4915C354.727 61.5507 355.109 61.8406 355.228 61.8218C355.358 61.8011 355.621 61.4759 355.727 61.3942C357.041 60.3851 358.663 59.9884 360.299 60.0003C362.145 60.0142 363.923 60.1066 365.463 61.2338C365.789 61.4725 366.1 61.7338 366.395 62.0089C366.551 62.1537 366.702 62.304 366.845 62.4605C366.932 62.5549 367.017 62.6515 367.098 62.7506C367.236 62.9189 367.214 62.9742 367.407 62.8568C368.148 62.4059 369.007 62.195 369.872 62.3015C370.386 62.3647 370.885 62.5191 371.36 62.7224C371.522 62.7916 371.896 63.0676 372.068 63.0703C372.239 63.073 372.607 62.8171 372.783 62.7521C373.734 62.4007 374.758 62.3141 375.757 62.4764C376.788 62.644 377.8 63.0557 378.673 63.6247C379.093 63.8983 379.459 64.2016 379.754 64.6085C379.881 64.7842 379.996 64.9701 380.14 65.133C380.224 65.2284 380.391 65.3263 380.436 65.447C380.409 65.3747 381.563 64.9292 381.672 64.9007C382.252 64.7489 382.843 64.7797 383.411 64.9669C384.479 65.319 385.398 66.1085 386.153 66.918C386.541 67.3338 386.88 67.7934 387.168 68.2831C387.307 68.5176 387.433 68.7588 387.548 69.0052C387.604 69.1246 387.641 69.2739 387.715 69.3814C387.81 69.52 387.874 69.5226 388.046 69.583C388.921 69.8897 389.718 70.4089 390.324 71.1105C390.938 71.8203 391.337 72.6943 391.504 73.6148C391.514 73.669 391.519 73.8937 391.551 73.923C391.595 73.9635 391.77 73.9456 391.837 73.9534C392.067 73.9805 392.296 74.0207 392.522 74.0742C392.938 74.1728 393.342 74.3179 393.725 74.5077C395.218 75.2474 396.286 76.6342 396.809 78.1947C397.357 79.8324 397.347 81.7086 396.692 83.3157C396.586 83.5752 396.46 83.8272 396.312 84.0655C396.221 84.2119 396.192 84.2122 396.251 84.3657C396.317 84.5365 396.437 84.7025 396.515 84.8693C396.77 85.4139 396.948 85.9915 397.06 86.5814C397.245 87.5491 397.336 88.566 397.154 89.541C397.069 89.9938 396.922 90.4364 396.698 90.8396C396.583 91.0452 396.449 91.2402 396.298 91.4206C396.219 91.5143 396.136 91.6037 396.048 91.6894C395.998 91.7384 395.933 91.7812 395.89 91.8359C395.787 91.9692 395.765 91.8596 395.819 92.0553C395.893 92.329 396.063 92.5991 396.166 92.8654C396.273 93.1398 396.37 93.418 396.458 93.699C396.637 94.2679 396.788 94.8471 396.883 95.4362C397.065 96.5674 397.033 97.7727 396.498 98.8108C396.27 99.2549 395.942 99.6444 395.545 99.9474C395.35 100.096 395.139 100.223 394.918 100.328C394.805 100.382 394.66 100.406 394.608 100.516C394.552 100.634 394.635 100.869 394.654 101.001C394.818 102.151 394.901 103.359 394.559 104.487C394.244 105.525 393.552 106.442 392.653 107.049C390.908 108.227 388.557 108.16 386.724 107.218C386.247 106.972 385.8 106.667 385.401 106.307C384.386 107.676 382.297 107.632 380.813 107.242C378.964 106.756 377.481 105.469 376.626 103.778C375.457 105.202 373.005 104.74 372.194 103.195C371.996 102.816 371.878 102.399 371.82 101.978C371.79 101.756 371.809 101.532 371.786 101.312C371.757 101.031 371.57 100.759 371.463 100.488C371.253 99.9597 371.123 99.4143 371.118 98.8448C371.115 98.5474 371.152 98.2576 371.18 97.9627C371.206 97.6972 371.132 97.4498 371.091 97.1877C371.565 97.2659 372.142 97.1379 372.589 97.0002C373.027 96.8651 373.438 96.5093 373.747 96.1843C374.466 95.4297 374.905 94.4405 375.205 93.456C375.864 91.2951 375.594 88.7026 373.423 87.5166C372.412 86.9642 369.383 86.966 368.179 87.2391C366.913 87.5261 365.477 90.324 365.407 90.587C365.363 90.7497 365.385 90.9512 365.236 91.0596C364.908 91.2981 364.366 90.8842 364.124 90.68C363.707 90.3275 363.409 89.8585 363.151 89.3832C362.589 88.3475 362.135 87.2369 361.815 86.1031C361.568 85.229 361.411 84.3276 361.088 83.4758C360.767 82.6282 360.261 81.8706 359.474 81.3904C358.618 80.8681 357.637 80.593 356.698 80.2647C355.766 79.9394 354.851 79.5418 354.129 78.8515C353.97 78.6997 353.816 78.5384 353.688 78.3597C353.588 78.2186 353.488 77.9485 353.334 77.8591C353.095 77.7199 352.747 78.0818 352.54 78.2132C351.521 78.8615 350.67 79.7657 349.984 80.7534C349.302 81.7357 348.743 82.681 348.288 83.7779C347.951 84.5914 347.74 85.6333 347.147 86.3001C346.882 86.5978 344.913 86.7779 344.275 86.518C343.637 86.2581 342.923 85.5832 342.709 85.1602C342.49 84.7273 342.437 84.2518 342.531 83.7779C342.586 83.4991 342.698 83.2386 342.76 82.9648C342.812 82.7348 342.859 82.5173 342.971 82.3066C343.182 81.9073 343.544 81.6202 343.981 81.5002C343.527 81.0807 343.15 80.5789 342.89 80.0179C342.619 79.4351 342.39 78.7263 342.325 78.0867C342.272 77.5671 342.353 77.0288 342.637 76.5823C342.935 76.114 343.463 75.8084 343.92 75.5162C343.222 74.9697 342.625 74.305 342.134 73.569C341.18 72.1379 340.589 70.334 341.074 68.6278Z" fill="#191847"/>
<path fill-rule="evenodd" clip-rule="evenodd" d="M384.845 193.546L347.728 291.898L321.713 364.389H306.878L342.64 193.546L384.845 193.546Z" fill="#1F28CF"/>
<path fill-rule="evenodd" clip-rule="evenodd" d="M394.018 193.546C394.422 227.293 394.13 272.727 395.07 274.831C395.697 276.233 415.189 292.212 453.548 322.766L445.902 335.786C400.361 306.376 376.427 289.712 374.099 285.794C370.606 279.916 353.06 225.831 343.932 193.546H394.018Z" fill="#2B44FF"/>
<path fill-rule="evenodd" clip-rule="evenodd" d="M319.413 183.767L294.789 201.874C288.111 203.679 282.531 205.924 278.05 208.61C276.992 209.576 275.712 211.532 280.102 211.194C284.492 210.856 289.124 210.698 289.73 212.197C290.336 213.697 287.679 215.49 288.903 217.513C289.72 218.861 293.576 215.48 300.472 207.367L324.856 197.242L319.413 183.767ZM413.955 184.392L397.824 184.455C407.784 216.655 413.161 233.74 413.955 235.711C415.742 240.144 411.962 246.895 410.345 250.523C415.61 252.882 415.049 244.146 421.69 247.24C427.752 250.064 432.363 255.181 439.367 250.854C440.228 250.322 441.171 248.318 438.892 246.753C433.212 242.853 425.027 236.027 423.921 233.78C422.413 230.716 419.091 214.253 413.955 184.392Z" fill="#B28B67"/>
<path fill-rule="evenodd" clip-rule="evenodd" d="M368.113 116.605L361.438 115.458C336.671 136.883 326.499 178.044 296.141 199.848L303.448 208.918C356.113 202.388 369.167 152.182 368.113 116.605Z" fill="#D62E36"/>
<path fill-rule="evenodd" clip-rule="evenodd" d="M397.21 200.61C370.445 200.61 350.758 200.61 338.147 200.61C335.448 200.61 335.957 196.708 336.347 194.738C340.85 172.01 358.426 147.511 358.426 115.158L375.463 112.483C389.554 135.178 394.427 163.121 397.21 200.61Z" fill="#DDE3E9"/>
<path fill-rule="evenodd" clip-rule="evenodd" d="M396.734 134.792C399.209 134.079 401.168 132.418 402.613 129.808C408.84 118.556 406.591 112.361 399.936 110.325C393.282 108.289 387.347 112.483 376.745 112.483C376.168 112.483 375.64 112.519 375.16 112.592L369.827 112.897C354.525 164.83 350.305 199.479 357.167 216.844H403.653C406.408 223.276 409.043 228.687 411.56 233.078H424.227C425.419 194.478 416.255 161.716 396.734 134.792Z" fill="#EA464E"/>
<path fill-rule="evenodd" clip-rule="evenodd" d="M393.531 190.172C392.069 202.422 389.693 211.313 386.403 216.844H403.654C400.441 209.342 397.067 200.451 393.531 190.172H393.531Z" fill="black" fill-opacity="0.1"/>
<path fill-rule="evenodd" clip-rule="evenodd" d="M154.072 95.0634C151.421 104.83 147.967 126.783 151.492 130.227H173.79C173.792 130.188 173.794 130.148 173.797 130.109C182.061 129.194 188.489 122.187 188.489 113.678V97.5314C188.489 88.4014 181.088 81 171.958 81H170.42C162.129 81 155.263 87.104 154.072 95.0634Z" fill="#191847"/>
<path fill-rule="evenodd" clip-rule="evenodd" d="M179.831 110.595C183.374 106.436 185.772 101.34 185.371 95.6286C184.216 79.1737 161.311 82.7935 156.855 91.0986C152.399 99.4036 152.929 120.47 158.687 121.954C160.984 122.546 165.876 121.096 170.855 118.095L167.73 140.205H186.184L179.831 110.595Z" fill="#D4A181"/>
<path fill-rule="evenodd" clip-rule="evenodd" d="M174.841 107.815C173.991 116.948 174.332 127.378 176.866 129.854H199.164C200.406 108.268 188.399 116.627 188.399 96.3032C187.65 95.5718 186.943 94.8479 186.243 94.2236L186.268 93.6258C182.407 85.7211 177.508 81.7688 171.572 81.7688C162.668 81.7688 159.858 85.9119 157.465 89.4295C159.254 95.5692 166.198 96.4796 172.369 100.307C173.096 99.7158 174.023 99.3616 175.033 99.3616C177.369 99.3616 179.262 101.255 179.262 103.591C179.262 105.926 177.369 107.82 175.033 107.82C174.969 107.82 174.905 107.818 174.841 107.815Z" fill="#191847"/>
<path fill-rule="evenodd" clip-rule="evenodd" d="M152.149 294.62C152.327 294.353 152.477 294.062 152.596 293.747C155.062 287.227 194.554 216.885 198.488 204.025H154.026C151.034 213.803 137.57 275.163 135.676 287.406C129.697 306.717 117.388 369.258 115.817 373.591C114.164 378.149 123.465 382.897 125.943 377.294C129.887 368.378 139.284 343.708 143.468 328.644C147.39 314.522 150.584 301.817 152.149 294.62Z" fill="#BA8B72"/>
<path fill-rule="evenodd" clip-rule="evenodd" d="M188.525 303.208C206.58 307.772 272.622 316.021 277.154 317.315C281.816 318.646 285.904 309.037 280.141 306.955C270.972 303.643 245.706 295.99 230.388 292.867C218.066 290.355 206.823 288.305 199.274 287.105C199.914 265.901 202.837 215.015 200.921 204.025H161.58C163.417 214.564 178.949 291.463 181.836 299.16C182.752 301.908 185.486 303.122 188.525 303.208Z" fill="#D4A181"/>
<path fill-rule="evenodd" clip-rule="evenodd" d="M200.795 204.025C183.458 199.065 167.055 199.065 151.585 204.025C146.202 228.582 133.124 238.328 130.824 275.978C156.967 288.968 189.261 266.714 216.173 279.381C223.862 261.663 213.097 218.991 200.795 204.025Z" fill="#2B44FF"/>
<path fill-rule="evenodd" clip-rule="evenodd" d="M126.21 173.508L95.8513 169.367C89.7784 165.989 84.1916 163.702 79.0909 162.507C77.6555 162.465 75.3721 162.987 78.7738 165.822C82.1754 168.658 85.6269 171.795 85.0208 173.309C84.4147 174.822 81.2513 174.259 80.7272 176.587C80.3778 178.139 85.512 178.391 96.1297 177.343L120.763 187.109L126.21 173.508ZM221.577 180.535L204.74 180.598C223.202 222.145 232.829 243.898 233.62 245.858C235.399 250.267 231.634 256.982 230.024 260.591C235.268 262.938 234.709 254.248 241.324 257.325C247.362 260.134 251.955 265.224 258.931 260.92C259.789 260.391 260.729 258.398 258.458 256.841C252.8 252.962 244.648 246.172 243.546 243.938C242.044 240.89 234.721 219.756 221.577 180.535Z" fill="#D4A181"/>
<path fill-rule="evenodd" clip-rule="evenodd" d="M175.458 127.134L162.276 128.013C159.029 157.386 141.345 175.939 101.75 169.658L96.4898 207.484C133.497 212.267 165.952 197.45 172.604 157.336C174.325 146.951 175.685 136.144 175.458 127.134Z" fill="#AFB9C5"/>
<path fill-rule="evenodd" clip-rule="evenodd" d="M181.963 123.302L161.989 127.877C161.989 162.231 151.046 184.149 145.433 209.407H199.377C200.137 218.135 200.603 227.106 200.846 236.319H241.237C232.084 187.62 212.766 149.943 183.282 123.29H181.974L181.963 123.302Z" fill="#C5CFD6"/>
<path fill-rule="evenodd" clip-rule="evenodd" d="M190.864 160.397C192.254 181.804 191.437 198.141 188.411 209.407H199.375C197.87 192.118 195.214 175.781 190.864 160.397V160.397Z" fill="black" fill-opacity="0.1"/>
</g>
</svg>
