<svg width="32" height="32" viewBox="0 0 32 32" fill="none" xmlns="http://www.w3.org/2000/svg">
<path d="M16.3578 23.0275C15.882 23.4996 15.1176 23.5032 14.6374 23.0406L14.6172 23.0207L8.51109 16.8669C8.04166 16.3938 8.03505 15.6347 8.49126 15.1536L8.51109 15.1331L14.6172 8.97926C15.096 8.49675 15.8753 8.49372 16.3578 8.97249C16.8336 9.44461 16.8432 10.2089 16.3842 10.6928L16.3646 10.713L11.1186 16L16.3646 21.287C16.8367 21.7628 16.8403 22.5271 16.3776 23.0074L16.3578 23.0275Z" fill="#39385E"/>
<path d="M10.2326 17.2308C9.55289 17.2308 9.00186 16.6797 9.00186 16C9.00186 15.3284 9.53985 14.7824 10.2084 14.7695L10.2326 14.7692L22.6149 14.7692C23.2947 14.7692 23.8457 15.3203 23.8457 16C23.8457 16.6716 23.3077 17.2176 22.6392 17.2305L22.6149 17.2308L10.2326 17.2308Z" fill="#39385E"/>
<path fill-rule="evenodd" clip-rule="evenodd" d="M32 16C32 24.8336 24.8336 32 16 32C7.16642 32 6.26508e-07 24.8336 1.39876e-06 16C2.17102e-06 7.16642 7.16642 -2.17102e-06 16 -1.39876e-06C24.8336 -6.26508e-07 32 7.16642 32 16ZM2.46154 16C2.46154 23.4741 8.52589 29.5385 16 29.5385C23.4741 29.5385 29.5385 23.4741 29.5385 16C29.5385 8.52589 23.4741 2.46154 16 2.46154C8.52589 2.46154 2.46154 8.52589 2.46154 16Z" fill="#39385E"/>
</svg>
