<svg width="81" height="80" viewBox="0 0 81 80" fill="none" xmlns="http://www.w3.org/2000/svg"><rect x=".5" width="80" height="80" rx="6" fill="#39385E"/><path opacity=".75" fill-rule="evenodd" clip-rule="evenodd" d="M56.5 50a3 3 0 003-3V26a3 3 0 00-3-3h-32a3 3 0 00-3 3v21a3 3 0 003 3h-3a1.5 1.5 0 000 3h38a1.5 1.5 0 000-3h-3z" fill="#fff"/><path d="M25 48a2 2 0 01-2-2V27a2 2 0 012-2h31a2 2 0 012 2v19a2 2 0 01-2 2H25z" fill="#fff"/><path d="M34 34.927l1.273 1.286a8.042 8.042 0 0111.454 0L48 34.927a9.833 9.833 0 00-14 0zm5.09 5.144L41 42l1.91-1.929a2.677 2.677 0 00-3.82 0zm-2.545-2.572l1.273 1.286a4.469 4.469 0 016.364 0l1.273-1.286a6.26 6.26 0 00-8.91 0z" fill="#0C0058" fill-opacity=".85"/><path d="M23 53l1.28-3H56.5l1.5 3H23z" fill="#fff" fill-opacity=".13"/><path d="M19 52a1 1 0 110-2h43a1 1 0 110 2H19z" fill="#0C0058" fill-opacity=".14"/></svg>