<svg width="152" height="314" viewBox="0 0 152 314" fill="none" xmlns="http://www.w3.org/2000/svg"><g clip-path="url(#clip0)" fill="#39385E"><path d="M0 0h152v314H0z"/><path fill-rule="evenodd" clip-rule="evenodd" d="M114.526 6.175c1.913-.94 4.464.15 3.4 2.634-1.14 2.659-5.353 2.692-7.732 2.639.238-.012 1.005-2.451 1.267-2.82.775-1.086 1.889-1.874 3.065-2.453zM92.501 54.628c-.676.572-.055.053 0 0zm24.249-36.106c1.144.857 1.197 2.372.262 3.397-1.114 1.221-3.146 1.178-4.663 1.06-.686-.054-4.35-.34-3.481-.928a2.964 2.964 0 00-.356.166c-.081.288-.165.575-.253.861.021.012.04.026.063.038-.025-.01-.043-.022-.065-.033a32.716 32.716 0 01-3.782 8.12 8.043 8.043 0 011.897-.498c1.912-.239 5.932 1.216 3.793 3.714-2.052 2.394-5.243-.172-7.569-.525-2.259 3.09-4.75 6.053-7.359 8.916.16.049.3.151.38.31 1.047-.52 2.138-1.266 3.106-1.468 1.398-.291 4.263-.469 5.318.757 1.298 1.508-.095 2.733-1.629 3.023-2.226.421-5.138-.644-7.279-1.363-.245.043-.512-.028-.672-.22l-.14-.044c-2.643 2.849-5.386 5.604-8.113 8.3l.088-.006c.711-.457 1.474-.833 2.3-1.03 1.913-.458 4.163-.461 5.714.895 1.545 1.35 2.091 3.713.491 5.23-3.202 3.039-7.914-3.883-9.529-4.171-2.77 2.71-5.7 5.242-8.676 7.723a5.376 5.376 0 011.042-.209c2.917-.275 9.762 3.229 6.18 6.68-3.12 3.01-6.728-2.776-9.241-4.8-2.804 2.313-5.624 4.61-8.364 6.996 1.494-.39 2.938-.448 4.539.026 1.657.49 4.33 1.717 3.282 3.912-1.067 2.232-4.278 1.218-5.95.51-.912-.386-2.74-1.689-4.345-2.237-4.373 4.049-8.162 8.508-11.03 13.761-1.792 3.28-3.151 6.783-4.11 10.384-.61 2.298-1.814 6.159-1.575 9.149-1.144-5.986.934-13.177 3.17-18.53 2.057-4.921 5.134-9.243 8.737-13.133-.902-2.665-8.506-6.506-3.958-8.985 2.415-1.31 4.887.861 5.414 3.162.362 1.581-.192 3.568-.779 5.104a73.07 73.07 0 013.526-3.444 182.903 182.903 0 015.13-4.493c-2.855-2.631-5.555-10.154-1.724-11.387 5.657-1.815 2.928 8.45 2.533 10.374a.31.31 0 01-.264-.097c.032.176.069.364.113.554 3.32-2.8 6.689-5.545 9.947-8.411-.294-.213-.76-1.025-1.126-1.457-.827-.975-1.618-1.993-2.196-3.134-.912-1.802-1.792-4.677.63-5.738 2.635-1.157 3.885 2.095 3.903 4.035.012 1.341-.362 2.616-.556 3.931-.061.41.171 2.26-.398 1.464.027.293.03.506.017.656.585-.517 1.165-1.04 1.742-1.566a.686.686 0 01-.05-.223c-.031-.579.562-.802.978-.633.761-.709 1.515-1.427 2.255-2.16a322.854 322.854 0 004.74-4.778c-.342-.288-.206-.688-.526-.994-.32-.306-.95-.475-1.326-.759-.946-.714-1.73-1.756-2.297-2.78-.936-1.694-2.146-5.247.592-6.055 2.822-.835 4.253 2.585 4.433 4.723.035.414-.283 4.147-.526 5.503 2.924-3.03 5.8-6.172 8.407-9.37-.79-.007-3.028-1.592-3.48-2.025-1.104-1.056-2.858-3.388-.922-4.624 1.722-1.096 3.844.489 4.58 2.03.12.254.545 2.617.578 3.677a83.084 83.084 0 003.065-4.088 40.44 40.44 0 001.794-2.797 1.277 1.277 0 01-.38-.366c-2.871-.477-6.53-4.868-3.156-6.399 1.606-.727 3.347.772 4.133 2 .161.252.421 1.515.633 2.511 1.606-3.158 2.835-6.502 3.77-9.93a.618.618 0 01-.49-.57c-1.393-.779-2.494-1.427-3.466-2.925-.604-.931-1.692-3.058.085-3.575 2.312-.674 3.762 2.789 3.951 4.494.021.198.02.774.012 1.301a.794.794 0 01.241.005 73.018 73.018 0 001.295-6.427c-1.261-.397-1.476-6.896-.635-7.822 1.878-2.073 3.202.92 3.101 2.502-.12 1.865-.982 3.562-2.009 5.068-.111.16-.079.152-.108-.07a.44.44 0 01-.108.25c.052.981.155 1.987.105 2.855a65.17 65.17 0 01-.871 7.447c-.104.598-.224 1.19-.359 1.777 1.015-.847 2.383-1.6 2.918-1.837 1.389-.61 3.529-1.27 4.908-.237zm-69.953 86.16c.067.8.266 1.529.658 2.127a11.693 11.693 0 01-.658-2.127z" fill-opacity=".75" opacity=".2"/><g opacity=".5" fill-rule="evenodd" clip-rule="evenodd"><path d="M97.096 87.642c2.29-3.233 6.538-11.443 9.761-12.598 2.075-.744 1.47 6.952 1.495 8.42.1 5.677-.458 11.32-1.147 16.949-1.242 10.154-5.303 19.197-10.872 27.839-2.866 4.447-6.227 8.947-10.883 11.722-2.143 1.278-4.722 1.492-6.839 2.593-2.465 1.281-1.122.245-2.233 2.789-1.543 3.531-2.036 8.087-2.75 11.856-3.277 17.298-11.211 108.741-9.836 126.336.123 1.56-2.073 1.933-2.183.029-.583-10.095 4.46-80.005 7.003-102.867 2.544-22.862 5.118-43.06 7.699-50.97 3.131-9.596 8.787-21.136 13.494-30.085 2.187-4.157 4.57-8.171 7.291-12.013z" fill-opacity=".5" opacity=".5"/><path d="M114.09 199.772c5.957-4.331 12.406 3.843 7.015 8.175-2.98 2.394-6.096 1.543-7.85-.453-1.139 1.375-2.204 2.812-3.228 4.026a200.32 200.32 0 00-8.887 11.361c-5.855 8.052-10.872 16.558-16.118 24.908-5.177 8.242-10.312 16.526-15.004 24.976-3.975 7.159-9.273 15.582-10.634 23.431 2.065-16.646 9.9-32.646 19.23-47.321 9.255-14.554 19.875-30.449 34.205-41.935-1.459-2.124-1.499-5.156 1.271-7.168z" fill-opacity=".75" opacity=".5"/><path d="M1.042 159.175c3.334.645 8.781 8.114 11.53 10.959 3.265 3.382 6.228 6.986 9.021 10.762 6.013 8.128 11.39 16.771 15.962 25.783 7.455 14.691 13.426 29.773 17.76 45.771 2.654 9.794 4.371 19.944 5.39 30.023.192 1.901 2.204 16.557-.696 16.952-2.608.356-1.802-11.128-1.928-12.691-1.423-17.623-5.683-34.771-11.61-51.382-1.291-3.618-2.49-8.05-4.555-11.307-1.487-2.345-.01-1.527-2.623-2.415-2.244-.763-4.8-.576-7.097-1.51-4.99-2.027-8.987-5.961-12.49-9.919-6.807-7.692-12.202-16.013-15.014-25.869-1.56-5.464-2.993-10.961-3.789-16.595-.205-1.456-2.008-8.978.14-8.562z" fill-opacity=".5" opacity=".5"/><path d="M14.198 34.916c12.557 21.566 22.877 45.257 29.54 69.252 4.037 14.539 6.86 29.457 9.666 44.268 4.343 22.932 8.451 45.863 9.62 69.203 1.176 23.475 3.5 50.551-4.262 73.162 3.878-22.956.186-47.39-.467-70.489-.313-11.026-1.218-21.945-2.405-32.907-1.152-10.634-3.035-21.218-4.788-31.768-.853-5.138-1.75-10.269-2.663-15.396-.273-1.53-.388-6.07-1.368-7.115-.986-1.052-6.018-1.481-7.598-2.253-3.181-1.554-6.174-3.763-8.822-6.096-5.078-4.473-9.494-10.317-12.98-16.079C9.605 95.368 6.38 79.098 6.543 63.66c.031-2.997 4.9-35.276 2.944-35.72a5.67 5.67 0 00.334-.425 590.698 590.698 0 014.377 7.4z" fill-opacity=".55" opacity=".5"/><path d="M149.737 112.699c.194-.277 1.455-2.202.82-2.079 1.293-.25-1.778 2.123 1.443.667-1.529 1.43-.646 3.289-.626 5.214.033 3.126-.495 6.227-1.089 9.286-.94 4.835-2.339 9.537-4.371 14.034-4.427 9.801-11.946 19.237-20.871 25.364-4.407 3.026-8.725 4.056-13.75 5.449-3.175.88-3.426 2.506-5.111 5.556-3.508 6.353-6.954 12.684-10.047 19.251-3.694 7.843-7.28 15.694-10.663 23.675-11.395 26.882-20.67 54.732-25.54 83.554-.12-16.985 3.848-34.478 8.852-50.667 3.646-11.795 8.392-23.166 13.454-34.421 1.227-2.726 3.086-6.234 3.607-9.244.365-2.109-.75-4.138-1.261-6.36-1.99-8.652-1.848-18.346-.1-27.045 1.927-9.592 7.5-14.044 16.929-15.402 3.448-.497 7.831-.315 10.992-1.771 3.445-1.586 4.866-6.797 6.825-10.142 5.261-8.987 11.512-17.605 18.69-25.177a60.485 60.485 0 016.392-5.824c1.43-1.131 4.451-2.525 5.425-3.918z" fill-opacity=".69" opacity=".5"/><path d="M44.015 284.326h33.46c1.505 0 2.725 1.208 2.725 2.698 0 .132-.01.263-.03.394l-2.586 17.366c-.788 5.294-5.376 9.216-10.78 9.216H54.687c-5.404 0-9.99-3.922-10.78-9.216l-2.585-17.366c-.22-1.474.809-2.845 2.297-3.063a2.78 2.78 0 01.397-.029z" fill-opacity=".75" opacity=".5"/></g></g><defs><clipPath id="clip0"><path fill="#fff" d="M0 0h152v314H0z"/></clipPath></defs></svg>