<svg width="81" height="80" viewBox="0 0 81 80" fill="none" xmlns="http://www.w3.org/2000/svg"><rect x=".5" width="80" height="80" rx="6" fill="#EA464E"/><g clip-path="url(#clip0)"><path d="M29.293 45.318l16.66-16.66 6.753 6.754L35.5 52.5l-1.5-3h-2l-1-3-1.707-1.182z" fill="#FFB7B7"/><path d="M25.646 29.646c-.847.848-.666 2.042.008 2.715.027.026 2.734 2.612 6.54 6.419a.498.498 0 00.709 0 .5.5 0 000-.707c-.574-.574-1.12-1.117-1.638-1.631l1.589-1.589a.5.5 0 00-.707-.707l-1.593 1.593c-.77-.76-1.541-1.517-2.315-2.271l3.615-3.615a.5.5 0 00-.707-.707l-3.626 3.626c-.736-.713-1.16-1.118-1.167-1.125-.211-.211-.488-.805 0-1.293l5-5c.193-.196.707-.585 1.27-.024.026.028 2.55 2.896 6.405 6.75a.5.5 0 00.707-.707c-3.83-3.829-6.336-6.675-6.382-6.727-.932-.93-2.056-.651-2.707 0l-5.001 5zm21.208 18.5a.5.5 0 00-.707 0l-1.59 1.59a352.832 352.832 0 00-1.53-1.541.5.5 0 00-.708.707 295.864 295.864 0 016.328 6.509c.343.344.813.533 1.323.533.525 0 1.056-.205 1.385-.535l4.998-5.057c.63-.629.665-1.696.078-2.285l-6.706-6.705a.5.5 0 00-.707.707l6.706 6.705c.2.2.162.632-.079.873l-4.999 5.057c-.115.116-.376.24-.676.24-.172 0-.418-.042-.604-.229-.01-.011-.429-.458-1.156-1.219l3.644-3.644a.5.5 0 00-.707-.707l-3.629 3.629c-.75-.779-1.503-1.554-2.26-2.326l1.596-1.596a.5.5 0 000-.706zM25.141 55.85a.498.498 0 00.5.129l9.964-2.984a.489.489 0 00.212-.127l17.03-17.233c.023-.024.035-.055.053-.082l3.643-3.662a1.557 1.557 0 000-2.207l-5.216-5.242c-.587-.59-1.61-.59-2.196 0l-3.725 3.745c-.024.024-.037.055-.055.083L28.295 45.415a.496.496 0 00-.121.199l-3.15 9.73a.501.501 0 00.117.506zm20.645-26.602l1.035 1.041-15.468 15.59-1.72-.392 16.153-16.239zm-13.81 17.424l15.55-15.674 2.428 2.44L34.262 49.01h-2.287v-2.338zm19.813-11.389l-16.187 16.38-.575-2.004L50.66 34.146l1.13 1.137zm-22.81 11.081l2 .457v2.69a.502.502 0 00.498.5h2.615l.631 2.204-8.458 2.533 2.714-8.384zM49.837 25.15a.566.566 0 01.786 0l5.217 5.243a.554.554 0 01-.002.79l-3.359 3.378-6.001-6.033 3.359-3.378z" fill="#fff"/></g><defs><clipPath id="clip0"><path fill="#fff" transform="translate(25 24)" d="M0 0h31.87v32H0z"/></clipPath></defs></svg>