<svg width="255" height="290" viewBox="0 0 255 290" fill="none" xmlns="http://www.w3.org/2000/svg"><path fill-rule="evenodd" clip-rule="evenodd" d="M175.763 36.185c3.977-4.665 6.669-10.382 6.219-16.788C180.686.939 154.973 5 149.971 14.316c-5.002 9.315-4.408 32.946 2.057 34.611 2.578.664 8.07-.962 13.659-4.329L162.179 69.4h20.716l-7.132-33.215z" fill="#D59C7B"/><path fill-rule="evenodd" clip-rule="evenodd" d="M177.355 40.34c2.6-11.558 10.007-19.437 8.876-24.603-.754-3.444-2.764-5.586-6.03-6.426C178.512 2.483 173.064-.42 163.858.6c-13.81 1.53-22.239 7.26-18.599 19.87 3.346 0 7.385-1.21 12.971.862 1.772.657 3.04 2.696 3.803 6.115h2.524c2.449-4.058 4.865-5.549 7.246-4.473 2.381 1.075 2.922 3.688 1.624 7.838l1.243 9.53h2.685z" fill="#191847"/><path fill-rule="evenodd" clip-rule="evenodd" d="M240.727 177.213h-99.264c-7.627 0-13.81 6.178-13.81 13.8v79.349c0 7.622 6.183 13.8 13.81 13.8h99.264c7.627 0 13.81-6.178 13.81-13.8v-79.349c0-7.622-6.183-13.8-13.81-13.8zm-13.811 24.15a3.451 3.451 0 013.453 3.45v51.749a3.451 3.451 0 01-3.453 3.45h-71.642a3.451 3.451 0 01-3.453-3.45v-51.749a3.451 3.451 0 013.453-3.45h71.642z" fill="#C5CFD6"/><path fill-rule="evenodd" clip-rule="evenodd" d="M42.063 279.85c17.018-20.765 28.533-36.16 34.544-46.184 10.294-17.163 18.718-32.434 21.377-38.268 6.339-13.912-14.595-20.426-19.333-13.937-7.171 9.821-22.486 40.725-45.945 92.712l9.357 5.677z" fill="#E6B192"/><path fill-rule="evenodd" clip-rule="evenodd" d="M76.936 273.813l31.671-79.664c6.774-14.522-25.938-24.068-30.917-17.309-11.302 15.343-38.165 75.871-41.532 80.442l40.778 16.531z" fill="#2F3676"/><path fill-rule="evenodd" clip-rule="evenodd" d="M161.288 257.838c-6.17-8.992-28.611-39.247-40.834-51.765a935.794 935.794 0 00-10.181-10.267c-9.635-9.564-28.819 6.508-19.202 15.219 23.95 21.693 58.895 50.978 61.815 53.589 4.092 3.66 12.28-1.124 8.402-6.776z" fill="#D49C7B"/><path fill-rule="evenodd" clip-rule="evenodd" d="M159.843 253.775c2.125 1.749 3.508 3.177 4.148 4.285.779 1.347 1.69 3.443 2.735 6.287l-42.159 24.32c-3.187-2.989-3.684-5.308-1.491-6.958a268.923 268.923 0 005.431-4.175l14.549-20.035a.864.864 0 011.206-.192l.02.015 3.024 2.327c2.774-.241 4.844-.756 6.21-1.544 1.11-.64 2.384-1.973 3.822-3.997a1.727 1.727 0 012.505-.333zm-110.46 22.972c.966 2.576 1.449 4.503 1.449 5.782 0 1.555-.26 3.825-.778 6.808H1.37c-1.265-4.179-.534-6.435 2.191-6.768 2.726-.333 4.99-.634 6.793-.903l22.628-10.08a.864.864 0 011.14.437l.01.022 1.454 3.526c2.523 1.176 4.574 1.765 6.151 1.765 1.282 0 3.052-.518 5.31-1.552a1.727 1.727 0 012.337.963z" fill="#E4E4E4"/><path fill-rule="evenodd" clip-rule="evenodd" d="M120.003 198.128c26.324-4.285 43.956-7.215 52.896-8.79 25.483-4.49 32.914-18.193 28.52-48.09h-46.952c-6.213 1.793-32.175 12.882-77.885 33.266-8.225 4.08-6.693 16.108-5.19 20.071.062.162 13.926 23.901 41.593 71.217l38.409-24.449-31.463-40.344c-.831-1.672-.807-2.632.072-2.881z" fill="#5C63AB"/><path fill-rule="evenodd" clip-rule="evenodd" d="M116.621 129.957L89.088 150.16c-7.468 2.014-13.707 4.519-18.717 7.516-1.183 1.077-2.614 3.26 2.294 2.882 4.909-.377 10.089-.553 10.766 1.12.677 1.673-2.293 3.673-.924 5.931.913 1.504 5.224-2.269 12.935-11.32l27.266-11.297-6.087-15.035zm105.714.698l-18.038.071c11.138 35.926 17.15 54.988 18.038 57.186 1.997 4.946-2.229 12.479-4.037 16.527 5.887 2.632 5.26-7.116 12.686-3.663 6.778 3.151 11.934 8.86 19.765 4.032.963-.594 2.018-2.829-.531-4.576-6.351-4.351-15.503-11.967-16.74-14.474-1.686-3.418-5.4-21.786-11.143-55.103z" fill="#D49C7B"/><path fill-rule="evenodd" clip-rule="evenodd" d="M171.074 55.024l-7.464-1.28c-27.693 23.905-39.067 69.829-73.012 94.156l8.17 10.12c58.888-7.286 73.484-63.302 72.306-102.996z" fill="#FF6E6E"/><path fill-rule="evenodd" clip-rule="evenodd" d="M203.611 148.75H137.57c-3.018 0-2.449-4.354-2.013-6.551 5.035-25.358 24.688-52.693 24.688-88.79l19.05-2.984c15.756 25.322 21.205 56.498 24.316 98.325z" fill="#DDE3E9"/><path fill-rule="evenodd" clip-rule="evenodd" d="M203.08 75.315c2.767-.795 4.958-2.648 6.573-5.56 6.963-12.554 4.448-19.466-2.993-21.738-7.441-2.272-14.076 2.408-25.931 2.408-.645 0-1.236.04-1.772.121l-5.964.34c-17.11 57.943-21.828 96.602-14.156 115.977h51.98c3.079 7.175 6.027 13.213 8.841 18.112h14.163c1.333-43.067-8.914-79.62-30.741-109.66z" fill="#EA464E"/><path fill-rule="evenodd" clip-rule="evenodd" d="M199.498 137.104c-1.634 13.668-4.291 23.587-7.971 29.759h19.29c-3.592-8.371-7.365-18.29-11.319-29.759z" fill="#000" fill-opacity=".1"/></svg>