<svg width="467" height="230" viewBox="0 0 467 230" fill="none" xmlns="http://www.w3.org/2000/svg"><mask id="a" style="mask-type:alpha" maskUnits="userSpaceOnUse" x="0" y="0" width="467" height="230"><path fill="#C4C4C4" d="M0 0h467v230H0z"/></mask><g mask="url(#a)"><path fill-rule="evenodd" clip-rule="evenodd" d="M467.218-69.92H339.782c-57.813 0-104.679 46.75-104.679 104.42s46.866 104.42 104.679 104.42h127.436c57.813 0 104.679-46.75 104.679-104.42S525.031-69.92 467.218-69.92zM339.782-79h127.436C530.058-79 581-28.184 581 34.5S530.058 148 467.218 148H339.782C276.942 148 226 97.184 226 34.5S276.942-79 339.782-79z" fill="#fff"/><mask id="b" fill="#fff"><path fill-rule="evenodd" clip-rule="evenodd" d="M245 148c0-23.748-19.252-43-43-43s-43 19.252-43 43h86z"/></mask><path d="M245 148v6h6v-6h-6zm-86 0h-6v6h6v-6zm43-37c20.435 0 37 16.565 37 37h12c0-27.062-21.938-49-49-49v12zm-37 37c0-20.435 16.565-37 37-37V99c-27.062 0-49 21.938-49 49h12zm-6 6h86v-12h-86v12z" fill="#fff" fill-opacity=".22" mask="url(#b)"/><path fill-rule="evenodd" clip-rule="evenodd" d="M372.347 99.805c3.557-4.181 5.964-9.306 5.562-15.047-1.159-16.544-24.156-12.904-28.629-4.555-4.473 8.35-3.942 29.53 1.84 31.022 2.305.595 7.217-.863 12.216-3.88l-3.138 22.23h18.527l-6.378-29.77z" fill="#B28B67"/><path fill-rule="evenodd" clip-rule="evenodd" d="M341.074 68.628c.384-1.35 1.416-2.507 2.806-2.85a3.698 3.698 0 011.033-.103c.124.005.159.041.217-.046.044-.065.045-.223.062-.299.056-.236.125-.469.21-.696.291-.775.78-1.46 1.369-2.038 1.103-1.081 2.593-1.827 4.141-1.962.847-.074 1.688.064 2.489.34.414.143.816.32 1.208.518.118.059.5.349.619.33.13-.02.393-.346.499-.428 1.314-1.009 2.936-1.406 4.572-1.394 1.846.014 3.624.107 5.164 1.234a10.254 10.254 0 011.382 1.227c.087.094.172.19.253.29.138.168.116.223.309.106.741-.451 1.6-.662 2.465-.556a5.508 5.508 0 011.488.421c.162.07.536.346.708.348.171.003.539-.253.715-.318a5.86 5.86 0 012.974-.276 7.67 7.67 0 012.916 1.149c.42.273.786.577 1.081.984.127.175.242.361.386.524.084.095.251.193.296.314-.027-.072 1.127-.518 1.236-.546a3.04 3.04 0 011.739.066c1.068.352 1.987 1.142 2.742 1.951a7.78 7.78 0 011.015 1.365c.139.235.265.476.38.722.056.12.093.269.167.376.095.139.159.142.331.202a5.338 5.338 0 012.278 1.528 5.262 5.262 0 011.18 2.504c.01.054.015.279.047.308.044.04.219.023.286.03.23.028.459.068.685.121.416.099.82.244 1.203.434 1.493.74 2.561 2.126 3.084 3.687.548 1.637.538 3.514-.117 5.12a4.98 4.98 0 01-.38.75c-.091.147-.12.147-.061.3.066.172.186.338.264.504a7.22 7.22 0 01.545 1.712c.185.968.276 1.985.094 2.96a4.306 4.306 0 01-.456 1.299 3.783 3.783 0 01-.65.85c-.05.048-.115.091-.158.146-.103.133-.125.024-.071.22.074.273.244.543.347.81.107.274.204.552.292.833.179.569.33 1.148.425 1.737.182 1.131.15 2.337-.385 3.375a3.372 3.372 0 01-1.58 1.517c-.113.054-.258.078-.31.188-.056.118.027.353.046.485.164 1.15.247 2.358-.095 3.486a4.819 4.819 0 01-1.906 2.562c-1.745 1.178-4.096 1.111-5.929.169a6.253 6.253 0 01-1.323-.911c-1.015 1.369-3.104 1.325-4.588.935-1.849-.486-3.332-1.773-4.187-3.464-1.169 1.424-3.621.962-4.432-.583a3.724 3.724 0 01-.374-1.217c-.03-.222-.011-.446-.034-.666-.029-.281-.216-.553-.323-.824a4.533 4.533 0 01-.345-1.643c-.003-.298.034-.587.062-.882.026-.266-.048-.513-.089-.775.474.078 1.051-.05 1.498-.188.438-.135.849-.49 1.158-.816.719-.754 1.158-1.743 1.458-2.728.659-2.16.389-4.753-1.782-5.94-1.011-.552-4.04-.55-5.244-.277-1.266.287-2.702 3.085-2.772 3.348-.044.163-.022.364-.171.473-.328.238-.87-.176-1.112-.38-.417-.353-.715-.822-.973-1.297a16.062 16.062 0 01-1.336-3.28c-.247-.874-.404-1.775-.727-2.627-.321-.848-.827-1.605-1.614-2.086-.856-.522-1.837-.797-2.776-1.125-.932-.326-1.847-.723-2.569-1.413a3.552 3.552 0 01-.441-.492c-.1-.141-.2-.412-.354-.5-.239-.14-.587.222-.794.353-1.019.649-1.87 1.553-2.556 2.54-.682.983-1.241 1.928-1.696 3.025-.337.813-.548 1.855-1.141 2.522-.265.298-2.234.478-2.872.218-.638-.26-1.352-.935-1.566-1.358a2.11 2.11 0 01-.178-1.382c.055-.279.167-.54.229-.813.052-.23.099-.448.211-.658.211-.4.573-.687 1.01-.807a4.748 4.748 0 01-1.091-1.482c-.271-.583-.5-1.292-.565-1.931-.053-.52.028-1.058.312-1.505.298-.468.826-.774 1.283-1.066a8.345 8.345 0 01-1.786-1.947c-.954-1.431-1.545-3.235-1.06-4.941z" fill="#191847"/><path fill-rule="evenodd" clip-rule="evenodd" d="M384.845 193.546l-37.117 98.352-26.015 72.491h-14.835l35.762-170.843h42.205z" fill="#1F28CF"/><path fill-rule="evenodd" clip-rule="evenodd" d="M394.018 193.546c.404 33.747.112 79.181 1.052 81.285.627 1.402 20.119 17.381 58.478 47.935l-7.646 13.02c-45.541-29.41-69.475-46.074-71.803-49.992-3.493-5.878-21.039-59.963-30.167-92.248h50.086z" fill="#2B44FF"/><path fill-rule="evenodd" clip-rule="evenodd" d="M319.413 183.767l-24.624 18.107c-6.678 1.805-12.258 4.05-16.739 6.736-1.058.966-2.338 2.922 2.052 2.584 4.39-.338 9.022-.496 9.628 1.003.606 1.5-2.051 3.293-.827 5.316.817 1.348 4.673-2.033 11.569-10.146l24.384-10.125-5.443-13.475zm94.542.625l-16.131.063c9.96 32.2 15.337 49.285 16.131 51.256 1.787 4.433-1.993 11.184-3.61 14.812 5.265 2.359 4.704-6.377 11.345-3.283 6.062 2.824 10.673 7.941 17.677 3.614.861-.532 1.804-2.536-.475-4.101-5.68-3.9-13.865-10.726-14.971-12.973-1.508-3.064-4.83-19.527-9.966-49.388z" fill="#B28B67"/><path fill-rule="evenodd" clip-rule="evenodd" d="M368.113 116.605l-6.675-1.147c-24.767 21.425-34.939 62.586-65.297 84.39l7.307 9.07c52.665-6.53 65.719-56.736 64.665-92.313z" fill="#D62E36"/><path fill-rule="evenodd" clip-rule="evenodd" d="M397.21 200.61h-59.063c-2.699 0-2.19-3.902-1.8-5.872 4.503-22.728 22.079-47.227 22.079-79.58l17.037-2.675c14.091 22.695 18.964 50.638 21.747 88.127z" fill="#DDE3E9"/><path fill-rule="evenodd" clip-rule="evenodd" d="M396.734 134.792c2.475-.713 4.434-2.374 5.879-4.984 6.227-11.252 3.978-17.447-2.677-19.483-6.654-2.036-12.589 2.158-23.191 2.158-.577 0-1.105.036-1.585.109l-5.333.305c-15.302 51.933-19.522 86.582-12.66 103.947h46.486c2.755 6.432 5.39 11.843 7.907 16.234h12.667c1.192-38.6-7.972-71.362-27.493-98.286z" fill="#EA464E"/><path fill-rule="evenodd" clip-rule="evenodd" d="M393.531 190.172c-1.462 12.25-3.838 21.141-7.128 26.672h17.251c-3.213-7.502-6.587-16.393-10.123-26.672z" fill="#000" fill-opacity=".1"/><path fill-rule="evenodd" clip-rule="evenodd" d="M154.072 95.063c-2.651 9.767-6.105 31.72-2.58 35.164h22.298l.007-.118c8.264-.915 14.692-7.922 14.692-16.431V97.531c0-9.13-7.401-16.531-16.531-16.531h-1.538c-8.291 0-15.157 6.104-16.348 14.063z" fill="#191847"/><path fill-rule="evenodd" clip-rule="evenodd" d="M179.831 110.595c3.543-4.159 5.941-9.255 5.54-14.966-1.155-16.455-24.06-12.836-28.516-4.53-4.456 8.305-3.926 29.371 1.832 30.855 2.297.592 7.189-.858 12.168-3.859l-3.125 22.11h18.454l-6.353-29.61z" fill="#D4A181"/><path fill-rule="evenodd" clip-rule="evenodd" d="M174.841 107.815c-.85 9.133-.509 19.563 2.025 22.039h22.298c1.242-21.586-10.765-13.227-10.765-33.55-.749-.732-1.456-1.456-2.156-2.08l.025-.598c-3.861-7.905-8.76-11.857-14.696-11.857-8.904 0-11.714 4.143-14.107 7.66 1.789 6.14 8.733 7.05 14.904 10.878a4.229 4.229 0 112.472 7.508z" fill="#191847"/><path fill-rule="evenodd" clip-rule="evenodd" d="M152.149 294.62c.178-.267.328-.558.447-.873 2.466-6.52 41.958-76.862 45.892-89.722h-44.462c-2.992 9.778-16.456 71.138-18.35 83.381-5.979 19.311-18.288 81.852-19.859 86.185-1.653 4.558 7.648 9.306 10.126 3.703 3.944-8.916 13.341-33.586 17.525-48.65 3.922-14.122 7.116-26.827 8.681-34.024z" fill="#BA8B72"/><path fill-rule="evenodd" clip-rule="evenodd" d="M188.525 303.208c18.055 4.564 84.097 12.813 88.629 14.107 4.662 1.331 8.75-8.278 2.987-10.36-9.169-3.312-34.435-10.965-49.753-14.088-12.322-2.512-23.565-4.562-31.114-5.762.64-21.204 3.563-72.09 1.647-83.08H161.58c1.837 10.539 17.369 87.438 20.256 95.135.916 2.748 3.65 3.962 6.689 4.048z" fill="#D4A181"/><path fill-rule="evenodd" clip-rule="evenodd" d="M200.795 204.025c-17.337-4.96-33.74-4.96-49.21 0-5.383 24.557-18.461 34.303-20.761 71.953 26.143 12.99 58.437-9.264 85.349 3.403 7.689-17.718-3.076-60.39-15.378-75.356z" fill="#2B44FF"/><path fill-rule="evenodd" clip-rule="evenodd" d="M126.21 173.508l-30.359-4.141c-6.073-3.378-11.66-5.665-16.76-6.86-1.435-.042-3.719.48-.317 3.315 3.401 2.836 6.853 5.973 6.247 7.487-.606 1.513-3.77.95-4.294 3.278-.35 1.552 4.785 1.804 15.403.756l24.633 9.766 5.447-13.601zm95.367 7.027l-16.837.063c18.462 41.547 28.089 63.3 28.88 65.26 1.779 4.409-1.986 11.124-3.596 14.733 5.244 2.347 4.685-6.343 11.3-3.266 6.038 2.809 10.631 7.899 17.607 3.595.858-.529 1.798-2.522-.473-4.079-5.658-3.879-13.81-10.669-14.912-12.903-1.502-3.048-8.825-24.182-21.969-63.403z" fill="#D4A181"/><path fill-rule="evenodd" clip-rule="evenodd" d="M175.458 127.134l-13.182.879c-3.247 29.373-20.931 47.926-60.526 41.645l-5.26 37.826c37.007 4.783 69.462-10.034 76.114-50.148 1.721-10.385 3.081-21.192 2.854-30.202z" fill="#AFB9C5"/><path fill-rule="evenodd" clip-rule="evenodd" d="M181.963 123.302l-19.974 4.575c0 34.354-10.943 56.272-16.556 81.53h53.944c.76 8.728 1.226 17.699 1.469 26.912h40.391c-9.153-48.699-28.471-86.376-57.955-113.029h-1.308l-.011.012z" fill="#C5CFD6"/><path fill-rule="evenodd" clip-rule="evenodd" d="M190.864 160.397c1.39 21.407.573 37.744-2.453 49.01h10.964c-1.505-17.289-4.161-33.626-8.511-49.01z" fill="#000" fill-opacity=".1"/></g></svg>