<svg width="32" height="32" viewBox="0 0 32 32" fill="none" xmlns="http://www.w3.org/2000/svg"><path d="M16.358 23.027a1.23 1.23 0 01-1.72.014l-.02-.02-6.107-6.154a1.23 1.23 0 01-.02-1.713l.02-.02 6.106-6.155a1.23 1.23 0 011.767 1.714l-.02.02L11.12 16l5.246 5.287a1.23 1.23 0 01.013 1.72l-.02.02z" fill="#39385E"/><path d="M10.233 17.23a1.23 1.23 0 01-.025-2.46h12.407a1.23 1.23 0 01.024 2.46H10.233z" fill="#39385E"/><path fill-rule="evenodd" clip-rule="evenodd" d="M32 16c0 8.834-7.166 16-16 16S0 24.834 0 16 7.166 0 16 0s16 7.166 16 16zM2.462 16c0 7.474 6.064 13.538 13.538 13.538S29.538 23.474 29.538 16 23.474 2.462 16 2.462 2.462 8.526 2.462 16z" fill="#39385E"/></svg>